%TF.GenerationSoftware,KiCad,Pcbnew,9.0.7*%
%TF.CreationDate,2026-05-07T01:25:39-04:00*%
%TF.ProjectId,projet-fin-session,70726f6a-6574-42d6-9669-6e2d73657373,rev?*%
%TF.SameCoordinates,Original*%
%TF.FileFunction,Legend,Top*%
%TF.FilePolarity,Positive*%
%FSLAX46Y46*%
G04 Gerber Fmt 4.6, Leading zero omitted, Abs format (unit mm)*
G04 Created by KiCad (PCBNEW 9.0.7) date 2026-05-07 01:25:39*
%MOMM*%
%LPD*%
G01*
G04 APERTURE LIST*
%ADD10C,0.150000*%
%ADD11C,0.100000*%
%ADD12C,0.152400*%
%ADD13C,0.120000*%
G04 APERTURE END LIST*
D10*
X37166666Y-104504819D02*
X36833333Y-104028628D01*
X36595238Y-104504819D02*
X36595238Y-103504819D01*
X36595238Y-103504819D02*
X36976190Y-103504819D01*
X36976190Y-103504819D02*
X37071428Y-103552438D01*
X37071428Y-103552438D02*
X37119047Y-103600057D01*
X37119047Y-103600057D02*
X37166666Y-103695295D01*
X37166666Y-103695295D02*
X37166666Y-103838152D01*
X37166666Y-103838152D02*
X37119047Y-103933390D01*
X37119047Y-103933390D02*
X37071428Y-103981009D01*
X37071428Y-103981009D02*
X36976190Y-104028628D01*
X36976190Y-104028628D02*
X36595238Y-104028628D01*
X37595238Y-103981009D02*
X37928571Y-103981009D01*
X38071428Y-104504819D02*
X37595238Y-104504819D01*
X37595238Y-104504819D02*
X37595238Y-103504819D01*
X37595238Y-103504819D02*
X38071428Y-103504819D01*
X38833333Y-103981009D02*
X38500000Y-103981009D01*
X38500000Y-104504819D02*
X38500000Y-103504819D01*
X38500000Y-103504819D02*
X38976190Y-103504819D01*
X39500000Y-103504819D02*
X39500000Y-103742914D01*
X39261905Y-103647676D02*
X39500000Y-103742914D01*
X39500000Y-103742914D02*
X39738095Y-103647676D01*
X39357143Y-103933390D02*
X39500000Y-103742914D01*
X39500000Y-103742914D02*
X39642857Y-103933390D01*
X40261905Y-103504819D02*
X40261905Y-103742914D01*
X40023810Y-103647676D02*
X40261905Y-103742914D01*
X40261905Y-103742914D02*
X40500000Y-103647676D01*
X40119048Y-103933390D02*
X40261905Y-103742914D01*
X40261905Y-103742914D02*
X40404762Y-103933390D01*
X139666666Y-103504819D02*
X139333333Y-103028628D01*
X139095238Y-103504819D02*
X139095238Y-102504819D01*
X139095238Y-102504819D02*
X139476190Y-102504819D01*
X139476190Y-102504819D02*
X139571428Y-102552438D01*
X139571428Y-102552438D02*
X139619047Y-102600057D01*
X139619047Y-102600057D02*
X139666666Y-102695295D01*
X139666666Y-102695295D02*
X139666666Y-102838152D01*
X139666666Y-102838152D02*
X139619047Y-102933390D01*
X139619047Y-102933390D02*
X139571428Y-102981009D01*
X139571428Y-102981009D02*
X139476190Y-103028628D01*
X139476190Y-103028628D02*
X139095238Y-103028628D01*
X140095238Y-102981009D02*
X140428571Y-102981009D01*
X140571428Y-103504819D02*
X140095238Y-103504819D01*
X140095238Y-103504819D02*
X140095238Y-102504819D01*
X140095238Y-102504819D02*
X140571428Y-102504819D01*
X141333333Y-102981009D02*
X141000000Y-102981009D01*
X141000000Y-103504819D02*
X141000000Y-102504819D01*
X141000000Y-102504819D02*
X141476190Y-102504819D01*
X142000000Y-102504819D02*
X142000000Y-102742914D01*
X141761905Y-102647676D02*
X142000000Y-102742914D01*
X142000000Y-102742914D02*
X142238095Y-102647676D01*
X141857143Y-102933390D02*
X142000000Y-102742914D01*
X142000000Y-102742914D02*
X142142857Y-102933390D01*
X142761905Y-102504819D02*
X142761905Y-102742914D01*
X142523810Y-102647676D02*
X142761905Y-102742914D01*
X142761905Y-102742914D02*
X143000000Y-102647676D01*
X142619048Y-102933390D02*
X142761905Y-102742914D01*
X142761905Y-102742914D02*
X142904762Y-102933390D01*
X139666666Y-42004819D02*
X139333333Y-41528628D01*
X139095238Y-42004819D02*
X139095238Y-41004819D01*
X139095238Y-41004819D02*
X139476190Y-41004819D01*
X139476190Y-41004819D02*
X139571428Y-41052438D01*
X139571428Y-41052438D02*
X139619047Y-41100057D01*
X139619047Y-41100057D02*
X139666666Y-41195295D01*
X139666666Y-41195295D02*
X139666666Y-41338152D01*
X139666666Y-41338152D02*
X139619047Y-41433390D01*
X139619047Y-41433390D02*
X139571428Y-41481009D01*
X139571428Y-41481009D02*
X139476190Y-41528628D01*
X139476190Y-41528628D02*
X139095238Y-41528628D01*
X140095238Y-41481009D02*
X140428571Y-41481009D01*
X140571428Y-42004819D02*
X140095238Y-42004819D01*
X140095238Y-42004819D02*
X140095238Y-41004819D01*
X140095238Y-41004819D02*
X140571428Y-41004819D01*
X141333333Y-41481009D02*
X141000000Y-41481009D01*
X141000000Y-42004819D02*
X141000000Y-41004819D01*
X141000000Y-41004819D02*
X141476190Y-41004819D01*
X142000000Y-41004819D02*
X142000000Y-41242914D01*
X141761905Y-41147676D02*
X142000000Y-41242914D01*
X142000000Y-41242914D02*
X142238095Y-41147676D01*
X141857143Y-41433390D02*
X142000000Y-41242914D01*
X142000000Y-41242914D02*
X142142857Y-41433390D01*
X142761905Y-41004819D02*
X142761905Y-41242914D01*
X142523810Y-41147676D02*
X142761905Y-41242914D01*
X142761905Y-41242914D02*
X143000000Y-41147676D01*
X142619048Y-41433390D02*
X142761905Y-41242914D01*
X142761905Y-41242914D02*
X142904762Y-41433390D01*
X37666666Y-41504819D02*
X37333333Y-41028628D01*
X37095238Y-41504819D02*
X37095238Y-40504819D01*
X37095238Y-40504819D02*
X37476190Y-40504819D01*
X37476190Y-40504819D02*
X37571428Y-40552438D01*
X37571428Y-40552438D02*
X37619047Y-40600057D01*
X37619047Y-40600057D02*
X37666666Y-40695295D01*
X37666666Y-40695295D02*
X37666666Y-40838152D01*
X37666666Y-40838152D02*
X37619047Y-40933390D01*
X37619047Y-40933390D02*
X37571428Y-40981009D01*
X37571428Y-40981009D02*
X37476190Y-41028628D01*
X37476190Y-41028628D02*
X37095238Y-41028628D01*
X38095238Y-40981009D02*
X38428571Y-40981009D01*
X38571428Y-41504819D02*
X38095238Y-41504819D01*
X38095238Y-41504819D02*
X38095238Y-40504819D01*
X38095238Y-40504819D02*
X38571428Y-40504819D01*
X39333333Y-40981009D02*
X39000000Y-40981009D01*
X39000000Y-41504819D02*
X39000000Y-40504819D01*
X39000000Y-40504819D02*
X39476190Y-40504819D01*
X40000000Y-40504819D02*
X40000000Y-40742914D01*
X39761905Y-40647676D02*
X40000000Y-40742914D01*
X40000000Y-40742914D02*
X40238095Y-40647676D01*
X39857143Y-40933390D02*
X40000000Y-40742914D01*
X40000000Y-40742914D02*
X40142857Y-40933390D01*
X40761905Y-40504819D02*
X40761905Y-40742914D01*
X40523810Y-40647676D02*
X40761905Y-40742914D01*
X40761905Y-40742914D02*
X41000000Y-40647676D01*
X40619048Y-40933390D02*
X40761905Y-40742914D01*
X40761905Y-40742914D02*
X40904762Y-40933390D01*
X135476261Y-59954819D02*
X135142928Y-59478628D01*
X134904833Y-59954819D02*
X134904833Y-58954819D01*
X134904833Y-58954819D02*
X135285785Y-58954819D01*
X135285785Y-58954819D02*
X135381023Y-59002438D01*
X135381023Y-59002438D02*
X135428642Y-59050057D01*
X135428642Y-59050057D02*
X135476261Y-59145295D01*
X135476261Y-59145295D02*
X135476261Y-59288152D01*
X135476261Y-59288152D02*
X135428642Y-59383390D01*
X135428642Y-59383390D02*
X135381023Y-59431009D01*
X135381023Y-59431009D02*
X135285785Y-59478628D01*
X135285785Y-59478628D02*
X134904833Y-59478628D01*
X135761976Y-58954819D02*
X136095309Y-59954819D01*
X136095309Y-59954819D02*
X136428642Y-58954819D01*
X136714357Y-59050057D02*
X136761976Y-59002438D01*
X136761976Y-59002438D02*
X136857214Y-58954819D01*
X136857214Y-58954819D02*
X137095309Y-58954819D01*
X137095309Y-58954819D02*
X137190547Y-59002438D01*
X137190547Y-59002438D02*
X137238166Y-59050057D01*
X137238166Y-59050057D02*
X137285785Y-59145295D01*
X137285785Y-59145295D02*
X137285785Y-59240533D01*
X137285785Y-59240533D02*
X137238166Y-59383390D01*
X137238166Y-59383390D02*
X136666738Y-59954819D01*
X136666738Y-59954819D02*
X137285785Y-59954819D01*
X117364761Y-59942119D02*
X117031428Y-59465928D01*
X116793333Y-59942119D02*
X116793333Y-58942119D01*
X116793333Y-58942119D02*
X117174285Y-58942119D01*
X117174285Y-58942119D02*
X117269523Y-58989738D01*
X117269523Y-58989738D02*
X117317142Y-59037357D01*
X117317142Y-59037357D02*
X117364761Y-59132595D01*
X117364761Y-59132595D02*
X117364761Y-59275452D01*
X117364761Y-59275452D02*
X117317142Y-59370690D01*
X117317142Y-59370690D02*
X117269523Y-59418309D01*
X117269523Y-59418309D02*
X117174285Y-59465928D01*
X117174285Y-59465928D02*
X116793333Y-59465928D01*
X117650476Y-58942119D02*
X117983809Y-59942119D01*
X117983809Y-59942119D02*
X118317142Y-58942119D01*
X119174285Y-59942119D02*
X118602857Y-59942119D01*
X118888571Y-59942119D02*
X118888571Y-58942119D01*
X118888571Y-58942119D02*
X118793333Y-59084976D01*
X118793333Y-59084976D02*
X118698095Y-59180214D01*
X118698095Y-59180214D02*
X118602857Y-59227833D01*
X120333333Y-85084819D02*
X120000000Y-84608628D01*
X119761905Y-85084819D02*
X119761905Y-84084819D01*
X119761905Y-84084819D02*
X120142857Y-84084819D01*
X120142857Y-84084819D02*
X120238095Y-84132438D01*
X120238095Y-84132438D02*
X120285714Y-84180057D01*
X120285714Y-84180057D02*
X120333333Y-84275295D01*
X120333333Y-84275295D02*
X120333333Y-84418152D01*
X120333333Y-84418152D02*
X120285714Y-84513390D01*
X120285714Y-84513390D02*
X120238095Y-84561009D01*
X120238095Y-84561009D02*
X120142857Y-84608628D01*
X120142857Y-84608628D02*
X119761905Y-84608628D01*
X120666667Y-84084819D02*
X121285714Y-84084819D01*
X121285714Y-84084819D02*
X120952381Y-84465771D01*
X120952381Y-84465771D02*
X121095238Y-84465771D01*
X121095238Y-84465771D02*
X121190476Y-84513390D01*
X121190476Y-84513390D02*
X121238095Y-84561009D01*
X121238095Y-84561009D02*
X121285714Y-84656247D01*
X121285714Y-84656247D02*
X121285714Y-84894342D01*
X121285714Y-84894342D02*
X121238095Y-84989580D01*
X121238095Y-84989580D02*
X121190476Y-85037200D01*
X121190476Y-85037200D02*
X121095238Y-85084819D01*
X121095238Y-85084819D02*
X120809524Y-85084819D01*
X120809524Y-85084819D02*
X120714286Y-85037200D01*
X120714286Y-85037200D02*
X120666667Y-84989580D01*
X120333333Y-97084819D02*
X120000000Y-96608628D01*
X119761905Y-97084819D02*
X119761905Y-96084819D01*
X119761905Y-96084819D02*
X120142857Y-96084819D01*
X120142857Y-96084819D02*
X120238095Y-96132438D01*
X120238095Y-96132438D02*
X120285714Y-96180057D01*
X120285714Y-96180057D02*
X120333333Y-96275295D01*
X120333333Y-96275295D02*
X120333333Y-96418152D01*
X120333333Y-96418152D02*
X120285714Y-96513390D01*
X120285714Y-96513390D02*
X120238095Y-96561009D01*
X120238095Y-96561009D02*
X120142857Y-96608628D01*
X120142857Y-96608628D02*
X119761905Y-96608628D01*
X121285714Y-97084819D02*
X120714286Y-97084819D01*
X121000000Y-97084819D02*
X121000000Y-96084819D01*
X121000000Y-96084819D02*
X120904762Y-96227676D01*
X120904762Y-96227676D02*
X120809524Y-96322914D01*
X120809524Y-96322914D02*
X120714286Y-96370533D01*
D11*
X88601666Y-75922419D02*
X88601666Y-76636704D01*
X88601666Y-76636704D02*
X88554047Y-76779561D01*
X88554047Y-76779561D02*
X88458809Y-76874800D01*
X88458809Y-76874800D02*
X88315952Y-76922419D01*
X88315952Y-76922419D02*
X88220714Y-76922419D01*
X88982619Y-75922419D02*
X89601666Y-75922419D01*
X89601666Y-75922419D02*
X89268333Y-76303371D01*
X89268333Y-76303371D02*
X89411190Y-76303371D01*
X89411190Y-76303371D02*
X89506428Y-76350990D01*
X89506428Y-76350990D02*
X89554047Y-76398609D01*
X89554047Y-76398609D02*
X89601666Y-76493847D01*
X89601666Y-76493847D02*
X89601666Y-76731942D01*
X89601666Y-76731942D02*
X89554047Y-76827180D01*
X89554047Y-76827180D02*
X89506428Y-76874800D01*
X89506428Y-76874800D02*
X89411190Y-76922419D01*
X89411190Y-76922419D02*
X89125476Y-76922419D01*
X89125476Y-76922419D02*
X89030238Y-76874800D01*
X89030238Y-76874800D02*
X88982619Y-76827180D01*
X55976666Y-96457419D02*
X55976666Y-97171704D01*
X55976666Y-97171704D02*
X55929047Y-97314561D01*
X55929047Y-97314561D02*
X55833809Y-97409800D01*
X55833809Y-97409800D02*
X55690952Y-97457419D01*
X55690952Y-97457419D02*
X55595714Y-97457419D01*
X56405238Y-96552657D02*
X56452857Y-96505038D01*
X56452857Y-96505038D02*
X56548095Y-96457419D01*
X56548095Y-96457419D02*
X56786190Y-96457419D01*
X56786190Y-96457419D02*
X56881428Y-96505038D01*
X56881428Y-96505038D02*
X56929047Y-96552657D01*
X56929047Y-96552657D02*
X56976666Y-96647895D01*
X56976666Y-96647895D02*
X56976666Y-96743133D01*
X56976666Y-96743133D02*
X56929047Y-96885990D01*
X56929047Y-96885990D02*
X56357619Y-97457419D01*
X56357619Y-97457419D02*
X56976666Y-97457419D01*
X52666666Y-63457419D02*
X52666666Y-64171704D01*
X52666666Y-64171704D02*
X52619047Y-64314561D01*
X52619047Y-64314561D02*
X52523809Y-64409800D01*
X52523809Y-64409800D02*
X52380952Y-64457419D01*
X52380952Y-64457419D02*
X52285714Y-64457419D01*
X53666666Y-64457419D02*
X53095238Y-64457419D01*
X53380952Y-64457419D02*
X53380952Y-63457419D01*
X53380952Y-63457419D02*
X53285714Y-63600276D01*
X53285714Y-63600276D02*
X53190476Y-63695514D01*
X53190476Y-63695514D02*
X53095238Y-63743133D01*
D10*
X133991905Y-83494819D02*
X133991905Y-82494819D01*
X133991905Y-82494819D02*
X134230000Y-82494819D01*
X134230000Y-82494819D02*
X134372857Y-82542438D01*
X134372857Y-82542438D02*
X134468095Y-82637676D01*
X134468095Y-82637676D02*
X134515714Y-82732914D01*
X134515714Y-82732914D02*
X134563333Y-82923390D01*
X134563333Y-82923390D02*
X134563333Y-83066247D01*
X134563333Y-83066247D02*
X134515714Y-83256723D01*
X134515714Y-83256723D02*
X134468095Y-83351961D01*
X134468095Y-83351961D02*
X134372857Y-83447200D01*
X134372857Y-83447200D02*
X134230000Y-83494819D01*
X134230000Y-83494819D02*
X133991905Y-83494819D01*
X134944286Y-82590057D02*
X134991905Y-82542438D01*
X134991905Y-82542438D02*
X135087143Y-82494819D01*
X135087143Y-82494819D02*
X135325238Y-82494819D01*
X135325238Y-82494819D02*
X135420476Y-82542438D01*
X135420476Y-82542438D02*
X135468095Y-82590057D01*
X135468095Y-82590057D02*
X135515714Y-82685295D01*
X135515714Y-82685295D02*
X135515714Y-82780533D01*
X135515714Y-82780533D02*
X135468095Y-82923390D01*
X135468095Y-82923390D02*
X134896667Y-83494819D01*
X134896667Y-83494819D02*
X135515714Y-83494819D01*
X134031905Y-94994819D02*
X134031905Y-93994819D01*
X134031905Y-93994819D02*
X134270000Y-93994819D01*
X134270000Y-93994819D02*
X134412857Y-94042438D01*
X134412857Y-94042438D02*
X134508095Y-94137676D01*
X134508095Y-94137676D02*
X134555714Y-94232914D01*
X134555714Y-94232914D02*
X134603333Y-94423390D01*
X134603333Y-94423390D02*
X134603333Y-94566247D01*
X134603333Y-94566247D02*
X134555714Y-94756723D01*
X134555714Y-94756723D02*
X134508095Y-94851961D01*
X134508095Y-94851961D02*
X134412857Y-94947200D01*
X134412857Y-94947200D02*
X134270000Y-94994819D01*
X134270000Y-94994819D02*
X134031905Y-94994819D01*
X135555714Y-94994819D02*
X134984286Y-94994819D01*
X135270000Y-94994819D02*
X135270000Y-93994819D01*
X135270000Y-93994819D02*
X135174762Y-94137676D01*
X135174762Y-94137676D02*
X135079524Y-94232914D01*
X135079524Y-94232914D02*
X134984286Y-94280533D01*
D12*
%TO.C,RV2*%
X130166000Y-62052700D02*
G75*
G02*
X129912000Y-62052700I-127000J0D01*
G01*
X129912000Y-62052700D02*
G75*
G02*
X130166000Y-62052700I127000J0D01*
G01*
X131182000Y-54610500D02*
X140961000Y-54610500D01*
X140961000Y-54610500D02*
X140961000Y-64389500D01*
X140961000Y-64389500D02*
X131182000Y-64389500D01*
X131182000Y-64389500D02*
X131182000Y-54610500D01*
%TO.C,RV1*%
X112054500Y-62040000D02*
G75*
G02*
X111800500Y-62040000I-127000J0D01*
G01*
X111800500Y-62040000D02*
G75*
G02*
X112054500Y-62040000I127000J0D01*
G01*
X113070500Y-54597800D02*
X122849500Y-54597800D01*
X122849500Y-54597800D02*
X122849500Y-64376800D01*
X122849500Y-64376800D02*
X113070500Y-64376800D01*
X113070500Y-64376800D02*
X113070500Y-54597800D01*
D13*
%TO.C,R3*%
X117230000Y-85630000D02*
X123770000Y-85630000D01*
X117230000Y-85960000D02*
X117230000Y-85630000D01*
X117230000Y-88040000D02*
X117230000Y-88370000D01*
X117230000Y-88370000D02*
X123770000Y-88370000D01*
X123770000Y-85630000D02*
X123770000Y-85960000D01*
X123770000Y-88370000D02*
X123770000Y-88040000D01*
%TO.C,R1*%
X117230000Y-97630000D02*
X123770000Y-97630000D01*
X117230000Y-97960000D02*
X117230000Y-97630000D01*
X117230000Y-100040000D02*
X117230000Y-100370000D01*
X117230000Y-100370000D02*
X123770000Y-100370000D01*
X123770000Y-97630000D02*
X123770000Y-97960000D01*
X123770000Y-100370000D02*
X123770000Y-100040000D01*
%TO.C,J3*%
D11*
X68615000Y-54105000D02*
X109255000Y-54105000D01*
X109255000Y-102365000D01*
X68615000Y-102365000D01*
X68615000Y-54105000D01*
%TO.C,J2*%
X38530000Y-92420000D02*
X66470000Y-92420000D01*
X66470000Y-102580000D01*
X38530000Y-102580000D01*
X38530000Y-92420000D01*
%TO.C,J1*%
X42840000Y-54340000D02*
X63160000Y-54340000D01*
X63160000Y-79740000D01*
X42840000Y-79740000D01*
X42840000Y-54340000D01*
D13*
%TO.C,D2*%
X132170000Y-85455000D02*
X132170000Y-88545000D01*
X132170000Y-85455170D02*
G75*
G02*
X137720000Y-87000000I2560000J-1544830D01*
G01*
X137720000Y-87000000D02*
G75*
G02*
X132170000Y-88544830I-2990000J0D01*
G01*
X137230000Y-87000000D02*
G75*
G02*
X132230000Y-87000000I-2500000J0D01*
G01*
X132230000Y-87000000D02*
G75*
G02*
X137230000Y-87000000I2500000J0D01*
G01*
%TO.C,D1*%
X132210000Y-96955000D02*
X132210000Y-100045000D01*
X132210000Y-96955170D02*
G75*
G02*
X137760000Y-98500000I2560000J-1544830D01*
G01*
X137760000Y-98500000D02*
G75*
G02*
X132210000Y-100044830I-2990000J0D01*
G01*
X137270000Y-98500000D02*
G75*
G02*
X132270000Y-98500000I-2500000J0D01*
G01*
X132270000Y-98500000D02*
G75*
G02*
X137270000Y-98500000I2500000J0D01*
G01*
%TD*%
M02*
