M48
; DRILL file {KiCad 9.0.7} date 2026-05-07T01:26:03-0400
; FORMAT={-:-/ absolute / metric / decimal}
; #@! TF.CreationDate,2026-05-07T01:26:03-04:00
; #@! TF.GenerationSoftware,Kicad,Pcbnew,9.0.7
; #@! TF.FileFunction,MixedPlating,1,2
FMAT,2
METRIC
; #@! TA.AperFunction,Plated,PTH,ViaDrill
T1C0.300
; #@! TA.AperFunction,Plated,PTH,ComponentDrill
T2C0.800
; #@! TA.AperFunction,Plated,PTH,ComponentDrill
T3C0.813
; #@! TA.AperFunction,Plated,PTH,ComponentDrill
T4C0.900
; #@! TA.AperFunction,NonPlated,NPTH,ComponentDrill
T5C3.500
%
G90
G05
T1
X37.0Y-87.5
X37.5Y-69.0
X38.0Y-58.5
X50.0Y-44.5
X54.5Y-107.5
X56.5Y-85.5
X68.0Y-44.0
X77.5Y-109.0
X81.0Y-82.0
X83.0Y-56.0
X86.5Y-44.0
X92.5Y-89.0
X97.5Y-69.0
X103.0Y-109.0
X103.5Y-44.5
X119.0Y-74.5
X127.5Y-46.0
X130.0Y-108.5
X134.5Y-72.0
X146.0Y-86.0
T2
X60.62Y-59.42
X60.62Y-61.96
X60.62Y-64.5
X60.62Y-67.04
X60.62Y-69.58
X60.62Y-72.12
X60.62Y-74.66
X63.93Y-94.96
X63.93Y-97.5
X63.93Y-100.04
X73.695Y-59.185
X73.695Y-61.725
X73.695Y-64.265
X73.695Y-66.805
X73.695Y-69.345
X73.695Y-71.885
X73.695Y-74.425
X73.695Y-76.965
X73.695Y-79.505
X73.695Y-82.045
X73.695Y-84.585
X73.695Y-87.125
X73.695Y-89.665
X73.695Y-92.205
X73.695Y-94.745
X73.695Y-97.285
X104.175Y-59.185
X104.175Y-61.725
X104.175Y-64.265
X104.175Y-66.805
X104.175Y-69.345
X104.175Y-71.885
X104.175Y-74.425
X104.175Y-76.965
X104.175Y-79.505
X104.175Y-82.045
X104.175Y-84.585
X104.175Y-87.125
X104.175Y-89.665
X104.175Y-92.205
X104.175Y-94.745
X104.175Y-97.285
X116.69Y-87.0
X116.69Y-99.0
X124.31Y-87.0
X124.31Y-99.0
T3
X115.42Y-59.5
X117.96Y-62.04
X120.5Y-59.5
X133.531Y-59.513
X136.071Y-62.053
X138.612Y-59.513
T4
X133.46Y-87.0
X133.5Y-98.5
X136.0Y-87.0
X136.04Y-98.5
T5
X38.5Y-108.5
X39.0Y-45.5
X141.0Y-46.0
X141.0Y-107.5
M30
