%TF.GenerationSoftware,KiCad,Pcbnew,9.0.7*%
%TF.CreationDate,2026-03-15T15:08:17-04:00*%
%TF.ProjectId,projet,70726f6a-6574-42e6-9b69-6361645f7063,rev?*%
%TF.SameCoordinates,Original*%
%TF.FileFunction,Copper,L1,Top*%
%TF.FilePolarity,Positive*%
%FSLAX46Y46*%
G04 Gerber Fmt 4.6, Leading zero omitted, Abs format (unit mm)*
G04 Created by KiCad (PCBNEW 9.0.7) date 2026-03-15 15:08:17*
%MOMM*%
%LPD*%
G01*
G04 APERTURE LIST*
%TA.AperFunction,ComponentPad*%
%ADD10C,1.700000*%
%TD*%
%TA.AperFunction,ComponentPad*%
%ADD11R,1.700000X1.700000*%
%TD*%
%TA.AperFunction,ComponentPad*%
%ADD12R,1.600200X1.600200*%
%TD*%
%TA.AperFunction,ComponentPad*%
%ADD13C,1.600200*%
%TD*%
%TA.AperFunction,ComponentPad*%
%ADD14C,2.260000*%
%TD*%
%TA.AperFunction,ComponentPad*%
%ADD15C,1.800000*%
%TD*%
%TA.AperFunction,ComponentPad*%
%ADD16R,1.800000X1.800000*%
%TD*%
%TA.AperFunction,ComponentPad*%
%ADD17C,1.600000*%
%TD*%
%TA.AperFunction,ComponentPad*%
%ADD18C,1.320800*%
%TD*%
%TA.AperFunction,ComponentPad*%
%ADD19R,1.320800X1.320800*%
%TD*%
%TA.AperFunction,Conductor*%
%ADD20C,0.200000*%
%TD*%
%TA.AperFunction,Conductor*%
%ADD21C,0.800000*%
%TD*%
G04 APERTURE END LIST*
D10*
%TO.P,U2,12,VIN*%
%TO.N,unconnected-(U2-VIN-Pad12)*%
X137650000Y-91850000D03*
%TO.P,U2,11,3Vo*%
%TO.N,unconnected-(U2-3Vo-Pad11)*%
X140190000Y-91850000D03*
%TO.P,U2,10,GND*%
%TO.N,unconnected-(U2-GND-Pad10)*%
X142730000Y-91850000D03*
%TO.P,U2,9,INT*%
%TO.N,unconnected-(U2-INT-Pad9)*%
X145270000Y-91850000D03*
%TO.P,U2,8,SDA*%
%TO.N,Net-(U1-SDA{slash}IO21)*%
X147810000Y-91850000D03*
%TO.P,U2,7,SCL*%
%TO.N,Net-(U1-SCL{slash}IO22)*%
X150350000Y-91850000D03*
%TO.P,U2,6,GND*%
%TO.N,GND*%
X150350000Y-79150000D03*
%TO.P,U2,5,FSYNC*%
%TO.N,unconnected-(U2-FSYNC-Pad5)*%
X147810000Y-79150000D03*
%TO.P,U2,4,AD0*%
%TO.N,unconnected-(U2-AD0-Pad4)*%
X145270000Y-79150000D03*
%TO.P,U2,3,GND*%
%TO.N,unconnected-(U2-GND-Pad3)*%
X142730000Y-79150000D03*
%TO.P,U2,2,3Vo*%
%TO.N,unconnected-(U2-3Vo-Pad2)*%
X140190000Y-79150000D03*
D11*
%TO.P,U2,1,VIN*%
%TO.N,+3.3V*%
X137650000Y-79150000D03*
%TD*%
D12*
%TO.P,SW1,1,1*%
%TO.N,Net-(U1-IO27{slash}TOUCH7)*%
X78500000Y-73612900D03*
D13*
%TO.P,SW1,2,2*%
%TO.N,GND*%
X78500000Y-78692900D03*
%TD*%
D14*
%TO.P,U1,32,VBUS*%
%TO.N,unconnected-(U1-VBUS-Pad32)*%
X127000000Y-107600000D03*
%TO.P,U1,31,GND*%
%TO.N,unconnected-(U1-GND-Pad31)*%
X127000000Y-105060000D03*
%TO.P,U1,30,RST*%
%TO.N,unconnected-(U1-RST-Pad30)*%
X127000000Y-102520000D03*
%TO.P,U1,29,IO00/TOUCH1*%
%TO.N,unconnected-(U1-IO00{slash}TOUCH1-Pad29)*%
X127000000Y-99980000D03*
%TO.P,U1,28,IO36/S_VP*%
%TO.N,unconnected-(U1-IO36{slash}S_VP-Pad28)*%
X127000000Y-97440000D03*
%TO.P,U1,27,IO39/S_VN*%
%TO.N,unconnected-(U1-IO39{slash}S_VN-Pad27)*%
X127000000Y-94900000D03*
%TO.P,U1,26,CS/IO05*%
%TO.N,unconnected-(U1-CS{slash}IO05-Pad26)*%
X127000000Y-92360000D03*
%TO.P,U1,25,SCK/IO18*%
%TO.N,unconnected-(U1-SCK{slash}IO18-Pad25)*%
X127000000Y-89820000D03*
%TO.P,U1,24,MISO/IO19*%
%TO.N,unconnected-(U1-MISO{slash}IO19-Pad24)*%
X127000000Y-87280000D03*
%TO.P,U1,23,MOSI/IO23*%
%TO.N,unconnected-(U1-MOSI{slash}IO23-Pad23)*%
X127000000Y-84740000D03*
%TO.P,U1,22,SDA/IO21*%
%TO.N,Net-(U1-SDA{slash}IO21)*%
X127000000Y-82200000D03*
%TO.P,U1,21,SCL/IO22*%
%TO.N,Net-(U1-SCL{slash}IO22)*%
X127000000Y-79660000D03*
%TO.P,U1,20,GND*%
%TO.N,unconnected-(U1-GND-Pad20)*%
X127000000Y-77120000D03*
%TO.P,U1,19,3V3*%
%TO.N,unconnected-(U1-3V3-Pad19)*%
X127000000Y-74580000D03*
%TO.P,U1,18,RXD/IO03*%
%TO.N,unconnected-(U1-RXD{slash}IO03-Pad18)*%
X127000000Y-72040000D03*
%TO.P,U1,17,TXD/IO01*%
%TO.N,unconnected-(U1-TXD{slash}IO01-Pad17)*%
X127000000Y-69500000D03*
%TO.P,U1,16,VBAT*%
%TO.N,unconnected-(U1-VBAT-Pad16)*%
X93980000Y-107600000D03*
%TO.P,U1,15,IO12/TOUCH5*%
%TO.N,Net-(U1-IO12{slash}TOUCH5)*%
X93980000Y-105060000D03*
%TO.P,U1,14,IO13/TOUCH4*%
%TO.N,Net-(U1-IO13{slash}TOUCH4)*%
X93980000Y-102520000D03*
%TO.P,U1,13,IO14/TOUCH6*%
%TO.N,Net-(U1-IO14{slash}TOUCH6)*%
X93980000Y-99980000D03*
%TO.P,U1,12,IO15/TOUCH3*%
%TO.N,Net-(U1-IO15{slash}TOUCH3)*%
X93980000Y-97440000D03*
%TO.P,U1,11,IO02/TOUCH2*%
%TO.N,unconnected-(U1-IO02{slash}TOUCH2-Pad11)*%
X93980000Y-94900000D03*
%TO.P,U1,10,IO04/TOUCH0*%
%TO.N,unconnected-(U1-IO04{slash}TOUCH0-Pad10)*%
X93980000Y-92360000D03*
%TO.P,U1,9,IO27/TOUCH7*%
%TO.N,Net-(U1-IO27{slash}TOUCH7)*%
X93980000Y-89820000D03*
%TO.P,U1,8,IO26/DAC2*%
%TO.N,unconnected-(U1-IO26{slash}DAC2-Pad8)*%
X93980000Y-87280000D03*
%TO.P,U1,7,IO25/DAC1*%
%TO.N,unconnected-(U1-IO25{slash}DAC1-Pad7)*%
X93980000Y-84740000D03*
%TO.P,U1,6,IO35/ADC7*%
%TO.N,Net-(U1-IO35{slash}ADC7)*%
X93980000Y-82200000D03*
%TO.P,U1,5,IO34/ADC6*%
%TO.N,Net-(U1-IO34{slash}ADC6)*%
X93980000Y-79660000D03*
%TO.P,U1,4,IO33/TOUCH8*%
%TO.N,unconnected-(U1-IO33{slash}TOUCH8-Pad4)*%
X93980000Y-77120000D03*
%TO.P,U1,3,IO32/TOUCH9*%
%TO.N,unconnected-(U1-IO32{slash}TOUCH9-Pad3)*%
X93980000Y-74580000D03*
%TO.P,U1,2,GND*%
%TO.N,GND*%
X93980000Y-72040000D03*
%TO.P,U1,1,3V3*%
%TO.N,unconnected-(U1-3V3-Pad1)*%
X93980000Y-69500000D03*
%TD*%
D15*
%TO.P,D1,2,A*%
%TO.N,Net-(D1-A)*%
X68540000Y-119000000D03*
D16*
%TO.P,D1,1,K*%
%TO.N,GND*%
X66000000Y-119000000D03*
%TD*%
D15*
%TO.P,D2,2,A*%
%TO.N,Net-(D2-A)*%
X68540000Y-108000000D03*
D16*
%TO.P,D2,1,K*%
%TO.N,GND*%
X66000000Y-108000000D03*
%TD*%
D17*
%TO.P,R2,2*%
%TO.N,Net-(U1-IO13{slash}TOUCH4)*%
X81350000Y-108000000D03*
%TO.P,R2,1*%
%TO.N,Net-(D2-A)*%
X73730000Y-108000000D03*
%TD*%
D15*
%TO.P,D3,2,A*%
%TO.N,Net-(D3-A)*%
X68540000Y-96000000D03*
D16*
%TO.P,D3,1,K*%
%TO.N,GND*%
X66000000Y-96000000D03*
%TD*%
D17*
%TO.P,R1,2*%
%TO.N,Net-(U1-IO12{slash}TOUCH5)*%
X81160000Y-119000000D03*
%TO.P,R1,1*%
%TO.N,Net-(D1-A)*%
X73540000Y-119000000D03*
%TD*%
%TO.P,R5,2*%
%TO.N,Net-(U1-IO27{slash}TOUCH7)*%
X85000000Y-62620000D03*
%TO.P,R5,1*%
%TO.N,+3.3V*%
X85000000Y-55000000D03*
%TD*%
%TO.P,R4,2*%
%TO.N,Net-(U1-IO15{slash}TOUCH3)*%
X80850000Y-85000000D03*
%TO.P,R4,1*%
%TO.N,Net-(D4-A)*%
X73230000Y-85000000D03*
%TD*%
%TO.P,R3,2*%
%TO.N,Net-(U1-IO14{slash}TOUCH6)*%
X81850000Y-96000000D03*
%TO.P,R3,1*%
%TO.N,Net-(D3-A)*%
X74230000Y-96000000D03*
%TD*%
D18*
%TO.P,RV2,1,1*%
%TO.N,+3.3V*%
X103531500Y-55012700D03*
D19*
%TO.P,RV2,2,2*%
%TO.N,Net-(U1-IO34{slash}ADC6)*%
X106071500Y-57552700D03*
%TO.P,RV2,3,3*%
%TO.N,GND*%
X108611500Y-55012700D03*
%TD*%
D18*
%TO.P,RV1,1,1*%
%TO.N,+3.3V*%
X132000000Y-53500000D03*
D19*
%TO.P,RV1,2,2*%
%TO.N,Net-(U1-IO35{slash}ADC7)*%
X129460000Y-56040000D03*
%TO.P,RV1,3,3*%
%TO.N,GND*%
X132000000Y-58580000D03*
%TD*%
D16*
%TO.P,D4,1,K*%
%TO.N,GND*%
X66000000Y-85000000D03*
D15*
%TO.P,D4,2,A*%
%TO.N,Net-(D4-A)*%
X68540000Y-85000000D03*
%TD*%
D20*
%TO.N,Net-(U1-SDA{slash}IO21)*%
X138160000Y-82200000D02*
X127000000Y-82200000D01*
X147810000Y-91850000D02*
X138160000Y-82200000D01*
%TO.N,Net-(U1-SCL{slash}IO22)*%
X128441000Y-81101000D02*
X127000000Y-79660000D01*
X150350000Y-91850000D02*
X139601000Y-81101000D01*
X139601000Y-81101000D02*
X128441000Y-81101000D01*
D21*
%TO.N,+3.3V*%
X137901000Y-59401000D02*
X137901000Y-79150000D01*
X132000000Y-53500000D02*
X137901000Y-59401000D01*
D20*
%TO.N,Net-(U1-IO35{slash}ADC7)*%
X120960000Y-56040000D02*
X129460000Y-56040000D01*
X94800000Y-82200000D02*
X120960000Y-56040000D01*
X93980000Y-82200000D02*
X94800000Y-82200000D01*
%TO.N,Net-(U1-IO34{slash}ADC6)*%
X106071500Y-67568500D02*
X93980000Y-79660000D01*
X106071500Y-57552700D02*
X106071500Y-67568500D01*
D21*
%TO.N,+3.3V*%
X103531500Y-55012700D02*
X105044200Y-53500000D01*
X105044200Y-53500000D02*
X132000000Y-53500000D01*
X85000000Y-55000000D02*
X103518800Y-55000000D01*
X103518800Y-55000000D02*
X103531500Y-55012700D01*
D20*
%TO.N,Net-(U1-IO27{slash}TOUCH7)*%
X78500000Y-69120000D02*
X85000000Y-62620000D01*
X78500000Y-73612900D02*
X78500000Y-69120000D01*
%TO.N,Net-(D4-A)*%
X73230000Y-85000000D02*
X68540000Y-85000000D01*
%TO.N,Net-(D3-A)*%
X74230000Y-96000000D02*
X68540000Y-96000000D01*
%TO.N,Net-(D2-A)*%
X73730000Y-108000000D02*
X68540000Y-108000000D01*
%TO.N,Net-(D1-A)*%
X73540000Y-119000000D02*
X68540000Y-119000000D01*
%TO.N,Net-(U1-IO27{slash}TOUCH7)*%
X93980000Y-89820000D02*
X78500000Y-74340000D01*
X78500000Y-74340000D02*
X78500000Y-73612900D01*
%TO.N,Net-(U1-IO15{slash}TOUCH3)*%
X93290000Y-97440000D02*
X80850000Y-85000000D01*
X93980000Y-97440000D02*
X93290000Y-97440000D01*
%TO.N,Net-(U1-IO14{slash}TOUCH6)*%
X85830000Y-99980000D02*
X81850000Y-96000000D01*
X93980000Y-99980000D02*
X85830000Y-99980000D01*
%TO.N,Net-(U1-IO13{slash}TOUCH4)*%
X87000000Y-108000000D02*
X81350000Y-108000000D01*
X92480000Y-102520000D02*
X87000000Y-108000000D01*
X93980000Y-102520000D02*
X92480000Y-102520000D01*
%TO.N,Net-(U1-IO12{slash}TOUCH5)*%
X93980000Y-105060000D02*
X81160000Y-117880000D01*
X81160000Y-117880000D02*
X81160000Y-119000000D01*
%TD*%
%TA.AperFunction,Conductor*%
%TO.N,GND*%
G36*
X158942539Y-46020185D02*
G01*
X158988294Y-46072989D01*
X158999500Y-46124500D01*
X158999500Y-137875500D01*
X158979815Y-137942539D01*
X158927011Y-137988294D01*
X158875500Y-137999500D01*
X61624500Y-137999500D01*
X61557461Y-137979815D01*
X61511706Y-137927011D01*
X61500500Y-137875500D01*
X61500500Y-132368872D01*
X68499500Y-132368872D01*
X68499500Y-132631127D01*
X68526123Y-132833339D01*
X68533730Y-132891116D01*
X68601602Y-133144418D01*
X68601605Y-133144428D01*
X68701953Y-133386690D01*
X68701958Y-133386700D01*
X68833075Y-133613803D01*
X68992718Y-133821851D01*
X68992726Y-133821860D01*
X69178140Y-134007274D01*
X69178148Y-134007281D01*
X69386196Y-134166924D01*
X69613299Y-134298041D01*
X69613309Y-134298046D01*
X69855571Y-134398394D01*
X69855581Y-134398398D01*
X70108884Y-134466270D01*
X70368880Y-134500500D01*
X70368887Y-134500500D01*
X70631113Y-134500500D01*
X70631120Y-134500500D01*
X70891116Y-134466270D01*
X71144419Y-134398398D01*
X71386697Y-134298043D01*
X71613803Y-134166924D01*
X71821851Y-134007282D01*
X71821855Y-134007277D01*
X71821860Y-134007274D01*
X72007274Y-133821860D01*
X72007277Y-133821855D01*
X72007282Y-133821851D01*
X72166924Y-133613803D01*
X72298043Y-133386697D01*
X72398398Y-133144419D01*
X72466270Y-132891116D01*
X72500500Y-132631120D01*
X72500500Y-132368880D01*
X72500499Y-132368872D01*
X148999500Y-132368872D01*
X148999500Y-132631127D01*
X149026123Y-132833339D01*
X149033730Y-132891116D01*
X149101602Y-133144418D01*
X149101605Y-133144428D01*
X149201953Y-133386690D01*
X149201958Y-133386700D01*
X149333075Y-133613803D01*
X149492718Y-133821851D01*
X149492726Y-133821860D01*
X149678140Y-134007274D01*
X149678148Y-134007281D01*
X149886196Y-134166924D01*
X150113299Y-134298041D01*
X150113309Y-134298046D01*
X150355571Y-134398394D01*
X150355581Y-134398398D01*
X150608884Y-134466270D01*
X150868880Y-134500500D01*
X150868887Y-134500500D01*
X151131113Y-134500500D01*
X151131120Y-134500500D01*
X151391116Y-134466270D01*
X151644419Y-134398398D01*
X151886697Y-134298043D01*
X152113803Y-134166924D01*
X152321851Y-134007282D01*
X152321855Y-134007277D01*
X152321860Y-134007274D01*
X152507274Y-133821860D01*
X152507277Y-133821855D01*
X152507282Y-133821851D01*
X152666924Y-133613803D01*
X152798043Y-133386697D01*
X152898398Y-133144419D01*
X152966270Y-132891116D01*
X153000500Y-132631120D01*
X153000500Y-132368880D01*
X152966270Y-132108884D01*
X152898398Y-131855581D01*
X152898394Y-131855571D01*
X152798046Y-131613309D01*
X152798041Y-131613299D01*
X152666924Y-131386196D01*
X152507281Y-131178148D01*
X152507274Y-131178140D01*
X152321860Y-130992726D01*
X152321851Y-130992718D01*
X152113803Y-130833075D01*
X151886700Y-130701958D01*
X151886690Y-130701953D01*
X151644428Y-130601605D01*
X151644421Y-130601603D01*
X151644419Y-130601602D01*
X151391116Y-130533730D01*
X151333339Y-130526123D01*
X151131127Y-130499500D01*
X151131120Y-130499500D01*
X150868880Y-130499500D01*
X150868872Y-130499500D01*
X150637772Y-130529926D01*
X150608884Y-130533730D01*
X150355581Y-130601602D01*
X150355571Y-130601605D01*
X150113309Y-130701953D01*
X150113299Y-130701958D01*
X149886196Y-130833075D01*
X149678148Y-130992718D01*
X149492718Y-131178148D01*
X149333075Y-131386196D01*
X149201958Y-131613299D01*
X149201953Y-131613309D01*
X149101605Y-131855571D01*
X149101602Y-131855581D01*
X149033730Y-132108885D01*
X148999500Y-132368872D01*
X72500499Y-132368872D01*
X72466270Y-132108884D01*
X72398398Y-131855581D01*
X72398394Y-131855571D01*
X72298046Y-131613309D01*
X72298041Y-131613299D01*
X72166924Y-131386196D01*
X72007281Y-131178148D01*
X72007274Y-131178140D01*
X71821860Y-130992726D01*
X71821851Y-130992718D01*
X71613803Y-130833075D01*
X71386700Y-130701958D01*
X71386690Y-130701953D01*
X71144428Y-130601605D01*
X71144421Y-130601603D01*
X71144419Y-130601602D01*
X70891116Y-130533730D01*
X70833339Y-130526123D01*
X70631127Y-130499500D01*
X70631120Y-130499500D01*
X70368880Y-130499500D01*
X70368872Y-130499500D01*
X70137772Y-130529926D01*
X70108884Y-130533730D01*
X69855581Y-130601602D01*
X69855571Y-130601605D01*
X69613309Y-130701953D01*
X69613299Y-130701958D01*
X69386196Y-130833075D01*
X69178148Y-130992718D01*
X68992718Y-131178148D01*
X68833075Y-131386196D01*
X68701958Y-131613299D01*
X68701953Y-131613309D01*
X68601605Y-131855571D01*
X68601602Y-131855581D01*
X68533730Y-132108885D01*
X68499500Y-132368872D01*
X61500500Y-132368872D01*
X61500500Y-118052155D01*
X64600000Y-118052155D01*
X64600000Y-118750000D01*
X65624722Y-118750000D01*
X65580667Y-118826306D01*
X65550000Y-118940756D01*
X65550000Y-119059244D01*
X65580667Y-119173694D01*
X65624722Y-119250000D01*
X64600000Y-119250000D01*
X64600000Y-119947844D01*
X64606401Y-120007372D01*
X64606403Y-120007379D01*
X64656645Y-120142086D01*
X64656649Y-120142093D01*
X64742809Y-120257187D01*
X64742812Y-120257190D01*
X64857906Y-120343350D01*
X64857913Y-120343354D01*
X64992620Y-120393596D01*
X64992627Y-120393598D01*
X65052155Y-120399999D01*
X65052172Y-120400000D01*
X65750000Y-120400000D01*
X65750000Y-119375277D01*
X65826306Y-119419333D01*
X65940756Y-119450000D01*
X66059244Y-119450000D01*
X66173694Y-119419333D01*
X66250000Y-119375277D01*
X66250000Y-120400000D01*
X66947828Y-120400000D01*
X66947844Y-120399999D01*
X67007372Y-120393598D01*
X67007379Y-120393596D01*
X67142086Y-120343354D01*
X67142093Y-120343350D01*
X67257187Y-120257190D01*
X67257190Y-120257187D01*
X67343350Y-120142093D01*
X67343354Y-120142086D01*
X67373213Y-120062031D01*
X67415084Y-120006097D01*
X67480548Y-119981680D01*
X67548821Y-119996531D01*
X67577076Y-120017683D01*
X67627636Y-120068243D01*
X67627641Y-120068247D01*
X67783192Y-120181260D01*
X67805978Y-120197815D01*
X67922501Y-120257187D01*
X68002393Y-120297895D01*
X68002396Y-120297896D01*
X68107221Y-120331955D01*
X68212049Y-120366015D01*
X68429778Y-120400500D01*
X68429779Y-120400500D01*
X68650221Y-120400500D01*
X68650222Y-120400500D01*
X68867951Y-120366015D01*
X69077606Y-120297895D01*
X69274022Y-120197815D01*
X69452365Y-120068242D01*
X69608242Y-119912365D01*
X69737815Y-119734022D01*
X69771352Y-119668204D01*
X69819326Y-119617409D01*
X69881836Y-119600500D01*
X72310398Y-119600500D01*
X72377437Y-119620185D01*
X72420883Y-119668205D01*
X72427715Y-119681614D01*
X72548028Y-119847213D01*
X72692786Y-119991971D01*
X72847749Y-120104556D01*
X72858390Y-120112287D01*
X72974607Y-120171503D01*
X73040776Y-120205218D01*
X73040778Y-120205218D01*
X73040781Y-120205220D01*
X73145137Y-120239127D01*
X73235465Y-120268477D01*
X73336557Y-120284488D01*
X73437648Y-120300500D01*
X73437649Y-120300500D01*
X73642351Y-120300500D01*
X73642352Y-120300500D01*
X73844534Y-120268477D01*
X74039219Y-120205220D01*
X74221610Y-120112287D01*
X74314590Y-120044732D01*
X74387213Y-119991971D01*
X74387215Y-119991968D01*
X74387219Y-119991966D01*
X74531966Y-119847219D01*
X74531968Y-119847215D01*
X74531971Y-119847213D01*
X74614207Y-119734023D01*
X74652287Y-119681610D01*
X74745220Y-119499219D01*
X74808477Y-119304534D01*
X74840500Y-119102352D01*
X74840500Y-118897648D01*
X74808477Y-118695465D01*
X74779127Y-118605137D01*
X74745220Y-118500781D01*
X74745218Y-118500778D01*
X74745218Y-118500776D01*
X74711503Y-118434607D01*
X74652287Y-118318390D01*
X74614208Y-118265978D01*
X74531971Y-118152786D01*
X74387213Y-118008028D01*
X74221613Y-117887715D01*
X74221612Y-117887714D01*
X74221610Y-117887713D01*
X74162006Y-117857343D01*
X74039223Y-117794781D01*
X73844534Y-117731522D01*
X73658799Y-117702105D01*
X73642352Y-117699500D01*
X73437648Y-117699500D01*
X73421201Y-117702105D01*
X73235465Y-117731522D01*
X73040776Y-117794781D01*
X72858386Y-117887715D01*
X72692786Y-118008028D01*
X72548028Y-118152786D01*
X72427715Y-118318385D01*
X72420883Y-118331795D01*
X72372909Y-118382591D01*
X72310398Y-118399500D01*
X69881836Y-118399500D01*
X69814797Y-118379815D01*
X69771352Y-118331796D01*
X69737814Y-118265976D01*
X69608247Y-118087641D01*
X69608243Y-118087636D01*
X69452363Y-117931756D01*
X69452358Y-117931752D01*
X69274025Y-117802187D01*
X69274024Y-117802186D01*
X69274022Y-117802185D01*
X69211096Y-117770122D01*
X69077606Y-117702104D01*
X69077603Y-117702103D01*
X68867952Y-117633985D01*
X68759086Y-117616742D01*
X68650222Y-117599500D01*
X68429778Y-117599500D01*
X68357201Y-117610995D01*
X68212047Y-117633985D01*
X68002396Y-117702103D01*
X68002393Y-117702104D01*
X67805974Y-117802187D01*
X67627641Y-117931752D01*
X67627636Y-117931756D01*
X67577075Y-117982317D01*
X67515752Y-118015801D01*
X67446060Y-118010816D01*
X67390127Y-117968945D01*
X67373213Y-117937968D01*
X67343354Y-117857913D01*
X67343350Y-117857906D01*
X67257190Y-117742812D01*
X67257187Y-117742809D01*
X67142093Y-117656649D01*
X67142086Y-117656645D01*
X67007379Y-117606403D01*
X67007372Y-117606401D01*
X66947844Y-117600000D01*
X66250000Y-117600000D01*
X66250000Y-118624722D01*
X66173694Y-118580667D01*
X66059244Y-118550000D01*
X65940756Y-118550000D01*
X65826306Y-118580667D01*
X65750000Y-118624722D01*
X65750000Y-117600000D01*
X65052155Y-117600000D01*
X64992627Y-117606401D01*
X64992620Y-117606403D01*
X64857913Y-117656645D01*
X64857906Y-117656649D01*
X64742812Y-117742809D01*
X64742809Y-117742812D01*
X64656649Y-117857906D01*
X64656645Y-117857913D01*
X64606403Y-117992620D01*
X64606401Y-117992627D01*
X64600000Y-118052155D01*
X61500500Y-118052155D01*
X61500500Y-107052155D01*
X64600000Y-107052155D01*
X64600000Y-107750000D01*
X65624722Y-107750000D01*
X65580667Y-107826306D01*
X65550000Y-107940756D01*
X65550000Y-108059244D01*
X65580667Y-108173694D01*
X65624722Y-108250000D01*
X64600000Y-108250000D01*
X64600000Y-108947844D01*
X64606401Y-109007372D01*
X64606403Y-109007379D01*
X64656645Y-109142086D01*
X64656649Y-109142093D01*
X64742809Y-109257187D01*
X64742812Y-109257190D01*
X64857906Y-109343350D01*
X64857913Y-109343354D01*
X64992620Y-109393596D01*
X64992627Y-109393598D01*
X65052155Y-109399999D01*
X65052172Y-109400000D01*
X65750000Y-109400000D01*
X65750000Y-108375277D01*
X65826306Y-108419333D01*
X65940756Y-108450000D01*
X66059244Y-108450000D01*
X66173694Y-108419333D01*
X66250000Y-108375277D01*
X66250000Y-109400000D01*
X66947828Y-109400000D01*
X66947844Y-109399999D01*
X67007372Y-109393598D01*
X67007379Y-109393596D01*
X67142086Y-109343354D01*
X67142093Y-109343350D01*
X67257187Y-109257190D01*
X67257190Y-109257187D01*
X67343350Y-109142093D01*
X67343354Y-109142086D01*
X67373213Y-109062031D01*
X67415084Y-109006097D01*
X67480548Y-108981680D01*
X67548821Y-108996531D01*
X67577076Y-109017683D01*
X67627636Y-109068243D01*
X67627641Y-109068247D01*
X67783192Y-109181260D01*
X67805978Y-109197815D01*
X67922501Y-109257187D01*
X68002393Y-109297895D01*
X68002396Y-109297896D01*
X68107221Y-109331955D01*
X68212049Y-109366015D01*
X68429778Y-109400500D01*
X68429779Y-109400500D01*
X68650221Y-109400500D01*
X68650222Y-109400500D01*
X68867951Y-109366015D01*
X69077606Y-109297895D01*
X69274022Y-109197815D01*
X69452365Y-109068242D01*
X69608242Y-108912365D01*
X69737815Y-108734022D01*
X69771352Y-108668204D01*
X69819326Y-108617409D01*
X69881836Y-108600500D01*
X72500398Y-108600500D01*
X72567437Y-108620185D01*
X72610883Y-108668205D01*
X72617715Y-108681614D01*
X72738028Y-108847213D01*
X72882786Y-108991971D01*
X73037749Y-109104556D01*
X73048390Y-109112287D01*
X73164607Y-109171503D01*
X73230776Y-109205218D01*
X73230778Y-109205218D01*
X73230781Y-109205220D01*
X73308585Y-109230500D01*
X73425465Y-109268477D01*
X73526557Y-109284488D01*
X73627648Y-109300500D01*
X73627649Y-109300500D01*
X73832351Y-109300500D01*
X73832352Y-109300500D01*
X74034534Y-109268477D01*
X74229219Y-109205220D01*
X74411610Y-109112287D01*
X74504590Y-109044732D01*
X74577213Y-108991971D01*
X74577215Y-108991968D01*
X74577219Y-108991966D01*
X74721966Y-108847219D01*
X74721968Y-108847215D01*
X74721971Y-108847213D01*
X74804207Y-108734023D01*
X74842287Y-108681610D01*
X74935220Y-108499219D01*
X74998477Y-108304534D01*
X75030500Y-108102352D01*
X75030500Y-107897648D01*
X74998477Y-107695465D01*
X74969127Y-107605137D01*
X74935220Y-107500781D01*
X74935218Y-107500778D01*
X74935218Y-107500776D01*
X74901503Y-107434607D01*
X74842287Y-107318390D01*
X74804208Y-107265978D01*
X74721971Y-107152786D01*
X74577213Y-107008028D01*
X74411613Y-106887715D01*
X74411612Y-106887714D01*
X74411610Y-106887713D01*
X74353111Y-106857906D01*
X74229223Y-106794781D01*
X74034534Y-106731522D01*
X73848799Y-106702105D01*
X73832352Y-106699500D01*
X73627648Y-106699500D01*
X73611201Y-106702105D01*
X73425465Y-106731522D01*
X73230776Y-106794781D01*
X73048386Y-106887715D01*
X72882786Y-107008028D01*
X72738028Y-107152786D01*
X72617715Y-107318385D01*
X72610883Y-107331795D01*
X72562909Y-107382591D01*
X72500398Y-107399500D01*
X69881836Y-107399500D01*
X69814797Y-107379815D01*
X69771352Y-107331796D01*
X69737814Y-107265976D01*
X69608247Y-107087641D01*
X69608243Y-107087636D01*
X69452363Y-106931756D01*
X69452358Y-106931752D01*
X69274025Y-106802187D01*
X69274024Y-106802186D01*
X69274022Y-106802185D01*
X69211096Y-106770122D01*
X69077606Y-106702104D01*
X69077603Y-106702103D01*
X68867952Y-106633985D01*
X68759086Y-106616742D01*
X68650222Y-106599500D01*
X68429778Y-106599500D01*
X68357201Y-106610995D01*
X68212047Y-106633985D01*
X68002396Y-106702103D01*
X68002393Y-106702104D01*
X67805974Y-106802187D01*
X67627641Y-106931752D01*
X67627636Y-106931756D01*
X67577075Y-106982317D01*
X67515752Y-107015801D01*
X67446060Y-107010816D01*
X67390127Y-106968945D01*
X67373213Y-106937968D01*
X67343354Y-106857913D01*
X67343350Y-106857906D01*
X67257190Y-106742812D01*
X67257187Y-106742809D01*
X67142093Y-106656649D01*
X67142086Y-106656645D01*
X67007379Y-106606403D01*
X67007372Y-106606401D01*
X66947844Y-106600000D01*
X66250000Y-106600000D01*
X66250000Y-107624722D01*
X66173694Y-107580667D01*
X66059244Y-107550000D01*
X65940756Y-107550000D01*
X65826306Y-107580667D01*
X65750000Y-107624722D01*
X65750000Y-106600000D01*
X65052155Y-106600000D01*
X64992627Y-106606401D01*
X64992620Y-106606403D01*
X64857913Y-106656645D01*
X64857906Y-106656649D01*
X64742812Y-106742809D01*
X64742809Y-106742812D01*
X64656649Y-106857906D01*
X64656645Y-106857913D01*
X64606403Y-106992620D01*
X64606401Y-106992627D01*
X64600000Y-107052155D01*
X61500500Y-107052155D01*
X61500500Y-95052155D01*
X64600000Y-95052155D01*
X64600000Y-95750000D01*
X65624722Y-95750000D01*
X65580667Y-95826306D01*
X65550000Y-95940756D01*
X65550000Y-96059244D01*
X65580667Y-96173694D01*
X65624722Y-96250000D01*
X64600000Y-96250000D01*
X64600000Y-96947844D01*
X64606401Y-97007372D01*
X64606403Y-97007379D01*
X64656645Y-97142086D01*
X64656649Y-97142093D01*
X64742809Y-97257187D01*
X64742812Y-97257190D01*
X64857906Y-97343350D01*
X64857913Y-97343354D01*
X64992620Y-97393596D01*
X64992627Y-97393598D01*
X65052155Y-97399999D01*
X65052172Y-97400000D01*
X65750000Y-97400000D01*
X65750000Y-96375277D01*
X65826306Y-96419333D01*
X65940756Y-96450000D01*
X66059244Y-96450000D01*
X66173694Y-96419333D01*
X66250000Y-96375277D01*
X66250000Y-97400000D01*
X66947828Y-97400000D01*
X66947844Y-97399999D01*
X67007372Y-97393598D01*
X67007379Y-97393596D01*
X67142086Y-97343354D01*
X67142093Y-97343350D01*
X67257187Y-97257190D01*
X67257190Y-97257187D01*
X67343350Y-97142093D01*
X67343354Y-97142086D01*
X67373213Y-97062031D01*
X67415084Y-97006097D01*
X67480548Y-96981680D01*
X67548821Y-96996531D01*
X67577076Y-97017683D01*
X67627636Y-97068243D01*
X67627641Y-97068247D01*
X67783192Y-97181260D01*
X67805978Y-97197815D01*
X67922501Y-97257187D01*
X68002393Y-97297895D01*
X68002396Y-97297896D01*
X68107221Y-97331955D01*
X68212049Y-97366015D01*
X68429778Y-97400500D01*
X68429779Y-97400500D01*
X68650221Y-97400500D01*
X68650222Y-97400500D01*
X68867951Y-97366015D01*
X69077606Y-97297895D01*
X69274022Y-97197815D01*
X69452365Y-97068242D01*
X69608242Y-96912365D01*
X69737815Y-96734022D01*
X69771352Y-96668204D01*
X69819326Y-96617409D01*
X69881836Y-96600500D01*
X73000398Y-96600500D01*
X73067437Y-96620185D01*
X73110883Y-96668205D01*
X73117715Y-96681614D01*
X73238028Y-96847213D01*
X73382786Y-96991971D01*
X73537749Y-97104556D01*
X73548390Y-97112287D01*
X73664607Y-97171503D01*
X73730776Y-97205218D01*
X73730778Y-97205218D01*
X73730781Y-97205220D01*
X73835137Y-97239127D01*
X73925465Y-97268477D01*
X74026557Y-97284488D01*
X74127648Y-97300500D01*
X74127649Y-97300500D01*
X74332351Y-97300500D01*
X74332352Y-97300500D01*
X74534534Y-97268477D01*
X74729219Y-97205220D01*
X74911610Y-97112287D01*
X75004590Y-97044732D01*
X75077213Y-96991971D01*
X75077215Y-96991968D01*
X75077219Y-96991966D01*
X75221966Y-96847219D01*
X75221968Y-96847215D01*
X75221971Y-96847213D01*
X75304207Y-96734023D01*
X75342287Y-96681610D01*
X75435220Y-96499219D01*
X75498477Y-96304534D01*
X75530500Y-96102352D01*
X75530500Y-95897648D01*
X75498477Y-95695465D01*
X75469127Y-95605137D01*
X75435220Y-95500781D01*
X75435218Y-95500778D01*
X75435218Y-95500776D01*
X75401503Y-95434607D01*
X75342287Y-95318390D01*
X75315711Y-95281811D01*
X75221971Y-95152786D01*
X75077213Y-95008028D01*
X74911613Y-94887715D01*
X74911612Y-94887714D01*
X74911610Y-94887713D01*
X74853111Y-94857906D01*
X74729223Y-94794781D01*
X74534534Y-94731522D01*
X74348799Y-94702105D01*
X74332352Y-94699500D01*
X74127648Y-94699500D01*
X74111201Y-94702105D01*
X73925465Y-94731522D01*
X73730776Y-94794781D01*
X73548386Y-94887715D01*
X73382786Y-95008028D01*
X73238028Y-95152786D01*
X73117715Y-95318385D01*
X73110883Y-95331795D01*
X73062909Y-95382591D01*
X73000398Y-95399500D01*
X69881836Y-95399500D01*
X69814797Y-95379815D01*
X69771352Y-95331796D01*
X69737814Y-95265976D01*
X69608247Y-95087641D01*
X69608243Y-95087636D01*
X69452363Y-94931756D01*
X69452358Y-94931752D01*
X69274025Y-94802187D01*
X69274024Y-94802186D01*
X69274022Y-94802185D01*
X69211096Y-94770122D01*
X69077606Y-94702104D01*
X69077603Y-94702103D01*
X68867952Y-94633985D01*
X68759086Y-94616742D01*
X68650222Y-94599500D01*
X68429778Y-94599500D01*
X68357201Y-94610995D01*
X68212047Y-94633985D01*
X68002396Y-94702103D01*
X68002393Y-94702104D01*
X67805974Y-94802187D01*
X67627641Y-94931752D01*
X67627636Y-94931756D01*
X67577075Y-94982317D01*
X67515752Y-95015801D01*
X67446060Y-95010816D01*
X67390127Y-94968945D01*
X67373213Y-94937968D01*
X67343354Y-94857913D01*
X67343350Y-94857906D01*
X67257190Y-94742812D01*
X67257187Y-94742809D01*
X67142093Y-94656649D01*
X67142086Y-94656645D01*
X67007379Y-94606403D01*
X67007372Y-94606401D01*
X66947844Y-94600000D01*
X66250000Y-94600000D01*
X66250000Y-95624722D01*
X66173694Y-95580667D01*
X66059244Y-95550000D01*
X65940756Y-95550000D01*
X65826306Y-95580667D01*
X65750000Y-95624722D01*
X65750000Y-94600000D01*
X65052155Y-94600000D01*
X64992627Y-94606401D01*
X64992620Y-94606403D01*
X64857913Y-94656645D01*
X64857906Y-94656649D01*
X64742812Y-94742809D01*
X64742809Y-94742812D01*
X64656649Y-94857906D01*
X64656645Y-94857913D01*
X64606403Y-94992620D01*
X64606401Y-94992627D01*
X64600000Y-95052155D01*
X61500500Y-95052155D01*
X61500500Y-84052155D01*
X64600000Y-84052155D01*
X64600000Y-84750000D01*
X65624722Y-84750000D01*
X65580667Y-84826306D01*
X65550000Y-84940756D01*
X65550000Y-85059244D01*
X65580667Y-85173694D01*
X65624722Y-85250000D01*
X64600000Y-85250000D01*
X64600000Y-85947844D01*
X64606401Y-86007372D01*
X64606403Y-86007379D01*
X64656645Y-86142086D01*
X64656649Y-86142093D01*
X64742809Y-86257187D01*
X64742812Y-86257190D01*
X64857906Y-86343350D01*
X64857913Y-86343354D01*
X64992620Y-86393596D01*
X64992627Y-86393598D01*
X65052155Y-86399999D01*
X65052172Y-86400000D01*
X65750000Y-86400000D01*
X65750000Y-85375277D01*
X65826306Y-85419333D01*
X65940756Y-85450000D01*
X66059244Y-85450000D01*
X66173694Y-85419333D01*
X66250000Y-85375277D01*
X66250000Y-86400000D01*
X66947828Y-86400000D01*
X66947844Y-86399999D01*
X67007372Y-86393598D01*
X67007379Y-86393596D01*
X67142086Y-86343354D01*
X67142093Y-86343350D01*
X67257187Y-86257190D01*
X67257190Y-86257187D01*
X67343350Y-86142093D01*
X67343354Y-86142086D01*
X67373213Y-86062031D01*
X67415084Y-86006097D01*
X67480548Y-85981680D01*
X67548821Y-85996531D01*
X67577076Y-86017683D01*
X67627636Y-86068243D01*
X67627641Y-86068247D01*
X67783192Y-86181260D01*
X67805978Y-86197815D01*
X67922501Y-86257187D01*
X68002393Y-86297895D01*
X68002396Y-86297896D01*
X68107221Y-86331955D01*
X68212049Y-86366015D01*
X68429778Y-86400500D01*
X68429779Y-86400500D01*
X68650221Y-86400500D01*
X68650222Y-86400500D01*
X68867951Y-86366015D01*
X69077606Y-86297895D01*
X69274022Y-86197815D01*
X69452365Y-86068242D01*
X69608242Y-85912365D01*
X69737815Y-85734022D01*
X69771352Y-85668204D01*
X69819326Y-85617409D01*
X69881836Y-85600500D01*
X72000398Y-85600500D01*
X72067437Y-85620185D01*
X72110883Y-85668205D01*
X72117715Y-85681614D01*
X72238028Y-85847213D01*
X72382786Y-85991971D01*
X72528286Y-86097681D01*
X72548390Y-86112287D01*
X72664607Y-86171503D01*
X72730776Y-86205218D01*
X72730778Y-86205218D01*
X72730781Y-86205220D01*
X72769517Y-86217806D01*
X72925465Y-86268477D01*
X73026557Y-86284488D01*
X73127648Y-86300500D01*
X73127649Y-86300500D01*
X73332351Y-86300500D01*
X73332352Y-86300500D01*
X73534534Y-86268477D01*
X73729219Y-86205220D01*
X73911610Y-86112287D01*
X74016165Y-86036324D01*
X74077213Y-85991971D01*
X74077215Y-85991968D01*
X74077219Y-85991966D01*
X74221966Y-85847219D01*
X74221968Y-85847215D01*
X74221971Y-85847213D01*
X74304207Y-85734023D01*
X74342287Y-85681610D01*
X74435220Y-85499219D01*
X74498477Y-85304534D01*
X74530500Y-85102352D01*
X74530500Y-84897648D01*
X74498477Y-84695465D01*
X74469127Y-84605137D01*
X74435220Y-84500781D01*
X74435218Y-84500778D01*
X74435218Y-84500776D01*
X74401503Y-84434607D01*
X74342287Y-84318390D01*
X74304208Y-84265978D01*
X74221971Y-84152786D01*
X74077213Y-84008028D01*
X73911613Y-83887715D01*
X73911612Y-83887714D01*
X73911610Y-83887713D01*
X73853111Y-83857906D01*
X73729223Y-83794781D01*
X73534534Y-83731522D01*
X73348799Y-83702105D01*
X73332352Y-83699500D01*
X73127648Y-83699500D01*
X73111201Y-83702105D01*
X72925465Y-83731522D01*
X72730776Y-83794781D01*
X72548386Y-83887715D01*
X72382786Y-84008028D01*
X72238028Y-84152786D01*
X72117715Y-84318385D01*
X72110883Y-84331795D01*
X72062909Y-84382591D01*
X72000398Y-84399500D01*
X69881836Y-84399500D01*
X69814797Y-84379815D01*
X69771352Y-84331796D01*
X69737814Y-84265976D01*
X69608247Y-84087641D01*
X69608243Y-84087636D01*
X69452363Y-83931756D01*
X69452358Y-83931752D01*
X69274025Y-83802187D01*
X69274024Y-83802186D01*
X69274022Y-83802185D01*
X69211096Y-83770122D01*
X69077606Y-83702104D01*
X69077603Y-83702103D01*
X68867952Y-83633985D01*
X68759086Y-83616742D01*
X68650222Y-83599500D01*
X68429778Y-83599500D01*
X68357201Y-83610995D01*
X68212047Y-83633985D01*
X68002396Y-83702103D01*
X68002393Y-83702104D01*
X67805974Y-83802187D01*
X67627641Y-83931752D01*
X67627636Y-83931756D01*
X67577075Y-83982317D01*
X67515752Y-84015801D01*
X67446060Y-84010816D01*
X67390127Y-83968945D01*
X67373213Y-83937968D01*
X67343354Y-83857913D01*
X67343350Y-83857906D01*
X67257190Y-83742812D01*
X67257187Y-83742809D01*
X67142093Y-83656649D01*
X67142086Y-83656645D01*
X67007379Y-83606403D01*
X67007372Y-83606401D01*
X66947844Y-83600000D01*
X66250000Y-83600000D01*
X66250000Y-84624722D01*
X66173694Y-84580667D01*
X66059244Y-84550000D01*
X65940756Y-84550000D01*
X65826306Y-84580667D01*
X65750000Y-84624722D01*
X65750000Y-83600000D01*
X65052155Y-83600000D01*
X64992627Y-83606401D01*
X64992620Y-83606403D01*
X64857913Y-83656645D01*
X64857906Y-83656649D01*
X64742812Y-83742809D01*
X64742809Y-83742812D01*
X64656649Y-83857906D01*
X64656645Y-83857913D01*
X64606403Y-83992620D01*
X64606401Y-83992627D01*
X64600000Y-84052155D01*
X61500500Y-84052155D01*
X61500500Y-78590580D01*
X77199900Y-78590580D01*
X77199900Y-78795219D01*
X77231913Y-78997342D01*
X77231913Y-78997345D01*
X77295148Y-79191962D01*
X77388055Y-79374301D01*
X77420453Y-79418892D01*
X77420453Y-79418893D01*
X77979396Y-78859949D01*
X77991116Y-78903687D01*
X78063011Y-79028213D01*
X78164687Y-79129889D01*
X78289213Y-79201784D01*
X78332949Y-79213503D01*
X77774005Y-79772445D01*
X77818598Y-79804844D01*
X78000937Y-79897751D01*
X78195555Y-79960986D01*
X78397681Y-79993000D01*
X78602319Y-79993000D01*
X78804442Y-79960986D01*
X78804445Y-79960986D01*
X78999062Y-79897751D01*
X79181401Y-79804844D01*
X79225992Y-79772446D01*
X79225992Y-79772445D01*
X78667050Y-79213503D01*
X78710787Y-79201784D01*
X78835313Y-79129889D01*
X78936989Y-79028213D01*
X79008884Y-78903687D01*
X79020603Y-78859950D01*
X79579545Y-79418892D01*
X79579546Y-79418892D01*
X79611944Y-79374301D01*
X79704851Y-79191962D01*
X79768086Y-78997345D01*
X79768086Y-78997342D01*
X79800100Y-78795219D01*
X79800100Y-78590580D01*
X79768086Y-78388457D01*
X79768086Y-78388454D01*
X79704851Y-78193837D01*
X79611944Y-78011498D01*
X79579545Y-77966906D01*
X79579545Y-77966905D01*
X79020602Y-78525848D01*
X79008884Y-78482113D01*
X78936989Y-78357587D01*
X78835313Y-78255911D01*
X78710787Y-78184016D01*
X78667049Y-78172296D01*
X79225993Y-77613353D01*
X79181401Y-77580955D01*
X78999062Y-77488048D01*
X78804444Y-77424813D01*
X78602319Y-77392800D01*
X78397681Y-77392800D01*
X78195557Y-77424813D01*
X78195554Y-77424813D01*
X78000937Y-77488048D01*
X77818602Y-77580953D01*
X77774006Y-77613353D01*
X78332950Y-78172296D01*
X78289213Y-78184016D01*
X78164687Y-78255911D01*
X78063011Y-78357587D01*
X77991116Y-78482113D01*
X77979396Y-78525849D01*
X77420453Y-77966906D01*
X77388053Y-78011502D01*
X77295148Y-78193837D01*
X77231913Y-78388454D01*
X77231913Y-78388457D01*
X77199900Y-78590580D01*
X61500500Y-78590580D01*
X61500500Y-72764935D01*
X77199400Y-72764935D01*
X77199400Y-74460870D01*
X77199401Y-74460876D01*
X77205808Y-74520483D01*
X77256102Y-74655328D01*
X77256106Y-74655335D01*
X77342352Y-74770544D01*
X77342355Y-74770547D01*
X77457564Y-74856793D01*
X77457571Y-74856797D01*
X77502518Y-74873561D01*
X77592417Y-74907091D01*
X77652027Y-74913500D01*
X78172902Y-74913499D01*
X78239941Y-74933183D01*
X78260583Y-74949818D01*
X92424031Y-89113266D01*
X92457516Y-89174589D01*
X92454281Y-89239265D01*
X92389648Y-89438185D01*
X92389648Y-89438188D01*
X92349500Y-89691671D01*
X92349500Y-89948328D01*
X92389647Y-90201810D01*
X92468957Y-90445899D01*
X92585473Y-90674571D01*
X92736318Y-90882193D01*
X92736322Y-90882198D01*
X92856443Y-91002319D01*
X92889928Y-91063642D01*
X92884944Y-91133334D01*
X92856443Y-91177681D01*
X92736322Y-91297801D01*
X92736318Y-91297806D01*
X92585473Y-91505428D01*
X92468957Y-91734100D01*
X92389647Y-91978189D01*
X92349500Y-92231671D01*
X92349500Y-92488328D01*
X92389647Y-92741810D01*
X92468957Y-92985899D01*
X92585473Y-93214571D01*
X92736318Y-93422193D01*
X92736322Y-93422198D01*
X92856443Y-93542319D01*
X92889928Y-93603642D01*
X92884944Y-93673334D01*
X92856443Y-93717681D01*
X92736322Y-93837801D01*
X92736318Y-93837806D01*
X92585473Y-94045428D01*
X92468957Y-94274100D01*
X92389647Y-94518189D01*
X92349500Y-94771671D01*
X92349500Y-95028328D01*
X92389648Y-95281811D01*
X92389648Y-95281814D01*
X92426704Y-95395858D01*
X92428699Y-95465699D01*
X92392619Y-95525532D01*
X92329918Y-95556360D01*
X92260504Y-95548395D01*
X92221092Y-95521857D01*
X82144077Y-85444842D01*
X82110592Y-85383519D01*
X82113828Y-85318841D01*
X82118477Y-85304534D01*
X82150500Y-85102352D01*
X82150500Y-84897648D01*
X82118477Y-84695465D01*
X82089127Y-84605137D01*
X82055220Y-84500781D01*
X82055218Y-84500778D01*
X82055218Y-84500776D01*
X82021503Y-84434607D01*
X81962287Y-84318390D01*
X81924208Y-84265978D01*
X81841971Y-84152786D01*
X81697213Y-84008028D01*
X81531613Y-83887715D01*
X81531612Y-83887714D01*
X81531610Y-83887713D01*
X81473111Y-83857906D01*
X81349223Y-83794781D01*
X81154534Y-83731522D01*
X80968799Y-83702105D01*
X80952352Y-83699500D01*
X80747648Y-83699500D01*
X80731201Y-83702105D01*
X80545465Y-83731522D01*
X80350776Y-83794781D01*
X80168386Y-83887715D01*
X80002786Y-84008028D01*
X79858028Y-84152786D01*
X79737715Y-84318386D01*
X79644781Y-84500776D01*
X79581522Y-84695465D01*
X79549500Y-84897648D01*
X79549500Y-85102351D01*
X79581522Y-85304534D01*
X79644781Y-85499223D01*
X79693363Y-85594568D01*
X79730882Y-85668204D01*
X79737715Y-85681613D01*
X79858028Y-85847213D01*
X80002786Y-85991971D01*
X80148286Y-86097681D01*
X80168390Y-86112287D01*
X80284607Y-86171503D01*
X80350776Y-86205218D01*
X80350778Y-86205218D01*
X80350781Y-86205220D01*
X80389517Y-86217806D01*
X80545465Y-86268477D01*
X80646557Y-86284488D01*
X80747648Y-86300500D01*
X80747649Y-86300500D01*
X80952351Y-86300500D01*
X80952352Y-86300500D01*
X81154534Y-86268477D01*
X81168842Y-86263827D01*
X81238682Y-86261831D01*
X81294842Y-86294077D01*
X92313181Y-97312416D01*
X92346666Y-97373739D01*
X92349500Y-97400097D01*
X92349500Y-97568328D01*
X92389647Y-97821810D01*
X92468957Y-98065899D01*
X92585473Y-98294571D01*
X92736318Y-98502193D01*
X92736322Y-98502198D01*
X92856443Y-98622319D01*
X92889928Y-98683642D01*
X92884944Y-98753334D01*
X92856443Y-98797681D01*
X92736322Y-98917801D01*
X92736318Y-98917806D01*
X92585473Y-99125428D01*
X92490514Y-99311795D01*
X92442539Y-99362591D01*
X92380029Y-99379500D01*
X86130097Y-99379500D01*
X86063058Y-99359815D01*
X86042416Y-99343181D01*
X83144077Y-96444842D01*
X83110592Y-96383519D01*
X83113828Y-96318841D01*
X83118477Y-96304534D01*
X83150500Y-96102352D01*
X83150500Y-95897648D01*
X83118477Y-95695465D01*
X83089127Y-95605137D01*
X83055220Y-95500781D01*
X83055218Y-95500778D01*
X83055218Y-95500776D01*
X83021503Y-95434607D01*
X82962287Y-95318390D01*
X82935711Y-95281811D01*
X82841971Y-95152786D01*
X82697213Y-95008028D01*
X82531613Y-94887715D01*
X82531612Y-94887714D01*
X82531610Y-94887713D01*
X82473111Y-94857906D01*
X82349223Y-94794781D01*
X82154534Y-94731522D01*
X81968799Y-94702105D01*
X81952352Y-94699500D01*
X81747648Y-94699500D01*
X81731201Y-94702105D01*
X81545465Y-94731522D01*
X81350776Y-94794781D01*
X81168386Y-94887715D01*
X81002786Y-95008028D01*
X80858028Y-95152786D01*
X80737715Y-95318386D01*
X80644781Y-95500776D01*
X80581522Y-95695465D01*
X80549500Y-95897648D01*
X80549500Y-96102351D01*
X80581522Y-96304534D01*
X80644781Y-96499223D01*
X80696385Y-96600500D01*
X80730882Y-96668204D01*
X80737715Y-96681613D01*
X80858028Y-96847213D01*
X81002786Y-96991971D01*
X81157749Y-97104556D01*
X81168390Y-97112287D01*
X81284607Y-97171503D01*
X81350776Y-97205218D01*
X81350778Y-97205218D01*
X81350781Y-97205220D01*
X81455137Y-97239127D01*
X81545465Y-97268477D01*
X81646557Y-97284488D01*
X81747648Y-97300500D01*
X81747649Y-97300500D01*
X81952351Y-97300500D01*
X81952352Y-97300500D01*
X82154534Y-97268477D01*
X82168842Y-97263827D01*
X82238682Y-97261831D01*
X82294842Y-97294077D01*
X85349478Y-100348713D01*
X85349480Y-100348716D01*
X85461284Y-100460520D01*
X85503171Y-100484703D01*
X85556510Y-100515498D01*
X85598209Y-100539574D01*
X85598210Y-100539575D01*
X85598212Y-100539575D01*
X85598215Y-100539577D01*
X85750943Y-100580501D01*
X85750946Y-100580501D01*
X85916653Y-100580501D01*
X85916669Y-100580500D01*
X92380029Y-100580500D01*
X92447068Y-100600185D01*
X92490514Y-100648205D01*
X92585473Y-100834571D01*
X92736318Y-101042193D01*
X92736322Y-101042198D01*
X92856443Y-101162319D01*
X92889928Y-101223642D01*
X92884944Y-101293334D01*
X92856443Y-101337681D01*
X92736322Y-101457801D01*
X92736318Y-101457806D01*
X92585473Y-101665428D01*
X92489594Y-101853599D01*
X92441619Y-101904395D01*
X92408358Y-101915778D01*
X92408792Y-101917397D01*
X92400943Y-101919500D01*
X92400942Y-101919500D01*
X92248215Y-101960423D01*
X92248214Y-101960423D01*
X92248212Y-101960424D01*
X92248209Y-101960425D01*
X92198096Y-101989359D01*
X92198095Y-101989360D01*
X92154689Y-102014420D01*
X92111285Y-102039479D01*
X92111282Y-102039481D01*
X91999478Y-102151286D01*
X86787584Y-107363181D01*
X86726261Y-107396666D01*
X86699903Y-107399500D01*
X82579602Y-107399500D01*
X82512563Y-107379815D01*
X82469117Y-107331795D01*
X82462284Y-107318385D01*
X82341971Y-107152786D01*
X82197213Y-107008028D01*
X82031613Y-106887715D01*
X82031612Y-106887714D01*
X82031610Y-106887713D01*
X81973111Y-106857906D01*
X81849223Y-106794781D01*
X81654534Y-106731522D01*
X81468799Y-106702105D01*
X81452352Y-106699500D01*
X81247648Y-106699500D01*
X81231201Y-106702105D01*
X81045465Y-106731522D01*
X80850776Y-106794781D01*
X80668386Y-106887715D01*
X80502786Y-107008028D01*
X80358028Y-107152786D01*
X80237715Y-107318386D01*
X80144781Y-107500776D01*
X80081522Y-107695465D01*
X80049500Y-107897648D01*
X80049500Y-108102351D01*
X80081522Y-108304534D01*
X80144781Y-108499223D01*
X80196385Y-108600500D01*
X80230882Y-108668204D01*
X80237715Y-108681613D01*
X80358028Y-108847213D01*
X80502786Y-108991971D01*
X80657749Y-109104556D01*
X80668390Y-109112287D01*
X80784607Y-109171503D01*
X80850776Y-109205218D01*
X80850778Y-109205218D01*
X80850781Y-109205220D01*
X80928585Y-109230500D01*
X81045465Y-109268477D01*
X81146557Y-109284488D01*
X81247648Y-109300500D01*
X81247649Y-109300500D01*
X81452351Y-109300500D01*
X81452352Y-109300500D01*
X81654534Y-109268477D01*
X81849219Y-109205220D01*
X82031610Y-109112287D01*
X82124590Y-109044732D01*
X82197213Y-108991971D01*
X82197215Y-108991968D01*
X82197219Y-108991966D01*
X82341966Y-108847219D01*
X82341968Y-108847215D01*
X82341971Y-108847213D01*
X82462284Y-108681614D01*
X82462285Y-108681613D01*
X82462287Y-108681610D01*
X82469117Y-108668204D01*
X82517091Y-108617409D01*
X82579602Y-108600500D01*
X86913331Y-108600500D01*
X86913347Y-108600501D01*
X86920943Y-108600501D01*
X87079054Y-108600501D01*
X87079057Y-108600501D01*
X87231785Y-108559577D01*
X87281904Y-108530639D01*
X87368716Y-108480520D01*
X87480520Y-108368716D01*
X87480520Y-108368714D01*
X87490728Y-108358507D01*
X87490730Y-108358504D01*
X92436183Y-103413050D01*
X92497504Y-103379567D01*
X92567196Y-103384551D01*
X92623129Y-103426423D01*
X92624180Y-103427848D01*
X92736318Y-103582193D01*
X92736322Y-103582198D01*
X92856443Y-103702319D01*
X92889928Y-103763642D01*
X92884944Y-103833334D01*
X92856443Y-103877681D01*
X92736322Y-103997801D01*
X92736318Y-103997806D01*
X92585473Y-104205428D01*
X92468957Y-104434100D01*
X92389647Y-104678189D01*
X92349500Y-104931671D01*
X92349500Y-105188328D01*
X92389648Y-105441811D01*
X92389648Y-105441814D01*
X92454281Y-105640733D01*
X92456276Y-105710574D01*
X92424031Y-105766732D01*
X80791286Y-117399478D01*
X80679481Y-117511282D01*
X80679480Y-117511284D01*
X80629360Y-117598095D01*
X80600423Y-117648215D01*
X80559499Y-117800943D01*
X80559499Y-117801908D01*
X80556818Y-117809490D01*
X80539083Y-117834043D01*
X80523321Y-117859903D01*
X80517503Y-117863922D01*
X80515908Y-117866131D01*
X80512197Y-117867587D01*
X80496211Y-117878632D01*
X80478386Y-117887714D01*
X80312786Y-118008028D01*
X80168028Y-118152786D01*
X80047715Y-118318386D01*
X79954781Y-118500776D01*
X79891522Y-118695465D01*
X79859500Y-118897648D01*
X79859500Y-119102351D01*
X79891522Y-119304534D01*
X79954781Y-119499223D01*
X80006385Y-119600500D01*
X80040882Y-119668204D01*
X80047715Y-119681613D01*
X80168028Y-119847213D01*
X80312786Y-119991971D01*
X80467749Y-120104556D01*
X80478390Y-120112287D01*
X80594607Y-120171503D01*
X80660776Y-120205218D01*
X80660778Y-120205218D01*
X80660781Y-120205220D01*
X80765137Y-120239127D01*
X80855465Y-120268477D01*
X80956557Y-120284488D01*
X81057648Y-120300500D01*
X81057649Y-120300500D01*
X81262351Y-120300500D01*
X81262352Y-120300500D01*
X81464534Y-120268477D01*
X81659219Y-120205220D01*
X81841610Y-120112287D01*
X81934590Y-120044732D01*
X82007213Y-119991971D01*
X82007215Y-119991968D01*
X82007219Y-119991966D01*
X82151966Y-119847219D01*
X82151968Y-119847215D01*
X82151971Y-119847213D01*
X82234207Y-119734023D01*
X82272287Y-119681610D01*
X82365220Y-119499219D01*
X82428477Y-119304534D01*
X82460500Y-119102352D01*
X82460500Y-118897648D01*
X82428477Y-118695465D01*
X82399127Y-118605137D01*
X82365220Y-118500781D01*
X82365218Y-118500778D01*
X82365218Y-118500776D01*
X82331503Y-118434607D01*
X82272287Y-118318390D01*
X82234208Y-118265978D01*
X82151971Y-118152786D01*
X82031890Y-118032705D01*
X81998405Y-117971382D01*
X82003389Y-117901690D01*
X82031888Y-117857345D01*
X92151632Y-107737602D01*
X92212953Y-107704119D01*
X92282645Y-107709103D01*
X92338578Y-107750975D01*
X92361784Y-107805887D01*
X92389647Y-107981810D01*
X92468957Y-108225899D01*
X92541727Y-108368716D01*
X92583143Y-108450000D01*
X92585473Y-108454571D01*
X92736318Y-108662193D01*
X92736322Y-108662198D01*
X92917801Y-108843677D01*
X92917806Y-108843681D01*
X93061175Y-108947844D01*
X93125432Y-108994529D01*
X93257912Y-109062031D01*
X93354100Y-109111042D01*
X93354102Y-109111042D01*
X93354105Y-109111044D01*
X93449664Y-109142093D01*
X93598189Y-109190352D01*
X93851672Y-109230500D01*
X93851677Y-109230500D01*
X94108328Y-109230500D01*
X94361810Y-109190352D01*
X94605895Y-109111044D01*
X94834568Y-108994529D01*
X95042200Y-108843676D01*
X95223676Y-108662200D01*
X95374529Y-108454568D01*
X95491044Y-108225895D01*
X95570352Y-107981810D01*
X95583682Y-107897648D01*
X95610500Y-107728328D01*
X95610500Y-107471671D01*
X95570352Y-107218189D01*
X95491042Y-106974100D01*
X95431841Y-106857913D01*
X95374529Y-106745432D01*
X95343050Y-106702105D01*
X95223681Y-106537806D01*
X95223677Y-106537801D01*
X95103557Y-106417681D01*
X95070072Y-106356358D01*
X95075056Y-106286666D01*
X95103557Y-106242319D01*
X95223676Y-106122200D01*
X95374529Y-105914568D01*
X95491044Y-105685895D01*
X95570352Y-105441810D01*
X95610500Y-105188328D01*
X95610500Y-104931671D01*
X95570352Y-104678189D01*
X95491042Y-104434100D01*
X95448771Y-104351141D01*
X95374529Y-104205432D01*
X95355256Y-104178905D01*
X95223681Y-103997806D01*
X95223677Y-103997801D01*
X95103557Y-103877681D01*
X95070072Y-103816358D01*
X95075056Y-103746666D01*
X95103557Y-103702319D01*
X95223676Y-103582200D01*
X95374529Y-103374568D01*
X95491044Y-103145895D01*
X95570352Y-102901810D01*
X95610500Y-102648328D01*
X95610500Y-102391671D01*
X95570352Y-102138189D01*
X95533555Y-102024942D01*
X95491044Y-101894105D01*
X95491042Y-101894102D01*
X95491042Y-101894100D01*
X95448771Y-101811141D01*
X95374529Y-101665432D01*
X95355256Y-101638905D01*
X95223681Y-101457806D01*
X95223677Y-101457801D01*
X95103557Y-101337681D01*
X95070072Y-101276358D01*
X95075056Y-101206666D01*
X95103557Y-101162319D01*
X95223676Y-101042200D01*
X95374529Y-100834568D01*
X95491044Y-100605895D01*
X95570352Y-100361810D01*
X95573592Y-100341353D01*
X95610500Y-100108328D01*
X95610500Y-99851671D01*
X95570352Y-99598189D01*
X95491042Y-99354100D01*
X95448771Y-99271141D01*
X95374529Y-99125432D01*
X95355256Y-99098905D01*
X95223681Y-98917806D01*
X95223677Y-98917801D01*
X95103557Y-98797681D01*
X95070072Y-98736358D01*
X95075056Y-98666666D01*
X95103557Y-98622319D01*
X95223676Y-98502200D01*
X95374529Y-98294568D01*
X95491044Y-98065895D01*
X95570352Y-97821810D01*
X95610500Y-97568328D01*
X95610500Y-97311671D01*
X95570352Y-97058189D01*
X95491042Y-96814100D01*
X95423536Y-96681614D01*
X95374529Y-96585432D01*
X95355256Y-96558905D01*
X95223681Y-96377806D01*
X95223677Y-96377801D01*
X95103557Y-96257681D01*
X95070072Y-96196358D01*
X95075056Y-96126666D01*
X95103557Y-96082319D01*
X95126632Y-96059244D01*
X95223676Y-95962200D01*
X95374529Y-95754568D01*
X95491044Y-95525895D01*
X95570352Y-95281810D01*
X95572860Y-95265976D01*
X95610500Y-95028328D01*
X95610500Y-94771671D01*
X95570352Y-94518189D01*
X95491042Y-94274100D01*
X95448771Y-94191141D01*
X95374529Y-94045432D01*
X95355256Y-94018905D01*
X95223681Y-93837806D01*
X95223677Y-93837801D01*
X95103557Y-93717681D01*
X95070072Y-93656358D01*
X95075056Y-93586666D01*
X95103557Y-93542319D01*
X95223676Y-93422200D01*
X95374529Y-93214568D01*
X95491044Y-92985895D01*
X95570352Y-92741810D01*
X95599493Y-92557820D01*
X95610500Y-92488328D01*
X95610500Y-92231671D01*
X95570352Y-91978189D01*
X95533555Y-91864942D01*
X95491044Y-91734105D01*
X95491042Y-91734102D01*
X95491042Y-91734100D01*
X95448771Y-91651141D01*
X95374529Y-91505432D01*
X95355256Y-91478905D01*
X95223681Y-91297806D01*
X95223677Y-91297801D01*
X95103557Y-91177681D01*
X95070072Y-91116358D01*
X95075056Y-91046666D01*
X95103557Y-91002319D01*
X95135668Y-90970208D01*
X95223676Y-90882200D01*
X95374529Y-90674568D01*
X95491044Y-90445895D01*
X95570352Y-90201810D01*
X95610500Y-89948328D01*
X95610500Y-89691671D01*
X95570352Y-89438189D01*
X95491042Y-89194100D01*
X95448771Y-89111141D01*
X95374529Y-88965432D01*
X95355256Y-88938905D01*
X95223681Y-88757806D01*
X95223677Y-88757801D01*
X95103557Y-88637681D01*
X95070072Y-88576358D01*
X95075056Y-88506666D01*
X95103557Y-88462319D01*
X95223676Y-88342200D01*
X95374529Y-88134568D01*
X95491044Y-87905895D01*
X95570352Y-87661810D01*
X95610500Y-87408328D01*
X95610500Y-87151671D01*
X95570352Y-86898189D01*
X95491042Y-86654100D01*
X95448771Y-86571141D01*
X95374529Y-86425432D01*
X95331360Y-86366015D01*
X95223681Y-86217806D01*
X95223677Y-86217801D01*
X95103557Y-86097681D01*
X95070072Y-86036358D01*
X95075056Y-85966666D01*
X95103557Y-85922319D01*
X95113518Y-85912358D01*
X95223676Y-85802200D01*
X95374529Y-85594568D01*
X95491044Y-85365895D01*
X95570352Y-85121810D01*
X95573434Y-85102351D01*
X95610500Y-84868328D01*
X95610500Y-84611671D01*
X95570352Y-84358189D01*
X95503612Y-84152786D01*
X95491044Y-84114105D01*
X95491042Y-84114102D01*
X95491042Y-84114100D01*
X95436995Y-84008028D01*
X95374529Y-83885432D01*
X95314047Y-83802185D01*
X95223681Y-83677806D01*
X95223677Y-83677801D01*
X95103557Y-83557681D01*
X95070072Y-83496358D01*
X95075056Y-83426666D01*
X95103557Y-83382319D01*
X95223676Y-83262200D01*
X95374529Y-83054568D01*
X95491044Y-82825895D01*
X95570352Y-82581810D01*
X95610500Y-82328328D01*
X95610500Y-82290097D01*
X95630185Y-82223058D01*
X95646819Y-82202416D01*
X119158279Y-58690957D01*
X119977481Y-57871755D01*
X130839600Y-57871755D01*
X130839600Y-58330000D01*
X131675263Y-58330000D01*
X131674799Y-58330464D01*
X131621295Y-58423135D01*
X131593600Y-58526496D01*
X131593600Y-58633504D01*
X131621295Y-58736865D01*
X131674799Y-58829536D01*
X131675263Y-58830000D01*
X130839600Y-58830000D01*
X130839600Y-59288244D01*
X130846001Y-59347772D01*
X130846003Y-59347779D01*
X130896245Y-59482486D01*
X130896249Y-59482493D01*
X130982409Y-59597587D01*
X130982412Y-59597590D01*
X131097506Y-59683750D01*
X131097513Y-59683754D01*
X131232220Y-59733996D01*
X131232227Y-59733998D01*
X131291755Y-59740399D01*
X131291772Y-59740400D01*
X131750000Y-59740400D01*
X131750000Y-58904737D01*
X131750464Y-58905201D01*
X131843135Y-58958705D01*
X131946496Y-58986400D01*
X132053504Y-58986400D01*
X132156865Y-58958705D01*
X132249536Y-58905201D01*
X132250000Y-58904737D01*
X132250000Y-59740400D01*
X132708228Y-59740400D01*
X132708244Y-59740399D01*
X132767772Y-59733998D01*
X132767779Y-59733996D01*
X132902486Y-59683754D01*
X132902493Y-59683750D01*
X133017587Y-59597590D01*
X133017590Y-59597587D01*
X133103750Y-59482493D01*
X133103754Y-59482486D01*
X133153996Y-59347779D01*
X133153998Y-59347772D01*
X133160399Y-59288244D01*
X133160400Y-59288227D01*
X133160400Y-58830000D01*
X132324737Y-58830000D01*
X132325201Y-58829536D01*
X132378705Y-58736865D01*
X132406400Y-58633504D01*
X132406400Y-58526496D01*
X132378705Y-58423135D01*
X132325201Y-58330464D01*
X132324737Y-58330000D01*
X133160400Y-58330000D01*
X133160400Y-57871772D01*
X133160399Y-57871755D01*
X133153998Y-57812227D01*
X133153996Y-57812220D01*
X133103754Y-57677513D01*
X133103750Y-57677506D01*
X133017590Y-57562412D01*
X133017587Y-57562409D01*
X132902493Y-57476249D01*
X132902486Y-57476245D01*
X132767779Y-57426003D01*
X132767772Y-57426001D01*
X132708244Y-57419600D01*
X132250000Y-57419600D01*
X132250000Y-58255263D01*
X132249536Y-58254799D01*
X132156865Y-58201295D01*
X132053504Y-58173600D01*
X131946496Y-58173600D01*
X131843135Y-58201295D01*
X131750464Y-58254799D01*
X131750000Y-58255263D01*
X131750000Y-57419600D01*
X131291755Y-57419600D01*
X131232227Y-57426001D01*
X131232220Y-57426003D01*
X131097513Y-57476245D01*
X131097506Y-57476249D01*
X130982412Y-57562409D01*
X130982409Y-57562412D01*
X130896249Y-57677506D01*
X130896245Y-57677513D01*
X130846003Y-57812220D01*
X130846001Y-57812227D01*
X130839600Y-57871755D01*
X119977481Y-57871755D01*
X121172417Y-56676819D01*
X121233740Y-56643334D01*
X121260098Y-56640500D01*
X128176131Y-56640500D01*
X128243170Y-56660185D01*
X128288925Y-56712989D01*
X128299421Y-56751247D01*
X128305508Y-56807883D01*
X128355802Y-56942728D01*
X128355806Y-56942735D01*
X128442052Y-57057944D01*
X128442055Y-57057947D01*
X128557264Y-57144193D01*
X128557271Y-57144197D01*
X128692117Y-57194491D01*
X128692116Y-57194491D01*
X128699044Y-57195235D01*
X128751727Y-57200900D01*
X130168272Y-57200899D01*
X130227883Y-57194491D01*
X130362731Y-57144196D01*
X130477946Y-57057946D01*
X130564196Y-56942731D01*
X130614491Y-56807883D01*
X130620900Y-56748273D01*
X130620899Y-55331728D01*
X130614491Y-55272117D01*
X130584587Y-55191941D01*
X130564197Y-55137271D01*
X130564193Y-55137264D01*
X130477947Y-55022055D01*
X130477944Y-55022052D01*
X130362735Y-54935806D01*
X130362728Y-54935802D01*
X130227882Y-54885508D01*
X130227883Y-54885508D01*
X130168283Y-54879101D01*
X130168281Y-54879100D01*
X130168273Y-54879100D01*
X130168264Y-54879100D01*
X128751729Y-54879100D01*
X128751723Y-54879101D01*
X128692116Y-54885508D01*
X128557271Y-54935802D01*
X128557264Y-54935806D01*
X128442055Y-55022052D01*
X128442052Y-55022055D01*
X128355806Y-55137264D01*
X128355802Y-55137271D01*
X128305508Y-55272116D01*
X128299419Y-55328756D01*
X128272681Y-55393307D01*
X128215288Y-55433155D01*
X128176130Y-55439500D01*
X121046670Y-55439500D01*
X121046654Y-55439499D01*
X121039058Y-55439499D01*
X120880943Y-55439499D01*
X120728215Y-55480423D01*
X120728213Y-55480423D01*
X120728213Y-55480424D01*
X120591281Y-55559482D01*
X95656296Y-80494467D01*
X95594973Y-80527952D01*
X95525281Y-80522968D01*
X95469348Y-80481096D01*
X95444931Y-80415632D01*
X95458131Y-80350490D01*
X95491041Y-80285901D01*
X95491042Y-80285899D01*
X95491044Y-80285895D01*
X95570352Y-80041810D01*
X95590957Y-79911716D01*
X95610500Y-79788328D01*
X95610500Y-79531671D01*
X95570352Y-79278189D01*
X95528701Y-79150001D01*
X95505716Y-79079263D01*
X95503722Y-79009424D01*
X95535965Y-78953268D01*
X106440213Y-68049021D01*
X106440216Y-68049020D01*
X106552020Y-67937216D01*
X106602139Y-67850404D01*
X106631077Y-67800285D01*
X106672000Y-67647558D01*
X106672000Y-67489443D01*
X106672000Y-58836569D01*
X106691685Y-58769530D01*
X106744489Y-58723775D01*
X106782745Y-58713279D01*
X106839383Y-58707191D01*
X106974231Y-58656896D01*
X107089446Y-58570646D01*
X107175696Y-58455431D01*
X107225991Y-58320583D01*
X107232400Y-58260973D01*
X107232399Y-56844428D01*
X107225991Y-56784817D01*
X107213470Y-56751247D01*
X107175697Y-56649971D01*
X107175693Y-56649964D01*
X107089447Y-56534755D01*
X107089444Y-56534752D01*
X106974235Y-56448506D01*
X106974228Y-56448502D01*
X106839382Y-56398208D01*
X106839383Y-56398208D01*
X106779783Y-56391801D01*
X106779781Y-56391800D01*
X106779773Y-56391800D01*
X106779764Y-56391800D01*
X105363229Y-56391800D01*
X105363223Y-56391801D01*
X105303616Y-56398208D01*
X105168771Y-56448502D01*
X105168764Y-56448506D01*
X105053555Y-56534752D01*
X105053552Y-56534755D01*
X104967306Y-56649964D01*
X104967302Y-56649971D01*
X104917008Y-56784817D01*
X104910601Y-56844416D01*
X104910601Y-56844423D01*
X104910600Y-56844435D01*
X104910600Y-58260970D01*
X104910601Y-58260976D01*
X104917008Y-58320583D01*
X104967302Y-58455428D01*
X104967306Y-58455435D01*
X105053552Y-58570644D01*
X105053555Y-58570647D01*
X105168764Y-58656893D01*
X105168771Y-58656897D01*
X105303617Y-58707191D01*
X105303615Y-58707191D01*
X105360256Y-58713281D01*
X105424807Y-58740019D01*
X105464655Y-58797412D01*
X105471000Y-58836570D01*
X105471000Y-67268403D01*
X105451315Y-67335442D01*
X105434681Y-67356084D01*
X95808369Y-76982395D01*
X95747046Y-77015880D01*
X95677354Y-77010896D01*
X95621421Y-76969024D01*
X95598215Y-76914112D01*
X95570352Y-76738190D01*
X95491044Y-76494105D01*
X95491042Y-76494102D01*
X95491042Y-76494100D01*
X95448771Y-76411141D01*
X95374529Y-76265432D01*
X95355256Y-76238905D01*
X95223681Y-76057806D01*
X95223677Y-76057801D01*
X95103557Y-75937681D01*
X95070072Y-75876358D01*
X95075056Y-75806666D01*
X95103557Y-75762319D01*
X95223676Y-75642200D01*
X95374529Y-75434568D01*
X95491044Y-75205895D01*
X95570352Y-74961810D01*
X95574886Y-74933183D01*
X95610500Y-74708328D01*
X95610500Y-74451671D01*
X95570352Y-74198189D01*
X95491042Y-73954100D01*
X95448771Y-73871141D01*
X95374529Y-73725432D01*
X95355256Y-73698905D01*
X95223681Y-73517806D01*
X95223677Y-73517801D01*
X95042198Y-73336322D01*
X95042193Y-73336318D01*
X94834571Y-73185473D01*
X94834570Y-73185472D01*
X94834568Y-73185471D01*
X94765926Y-73150496D01*
X94724329Y-73129301D01*
X94692943Y-73106497D01*
X94162481Y-72576035D01*
X94198082Y-72566496D01*
X94326918Y-72492112D01*
X94432112Y-72386918D01*
X94506496Y-72258082D01*
X94516035Y-72222482D01*
X95295728Y-73002175D01*
X95295728Y-73002174D01*
X95374100Y-72894306D01*
X95490578Y-72665707D01*
X95569864Y-72421693D01*
X95610000Y-72168289D01*
X95610000Y-71911710D01*
X95569864Y-71658306D01*
X95490578Y-71414292D01*
X95374098Y-71185690D01*
X95295730Y-71077824D01*
X95295728Y-71077823D01*
X94516034Y-71857517D01*
X94506496Y-71821918D01*
X94432112Y-71693082D01*
X94326918Y-71587888D01*
X94198082Y-71513504D01*
X94162481Y-71503964D01*
X94692944Y-70973500D01*
X94724323Y-70950701D01*
X94834568Y-70894529D01*
X95042200Y-70743676D01*
X95223676Y-70562200D01*
X95374529Y-70354568D01*
X95491044Y-70125895D01*
X95570352Y-69881810D01*
X95610500Y-69628328D01*
X95610500Y-69371671D01*
X95570352Y-69118189D01*
X95533555Y-69004942D01*
X95491044Y-68874105D01*
X95491042Y-68874102D01*
X95491042Y-68874100D01*
X95428462Y-68751282D01*
X95374529Y-68645432D01*
X95355256Y-68618905D01*
X95223681Y-68437806D01*
X95223677Y-68437801D01*
X95042198Y-68256322D01*
X95042193Y-68256318D01*
X94834571Y-68105473D01*
X94834570Y-68105472D01*
X94834568Y-68105471D01*
X94743819Y-68059232D01*
X94605899Y-67988957D01*
X94361810Y-67909647D01*
X94108328Y-67869500D01*
X94108323Y-67869500D01*
X93851677Y-67869500D01*
X93851672Y-67869500D01*
X93598189Y-67909647D01*
X93354100Y-67988957D01*
X93125428Y-68105473D01*
X92917806Y-68256318D01*
X92917801Y-68256322D01*
X92736322Y-68437801D01*
X92736318Y-68437806D01*
X92585473Y-68645428D01*
X92468957Y-68874100D01*
X92389647Y-69118189D01*
X92349500Y-69371671D01*
X92349500Y-69628328D01*
X92389647Y-69881810D01*
X92468957Y-70125899D01*
X92585473Y-70354571D01*
X92736318Y-70562193D01*
X92736322Y-70562198D01*
X92917801Y-70743677D01*
X92917806Y-70743681D01*
X93125427Y-70894526D01*
X93125429Y-70894527D01*
X93125432Y-70894529D01*
X93235672Y-70950699D01*
X93267055Y-70973501D01*
X93797518Y-71503964D01*
X93761918Y-71513504D01*
X93633082Y-71587888D01*
X93527888Y-71693082D01*
X93453504Y-71821918D01*
X93443964Y-71857518D01*
X92664270Y-71077824D01*
X92585897Y-71185697D01*
X92469421Y-71414292D01*
X92390135Y-71658306D01*
X92350000Y-71911710D01*
X92350000Y-72168289D01*
X92390135Y-72421693D01*
X92469421Y-72665707D01*
X92585901Y-72894309D01*
X92664269Y-73002174D01*
X92664270Y-73002175D01*
X93443964Y-72222481D01*
X93453504Y-72258082D01*
X93527888Y-72386918D01*
X93633082Y-72492112D01*
X93761918Y-72566496D01*
X93797518Y-72576035D01*
X93267055Y-73106497D01*
X93235670Y-73129300D01*
X93125430Y-73185471D01*
X92917806Y-73336318D01*
X92917801Y-73336322D01*
X92736322Y-73517801D01*
X92736318Y-73517806D01*
X92585473Y-73725428D01*
X92468957Y-73954100D01*
X92389647Y-74198189D01*
X92349500Y-74451671D01*
X92349500Y-74708328D01*
X92389647Y-74961810D01*
X92468957Y-75205899D01*
X92585473Y-75434571D01*
X92736318Y-75642193D01*
X92736322Y-75642198D01*
X92856443Y-75762319D01*
X92889928Y-75823642D01*
X92884944Y-75893334D01*
X92856443Y-75937681D01*
X92736322Y-76057801D01*
X92736318Y-76057806D01*
X92585473Y-76265428D01*
X92468957Y-76494100D01*
X92389647Y-76738189D01*
X92349500Y-76991671D01*
X92349500Y-77248328D01*
X92389647Y-77501810D01*
X92468957Y-77745899D01*
X92516104Y-77838428D01*
X92581566Y-77966905D01*
X92585473Y-77974571D01*
X92736318Y-78182193D01*
X92736322Y-78182198D01*
X92856443Y-78302319D01*
X92889928Y-78363642D01*
X92884944Y-78433334D01*
X92856443Y-78477681D01*
X92736322Y-78597801D01*
X92736318Y-78597806D01*
X92585473Y-78805428D01*
X92468957Y-79034100D01*
X92389647Y-79278189D01*
X92349500Y-79531671D01*
X92349500Y-79788328D01*
X92389647Y-80041810D01*
X92468957Y-80285899D01*
X92527888Y-80401555D01*
X92583355Y-80510416D01*
X92585473Y-80514571D01*
X92736318Y-80722193D01*
X92736322Y-80722198D01*
X92856443Y-80842319D01*
X92889928Y-80903642D01*
X92884944Y-80973334D01*
X92856443Y-81017681D01*
X92736322Y-81137801D01*
X92736318Y-81137806D01*
X92585473Y-81345428D01*
X92468957Y-81574100D01*
X92389647Y-81818189D01*
X92349500Y-82071671D01*
X92349500Y-82328328D01*
X92389647Y-82581810D01*
X92468957Y-82825899D01*
X92585473Y-83054571D01*
X92736318Y-83262193D01*
X92736322Y-83262198D01*
X92856443Y-83382319D01*
X92889928Y-83443642D01*
X92884944Y-83513334D01*
X92856443Y-83557681D01*
X92736322Y-83677801D01*
X92736318Y-83677806D01*
X92585473Y-83885428D01*
X92468957Y-84114100D01*
X92389647Y-84358189D01*
X92349500Y-84611671D01*
X92349500Y-84868328D01*
X92389647Y-85121810D01*
X92468957Y-85365899D01*
X92585473Y-85594571D01*
X92736318Y-85802193D01*
X92736322Y-85802198D01*
X92856443Y-85922319D01*
X92889928Y-85983642D01*
X92884944Y-86053334D01*
X92856443Y-86097681D01*
X92736322Y-86217801D01*
X92736318Y-86217806D01*
X92585473Y-86425428D01*
X92468957Y-86654100D01*
X92389647Y-86898189D01*
X92361784Y-87074112D01*
X92331855Y-87137247D01*
X92272543Y-87174178D01*
X92202680Y-87173180D01*
X92151630Y-87142395D01*
X79778694Y-74769459D01*
X79745209Y-74708136D01*
X79750192Y-74638448D01*
X79794191Y-74520483D01*
X79800600Y-74460873D01*
X79800599Y-72764928D01*
X79794191Y-72705317D01*
X79779417Y-72665707D01*
X79743897Y-72570471D01*
X79743893Y-72570464D01*
X79657647Y-72455255D01*
X79657644Y-72455252D01*
X79542435Y-72369006D01*
X79542428Y-72369002D01*
X79407582Y-72318708D01*
X79407583Y-72318708D01*
X79347983Y-72312301D01*
X79347981Y-72312300D01*
X79347973Y-72312300D01*
X79347965Y-72312300D01*
X79224500Y-72312300D01*
X79157461Y-72292615D01*
X79111706Y-72239811D01*
X79100500Y-72188300D01*
X79100500Y-69420096D01*
X79109144Y-69390655D01*
X79115668Y-69360669D01*
X79119422Y-69355653D01*
X79120185Y-69353057D01*
X79136814Y-69332420D01*
X84555158Y-63914075D01*
X84616479Y-63880592D01*
X84681151Y-63883825D01*
X84695466Y-63888477D01*
X84897648Y-63920500D01*
X84897649Y-63920500D01*
X85102351Y-63920500D01*
X85102352Y-63920500D01*
X85304534Y-63888477D01*
X85499219Y-63825220D01*
X85681610Y-63732287D01*
X85774590Y-63664732D01*
X85847213Y-63611971D01*
X85847215Y-63611968D01*
X85847219Y-63611966D01*
X85991966Y-63467219D01*
X85991968Y-63467215D01*
X85991971Y-63467213D01*
X86044732Y-63394590D01*
X86112287Y-63301610D01*
X86205220Y-63119219D01*
X86268477Y-62924534D01*
X86300500Y-62722352D01*
X86300500Y-62517648D01*
X86268477Y-62315466D01*
X86205220Y-62120781D01*
X86205218Y-62120778D01*
X86205218Y-62120776D01*
X86171503Y-62054607D01*
X86112287Y-61938390D01*
X86104556Y-61927749D01*
X85991971Y-61772786D01*
X85847213Y-61628028D01*
X85681613Y-61507715D01*
X85681612Y-61507714D01*
X85681610Y-61507713D01*
X85624653Y-61478691D01*
X85499223Y-61414781D01*
X85304534Y-61351522D01*
X85129995Y-61323878D01*
X85102352Y-61319500D01*
X84897648Y-61319500D01*
X84873329Y-61323351D01*
X84695465Y-61351522D01*
X84500776Y-61414781D01*
X84318386Y-61507715D01*
X84152786Y-61628028D01*
X84008028Y-61772786D01*
X83887715Y-61938386D01*
X83794781Y-62120776D01*
X83731522Y-62315465D01*
X83699500Y-62517648D01*
X83699500Y-62722351D01*
X83731522Y-62924534D01*
X83736173Y-62938848D01*
X83738165Y-63008690D01*
X83705921Y-63064842D01*
X78131286Y-68639478D01*
X78019481Y-68751282D01*
X78019479Y-68751285D01*
X77979356Y-68820782D01*
X77979355Y-68820783D01*
X77940423Y-68888215D01*
X77899499Y-69040943D01*
X77899499Y-69040945D01*
X77899499Y-69209046D01*
X77899500Y-69209059D01*
X77899500Y-72188300D01*
X77879815Y-72255339D01*
X77827011Y-72301094D01*
X77775501Y-72312300D01*
X77652030Y-72312300D01*
X77652023Y-72312301D01*
X77592416Y-72318708D01*
X77457571Y-72369002D01*
X77457564Y-72369006D01*
X77342355Y-72455252D01*
X77342352Y-72455255D01*
X77256106Y-72570464D01*
X77256102Y-72570471D01*
X77205808Y-72705317D01*
X77199401Y-72764916D01*
X77199401Y-72764923D01*
X77199400Y-72764935D01*
X61500500Y-72764935D01*
X61500500Y-54897648D01*
X83699500Y-54897648D01*
X83699500Y-55102351D01*
X83731522Y-55304534D01*
X83794781Y-55499223D01*
X83887715Y-55681613D01*
X84008028Y-55847213D01*
X84152786Y-55991971D01*
X84285713Y-56088546D01*
X84318390Y-56112287D01*
X84434607Y-56171503D01*
X84500776Y-56205218D01*
X84500778Y-56205218D01*
X84500781Y-56205220D01*
X84605137Y-56239127D01*
X84695465Y-56268477D01*
X84796557Y-56284488D01*
X84897648Y-56300500D01*
X84897649Y-56300500D01*
X85102351Y-56300500D01*
X85102352Y-56300500D01*
X85304534Y-56268477D01*
X85499219Y-56205220D01*
X85681610Y-56112287D01*
X85828466Y-56005591D01*
X85847213Y-55991971D01*
X85847215Y-55991968D01*
X85847219Y-55991966D01*
X85902366Y-55936819D01*
X85963689Y-55903334D01*
X85990047Y-55900500D01*
X102738120Y-55900500D01*
X102805159Y-55920185D01*
X102811005Y-55924182D01*
X102828399Y-55936819D01*
X102923056Y-56005591D01*
X103085869Y-56088548D01*
X103259655Y-56145015D01*
X103327335Y-56155734D01*
X103440130Y-56173600D01*
X103440135Y-56173600D01*
X103622870Y-56173600D01*
X103723131Y-56157719D01*
X103803345Y-56145015D01*
X103977131Y-56088548D01*
X104139944Y-56005591D01*
X104287776Y-55898185D01*
X104416985Y-55768976D01*
X104524391Y-55621144D01*
X104607348Y-55458331D01*
X104663815Y-55284545D01*
X104682101Y-55169085D01*
X104712028Y-55105955D01*
X104716874Y-55100824D01*
X105380881Y-54436819D01*
X105442204Y-54403334D01*
X105468562Y-54400500D01*
X107327100Y-54400500D01*
X107394139Y-54420185D01*
X107439894Y-54472989D01*
X107451100Y-54524500D01*
X107451100Y-54762700D01*
X108286763Y-54762700D01*
X108286299Y-54763164D01*
X108232795Y-54855835D01*
X108205100Y-54959196D01*
X108205100Y-55066204D01*
X108232795Y-55169565D01*
X108286299Y-55262236D01*
X108286763Y-55262700D01*
X107451100Y-55262700D01*
X107451100Y-55720944D01*
X107457501Y-55780472D01*
X107457503Y-55780479D01*
X107507745Y-55915186D01*
X107507749Y-55915193D01*
X107593909Y-56030287D01*
X107593912Y-56030290D01*
X107709006Y-56116450D01*
X107709013Y-56116454D01*
X107843720Y-56166696D01*
X107843727Y-56166698D01*
X107903255Y-56173099D01*
X107903272Y-56173100D01*
X108361500Y-56173100D01*
X108361500Y-55337437D01*
X108361964Y-55337901D01*
X108454635Y-55391405D01*
X108557996Y-55419100D01*
X108665004Y-55419100D01*
X108768365Y-55391405D01*
X108861036Y-55337901D01*
X108861500Y-55337437D01*
X108861500Y-56173100D01*
X109319728Y-56173100D01*
X109319744Y-56173099D01*
X109379272Y-56166698D01*
X109379279Y-56166696D01*
X109513986Y-56116454D01*
X109513993Y-56116450D01*
X109629087Y-56030290D01*
X109629090Y-56030287D01*
X109715250Y-55915193D01*
X109715254Y-55915186D01*
X109765496Y-55780479D01*
X109765498Y-55780472D01*
X109771899Y-55720944D01*
X109771900Y-55720927D01*
X109771900Y-55262700D01*
X108936237Y-55262700D01*
X108936701Y-55262236D01*
X108990205Y-55169565D01*
X109017900Y-55066204D01*
X109017900Y-54959196D01*
X108990205Y-54855835D01*
X108936701Y-54763164D01*
X108936237Y-54762700D01*
X109771900Y-54762700D01*
X109771900Y-54524500D01*
X109791585Y-54457461D01*
X109844389Y-54411706D01*
X109895900Y-54400500D01*
X131224100Y-54400500D01*
X131291139Y-54420185D01*
X131296985Y-54424182D01*
X131364163Y-54472989D01*
X131391556Y-54492891D01*
X131495300Y-54545750D01*
X131554364Y-54575846D01*
X131554366Y-54575846D01*
X131554369Y-54575848D01*
X131728155Y-54632315D01*
X131843612Y-54650600D01*
X131906743Y-54680528D01*
X131911892Y-54685392D01*
X136964181Y-59737681D01*
X136997666Y-59799004D01*
X137000500Y-59825362D01*
X137000500Y-77675500D01*
X136980815Y-77742539D01*
X136928011Y-77788294D01*
X136876501Y-77799500D01*
X136752130Y-77799500D01*
X136752123Y-77799501D01*
X136692516Y-77805908D01*
X136557671Y-77856202D01*
X136557664Y-77856206D01*
X136442455Y-77942452D01*
X136442452Y-77942455D01*
X136356206Y-78057664D01*
X136356202Y-78057671D01*
X136305908Y-78192517D01*
X136299501Y-78252116D01*
X136299500Y-78252135D01*
X136299500Y-80047870D01*
X136299501Y-80047876D01*
X136305908Y-80107483D01*
X136356202Y-80242328D01*
X136356206Y-80242335D01*
X136401013Y-80302189D01*
X136425431Y-80367653D01*
X136410580Y-80435926D01*
X136361175Y-80485332D01*
X136301747Y-80500500D01*
X128741098Y-80500500D01*
X128711654Y-80491854D01*
X128681672Y-80485332D01*
X128676656Y-80481577D01*
X128674059Y-80480815D01*
X128653421Y-80464185D01*
X128555965Y-80366730D01*
X128522482Y-80305410D01*
X128525716Y-80240736D01*
X128590352Y-80041810D01*
X128610957Y-79911716D01*
X128630500Y-79788328D01*
X128630500Y-79531671D01*
X128590352Y-79278189D01*
X128527312Y-79084174D01*
X128511044Y-79034105D01*
X128511042Y-79034102D01*
X128511042Y-79034100D01*
X128468771Y-78951141D01*
X128394529Y-78805432D01*
X128365005Y-78764795D01*
X128243681Y-78597806D01*
X128243677Y-78597801D01*
X128123557Y-78477681D01*
X128090072Y-78416358D01*
X128095056Y-78346666D01*
X128123557Y-78302319D01*
X128173760Y-78252116D01*
X128243676Y-78182200D01*
X128394529Y-77974568D01*
X128511044Y-77745895D01*
X128590352Y-77501810D01*
X128602547Y-77424813D01*
X128630500Y-77248328D01*
X128630500Y-76991671D01*
X128590352Y-76738189D01*
X128511042Y-76494100D01*
X128468771Y-76411141D01*
X128394529Y-76265432D01*
X128375256Y-76238905D01*
X128243681Y-76057806D01*
X128243677Y-76057801D01*
X128123557Y-75937681D01*
X128090072Y-75876358D01*
X128095056Y-75806666D01*
X128123557Y-75762319D01*
X128243676Y-75642200D01*
X128394529Y-75434568D01*
X128511044Y-75205895D01*
X128590352Y-74961810D01*
X128594886Y-74933183D01*
X128630500Y-74708328D01*
X128630500Y-74451671D01*
X128590352Y-74198189D01*
X128511042Y-73954100D01*
X128468771Y-73871141D01*
X128394529Y-73725432D01*
X128375256Y-73698905D01*
X128243681Y-73517806D01*
X128243677Y-73517801D01*
X128123557Y-73397681D01*
X128090072Y-73336358D01*
X128095056Y-73266666D01*
X128123557Y-73222319D01*
X128160405Y-73185471D01*
X128243676Y-73102200D01*
X128394529Y-72894568D01*
X128511044Y-72665895D01*
X128590352Y-72421810D01*
X128598716Y-72369002D01*
X128630500Y-72168328D01*
X128630500Y-71911671D01*
X128590352Y-71658189D01*
X128530830Y-71475000D01*
X128511044Y-71414105D01*
X128511042Y-71414102D01*
X128511042Y-71414100D01*
X128468771Y-71331141D01*
X128394529Y-71185432D01*
X128325450Y-71090352D01*
X128243681Y-70977806D01*
X128243677Y-70977801D01*
X128123557Y-70857681D01*
X128090072Y-70796358D01*
X128095056Y-70726666D01*
X128123557Y-70682319D01*
X128243676Y-70562200D01*
X128394529Y-70354568D01*
X128511044Y-70125895D01*
X128590352Y-69881810D01*
X128630500Y-69628328D01*
X128630500Y-69371671D01*
X128590352Y-69118189D01*
X128553555Y-69004942D01*
X128511044Y-68874105D01*
X128511042Y-68874102D01*
X128511042Y-68874100D01*
X128448462Y-68751282D01*
X128394529Y-68645432D01*
X128375256Y-68618905D01*
X128243681Y-68437806D01*
X128243677Y-68437801D01*
X128062198Y-68256322D01*
X128062193Y-68256318D01*
X127854571Y-68105473D01*
X127854570Y-68105472D01*
X127854568Y-68105471D01*
X127763819Y-68059232D01*
X127625899Y-67988957D01*
X127381810Y-67909647D01*
X127128328Y-67869500D01*
X127128323Y-67869500D01*
X126871677Y-67869500D01*
X126871672Y-67869500D01*
X126618189Y-67909647D01*
X126374100Y-67988957D01*
X126145428Y-68105473D01*
X125937806Y-68256318D01*
X125937801Y-68256322D01*
X125756322Y-68437801D01*
X125756318Y-68437806D01*
X125605473Y-68645428D01*
X125488957Y-68874100D01*
X125409647Y-69118189D01*
X125369500Y-69371671D01*
X125369500Y-69628328D01*
X125409647Y-69881810D01*
X125488957Y-70125899D01*
X125605473Y-70354571D01*
X125756318Y-70562193D01*
X125756322Y-70562198D01*
X125876443Y-70682319D01*
X125909928Y-70743642D01*
X125904944Y-70813334D01*
X125876443Y-70857681D01*
X125756322Y-70977801D01*
X125756318Y-70977806D01*
X125605473Y-71185428D01*
X125488957Y-71414100D01*
X125409647Y-71658189D01*
X125369500Y-71911671D01*
X125369500Y-72168328D01*
X125409647Y-72421810D01*
X125488957Y-72665899D01*
X125569085Y-72823157D01*
X125605339Y-72894309D01*
X125605473Y-72894571D01*
X125756318Y-73102193D01*
X125756322Y-73102198D01*
X125876443Y-73222319D01*
X125909928Y-73283642D01*
X125904944Y-73353334D01*
X125876443Y-73397681D01*
X125756322Y-73517801D01*
X125756318Y-73517806D01*
X125605473Y-73725428D01*
X125488957Y-73954100D01*
X125409647Y-74198189D01*
X125369500Y-74451671D01*
X125369500Y-74708328D01*
X125409647Y-74961810D01*
X125488957Y-75205899D01*
X125605473Y-75434571D01*
X125756318Y-75642193D01*
X125756322Y-75642198D01*
X125876443Y-75762319D01*
X125909928Y-75823642D01*
X125904944Y-75893334D01*
X125876443Y-75937681D01*
X125756322Y-76057801D01*
X125756318Y-76057806D01*
X125605473Y-76265428D01*
X125488957Y-76494100D01*
X125409647Y-76738189D01*
X125369500Y-76991671D01*
X125369500Y-77248328D01*
X125409647Y-77501810D01*
X125488957Y-77745899D01*
X125536104Y-77838428D01*
X125601566Y-77966905D01*
X125605473Y-77974571D01*
X125756318Y-78182193D01*
X125756322Y-78182198D01*
X125876443Y-78302319D01*
X125909928Y-78363642D01*
X125904944Y-78433334D01*
X125876443Y-78477681D01*
X125756322Y-78597801D01*
X125756318Y-78597806D01*
X125605473Y-78805428D01*
X125488957Y-79034100D01*
X125409647Y-79278189D01*
X125369500Y-79531671D01*
X125369500Y-79788328D01*
X125409647Y-80041810D01*
X125488957Y-80285899D01*
X125547888Y-80401555D01*
X125603355Y-80510416D01*
X125605473Y-80514571D01*
X125756318Y-80722193D01*
X125756322Y-80722198D01*
X125876443Y-80842319D01*
X125909928Y-80903642D01*
X125904944Y-80973334D01*
X125876443Y-81017681D01*
X125756322Y-81137801D01*
X125756318Y-81137806D01*
X125605473Y-81345428D01*
X125488957Y-81574100D01*
X125409647Y-81818189D01*
X125369500Y-82071671D01*
X125369500Y-82328328D01*
X125409647Y-82581810D01*
X125488957Y-82825899D01*
X125605473Y-83054571D01*
X125756318Y-83262193D01*
X125756322Y-83262198D01*
X125876443Y-83382319D01*
X125909928Y-83443642D01*
X125904944Y-83513334D01*
X125876443Y-83557681D01*
X125756322Y-83677801D01*
X125756318Y-83677806D01*
X125605473Y-83885428D01*
X125488957Y-84114100D01*
X125409647Y-84358189D01*
X125369500Y-84611671D01*
X125369500Y-84868328D01*
X125409647Y-85121810D01*
X125488957Y-85365899D01*
X125605473Y-85594571D01*
X125756318Y-85802193D01*
X125756322Y-85802198D01*
X125876443Y-85922319D01*
X125909928Y-85983642D01*
X125904944Y-86053334D01*
X125876443Y-86097681D01*
X125756322Y-86217801D01*
X125756318Y-86217806D01*
X125605473Y-86425428D01*
X125488957Y-86654100D01*
X125409647Y-86898189D01*
X125369500Y-87151671D01*
X125369500Y-87408328D01*
X125409647Y-87661810D01*
X125488957Y-87905899D01*
X125605473Y-88134571D01*
X125756318Y-88342193D01*
X125756322Y-88342198D01*
X125876443Y-88462319D01*
X125909928Y-88523642D01*
X125904944Y-88593334D01*
X125876443Y-88637681D01*
X125756322Y-88757801D01*
X125756318Y-88757806D01*
X125605473Y-88965428D01*
X125488957Y-89194100D01*
X125409647Y-89438189D01*
X125369500Y-89691671D01*
X125369500Y-89948328D01*
X125409647Y-90201810D01*
X125488957Y-90445899D01*
X125605473Y-90674571D01*
X125756318Y-90882193D01*
X125756322Y-90882198D01*
X125876443Y-91002319D01*
X125909928Y-91063642D01*
X125904944Y-91133334D01*
X125876443Y-91177681D01*
X125756322Y-91297801D01*
X125756318Y-91297806D01*
X125605473Y-91505428D01*
X125488957Y-91734100D01*
X125409647Y-91978189D01*
X125369500Y-92231671D01*
X125369500Y-92488328D01*
X125409647Y-92741810D01*
X125488957Y-92985899D01*
X125605473Y-93214571D01*
X125756318Y-93422193D01*
X125756322Y-93422198D01*
X125876443Y-93542319D01*
X125909928Y-93603642D01*
X125904944Y-93673334D01*
X125876443Y-93717681D01*
X125756322Y-93837801D01*
X125756318Y-93837806D01*
X125605473Y-94045428D01*
X125488957Y-94274100D01*
X125409647Y-94518189D01*
X125369500Y-94771671D01*
X125369500Y-95028328D01*
X125409647Y-95281810D01*
X125488957Y-95525899D01*
X125563425Y-95672049D01*
X125603143Y-95750000D01*
X125605473Y-95754571D01*
X125756318Y-95962193D01*
X125756322Y-95962198D01*
X125876443Y-96082319D01*
X125909928Y-96143642D01*
X125904944Y-96213334D01*
X125876443Y-96257681D01*
X125756322Y-96377801D01*
X125756318Y-96377806D01*
X125605473Y-96585428D01*
X125488957Y-96814100D01*
X125409647Y-97058189D01*
X125369500Y-97311671D01*
X125369500Y-97568328D01*
X125409647Y-97821810D01*
X125488957Y-98065899D01*
X125605473Y-98294571D01*
X125756318Y-98502193D01*
X125756322Y-98502198D01*
X125876443Y-98622319D01*
X125909928Y-98683642D01*
X125904944Y-98753334D01*
X125876443Y-98797681D01*
X125756322Y-98917801D01*
X125756318Y-98917806D01*
X125605473Y-99125428D01*
X125488957Y-99354100D01*
X125409647Y-99598189D01*
X125369500Y-99851671D01*
X125369500Y-100108328D01*
X125409647Y-100361810D01*
X125488957Y-100605899D01*
X125605473Y-100834571D01*
X125756318Y-101042193D01*
X125756322Y-101042198D01*
X125876443Y-101162319D01*
X125909928Y-101223642D01*
X125904944Y-101293334D01*
X125876443Y-101337681D01*
X125756322Y-101457801D01*
X125756318Y-101457806D01*
X125605473Y-101665428D01*
X125488957Y-101894100D01*
X125409647Y-102138189D01*
X125369500Y-102391671D01*
X125369500Y-102648328D01*
X125409647Y-102901810D01*
X125488957Y-103145899D01*
X125605473Y-103374571D01*
X125756318Y-103582193D01*
X125756322Y-103582198D01*
X125876443Y-103702319D01*
X125909928Y-103763642D01*
X125904944Y-103833334D01*
X125876443Y-103877681D01*
X125756322Y-103997801D01*
X125756318Y-103997806D01*
X125605473Y-104205428D01*
X125488957Y-104434100D01*
X125409647Y-104678189D01*
X125369500Y-104931671D01*
X125369500Y-105188328D01*
X125409647Y-105441810D01*
X125488957Y-105685899D01*
X125605473Y-105914571D01*
X125756318Y-106122193D01*
X125756322Y-106122198D01*
X125876443Y-106242319D01*
X125909928Y-106303642D01*
X125904944Y-106373334D01*
X125876443Y-106417681D01*
X125756322Y-106537801D01*
X125756318Y-106537806D01*
X125605473Y-106745428D01*
X125488957Y-106974100D01*
X125409647Y-107218189D01*
X125369500Y-107471671D01*
X125369500Y-107728328D01*
X125409647Y-107981810D01*
X125488957Y-108225899D01*
X125561727Y-108368716D01*
X125603143Y-108450000D01*
X125605473Y-108454571D01*
X125756318Y-108662193D01*
X125756322Y-108662198D01*
X125937801Y-108843677D01*
X125937806Y-108843681D01*
X126081175Y-108947844D01*
X126145432Y-108994529D01*
X126277912Y-109062031D01*
X126374100Y-109111042D01*
X126374102Y-109111042D01*
X126374105Y-109111044D01*
X126469664Y-109142093D01*
X126618189Y-109190352D01*
X126871672Y-109230500D01*
X126871677Y-109230500D01*
X127128328Y-109230500D01*
X127381810Y-109190352D01*
X127625895Y-109111044D01*
X127854568Y-108994529D01*
X128062200Y-108843676D01*
X128243676Y-108662200D01*
X128394529Y-108454568D01*
X128511044Y-108225895D01*
X128590352Y-107981810D01*
X128603682Y-107897648D01*
X128630500Y-107728328D01*
X128630500Y-107471671D01*
X128590352Y-107218189D01*
X128511042Y-106974100D01*
X128451841Y-106857913D01*
X128394529Y-106745432D01*
X128363050Y-106702105D01*
X128243681Y-106537806D01*
X128243677Y-106537801D01*
X128123557Y-106417681D01*
X128090072Y-106356358D01*
X128095056Y-106286666D01*
X128123557Y-106242319D01*
X128243676Y-106122200D01*
X128394529Y-105914568D01*
X128511044Y-105685895D01*
X128590352Y-105441810D01*
X128630500Y-105188328D01*
X128630500Y-104931671D01*
X128590352Y-104678189D01*
X128511042Y-104434100D01*
X128468771Y-104351141D01*
X128394529Y-104205432D01*
X128375256Y-104178905D01*
X128243681Y-103997806D01*
X128243677Y-103997801D01*
X128123557Y-103877681D01*
X128090072Y-103816358D01*
X128095056Y-103746666D01*
X128123557Y-103702319D01*
X128243676Y-103582200D01*
X128394529Y-103374568D01*
X128511044Y-103145895D01*
X128590352Y-102901810D01*
X128630500Y-102648328D01*
X128630500Y-102391671D01*
X128590352Y-102138189D01*
X128553555Y-102024942D01*
X128511044Y-101894105D01*
X128511042Y-101894102D01*
X128511042Y-101894100D01*
X128468771Y-101811141D01*
X128394529Y-101665432D01*
X128375256Y-101638905D01*
X128243681Y-101457806D01*
X128243677Y-101457801D01*
X128123557Y-101337681D01*
X128090072Y-101276358D01*
X128095056Y-101206666D01*
X128123557Y-101162319D01*
X128243676Y-101042200D01*
X128394529Y-100834568D01*
X128511044Y-100605895D01*
X128590352Y-100361810D01*
X128593592Y-100341353D01*
X128630500Y-100108328D01*
X128630500Y-99851671D01*
X128590352Y-99598189D01*
X128511042Y-99354100D01*
X128468771Y-99271141D01*
X128394529Y-99125432D01*
X128375256Y-99098905D01*
X128243681Y-98917806D01*
X128243677Y-98917801D01*
X128123557Y-98797681D01*
X128090072Y-98736358D01*
X128095056Y-98666666D01*
X128123557Y-98622319D01*
X128243676Y-98502200D01*
X128394529Y-98294568D01*
X128511044Y-98065895D01*
X128590352Y-97821810D01*
X128630500Y-97568328D01*
X128630500Y-97311671D01*
X128590352Y-97058189D01*
X128511042Y-96814100D01*
X128443536Y-96681614D01*
X128394529Y-96585432D01*
X128375256Y-96558905D01*
X128243681Y-96377806D01*
X128243677Y-96377801D01*
X128123557Y-96257681D01*
X128090072Y-96196358D01*
X128095056Y-96126666D01*
X128123557Y-96082319D01*
X128146632Y-96059244D01*
X128243676Y-95962200D01*
X128394529Y-95754568D01*
X128511044Y-95525895D01*
X128590352Y-95281810D01*
X128592860Y-95265976D01*
X128630500Y-95028328D01*
X128630500Y-94771671D01*
X128590352Y-94518189D01*
X128511042Y-94274100D01*
X128468771Y-94191141D01*
X128394529Y-94045432D01*
X128375256Y-94018905D01*
X128243681Y-93837806D01*
X128243677Y-93837801D01*
X128123557Y-93717681D01*
X128090072Y-93656358D01*
X128095056Y-93586666D01*
X128123557Y-93542319D01*
X128243676Y-93422200D01*
X128394529Y-93214568D01*
X128511044Y-92985895D01*
X128590352Y-92741810D01*
X128619493Y-92557820D01*
X128630500Y-92488328D01*
X128630500Y-92231671D01*
X128590352Y-91978189D01*
X128553555Y-91864942D01*
X128511044Y-91734105D01*
X128511042Y-91734102D01*
X128511042Y-91734100D01*
X128468771Y-91651141D01*
X128394529Y-91505432D01*
X128375256Y-91478905D01*
X128243681Y-91297806D01*
X128243677Y-91297801D01*
X128123557Y-91177681D01*
X128090072Y-91116358D01*
X128095056Y-91046666D01*
X128123557Y-91002319D01*
X128155668Y-90970208D01*
X128243676Y-90882200D01*
X128394529Y-90674568D01*
X128511044Y-90445895D01*
X128590352Y-90201810D01*
X128630500Y-89948328D01*
X128630500Y-89691671D01*
X128590352Y-89438189D01*
X128511042Y-89194100D01*
X128468771Y-89111141D01*
X128394529Y-88965432D01*
X128375256Y-88938905D01*
X128243681Y-88757806D01*
X128243677Y-88757801D01*
X128123557Y-88637681D01*
X128090072Y-88576358D01*
X128095056Y-88506666D01*
X128123557Y-88462319D01*
X128243676Y-88342200D01*
X128394529Y-88134568D01*
X128511044Y-87905895D01*
X128590352Y-87661810D01*
X128630500Y-87408328D01*
X128630500Y-87151671D01*
X128590352Y-86898189D01*
X128511042Y-86654100D01*
X128468771Y-86571141D01*
X128394529Y-86425432D01*
X128351360Y-86366015D01*
X128243681Y-86217806D01*
X128243677Y-86217801D01*
X128123557Y-86097681D01*
X128090072Y-86036358D01*
X128095056Y-85966666D01*
X128123557Y-85922319D01*
X128133518Y-85912358D01*
X128243676Y-85802200D01*
X128394529Y-85594568D01*
X128511044Y-85365895D01*
X128590352Y-85121810D01*
X128593434Y-85102351D01*
X128630500Y-84868328D01*
X128630500Y-84611671D01*
X128590352Y-84358189D01*
X128523612Y-84152786D01*
X128511044Y-84114105D01*
X128511042Y-84114102D01*
X128511042Y-84114100D01*
X128456995Y-84008028D01*
X128394529Y-83885432D01*
X128334047Y-83802185D01*
X128243681Y-83677806D01*
X128243677Y-83677801D01*
X128123557Y-83557681D01*
X128090072Y-83496358D01*
X128095056Y-83426666D01*
X128123557Y-83382319D01*
X128243676Y-83262200D01*
X128394529Y-83054568D01*
X128489486Y-82868205D01*
X128537461Y-82817409D01*
X128599971Y-82800500D01*
X137859903Y-82800500D01*
X137926942Y-82820185D01*
X137947584Y-82836819D01*
X145398584Y-90287819D01*
X145432069Y-90349142D01*
X145427085Y-90418834D01*
X145385213Y-90474767D01*
X145319749Y-90499184D01*
X145310903Y-90499500D01*
X145163713Y-90499500D01*
X145115042Y-90507208D01*
X144953760Y-90532753D01*
X144751585Y-90598444D01*
X144562179Y-90694951D01*
X144390213Y-90819890D01*
X144239890Y-90970213D01*
X144114949Y-91142182D01*
X144110484Y-91150946D01*
X144062509Y-91201742D01*
X143994688Y-91218536D01*
X143928553Y-91195998D01*
X143889516Y-91150946D01*
X143885050Y-91142182D01*
X143760109Y-90970213D01*
X143609786Y-90819890D01*
X143437820Y-90694951D01*
X143248414Y-90598444D01*
X143248413Y-90598443D01*
X143248412Y-90598443D01*
X143046243Y-90532754D01*
X143046241Y-90532753D01*
X143046240Y-90532753D01*
X142884957Y-90507208D01*
X142836287Y-90499500D01*
X142623713Y-90499500D01*
X142575042Y-90507208D01*
X142413760Y-90532753D01*
X142211585Y-90598444D01*
X142022179Y-90694951D01*
X141850213Y-90819890D01*
X141699890Y-90970213D01*
X141574949Y-91142182D01*
X141570484Y-91150946D01*
X141522509Y-91201742D01*
X141454688Y-91218536D01*
X141388553Y-91195998D01*
X141349516Y-91150946D01*
X141345050Y-91142182D01*
X141220109Y-90970213D01*
X141069786Y-90819890D01*
X140897820Y-90694951D01*
X140708414Y-90598444D01*
X140708413Y-90598443D01*
X140708412Y-90598443D01*
X140506243Y-90532754D01*
X140506241Y-90532753D01*
X140506240Y-90532753D01*
X140344957Y-90507208D01*
X140296287Y-90499500D01*
X140083713Y-90499500D01*
X140035042Y-90507208D01*
X139873760Y-90532753D01*
X139671585Y-90598444D01*
X139482179Y-90694951D01*
X139310213Y-90819890D01*
X139159890Y-90970213D01*
X139034949Y-91142182D01*
X139030484Y-91150946D01*
X138982509Y-91201742D01*
X138914688Y-91218536D01*
X138848553Y-91195998D01*
X138809516Y-91150946D01*
X138805050Y-91142182D01*
X138680109Y-90970213D01*
X138529786Y-90819890D01*
X138357820Y-90694951D01*
X138168414Y-90598444D01*
X138168413Y-90598443D01*
X138168412Y-90598443D01*
X137966243Y-90532754D01*
X137966241Y-90532753D01*
X137966240Y-90532753D01*
X137804957Y-90507208D01*
X137756287Y-90499500D01*
X137543713Y-90499500D01*
X137495042Y-90507208D01*
X137333760Y-90532753D01*
X137131585Y-90598444D01*
X136942179Y-90694951D01*
X136770213Y-90819890D01*
X136619890Y-90970213D01*
X136494951Y-91142179D01*
X136398444Y-91331585D01*
X136332753Y-91533760D01*
X136299500Y-91743713D01*
X136299500Y-91956286D01*
X136332753Y-92166239D01*
X136398444Y-92368414D01*
X136494951Y-92557820D01*
X136619890Y-92729786D01*
X136770213Y-92880109D01*
X136942179Y-93005048D01*
X136942181Y-93005049D01*
X136942184Y-93005051D01*
X137131588Y-93101557D01*
X137333757Y-93167246D01*
X137543713Y-93200500D01*
X137543714Y-93200500D01*
X137756286Y-93200500D01*
X137756287Y-93200500D01*
X137966243Y-93167246D01*
X138168412Y-93101557D01*
X138357816Y-93005051D01*
X138384182Y-92985895D01*
X138529786Y-92880109D01*
X138529788Y-92880106D01*
X138529792Y-92880104D01*
X138680104Y-92729792D01*
X138680106Y-92729788D01*
X138680109Y-92729786D01*
X138805048Y-92557820D01*
X138805047Y-92557820D01*
X138805051Y-92557816D01*
X138809514Y-92549054D01*
X138857488Y-92498259D01*
X138925308Y-92481463D01*
X138991444Y-92503999D01*
X139030486Y-92549056D01*
X139034951Y-92557820D01*
X139159890Y-92729786D01*
X139310213Y-92880109D01*
X139482179Y-93005048D01*
X139482181Y-93005049D01*
X139482184Y-93005051D01*
X139671588Y-93101557D01*
X139873757Y-93167246D01*
X140083713Y-93200500D01*
X140083714Y-93200500D01*
X140296286Y-93200500D01*
X140296287Y-93200500D01*
X140506243Y-93167246D01*
X140708412Y-93101557D01*
X140897816Y-93005051D01*
X140924182Y-92985895D01*
X141069786Y-92880109D01*
X141069788Y-92880106D01*
X141069792Y-92880104D01*
X141220104Y-92729792D01*
X141220106Y-92729788D01*
X141220109Y-92729786D01*
X141345048Y-92557820D01*
X141345047Y-92557820D01*
X141345051Y-92557816D01*
X141349514Y-92549054D01*
X141397488Y-92498259D01*
X141465308Y-92481463D01*
X141531444Y-92503999D01*
X141570486Y-92549056D01*
X141574951Y-92557820D01*
X141699890Y-92729786D01*
X141850213Y-92880109D01*
X142022179Y-93005048D01*
X142022181Y-93005049D01*
X142022184Y-93005051D01*
X142211588Y-93101557D01*
X142413757Y-93167246D01*
X142623713Y-93200500D01*
X142623714Y-93200500D01*
X142836286Y-93200500D01*
X142836287Y-93200500D01*
X143046243Y-93167246D01*
X143248412Y-93101557D01*
X143437816Y-93005051D01*
X143464182Y-92985895D01*
X143609786Y-92880109D01*
X143609788Y-92880106D01*
X143609792Y-92880104D01*
X143760104Y-92729792D01*
X143760106Y-92729788D01*
X143760109Y-92729786D01*
X143885048Y-92557820D01*
X143885047Y-92557820D01*
X143885051Y-92557816D01*
X143889514Y-92549054D01*
X143937488Y-92498259D01*
X144005308Y-92481463D01*
X144071444Y-92503999D01*
X144110486Y-92549056D01*
X144114951Y-92557820D01*
X144239890Y-92729786D01*
X144390213Y-92880109D01*
X144562179Y-93005048D01*
X144562181Y-93005049D01*
X144562184Y-93005051D01*
X144751588Y-93101557D01*
X144953757Y-93167246D01*
X145163713Y-93200500D01*
X145163714Y-93200500D01*
X145376286Y-93200500D01*
X145376287Y-93200500D01*
X145586243Y-93167246D01*
X145788412Y-93101557D01*
X145977816Y-93005051D01*
X146004182Y-92985895D01*
X146149786Y-92880109D01*
X146149788Y-92880106D01*
X146149792Y-92880104D01*
X146300104Y-92729792D01*
X146300106Y-92729788D01*
X146300109Y-92729786D01*
X146425048Y-92557820D01*
X146425047Y-92557820D01*
X146425051Y-92557816D01*
X146429514Y-92549054D01*
X146477488Y-92498259D01*
X146545308Y-92481463D01*
X146611444Y-92503999D01*
X146650486Y-92549056D01*
X146654951Y-92557820D01*
X146779890Y-92729786D01*
X146930213Y-92880109D01*
X147102179Y-93005048D01*
X147102181Y-93005049D01*
X147102184Y-93005051D01*
X147291588Y-93101557D01*
X147493757Y-93167246D01*
X147703713Y-93200500D01*
X147703714Y-93200500D01*
X147916286Y-93200500D01*
X147916287Y-93200500D01*
X148126243Y-93167246D01*
X148328412Y-93101557D01*
X148517816Y-93005051D01*
X148544182Y-92985895D01*
X148689786Y-92880109D01*
X148689788Y-92880106D01*
X148689792Y-92880104D01*
X148840104Y-92729792D01*
X148840106Y-92729788D01*
X148840109Y-92729786D01*
X148965048Y-92557820D01*
X148965047Y-92557820D01*
X148965051Y-92557816D01*
X148969514Y-92549054D01*
X149017488Y-92498259D01*
X149085308Y-92481463D01*
X149151444Y-92503999D01*
X149190486Y-92549056D01*
X149194951Y-92557820D01*
X149319890Y-92729786D01*
X149470213Y-92880109D01*
X149642179Y-93005048D01*
X149642181Y-93005049D01*
X149642184Y-93005051D01*
X149831588Y-93101557D01*
X150033757Y-93167246D01*
X150243713Y-93200500D01*
X150243714Y-93200500D01*
X150456286Y-93200500D01*
X150456287Y-93200500D01*
X150666243Y-93167246D01*
X150868412Y-93101557D01*
X151057816Y-93005051D01*
X151084182Y-92985895D01*
X151229786Y-92880109D01*
X151229788Y-92880106D01*
X151229792Y-92880104D01*
X151380104Y-92729792D01*
X151380106Y-92729788D01*
X151380109Y-92729786D01*
X151505048Y-92557820D01*
X151505047Y-92557820D01*
X151505051Y-92557816D01*
X151601557Y-92368412D01*
X151667246Y-92166243D01*
X151700500Y-91956287D01*
X151700500Y-91743713D01*
X151667246Y-91533757D01*
X151601557Y-91331588D01*
X151505051Y-91142184D01*
X151505049Y-91142181D01*
X151505048Y-91142179D01*
X151380109Y-90970213D01*
X151229786Y-90819890D01*
X151057820Y-90694951D01*
X150868414Y-90598444D01*
X150868413Y-90598443D01*
X150868412Y-90598443D01*
X150666243Y-90532754D01*
X150666241Y-90532753D01*
X150666240Y-90532753D01*
X150504957Y-90507208D01*
X150456287Y-90499500D01*
X150243713Y-90499500D01*
X150215006Y-90504046D01*
X150033757Y-90532753D01*
X149991473Y-90546492D01*
X149921632Y-90548486D01*
X149865476Y-90516241D01*
X140088590Y-80739355D01*
X140081521Y-80732286D01*
X140081520Y-80732284D01*
X140061413Y-80712177D01*
X140027931Y-80650856D01*
X140032522Y-80586682D01*
X140032916Y-80581166D01*
X140074788Y-80525233D01*
X140074788Y-80525232D01*
X140074789Y-80525232D01*
X140114514Y-80510416D01*
X140140252Y-80500816D01*
X140149098Y-80500500D01*
X140296286Y-80500500D01*
X140296287Y-80500500D01*
X140506243Y-80467246D01*
X140708412Y-80401557D01*
X140897816Y-80305051D01*
X140984138Y-80242335D01*
X141069786Y-80180109D01*
X141069788Y-80180106D01*
X141069792Y-80180104D01*
X141220104Y-80029792D01*
X141220106Y-80029788D01*
X141220109Y-80029786D01*
X141345048Y-79857820D01*
X141345047Y-79857820D01*
X141345051Y-79857816D01*
X141349514Y-79849054D01*
X141397488Y-79798259D01*
X141465308Y-79781463D01*
X141531444Y-79803999D01*
X141570486Y-79849056D01*
X141574951Y-79857820D01*
X141699890Y-80029786D01*
X141850213Y-80180109D01*
X142022179Y-80305048D01*
X142022181Y-80305049D01*
X142022184Y-80305051D01*
X142211588Y-80401557D01*
X142413757Y-80467246D01*
X142623713Y-80500500D01*
X142623714Y-80500500D01*
X142836286Y-80500500D01*
X142836287Y-80500500D01*
X143046243Y-80467246D01*
X143248412Y-80401557D01*
X143437816Y-80305051D01*
X143524138Y-80242335D01*
X143609786Y-80180109D01*
X143609788Y-80180106D01*
X143609792Y-80180104D01*
X143760104Y-80029792D01*
X143760106Y-80029788D01*
X143760109Y-80029786D01*
X143885048Y-79857820D01*
X143885047Y-79857820D01*
X143885051Y-79857816D01*
X143889514Y-79849054D01*
X143937488Y-79798259D01*
X144005308Y-79781463D01*
X144071444Y-79803999D01*
X144110486Y-79849056D01*
X144114951Y-79857820D01*
X144239890Y-80029786D01*
X144390213Y-80180109D01*
X144562179Y-80305048D01*
X144562181Y-80305049D01*
X144562184Y-80305051D01*
X144751588Y-80401557D01*
X144953757Y-80467246D01*
X145163713Y-80500500D01*
X145163714Y-80500500D01*
X145376286Y-80500500D01*
X145376287Y-80500500D01*
X145586243Y-80467246D01*
X145788412Y-80401557D01*
X145977816Y-80305051D01*
X146064138Y-80242335D01*
X146149786Y-80180109D01*
X146149788Y-80180106D01*
X146149792Y-80180104D01*
X146300104Y-80029792D01*
X146300106Y-80029788D01*
X146300109Y-80029786D01*
X146425048Y-79857820D01*
X146425047Y-79857820D01*
X146425051Y-79857816D01*
X146429514Y-79849054D01*
X146477488Y-79798259D01*
X146545308Y-79781463D01*
X146611444Y-79803999D01*
X146650486Y-79849056D01*
X146654951Y-79857820D01*
X146779890Y-80029786D01*
X146930213Y-80180109D01*
X147102179Y-80305048D01*
X147102181Y-80305049D01*
X147102184Y-80305051D01*
X147291588Y-80401557D01*
X147493757Y-80467246D01*
X147703713Y-80500500D01*
X147703714Y-80500500D01*
X147916286Y-80500500D01*
X147916287Y-80500500D01*
X148126243Y-80467246D01*
X148328412Y-80401557D01*
X148517816Y-80305051D01*
X148604138Y-80242335D01*
X148689786Y-80180109D01*
X148689788Y-80180106D01*
X148689792Y-80180104D01*
X148840104Y-80029792D01*
X148840106Y-80029788D01*
X148840109Y-80029786D01*
X148925890Y-79911717D01*
X148965051Y-79857816D01*
X148969793Y-79848508D01*
X149017763Y-79797711D01*
X149085583Y-79780911D01*
X149151719Y-79803445D01*
X149190763Y-79848500D01*
X149195373Y-79857547D01*
X149234728Y-79911716D01*
X149867037Y-79279408D01*
X149884075Y-79342993D01*
X149949901Y-79457007D01*
X150042993Y-79550099D01*
X150157007Y-79615925D01*
X150220590Y-79632962D01*
X149588282Y-80265269D01*
X149588282Y-80265270D01*
X149642449Y-80304624D01*
X149831782Y-80401095D01*
X150033870Y-80466757D01*
X150243754Y-80500000D01*
X150456246Y-80500000D01*
X150666127Y-80466757D01*
X150666130Y-80466757D01*
X150868217Y-80401095D01*
X151057554Y-80304622D01*
X151111716Y-80265270D01*
X151111717Y-80265270D01*
X150479408Y-79632962D01*
X150542993Y-79615925D01*
X150657007Y-79550099D01*
X150750099Y-79457007D01*
X150815925Y-79342993D01*
X150832962Y-79279409D01*
X151465270Y-79911717D01*
X151465270Y-79911716D01*
X151504622Y-79857554D01*
X151601095Y-79668217D01*
X151666757Y-79466130D01*
X151666757Y-79466127D01*
X151700000Y-79256246D01*
X151700000Y-79043753D01*
X151666757Y-78833872D01*
X151666757Y-78833869D01*
X151601095Y-78631782D01*
X151504624Y-78442449D01*
X151465270Y-78388282D01*
X151465269Y-78388282D01*
X150832962Y-79020590D01*
X150815925Y-78957007D01*
X150750099Y-78842993D01*
X150657007Y-78749901D01*
X150542993Y-78684075D01*
X150479409Y-78667037D01*
X151111716Y-78034728D01*
X151057550Y-77995375D01*
X150868217Y-77898904D01*
X150666129Y-77833242D01*
X150456246Y-77800000D01*
X150243754Y-77800000D01*
X150033872Y-77833242D01*
X150033869Y-77833242D01*
X149831782Y-77898904D01*
X149642439Y-77995380D01*
X149588282Y-78034727D01*
X149588282Y-78034728D01*
X150220591Y-78667037D01*
X150157007Y-78684075D01*
X150042993Y-78749901D01*
X149949901Y-78842993D01*
X149884075Y-78957007D01*
X149867037Y-79020591D01*
X149234728Y-78388282D01*
X149234727Y-78388282D01*
X149195380Y-78442440D01*
X149195376Y-78442446D01*
X149190760Y-78451505D01*
X149142781Y-78502297D01*
X149074959Y-78519087D01*
X149008826Y-78496543D01*
X148969794Y-78451493D01*
X148965051Y-78442184D01*
X148965049Y-78442181D01*
X148965048Y-78442179D01*
X148840109Y-78270213D01*
X148689786Y-78119890D01*
X148517820Y-77994951D01*
X148328414Y-77898444D01*
X148328413Y-77898443D01*
X148328412Y-77898443D01*
X148126243Y-77832754D01*
X148126241Y-77832753D01*
X148126240Y-77832753D01*
X147964957Y-77807208D01*
X147916287Y-77799500D01*
X147703713Y-77799500D01*
X147655042Y-77807208D01*
X147493760Y-77832753D01*
X147291585Y-77898444D01*
X147102179Y-77994951D01*
X146930213Y-78119890D01*
X146779890Y-78270213D01*
X146654949Y-78442182D01*
X146650484Y-78450946D01*
X146602509Y-78501742D01*
X146534688Y-78518536D01*
X146468553Y-78495998D01*
X146429516Y-78450946D01*
X146425050Y-78442182D01*
X146300109Y-78270213D01*
X146149786Y-78119890D01*
X145977820Y-77994951D01*
X145788414Y-77898444D01*
X145788413Y-77898443D01*
X145788412Y-77898443D01*
X145586243Y-77832754D01*
X145586241Y-77832753D01*
X145586240Y-77832753D01*
X145424957Y-77807208D01*
X145376287Y-77799500D01*
X145163713Y-77799500D01*
X145115042Y-77807208D01*
X144953760Y-77832753D01*
X144751585Y-77898444D01*
X144562179Y-77994951D01*
X144390213Y-78119890D01*
X144239890Y-78270213D01*
X144114949Y-78442182D01*
X144110484Y-78450946D01*
X144062509Y-78501742D01*
X143994688Y-78518536D01*
X143928553Y-78495998D01*
X143889516Y-78450946D01*
X143885050Y-78442182D01*
X143760109Y-78270213D01*
X143609786Y-78119890D01*
X143437820Y-77994951D01*
X143248414Y-77898444D01*
X143248413Y-77898443D01*
X143248412Y-77898443D01*
X143046243Y-77832754D01*
X143046241Y-77832753D01*
X143046240Y-77832753D01*
X142884957Y-77807208D01*
X142836287Y-77799500D01*
X142623713Y-77799500D01*
X142575042Y-77807208D01*
X142413760Y-77832753D01*
X142211585Y-77898444D01*
X142022179Y-77994951D01*
X141850213Y-78119890D01*
X141699890Y-78270213D01*
X141574949Y-78442182D01*
X141570484Y-78450946D01*
X141522509Y-78501742D01*
X141454688Y-78518536D01*
X141388553Y-78495998D01*
X141349516Y-78450946D01*
X141345050Y-78442182D01*
X141220109Y-78270213D01*
X141069786Y-78119890D01*
X140897820Y-77994951D01*
X140708414Y-77898444D01*
X140708413Y-77898443D01*
X140708412Y-77898443D01*
X140506243Y-77832754D01*
X140506241Y-77832753D01*
X140506240Y-77832753D01*
X140344957Y-77807208D01*
X140296287Y-77799500D01*
X140083713Y-77799500D01*
X140035042Y-77807208D01*
X139873760Y-77832753D01*
X139671585Y-77898444D01*
X139482179Y-77994951D01*
X139310215Y-78119889D01*
X139196673Y-78233431D01*
X139135350Y-78266915D01*
X139065658Y-78261931D01*
X139009725Y-78220059D01*
X138992810Y-78189082D01*
X138943797Y-78057671D01*
X138943793Y-78057664D01*
X138857547Y-77942455D01*
X138857546Y-77942454D01*
X138851184Y-77937691D01*
X138809316Y-77881755D01*
X138801500Y-77838428D01*
X138801500Y-59312307D01*
X138801499Y-59312303D01*
X138766896Y-59138341D01*
X138766895Y-59138334D01*
X138750577Y-59098940D01*
X138735477Y-59062485D01*
X138735474Y-59062480D01*
X138732953Y-59056393D01*
X138699013Y-58974453D01*
X138639936Y-58886040D01*
X138623423Y-58861326D01*
X138600466Y-58826966D01*
X133185392Y-53411892D01*
X133151907Y-53350569D01*
X133150607Y-53343652D01*
X133132315Y-53228155D01*
X133075848Y-53054369D01*
X133075846Y-53054366D01*
X133075846Y-53054364D01*
X132996377Y-52898398D01*
X132992891Y-52891556D01*
X132885485Y-52743724D01*
X132756276Y-52614515D01*
X132608444Y-52507109D01*
X132445631Y-52424152D01*
X132271845Y-52367685D01*
X132271843Y-52367684D01*
X132271841Y-52367684D01*
X132091370Y-52339100D01*
X132091365Y-52339100D01*
X131908635Y-52339100D01*
X131908630Y-52339100D01*
X131728158Y-52367684D01*
X131554366Y-52424153D01*
X131391552Y-52507111D01*
X131296985Y-52575818D01*
X131231179Y-52599298D01*
X131224100Y-52599500D01*
X104955503Y-52599500D01*
X104781541Y-52634103D01*
X104781533Y-52634105D01*
X104617655Y-52701985D01*
X104617646Y-52701990D01*
X104470164Y-52800535D01*
X104470160Y-52800538D01*
X103443392Y-53827306D01*
X103382069Y-53860791D01*
X103375110Y-53862098D01*
X103259657Y-53880384D01*
X103085866Y-53936853D01*
X102923055Y-54019809D01*
X102874818Y-54054855D01*
X102845965Y-54075818D01*
X102780161Y-54099298D01*
X102773081Y-54099500D01*
X85990047Y-54099500D01*
X85923008Y-54079815D01*
X85902366Y-54063181D01*
X85847213Y-54008028D01*
X85681613Y-53887715D01*
X85681612Y-53887714D01*
X85681610Y-53887713D01*
X85624653Y-53858691D01*
X85499223Y-53794781D01*
X85304534Y-53731522D01*
X85129995Y-53703878D01*
X85102352Y-53699500D01*
X84897648Y-53699500D01*
X84873329Y-53703351D01*
X84695465Y-53731522D01*
X84500776Y-53794781D01*
X84318386Y-53887715D01*
X84152786Y-54008028D01*
X84008028Y-54152786D01*
X83887715Y-54318386D01*
X83794781Y-54500776D01*
X83731522Y-54695465D01*
X83699500Y-54897648D01*
X61500500Y-54897648D01*
X61500500Y-50868872D01*
X67499500Y-50868872D01*
X67499500Y-51131127D01*
X67526123Y-51333339D01*
X67533730Y-51391116D01*
X67601602Y-51644418D01*
X67601605Y-51644428D01*
X67701953Y-51886690D01*
X67701958Y-51886700D01*
X67833075Y-52113803D01*
X67992718Y-52321851D01*
X67992726Y-52321860D01*
X68178140Y-52507274D01*
X68178148Y-52507281D01*
X68386196Y-52666924D01*
X68613299Y-52798041D01*
X68613309Y-52798046D01*
X68839063Y-52891556D01*
X68855581Y-52898398D01*
X69108884Y-52966270D01*
X69368880Y-53000500D01*
X69368887Y-53000500D01*
X69631113Y-53000500D01*
X69631120Y-53000500D01*
X69891116Y-52966270D01*
X70144419Y-52898398D01*
X70329198Y-52821860D01*
X70386690Y-52798046D01*
X70386691Y-52798045D01*
X70386697Y-52798043D01*
X70613803Y-52666924D01*
X70821851Y-52507282D01*
X70821855Y-52507277D01*
X70821860Y-52507274D01*
X71007274Y-52321860D01*
X71007277Y-52321855D01*
X71007282Y-52321851D01*
X71166924Y-52113803D01*
X71298043Y-51886697D01*
X71398398Y-51644419D01*
X71466270Y-51391116D01*
X71469199Y-51368872D01*
X148999500Y-51368872D01*
X148999500Y-51631127D01*
X149026123Y-51833339D01*
X149033730Y-51891116D01*
X149093399Y-52113803D01*
X149101602Y-52144418D01*
X149101605Y-52144428D01*
X149201953Y-52386690D01*
X149201958Y-52386700D01*
X149333075Y-52613803D01*
X149492718Y-52821851D01*
X149492726Y-52821860D01*
X149678140Y-53007274D01*
X149678148Y-53007281D01*
X149886196Y-53166924D01*
X150113299Y-53298041D01*
X150113309Y-53298046D01*
X150355571Y-53398394D01*
X150355581Y-53398398D01*
X150608884Y-53466270D01*
X150868880Y-53500500D01*
X150868887Y-53500500D01*
X151131113Y-53500500D01*
X151131120Y-53500500D01*
X151391116Y-53466270D01*
X151644419Y-53398398D01*
X151886697Y-53298043D01*
X152113803Y-53166924D01*
X152321851Y-53007282D01*
X152321855Y-53007277D01*
X152321860Y-53007274D01*
X152507274Y-52821860D01*
X152507277Y-52821855D01*
X152507282Y-52821851D01*
X152666924Y-52613803D01*
X152798043Y-52386697D01*
X152805919Y-52367684D01*
X152898394Y-52144428D01*
X152898398Y-52144419D01*
X152966270Y-51891116D01*
X153000500Y-51631120D01*
X153000500Y-51368880D01*
X152966270Y-51108884D01*
X152898398Y-50855581D01*
X152898394Y-50855571D01*
X152798046Y-50613309D01*
X152798041Y-50613299D01*
X152666924Y-50386196D01*
X152507281Y-50178148D01*
X152507274Y-50178140D01*
X152321860Y-49992726D01*
X152321851Y-49992718D01*
X152113803Y-49833075D01*
X151886700Y-49701958D01*
X151886690Y-49701953D01*
X151644428Y-49601605D01*
X151644421Y-49601603D01*
X151644419Y-49601602D01*
X151391116Y-49533730D01*
X151333339Y-49526123D01*
X151131127Y-49499500D01*
X151131120Y-49499500D01*
X150868880Y-49499500D01*
X150868872Y-49499500D01*
X150637772Y-49529926D01*
X150608884Y-49533730D01*
X150355581Y-49601602D01*
X150355571Y-49601605D01*
X150113309Y-49701953D01*
X150113299Y-49701958D01*
X149886196Y-49833075D01*
X149678148Y-49992718D01*
X149492718Y-50178148D01*
X149333075Y-50386196D01*
X149201958Y-50613299D01*
X149201953Y-50613309D01*
X149101605Y-50855571D01*
X149101602Y-50855581D01*
X149033730Y-51108885D01*
X148999500Y-51368872D01*
X71469199Y-51368872D01*
X71500500Y-51131120D01*
X71500500Y-50868880D01*
X71466270Y-50608884D01*
X71398398Y-50355581D01*
X71398394Y-50355571D01*
X71298046Y-50113309D01*
X71298041Y-50113299D01*
X71166924Y-49886196D01*
X71025551Y-49701957D01*
X71007282Y-49678149D01*
X71007281Y-49678148D01*
X71007274Y-49678140D01*
X70821860Y-49492726D01*
X70821851Y-49492718D01*
X70613803Y-49333075D01*
X70386700Y-49201958D01*
X70386690Y-49201953D01*
X70144428Y-49101605D01*
X70144421Y-49101603D01*
X70144419Y-49101602D01*
X69891116Y-49033730D01*
X69833339Y-49026123D01*
X69631127Y-48999500D01*
X69631120Y-48999500D01*
X69368880Y-48999500D01*
X69368872Y-48999500D01*
X69137772Y-49029926D01*
X69108884Y-49033730D01*
X68855581Y-49101602D01*
X68855571Y-49101605D01*
X68613309Y-49201953D01*
X68613299Y-49201958D01*
X68386196Y-49333075D01*
X68178148Y-49492718D01*
X67992718Y-49678148D01*
X67833075Y-49886196D01*
X67701958Y-50113299D01*
X67701953Y-50113309D01*
X67601605Y-50355571D01*
X67601602Y-50355581D01*
X67533730Y-50608884D01*
X67529926Y-50637772D01*
X67499500Y-50868872D01*
X61500500Y-50868872D01*
X61500500Y-46124500D01*
X61520185Y-46057461D01*
X61572989Y-46011706D01*
X61624500Y-46000500D01*
X158875500Y-46000500D01*
X158942539Y-46020185D01*
G37*
%TD.AperFunction*%
%TD*%
M02*
