%TF.GenerationSoftware,KiCad,Pcbnew,9.0.7*%
%TF.CreationDate,2026-03-15T15:08:17-04:00*%
%TF.ProjectId,projet,70726f6a-6574-42e6-9b69-6361645f7063,rev?*%
%TF.SameCoordinates,Original*%
%TF.FileFunction,Copper,L2,Bot*%
%TF.FilePolarity,Positive*%
%FSLAX46Y46*%
G04 Gerber Fmt 4.6, Leading zero omitted, Abs format (unit mm)*
G04 Created by KiCad (PCBNEW 9.0.7) date 2026-03-15 15:08:17*
%MOMM*%
%LPD*%
G01*
G04 APERTURE LIST*
%TA.AperFunction,ComponentPad*%
%ADD10C,1.700000*%
%TD*%
%TA.AperFunction,ComponentPad*%
%ADD11R,1.700000X1.700000*%
%TD*%
%TA.AperFunction,ComponentPad*%
%ADD12R,1.600200X1.600200*%
%TD*%
%TA.AperFunction,ComponentPad*%
%ADD13C,1.600200*%
%TD*%
%TA.AperFunction,ComponentPad*%
%ADD14C,2.220000*%
%TD*%
%TA.AperFunction,ComponentPad*%
%ADD15C,1.800000*%
%TD*%
%TA.AperFunction,ComponentPad*%
%ADD16R,1.800000X1.800000*%
%TD*%
%TA.AperFunction,ComponentPad*%
%ADD17C,1.600000*%
%TD*%
%TA.AperFunction,ComponentPad*%
%ADD18C,1.320800*%
%TD*%
%TA.AperFunction,ComponentPad*%
%ADD19R,1.320800X1.320800*%
%TD*%
G04 APERTURE END LIST*
D10*
%TO.P,U2,12,VIN*%
%TO.N,unconnected-(U2-VIN-Pad12)*%
X137650000Y-91850000D03*
%TO.P,U2,11,3Vo*%
%TO.N,unconnected-(U2-3Vo-Pad11)*%
X140190000Y-91850000D03*
%TO.P,U2,10,GND*%
%TO.N,unconnected-(U2-GND-Pad10)*%
X142730000Y-91850000D03*
%TO.P,U2,9,INT*%
%TO.N,unconnected-(U2-INT-Pad9)*%
X145270000Y-91850000D03*
%TO.P,U2,8,SDA*%
%TO.N,Net-(U1-SDA{slash}IO21)*%
X147810000Y-91850000D03*
%TO.P,U2,7,SCL*%
%TO.N,Net-(U1-SCL{slash}IO22)*%
X150350000Y-91850000D03*
%TO.P,U2,6,GND*%
%TO.N,GND*%
X150350000Y-79150000D03*
%TO.P,U2,5,FSYNC*%
%TO.N,unconnected-(U2-FSYNC-Pad5)*%
X147810000Y-79150000D03*
%TO.P,U2,4,AD0*%
%TO.N,unconnected-(U2-AD0-Pad4)*%
X145270000Y-79150000D03*
%TO.P,U2,3,GND*%
%TO.N,unconnected-(U2-GND-Pad3)*%
X142730000Y-79150000D03*
%TO.P,U2,2,3Vo*%
%TO.N,unconnected-(U2-3Vo-Pad2)*%
X140190000Y-79150000D03*
D11*
%TO.P,U2,1,VIN*%
%TO.N,+3.3V*%
X137650000Y-79150000D03*
%TD*%
D12*
%TO.P,SW1,1,1*%
%TO.N,Net-(U1-IO27{slash}TOUCH7)*%
X78500000Y-73612900D03*
D13*
%TO.P,SW1,2,2*%
%TO.N,GND*%
X78500000Y-78692900D03*
%TD*%
D14*
%TO.P,U1,32,VBUS*%
%TO.N,unconnected-(U1-VBUS-Pad32)*%
X127000000Y-107600000D03*
%TO.P,U1,31,GND*%
%TO.N,unconnected-(U1-GND-Pad31)*%
X127000000Y-105060000D03*
%TO.P,U1,30,RST*%
%TO.N,unconnected-(U1-RST-Pad30)*%
X127000000Y-102520000D03*
%TO.P,U1,29,IO00/TOUCH1*%
%TO.N,unconnected-(U1-IO00{slash}TOUCH1-Pad29)*%
X127000000Y-99980000D03*
%TO.P,U1,28,IO36/S_VP*%
%TO.N,unconnected-(U1-IO36{slash}S_VP-Pad28)*%
X127000000Y-97440000D03*
%TO.P,U1,27,IO39/S_VN*%
%TO.N,unconnected-(U1-IO39{slash}S_VN-Pad27)*%
X127000000Y-94900000D03*
%TO.P,U1,26,CS/IO05*%
%TO.N,unconnected-(U1-CS{slash}IO05-Pad26)*%
X127000000Y-92360000D03*
%TO.P,U1,25,SCK/IO18*%
%TO.N,unconnected-(U1-SCK{slash}IO18-Pad25)*%
X127000000Y-89820000D03*
%TO.P,U1,24,MISO/IO19*%
%TO.N,unconnected-(U1-MISO{slash}IO19-Pad24)*%
X127000000Y-87280000D03*
%TO.P,U1,23,MOSI/IO23*%
%TO.N,unconnected-(U1-MOSI{slash}IO23-Pad23)*%
X127000000Y-84740000D03*
%TO.P,U1,22,SDA/IO21*%
%TO.N,Net-(U1-SDA{slash}IO21)*%
X127000000Y-82200000D03*
%TO.P,U1,21,SCL/IO22*%
%TO.N,Net-(U1-SCL{slash}IO22)*%
X127000000Y-79660000D03*
%TO.P,U1,20,GND*%
%TO.N,unconnected-(U1-GND-Pad20)*%
X127000000Y-77120000D03*
%TO.P,U1,19,3V3*%
%TO.N,unconnected-(U1-3V3-Pad19)*%
X127000000Y-74580000D03*
%TO.P,U1,18,RXD/IO03*%
%TO.N,unconnected-(U1-RXD{slash}IO03-Pad18)*%
X127000000Y-72040000D03*
%TO.P,U1,17,TXD/IO01*%
%TO.N,unconnected-(U1-TXD{slash}IO01-Pad17)*%
X127000000Y-69500000D03*
%TO.P,U1,16,VBAT*%
%TO.N,unconnected-(U1-VBAT-Pad16)*%
X93980000Y-107600000D03*
%TO.P,U1,15,IO12/TOUCH5*%
%TO.N,Net-(U1-IO12{slash}TOUCH5)*%
X93980000Y-105060000D03*
%TO.P,U1,14,IO13/TOUCH4*%
%TO.N,Net-(U1-IO13{slash}TOUCH4)*%
X93980000Y-102520000D03*
%TO.P,U1,13,IO14/TOUCH6*%
%TO.N,Net-(U1-IO14{slash}TOUCH6)*%
X93980000Y-99980000D03*
%TO.P,U1,12,IO15/TOUCH3*%
%TO.N,Net-(U1-IO15{slash}TOUCH3)*%
X93980000Y-97440000D03*
%TO.P,U1,11,IO02/TOUCH2*%
%TO.N,unconnected-(U1-IO02{slash}TOUCH2-Pad11)*%
X93980000Y-94900000D03*
%TO.P,U1,10,IO04/TOUCH0*%
%TO.N,unconnected-(U1-IO04{slash}TOUCH0-Pad10)*%
X93980000Y-92360000D03*
%TO.P,U1,9,IO27/TOUCH7*%
%TO.N,Net-(U1-IO27{slash}TOUCH7)*%
X93980000Y-89820000D03*
%TO.P,U1,8,IO26/DAC2*%
%TO.N,unconnected-(U1-IO26{slash}DAC2-Pad8)*%
X93980000Y-87280000D03*
%TO.P,U1,7,IO25/DAC1*%
%TO.N,unconnected-(U1-IO25{slash}DAC1-Pad7)*%
X93980000Y-84740000D03*
%TO.P,U1,6,IO35/ADC7*%
%TO.N,Net-(U1-IO35{slash}ADC7)*%
X93980000Y-82200000D03*
%TO.P,U1,5,IO34/ADC6*%
%TO.N,Net-(U1-IO34{slash}ADC6)*%
X93980000Y-79660000D03*
%TO.P,U1,4,IO33/TOUCH8*%
%TO.N,unconnected-(U1-IO33{slash}TOUCH8-Pad4)*%
X93980000Y-77120000D03*
%TO.P,U1,3,IO32/TOUCH9*%
%TO.N,unconnected-(U1-IO32{slash}TOUCH9-Pad3)*%
X93980000Y-74580000D03*
%TO.P,U1,2,GND*%
%TO.N,GND*%
X93980000Y-72040000D03*
%TO.P,U1,1,3V3*%
%TO.N,unconnected-(U1-3V3-Pad1)*%
X93980000Y-69500000D03*
%TD*%
D15*
%TO.P,D1,2,A*%
%TO.N,Net-(D1-A)*%
X68540000Y-119000000D03*
D16*
%TO.P,D1,1,K*%
%TO.N,GND*%
X66000000Y-119000000D03*
%TD*%
D15*
%TO.P,D2,2,A*%
%TO.N,Net-(D2-A)*%
X68540000Y-108000000D03*
D16*
%TO.P,D2,1,K*%
%TO.N,GND*%
X66000000Y-108000000D03*
%TD*%
D17*
%TO.P,R2,2*%
%TO.N,Net-(U1-IO13{slash}TOUCH4)*%
X81350000Y-108000000D03*
%TO.P,R2,1*%
%TO.N,Net-(D2-A)*%
X73730000Y-108000000D03*
%TD*%
D15*
%TO.P,D3,2,A*%
%TO.N,Net-(D3-A)*%
X68540000Y-96000000D03*
D16*
%TO.P,D3,1,K*%
%TO.N,GND*%
X66000000Y-96000000D03*
%TD*%
D17*
%TO.P,R1,2*%
%TO.N,Net-(U1-IO12{slash}TOUCH5)*%
X81160000Y-119000000D03*
%TO.P,R1,1*%
%TO.N,Net-(D1-A)*%
X73540000Y-119000000D03*
%TD*%
%TO.P,R5,2*%
%TO.N,Net-(U1-IO27{slash}TOUCH7)*%
X85000000Y-62620000D03*
%TO.P,R5,1*%
%TO.N,+3.3V*%
X85000000Y-55000000D03*
%TD*%
%TO.P,R4,2*%
%TO.N,Net-(U1-IO15{slash}TOUCH3)*%
X80850000Y-85000000D03*
%TO.P,R4,1*%
%TO.N,Net-(D4-A)*%
X73230000Y-85000000D03*
%TD*%
%TO.P,R3,2*%
%TO.N,Net-(U1-IO14{slash}TOUCH6)*%
X81850000Y-96000000D03*
%TO.P,R3,1*%
%TO.N,Net-(D3-A)*%
X74230000Y-96000000D03*
%TD*%
D18*
%TO.P,RV2,1,1*%
%TO.N,+3.3V*%
X103531500Y-55012700D03*
D19*
%TO.P,RV2,2,2*%
%TO.N,Net-(U1-IO34{slash}ADC6)*%
X106071500Y-57552700D03*
%TO.P,RV2,3,3*%
%TO.N,GND*%
X108611500Y-55012700D03*
%TD*%
D18*
%TO.P,RV1,1,1*%
%TO.N,+3.3V*%
X132000000Y-53500000D03*
D19*
%TO.P,RV1,2,2*%
%TO.N,Net-(U1-IO35{slash}ADC7)*%
X129460000Y-56040000D03*
%TO.P,RV1,3,3*%
%TO.N,GND*%
X132000000Y-58580000D03*
%TD*%
D16*
%TO.P,D4,1,K*%
%TO.N,GND*%
X66000000Y-85000000D03*
D15*
%TO.P,D4,2,A*%
%TO.N,Net-(D4-A)*%
X68540000Y-85000000D03*
%TD*%
%TA.AperFunction,Conductor*%
%TO.N,GND*%
G36*
X158942539Y-46020185D02*
G01*
X158988294Y-46072989D01*
X158999500Y-46124500D01*
X158999500Y-137875500D01*
X158979815Y-137942539D01*
X158927011Y-137988294D01*
X158875500Y-137999500D01*
X61624500Y-137999500D01*
X61557461Y-137979815D01*
X61511706Y-137927011D01*
X61500500Y-137875500D01*
X61500500Y-132368872D01*
X68499500Y-132368872D01*
X68499500Y-132631127D01*
X68526123Y-132833339D01*
X68533730Y-132891116D01*
X68601602Y-133144418D01*
X68601605Y-133144428D01*
X68701953Y-133386690D01*
X68701958Y-133386700D01*
X68833075Y-133613803D01*
X68992718Y-133821851D01*
X68992726Y-133821860D01*
X69178140Y-134007274D01*
X69178148Y-134007281D01*
X69386196Y-134166924D01*
X69613299Y-134298041D01*
X69613309Y-134298046D01*
X69855571Y-134398394D01*
X69855581Y-134398398D01*
X70108884Y-134466270D01*
X70368880Y-134500500D01*
X70368887Y-134500500D01*
X70631113Y-134500500D01*
X70631120Y-134500500D01*
X70891116Y-134466270D01*
X71144419Y-134398398D01*
X71386697Y-134298043D01*
X71613803Y-134166924D01*
X71821851Y-134007282D01*
X71821855Y-134007277D01*
X71821860Y-134007274D01*
X72007274Y-133821860D01*
X72007277Y-133821855D01*
X72007282Y-133821851D01*
X72166924Y-133613803D01*
X72298043Y-133386697D01*
X72398398Y-133144419D01*
X72466270Y-132891116D01*
X72500500Y-132631120D01*
X72500500Y-132368880D01*
X72500499Y-132368872D01*
X148999500Y-132368872D01*
X148999500Y-132631127D01*
X149026123Y-132833339D01*
X149033730Y-132891116D01*
X149101602Y-133144418D01*
X149101605Y-133144428D01*
X149201953Y-133386690D01*
X149201958Y-133386700D01*
X149333075Y-133613803D01*
X149492718Y-133821851D01*
X149492726Y-133821860D01*
X149678140Y-134007274D01*
X149678148Y-134007281D01*
X149886196Y-134166924D01*
X150113299Y-134298041D01*
X150113309Y-134298046D01*
X150355571Y-134398394D01*
X150355581Y-134398398D01*
X150608884Y-134466270D01*
X150868880Y-134500500D01*
X150868887Y-134500500D01*
X151131113Y-134500500D01*
X151131120Y-134500500D01*
X151391116Y-134466270D01*
X151644419Y-134398398D01*
X151886697Y-134298043D01*
X152113803Y-134166924D01*
X152321851Y-134007282D01*
X152321855Y-134007277D01*
X152321860Y-134007274D01*
X152507274Y-133821860D01*
X152507277Y-133821855D01*
X152507282Y-133821851D01*
X152666924Y-133613803D01*
X152798043Y-133386697D01*
X152898398Y-133144419D01*
X152966270Y-132891116D01*
X153000500Y-132631120D01*
X153000500Y-132368880D01*
X152966270Y-132108884D01*
X152898398Y-131855581D01*
X152898394Y-131855571D01*
X152798046Y-131613309D01*
X152798041Y-131613299D01*
X152666924Y-131386196D01*
X152507281Y-131178148D01*
X152507274Y-131178140D01*
X152321860Y-130992726D01*
X152321851Y-130992718D01*
X152113803Y-130833075D01*
X151886700Y-130701958D01*
X151886690Y-130701953D01*
X151644428Y-130601605D01*
X151644421Y-130601603D01*
X151644419Y-130601602D01*
X151391116Y-130533730D01*
X151333339Y-130526123D01*
X151131127Y-130499500D01*
X151131120Y-130499500D01*
X150868880Y-130499500D01*
X150868872Y-130499500D01*
X150637772Y-130529926D01*
X150608884Y-130533730D01*
X150355581Y-130601602D01*
X150355571Y-130601605D01*
X150113309Y-130701953D01*
X150113299Y-130701958D01*
X149886196Y-130833075D01*
X149678148Y-130992718D01*
X149492718Y-131178148D01*
X149333075Y-131386196D01*
X149201958Y-131613299D01*
X149201953Y-131613309D01*
X149101605Y-131855571D01*
X149101602Y-131855581D01*
X149033730Y-132108885D01*
X148999500Y-132368872D01*
X72500499Y-132368872D01*
X72466270Y-132108884D01*
X72398398Y-131855581D01*
X72398394Y-131855571D01*
X72298046Y-131613309D01*
X72298041Y-131613299D01*
X72166924Y-131386196D01*
X72007281Y-131178148D01*
X72007274Y-131178140D01*
X71821860Y-130992726D01*
X71821851Y-130992718D01*
X71613803Y-130833075D01*
X71386700Y-130701958D01*
X71386690Y-130701953D01*
X71144428Y-130601605D01*
X71144421Y-130601603D01*
X71144419Y-130601602D01*
X70891116Y-130533730D01*
X70833339Y-130526123D01*
X70631127Y-130499500D01*
X70631120Y-130499500D01*
X70368880Y-130499500D01*
X70368872Y-130499500D01*
X70137772Y-130529926D01*
X70108884Y-130533730D01*
X69855581Y-130601602D01*
X69855571Y-130601605D01*
X69613309Y-130701953D01*
X69613299Y-130701958D01*
X69386196Y-130833075D01*
X69178148Y-130992718D01*
X68992718Y-131178148D01*
X68833075Y-131386196D01*
X68701958Y-131613299D01*
X68701953Y-131613309D01*
X68601605Y-131855571D01*
X68601602Y-131855581D01*
X68533730Y-132108885D01*
X68499500Y-132368872D01*
X61500500Y-132368872D01*
X61500500Y-118052155D01*
X64600000Y-118052155D01*
X64600000Y-118750000D01*
X65624722Y-118750000D01*
X65580667Y-118826306D01*
X65550000Y-118940756D01*
X65550000Y-119059244D01*
X65580667Y-119173694D01*
X65624722Y-119250000D01*
X64600000Y-119250000D01*
X64600000Y-119947844D01*
X64606401Y-120007372D01*
X64606403Y-120007379D01*
X64656645Y-120142086D01*
X64656649Y-120142093D01*
X64742809Y-120257187D01*
X64742812Y-120257190D01*
X64857906Y-120343350D01*
X64857913Y-120343354D01*
X64992620Y-120393596D01*
X64992627Y-120393598D01*
X65052155Y-120399999D01*
X65052172Y-120400000D01*
X65750000Y-120400000D01*
X65750000Y-119375277D01*
X65826306Y-119419333D01*
X65940756Y-119450000D01*
X66059244Y-119450000D01*
X66173694Y-119419333D01*
X66250000Y-119375277D01*
X66250000Y-120400000D01*
X66947828Y-120400000D01*
X66947844Y-120399999D01*
X67007372Y-120393598D01*
X67007379Y-120393596D01*
X67142086Y-120343354D01*
X67142093Y-120343350D01*
X67257187Y-120257190D01*
X67257190Y-120257187D01*
X67343350Y-120142093D01*
X67343354Y-120142086D01*
X67373213Y-120062031D01*
X67415084Y-120006097D01*
X67480548Y-119981680D01*
X67548821Y-119996531D01*
X67577076Y-120017683D01*
X67627636Y-120068243D01*
X67627641Y-120068247D01*
X67783192Y-120181260D01*
X67805978Y-120197815D01*
X67922501Y-120257187D01*
X68002393Y-120297895D01*
X68002396Y-120297896D01*
X68107221Y-120331955D01*
X68212049Y-120366015D01*
X68429778Y-120400500D01*
X68429779Y-120400500D01*
X68650221Y-120400500D01*
X68650222Y-120400500D01*
X68867951Y-120366015D01*
X69077606Y-120297895D01*
X69274022Y-120197815D01*
X69452365Y-120068242D01*
X69608242Y-119912365D01*
X69737815Y-119734022D01*
X69837895Y-119537606D01*
X69906015Y-119327951D01*
X69940500Y-119110222D01*
X69940500Y-118897648D01*
X72239500Y-118897648D01*
X72239500Y-119102351D01*
X72271522Y-119304534D01*
X72334781Y-119499223D01*
X72427715Y-119681613D01*
X72548028Y-119847213D01*
X72692786Y-119991971D01*
X72847749Y-120104556D01*
X72858390Y-120112287D01*
X72974607Y-120171503D01*
X73040776Y-120205218D01*
X73040778Y-120205218D01*
X73040781Y-120205220D01*
X73145137Y-120239127D01*
X73235465Y-120268477D01*
X73336557Y-120284488D01*
X73437648Y-120300500D01*
X73437649Y-120300500D01*
X73642351Y-120300500D01*
X73642352Y-120300500D01*
X73844534Y-120268477D01*
X74039219Y-120205220D01*
X74221610Y-120112287D01*
X74314590Y-120044732D01*
X74387213Y-119991971D01*
X74387215Y-119991968D01*
X74387219Y-119991966D01*
X74531966Y-119847219D01*
X74531968Y-119847215D01*
X74531971Y-119847213D01*
X74584732Y-119774590D01*
X74652287Y-119681610D01*
X74745220Y-119499219D01*
X74808477Y-119304534D01*
X74840500Y-119102352D01*
X74840500Y-118897648D01*
X79859500Y-118897648D01*
X79859500Y-119102351D01*
X79891522Y-119304534D01*
X79954781Y-119499223D01*
X80047715Y-119681613D01*
X80168028Y-119847213D01*
X80312786Y-119991971D01*
X80467749Y-120104556D01*
X80478390Y-120112287D01*
X80594607Y-120171503D01*
X80660776Y-120205218D01*
X80660778Y-120205218D01*
X80660781Y-120205220D01*
X80765137Y-120239127D01*
X80855465Y-120268477D01*
X80956557Y-120284488D01*
X81057648Y-120300500D01*
X81057649Y-120300500D01*
X81262351Y-120300500D01*
X81262352Y-120300500D01*
X81464534Y-120268477D01*
X81659219Y-120205220D01*
X81841610Y-120112287D01*
X81934590Y-120044732D01*
X82007213Y-119991971D01*
X82007215Y-119991968D01*
X82007219Y-119991966D01*
X82151966Y-119847219D01*
X82151968Y-119847215D01*
X82151971Y-119847213D01*
X82204732Y-119774590D01*
X82272287Y-119681610D01*
X82365220Y-119499219D01*
X82428477Y-119304534D01*
X82460500Y-119102352D01*
X82460500Y-118897648D01*
X82428477Y-118695465D01*
X82399127Y-118605137D01*
X82365220Y-118500781D01*
X82365218Y-118500778D01*
X82365218Y-118500776D01*
X82331503Y-118434607D01*
X82272287Y-118318390D01*
X82234205Y-118265974D01*
X82151971Y-118152786D01*
X82007213Y-118008028D01*
X81841613Y-117887715D01*
X81841612Y-117887714D01*
X81841610Y-117887713D01*
X81783111Y-117857906D01*
X81659223Y-117794781D01*
X81464534Y-117731522D01*
X81278799Y-117702105D01*
X81262352Y-117699500D01*
X81057648Y-117699500D01*
X81041201Y-117702105D01*
X80855465Y-117731522D01*
X80660776Y-117794781D01*
X80478386Y-117887715D01*
X80312786Y-118008028D01*
X80168028Y-118152786D01*
X80047715Y-118318386D01*
X79954781Y-118500776D01*
X79891522Y-118695465D01*
X79859500Y-118897648D01*
X74840500Y-118897648D01*
X74808477Y-118695465D01*
X74779127Y-118605137D01*
X74745220Y-118500781D01*
X74745218Y-118500778D01*
X74745218Y-118500776D01*
X74711503Y-118434607D01*
X74652287Y-118318390D01*
X74614205Y-118265974D01*
X74531971Y-118152786D01*
X74387213Y-118008028D01*
X74221613Y-117887715D01*
X74221612Y-117887714D01*
X74221610Y-117887713D01*
X74163111Y-117857906D01*
X74039223Y-117794781D01*
X73844534Y-117731522D01*
X73658799Y-117702105D01*
X73642352Y-117699500D01*
X73437648Y-117699500D01*
X73421201Y-117702105D01*
X73235465Y-117731522D01*
X73040776Y-117794781D01*
X72858386Y-117887715D01*
X72692786Y-118008028D01*
X72548028Y-118152786D01*
X72427715Y-118318386D01*
X72334781Y-118500776D01*
X72271522Y-118695465D01*
X72239500Y-118897648D01*
X69940500Y-118897648D01*
X69940500Y-118889778D01*
X69906015Y-118672049D01*
X69871955Y-118567221D01*
X69837896Y-118462396D01*
X69837895Y-118462393D01*
X69803237Y-118394375D01*
X69737815Y-118265978D01*
X69655573Y-118152781D01*
X69608247Y-118087641D01*
X69608243Y-118087636D01*
X69452363Y-117931756D01*
X69452358Y-117931752D01*
X69274025Y-117802187D01*
X69274024Y-117802186D01*
X69274022Y-117802185D01*
X69211096Y-117770122D01*
X69077606Y-117702104D01*
X69077603Y-117702103D01*
X68867952Y-117633985D01*
X68759086Y-117616742D01*
X68650222Y-117599500D01*
X68429778Y-117599500D01*
X68357201Y-117610995D01*
X68212047Y-117633985D01*
X68002396Y-117702103D01*
X68002393Y-117702104D01*
X67805974Y-117802187D01*
X67627641Y-117931752D01*
X67627636Y-117931756D01*
X67577075Y-117982317D01*
X67515752Y-118015801D01*
X67446060Y-118010816D01*
X67390127Y-117968945D01*
X67373213Y-117937968D01*
X67343354Y-117857913D01*
X67343350Y-117857906D01*
X67257190Y-117742812D01*
X67257187Y-117742809D01*
X67142093Y-117656649D01*
X67142086Y-117656645D01*
X67007379Y-117606403D01*
X67007372Y-117606401D01*
X66947844Y-117600000D01*
X66250000Y-117600000D01*
X66250000Y-118624722D01*
X66173694Y-118580667D01*
X66059244Y-118550000D01*
X65940756Y-118550000D01*
X65826306Y-118580667D01*
X65750000Y-118624722D01*
X65750000Y-117600000D01*
X65052155Y-117600000D01*
X64992627Y-117606401D01*
X64992620Y-117606403D01*
X64857913Y-117656645D01*
X64857906Y-117656649D01*
X64742812Y-117742809D01*
X64742809Y-117742812D01*
X64656649Y-117857906D01*
X64656645Y-117857913D01*
X64606403Y-117992620D01*
X64606401Y-117992627D01*
X64600000Y-118052155D01*
X61500500Y-118052155D01*
X61500500Y-107052155D01*
X64600000Y-107052155D01*
X64600000Y-107750000D01*
X65624722Y-107750000D01*
X65580667Y-107826306D01*
X65550000Y-107940756D01*
X65550000Y-108059244D01*
X65580667Y-108173694D01*
X65624722Y-108250000D01*
X64600000Y-108250000D01*
X64600000Y-108947844D01*
X64606401Y-109007372D01*
X64606403Y-109007379D01*
X64656645Y-109142086D01*
X64656649Y-109142093D01*
X64742809Y-109257187D01*
X64742812Y-109257190D01*
X64857906Y-109343350D01*
X64857913Y-109343354D01*
X64992620Y-109393596D01*
X64992627Y-109393598D01*
X65052155Y-109399999D01*
X65052172Y-109400000D01*
X65750000Y-109400000D01*
X65750000Y-108375277D01*
X65826306Y-108419333D01*
X65940756Y-108450000D01*
X66059244Y-108450000D01*
X66173694Y-108419333D01*
X66250000Y-108375277D01*
X66250000Y-109400000D01*
X66947828Y-109400000D01*
X66947844Y-109399999D01*
X67007372Y-109393598D01*
X67007379Y-109393596D01*
X67142086Y-109343354D01*
X67142093Y-109343350D01*
X67257187Y-109257190D01*
X67257190Y-109257187D01*
X67343350Y-109142093D01*
X67343354Y-109142086D01*
X67373213Y-109062031D01*
X67415084Y-109006097D01*
X67480548Y-108981680D01*
X67548821Y-108996531D01*
X67577076Y-109017683D01*
X67627636Y-109068243D01*
X67627641Y-109068247D01*
X67768854Y-109170843D01*
X67805978Y-109197815D01*
X67922501Y-109257187D01*
X68002393Y-109297895D01*
X68002396Y-109297896D01*
X68107221Y-109331955D01*
X68212049Y-109366015D01*
X68429778Y-109400500D01*
X68429779Y-109400500D01*
X68650221Y-109400500D01*
X68650222Y-109400500D01*
X68867951Y-109366015D01*
X69077606Y-109297895D01*
X69274022Y-109197815D01*
X69452365Y-109068242D01*
X69608242Y-108912365D01*
X69737815Y-108734022D01*
X69837895Y-108537606D01*
X69906015Y-108327951D01*
X69940500Y-108110222D01*
X69940500Y-107897648D01*
X72429500Y-107897648D01*
X72429500Y-108102351D01*
X72461522Y-108304534D01*
X72524781Y-108499223D01*
X72617715Y-108681613D01*
X72738028Y-108847213D01*
X72882786Y-108991971D01*
X73021169Y-109092510D01*
X73048390Y-109112287D01*
X73163312Y-109170843D01*
X73230776Y-109205218D01*
X73230778Y-109205218D01*
X73230781Y-109205220D01*
X73335137Y-109239127D01*
X73425465Y-109268477D01*
X73526557Y-109284488D01*
X73627648Y-109300500D01*
X73627649Y-109300500D01*
X73832351Y-109300500D01*
X73832352Y-109300500D01*
X74034534Y-109268477D01*
X74229219Y-109205220D01*
X74411610Y-109112287D01*
X74504590Y-109044732D01*
X74577213Y-108991971D01*
X74577215Y-108991968D01*
X74577219Y-108991966D01*
X74721966Y-108847219D01*
X74721968Y-108847215D01*
X74721971Y-108847213D01*
X74774732Y-108774590D01*
X74842287Y-108681610D01*
X74935220Y-108499219D01*
X74998477Y-108304534D01*
X75030500Y-108102352D01*
X75030500Y-107897648D01*
X80049500Y-107897648D01*
X80049500Y-108102351D01*
X80081522Y-108304534D01*
X80144781Y-108499223D01*
X80237715Y-108681613D01*
X80358028Y-108847213D01*
X80502786Y-108991971D01*
X80641169Y-109092510D01*
X80668390Y-109112287D01*
X80783312Y-109170843D01*
X80850776Y-109205218D01*
X80850778Y-109205218D01*
X80850781Y-109205220D01*
X80955137Y-109239127D01*
X81045465Y-109268477D01*
X81146557Y-109284488D01*
X81247648Y-109300500D01*
X81247649Y-109300500D01*
X81452351Y-109300500D01*
X81452352Y-109300500D01*
X81654534Y-109268477D01*
X81849219Y-109205220D01*
X82031610Y-109112287D01*
X82124590Y-109044732D01*
X82197213Y-108991971D01*
X82197215Y-108991968D01*
X82197219Y-108991966D01*
X82341966Y-108847219D01*
X82341968Y-108847215D01*
X82341971Y-108847213D01*
X82394732Y-108774590D01*
X82462287Y-108681610D01*
X82555220Y-108499219D01*
X82618477Y-108304534D01*
X82650500Y-108102352D01*
X82650500Y-107897648D01*
X82618477Y-107695465D01*
X82589127Y-107605137D01*
X82555220Y-107500781D01*
X82555218Y-107500778D01*
X82555218Y-107500776D01*
X82521503Y-107434607D01*
X82462287Y-107318390D01*
X82424205Y-107265974D01*
X82341971Y-107152786D01*
X82197213Y-107008028D01*
X82031613Y-106887715D01*
X82031612Y-106887714D01*
X82031610Y-106887713D01*
X81973111Y-106857906D01*
X81849223Y-106794781D01*
X81654534Y-106731522D01*
X81468799Y-106702105D01*
X81452352Y-106699500D01*
X81247648Y-106699500D01*
X81231201Y-106702105D01*
X81045465Y-106731522D01*
X80850776Y-106794781D01*
X80668386Y-106887715D01*
X80502786Y-107008028D01*
X80358028Y-107152786D01*
X80237715Y-107318386D01*
X80144781Y-107500776D01*
X80081522Y-107695465D01*
X80049500Y-107897648D01*
X75030500Y-107897648D01*
X74998477Y-107695465D01*
X74969127Y-107605137D01*
X74935220Y-107500781D01*
X74935218Y-107500778D01*
X74935218Y-107500776D01*
X74901503Y-107434607D01*
X74842287Y-107318390D01*
X74804205Y-107265974D01*
X74721971Y-107152786D01*
X74577213Y-107008028D01*
X74411613Y-106887715D01*
X74411612Y-106887714D01*
X74411610Y-106887713D01*
X74353111Y-106857906D01*
X74229223Y-106794781D01*
X74034534Y-106731522D01*
X73848799Y-106702105D01*
X73832352Y-106699500D01*
X73627648Y-106699500D01*
X73611201Y-106702105D01*
X73425465Y-106731522D01*
X73230776Y-106794781D01*
X73048386Y-106887715D01*
X72882786Y-107008028D01*
X72738028Y-107152786D01*
X72617715Y-107318386D01*
X72524781Y-107500776D01*
X72461522Y-107695465D01*
X72429500Y-107897648D01*
X69940500Y-107897648D01*
X69940500Y-107889778D01*
X69906015Y-107672049D01*
X69871955Y-107567221D01*
X69837896Y-107462396D01*
X69837895Y-107462393D01*
X69803237Y-107394375D01*
X69737815Y-107265978D01*
X69655573Y-107152781D01*
X69608247Y-107087641D01*
X69608243Y-107087636D01*
X69452363Y-106931756D01*
X69452358Y-106931752D01*
X69274025Y-106802187D01*
X69274024Y-106802186D01*
X69274022Y-106802185D01*
X69183211Y-106755914D01*
X69077606Y-106702104D01*
X69077603Y-106702103D01*
X68867952Y-106633985D01*
X68759086Y-106616742D01*
X68650222Y-106599500D01*
X68429778Y-106599500D01*
X68357201Y-106610995D01*
X68212047Y-106633985D01*
X68002396Y-106702103D01*
X68002393Y-106702104D01*
X67805974Y-106802187D01*
X67627641Y-106931752D01*
X67627636Y-106931756D01*
X67577075Y-106982317D01*
X67515752Y-107015801D01*
X67446060Y-107010816D01*
X67390127Y-106968945D01*
X67373213Y-106937968D01*
X67343354Y-106857913D01*
X67343350Y-106857906D01*
X67257190Y-106742812D01*
X67257187Y-106742809D01*
X67142093Y-106656649D01*
X67142086Y-106656645D01*
X67007379Y-106606403D01*
X67007372Y-106606401D01*
X66947844Y-106600000D01*
X66250000Y-106600000D01*
X66250000Y-107624722D01*
X66173694Y-107580667D01*
X66059244Y-107550000D01*
X65940756Y-107550000D01*
X65826306Y-107580667D01*
X65750000Y-107624722D01*
X65750000Y-106600000D01*
X65052155Y-106600000D01*
X64992627Y-106606401D01*
X64992620Y-106606403D01*
X64857913Y-106656645D01*
X64857906Y-106656649D01*
X64742812Y-106742809D01*
X64742809Y-106742812D01*
X64656649Y-106857906D01*
X64656645Y-106857913D01*
X64606403Y-106992620D01*
X64606401Y-106992627D01*
X64600000Y-107052155D01*
X61500500Y-107052155D01*
X61500500Y-95052155D01*
X64600000Y-95052155D01*
X64600000Y-95750000D01*
X65624722Y-95750000D01*
X65580667Y-95826306D01*
X65550000Y-95940756D01*
X65550000Y-96059244D01*
X65580667Y-96173694D01*
X65624722Y-96250000D01*
X64600000Y-96250000D01*
X64600000Y-96947844D01*
X64606401Y-97007372D01*
X64606403Y-97007379D01*
X64656645Y-97142086D01*
X64656649Y-97142093D01*
X64742809Y-97257187D01*
X64742812Y-97257190D01*
X64857906Y-97343350D01*
X64857913Y-97343354D01*
X64992620Y-97393596D01*
X64992627Y-97393598D01*
X65052155Y-97399999D01*
X65052172Y-97400000D01*
X65750000Y-97400000D01*
X65750000Y-96375277D01*
X65826306Y-96419333D01*
X65940756Y-96450000D01*
X66059244Y-96450000D01*
X66173694Y-96419333D01*
X66250000Y-96375277D01*
X66250000Y-97400000D01*
X66947828Y-97400000D01*
X66947844Y-97399999D01*
X67007372Y-97393598D01*
X67007379Y-97393596D01*
X67142086Y-97343354D01*
X67142093Y-97343350D01*
X67257187Y-97257190D01*
X67257190Y-97257187D01*
X67343350Y-97142093D01*
X67343354Y-97142086D01*
X67373213Y-97062031D01*
X67415084Y-97006097D01*
X67480548Y-96981680D01*
X67548821Y-96996531D01*
X67577076Y-97017683D01*
X67627636Y-97068243D01*
X67627641Y-97068247D01*
X67783192Y-97181260D01*
X67805978Y-97197815D01*
X67922501Y-97257187D01*
X68002393Y-97297895D01*
X68002396Y-97297896D01*
X68107221Y-97331955D01*
X68212049Y-97366015D01*
X68429778Y-97400500D01*
X68429779Y-97400500D01*
X68650221Y-97400500D01*
X68650222Y-97400500D01*
X68867951Y-97366015D01*
X69077606Y-97297895D01*
X69274022Y-97197815D01*
X69452365Y-97068242D01*
X69608242Y-96912365D01*
X69737815Y-96734022D01*
X69837895Y-96537606D01*
X69906015Y-96327951D01*
X69940500Y-96110222D01*
X69940500Y-95897648D01*
X72929500Y-95897648D01*
X72929500Y-96102351D01*
X72961522Y-96304534D01*
X73024781Y-96499223D01*
X73117715Y-96681613D01*
X73238028Y-96847213D01*
X73382786Y-96991971D01*
X73537749Y-97104556D01*
X73548390Y-97112287D01*
X73664607Y-97171503D01*
X73730776Y-97205218D01*
X73730778Y-97205218D01*
X73730781Y-97205220D01*
X73835137Y-97239127D01*
X73925465Y-97268477D01*
X74026557Y-97284488D01*
X74127648Y-97300500D01*
X74127649Y-97300500D01*
X74332351Y-97300500D01*
X74332352Y-97300500D01*
X74534534Y-97268477D01*
X74729219Y-97205220D01*
X74911610Y-97112287D01*
X75004590Y-97044732D01*
X75077213Y-96991971D01*
X75077215Y-96991968D01*
X75077219Y-96991966D01*
X75221966Y-96847219D01*
X75221968Y-96847215D01*
X75221971Y-96847213D01*
X75274732Y-96774590D01*
X75342287Y-96681610D01*
X75435220Y-96499219D01*
X75498477Y-96304534D01*
X75530500Y-96102352D01*
X75530500Y-95897648D01*
X80549500Y-95897648D01*
X80549500Y-96102351D01*
X80581522Y-96304534D01*
X80644781Y-96499223D01*
X80737715Y-96681613D01*
X80858028Y-96847213D01*
X81002786Y-96991971D01*
X81157749Y-97104556D01*
X81168390Y-97112287D01*
X81284607Y-97171503D01*
X81350776Y-97205218D01*
X81350778Y-97205218D01*
X81350781Y-97205220D01*
X81455137Y-97239127D01*
X81545465Y-97268477D01*
X81646557Y-97284488D01*
X81747648Y-97300500D01*
X81747649Y-97300500D01*
X81952351Y-97300500D01*
X81952352Y-97300500D01*
X82154534Y-97268477D01*
X82349219Y-97205220D01*
X82531610Y-97112287D01*
X82624590Y-97044732D01*
X82697213Y-96991971D01*
X82697215Y-96991968D01*
X82697219Y-96991966D01*
X82841966Y-96847219D01*
X82841968Y-96847215D01*
X82841971Y-96847213D01*
X82894732Y-96774590D01*
X82962287Y-96681610D01*
X83055220Y-96499219D01*
X83118477Y-96304534D01*
X83150500Y-96102352D01*
X83150500Y-95897648D01*
X83118477Y-95695465D01*
X83089127Y-95605137D01*
X83055220Y-95500781D01*
X83055218Y-95500778D01*
X83055218Y-95500776D01*
X83021503Y-95434607D01*
X82962287Y-95318390D01*
X82924205Y-95265974D01*
X82841971Y-95152786D01*
X82697213Y-95008028D01*
X82531613Y-94887715D01*
X82531612Y-94887714D01*
X82531610Y-94887713D01*
X82473111Y-94857906D01*
X82349223Y-94794781D01*
X82154534Y-94731522D01*
X81968799Y-94702105D01*
X81952352Y-94699500D01*
X81747648Y-94699500D01*
X81731201Y-94702105D01*
X81545465Y-94731522D01*
X81350776Y-94794781D01*
X81168386Y-94887715D01*
X81002786Y-95008028D01*
X80858028Y-95152786D01*
X80737715Y-95318386D01*
X80644781Y-95500776D01*
X80581522Y-95695465D01*
X80549500Y-95897648D01*
X75530500Y-95897648D01*
X75498477Y-95695465D01*
X75469127Y-95605137D01*
X75435220Y-95500781D01*
X75435218Y-95500778D01*
X75435218Y-95500776D01*
X75401503Y-95434607D01*
X75342287Y-95318390D01*
X75304205Y-95265974D01*
X75221971Y-95152786D01*
X75077213Y-95008028D01*
X74911613Y-94887715D01*
X74911612Y-94887714D01*
X74911610Y-94887713D01*
X74853111Y-94857906D01*
X74729223Y-94794781D01*
X74534534Y-94731522D01*
X74348799Y-94702105D01*
X74332352Y-94699500D01*
X74127648Y-94699500D01*
X74111201Y-94702105D01*
X73925465Y-94731522D01*
X73730776Y-94794781D01*
X73548386Y-94887715D01*
X73382786Y-95008028D01*
X73238028Y-95152786D01*
X73117715Y-95318386D01*
X73024781Y-95500776D01*
X72961522Y-95695465D01*
X72929500Y-95897648D01*
X69940500Y-95897648D01*
X69940500Y-95889778D01*
X69906015Y-95672049D01*
X69871955Y-95567221D01*
X69837896Y-95462396D01*
X69837895Y-95462393D01*
X69803237Y-95394375D01*
X69737815Y-95265978D01*
X69655573Y-95152781D01*
X69608247Y-95087641D01*
X69608243Y-95087636D01*
X69452363Y-94931756D01*
X69452358Y-94931752D01*
X69274025Y-94802187D01*
X69274024Y-94802186D01*
X69274022Y-94802185D01*
X69211096Y-94770122D01*
X69077606Y-94702104D01*
X69077603Y-94702103D01*
X68867952Y-94633985D01*
X68759086Y-94616742D01*
X68650222Y-94599500D01*
X68429778Y-94599500D01*
X68357201Y-94610995D01*
X68212047Y-94633985D01*
X68002396Y-94702103D01*
X68002393Y-94702104D01*
X67805974Y-94802187D01*
X67627641Y-94931752D01*
X67627636Y-94931756D01*
X67577075Y-94982317D01*
X67515752Y-95015801D01*
X67446060Y-95010816D01*
X67390127Y-94968945D01*
X67373213Y-94937968D01*
X67343354Y-94857913D01*
X67343350Y-94857906D01*
X67257190Y-94742812D01*
X67257187Y-94742809D01*
X67142093Y-94656649D01*
X67142086Y-94656645D01*
X67007379Y-94606403D01*
X67007372Y-94606401D01*
X66947844Y-94600000D01*
X66250000Y-94600000D01*
X66250000Y-95624722D01*
X66173694Y-95580667D01*
X66059244Y-95550000D01*
X65940756Y-95550000D01*
X65826306Y-95580667D01*
X65750000Y-95624722D01*
X65750000Y-94600000D01*
X65052155Y-94600000D01*
X64992627Y-94606401D01*
X64992620Y-94606403D01*
X64857913Y-94656645D01*
X64857906Y-94656649D01*
X64742812Y-94742809D01*
X64742809Y-94742812D01*
X64656649Y-94857906D01*
X64656645Y-94857913D01*
X64606403Y-94992620D01*
X64606401Y-94992627D01*
X64600000Y-95052155D01*
X61500500Y-95052155D01*
X61500500Y-84052155D01*
X64600000Y-84052155D01*
X64600000Y-84750000D01*
X65624722Y-84750000D01*
X65580667Y-84826306D01*
X65550000Y-84940756D01*
X65550000Y-85059244D01*
X65580667Y-85173694D01*
X65624722Y-85250000D01*
X64600000Y-85250000D01*
X64600000Y-85947844D01*
X64606401Y-86007372D01*
X64606403Y-86007379D01*
X64656645Y-86142086D01*
X64656649Y-86142093D01*
X64742809Y-86257187D01*
X64742812Y-86257190D01*
X64857906Y-86343350D01*
X64857913Y-86343354D01*
X64992620Y-86393596D01*
X64992627Y-86393598D01*
X65052155Y-86399999D01*
X65052172Y-86400000D01*
X65750000Y-86400000D01*
X65750000Y-85375277D01*
X65826306Y-85419333D01*
X65940756Y-85450000D01*
X66059244Y-85450000D01*
X66173694Y-85419333D01*
X66250000Y-85375277D01*
X66250000Y-86400000D01*
X66947828Y-86400000D01*
X66947844Y-86399999D01*
X67007372Y-86393598D01*
X67007379Y-86393596D01*
X67142086Y-86343354D01*
X67142093Y-86343350D01*
X67257187Y-86257190D01*
X67257190Y-86257187D01*
X67343350Y-86142093D01*
X67343354Y-86142086D01*
X67373213Y-86062031D01*
X67415084Y-86006097D01*
X67480548Y-85981680D01*
X67548821Y-85996531D01*
X67577076Y-86017683D01*
X67627636Y-86068243D01*
X67627641Y-86068247D01*
X67783192Y-86181260D01*
X67805978Y-86197815D01*
X67922501Y-86257187D01*
X68002393Y-86297895D01*
X68002396Y-86297896D01*
X68107221Y-86331955D01*
X68212049Y-86366015D01*
X68429778Y-86400500D01*
X68429779Y-86400500D01*
X68650221Y-86400500D01*
X68650222Y-86400500D01*
X68867951Y-86366015D01*
X69077606Y-86297895D01*
X69274022Y-86197815D01*
X69452365Y-86068242D01*
X69608242Y-85912365D01*
X69737815Y-85734022D01*
X69837895Y-85537606D01*
X69906015Y-85327951D01*
X69940500Y-85110222D01*
X69940500Y-84897648D01*
X71929500Y-84897648D01*
X71929500Y-85102351D01*
X71961522Y-85304534D01*
X72024781Y-85499223D01*
X72117715Y-85681613D01*
X72238028Y-85847213D01*
X72382786Y-85991971D01*
X72528286Y-86097681D01*
X72548390Y-86112287D01*
X72664607Y-86171503D01*
X72730776Y-86205218D01*
X72730778Y-86205218D01*
X72730781Y-86205220D01*
X72809610Y-86230833D01*
X72925465Y-86268477D01*
X73026557Y-86284488D01*
X73127648Y-86300500D01*
X73127649Y-86300500D01*
X73332351Y-86300500D01*
X73332352Y-86300500D01*
X73534534Y-86268477D01*
X73729219Y-86205220D01*
X73911610Y-86112287D01*
X74016118Y-86036358D01*
X74077213Y-85991971D01*
X74077215Y-85991968D01*
X74077219Y-85991966D01*
X74221966Y-85847219D01*
X74221968Y-85847215D01*
X74221971Y-85847213D01*
X74274732Y-85774590D01*
X74342287Y-85681610D01*
X74435220Y-85499219D01*
X74498477Y-85304534D01*
X74530500Y-85102352D01*
X74530500Y-84897648D01*
X79549500Y-84897648D01*
X79549500Y-85102351D01*
X79581522Y-85304534D01*
X79644781Y-85499223D01*
X79737715Y-85681613D01*
X79858028Y-85847213D01*
X80002786Y-85991971D01*
X80148286Y-86097681D01*
X80168390Y-86112287D01*
X80284607Y-86171503D01*
X80350776Y-86205218D01*
X80350778Y-86205218D01*
X80350781Y-86205220D01*
X80429610Y-86230833D01*
X80545465Y-86268477D01*
X80646557Y-86284488D01*
X80747648Y-86300500D01*
X80747649Y-86300500D01*
X80952351Y-86300500D01*
X80952352Y-86300500D01*
X81154534Y-86268477D01*
X81349219Y-86205220D01*
X81531610Y-86112287D01*
X81636118Y-86036358D01*
X81697213Y-85991971D01*
X81697215Y-85991968D01*
X81697219Y-85991966D01*
X81841966Y-85847219D01*
X81841968Y-85847215D01*
X81841971Y-85847213D01*
X81894732Y-85774590D01*
X81962287Y-85681610D01*
X82055220Y-85499219D01*
X82118477Y-85304534D01*
X82150500Y-85102352D01*
X82150500Y-84897648D01*
X82118477Y-84695465D01*
X82089127Y-84605137D01*
X82055220Y-84500781D01*
X82055218Y-84500778D01*
X82055218Y-84500776D01*
X82021503Y-84434607D01*
X81962287Y-84318390D01*
X81924205Y-84265974D01*
X81841971Y-84152786D01*
X81697213Y-84008028D01*
X81531613Y-83887715D01*
X81531612Y-83887714D01*
X81531610Y-83887713D01*
X81473111Y-83857906D01*
X81349223Y-83794781D01*
X81154534Y-83731522D01*
X80968799Y-83702105D01*
X80952352Y-83699500D01*
X80747648Y-83699500D01*
X80731201Y-83702105D01*
X80545465Y-83731522D01*
X80350776Y-83794781D01*
X80168386Y-83887715D01*
X80002786Y-84008028D01*
X79858028Y-84152786D01*
X79737715Y-84318386D01*
X79644781Y-84500776D01*
X79581522Y-84695465D01*
X79549500Y-84897648D01*
X74530500Y-84897648D01*
X74498477Y-84695465D01*
X74469127Y-84605137D01*
X74435220Y-84500781D01*
X74435218Y-84500778D01*
X74435218Y-84500776D01*
X74401503Y-84434607D01*
X74342287Y-84318390D01*
X74304205Y-84265974D01*
X74221971Y-84152786D01*
X74077213Y-84008028D01*
X73911613Y-83887715D01*
X73911612Y-83887714D01*
X73911610Y-83887713D01*
X73853111Y-83857906D01*
X73729223Y-83794781D01*
X73534534Y-83731522D01*
X73348799Y-83702105D01*
X73332352Y-83699500D01*
X73127648Y-83699500D01*
X73111201Y-83702105D01*
X72925465Y-83731522D01*
X72730776Y-83794781D01*
X72548386Y-83887715D01*
X72382786Y-84008028D01*
X72238028Y-84152786D01*
X72117715Y-84318386D01*
X72024781Y-84500776D01*
X71961522Y-84695465D01*
X71929500Y-84897648D01*
X69940500Y-84897648D01*
X69940500Y-84889778D01*
X69906015Y-84672049D01*
X69871955Y-84567221D01*
X69837896Y-84462396D01*
X69837895Y-84462393D01*
X69787184Y-84362869D01*
X69737815Y-84265978D01*
X69655573Y-84152781D01*
X69608247Y-84087641D01*
X69608243Y-84087636D01*
X69452363Y-83931756D01*
X69452358Y-83931752D01*
X69274025Y-83802187D01*
X69274024Y-83802186D01*
X69274022Y-83802185D01*
X69211096Y-83770122D01*
X69077606Y-83702104D01*
X69077603Y-83702103D01*
X68867952Y-83633985D01*
X68759086Y-83616742D01*
X68650222Y-83599500D01*
X68429778Y-83599500D01*
X68357201Y-83610995D01*
X68212047Y-83633985D01*
X68002396Y-83702103D01*
X68002393Y-83702104D01*
X67805974Y-83802187D01*
X67627641Y-83931752D01*
X67627636Y-83931756D01*
X67577075Y-83982317D01*
X67515752Y-84015801D01*
X67446060Y-84010816D01*
X67390127Y-83968945D01*
X67373213Y-83937968D01*
X67343354Y-83857913D01*
X67343350Y-83857906D01*
X67257190Y-83742812D01*
X67257187Y-83742809D01*
X67142093Y-83656649D01*
X67142086Y-83656645D01*
X67007379Y-83606403D01*
X67007372Y-83606401D01*
X66947844Y-83600000D01*
X66250000Y-83600000D01*
X66250000Y-84624722D01*
X66173694Y-84580667D01*
X66059244Y-84550000D01*
X65940756Y-84550000D01*
X65826306Y-84580667D01*
X65750000Y-84624722D01*
X65750000Y-83600000D01*
X65052155Y-83600000D01*
X64992627Y-83606401D01*
X64992620Y-83606403D01*
X64857913Y-83656645D01*
X64857906Y-83656649D01*
X64742812Y-83742809D01*
X64742809Y-83742812D01*
X64656649Y-83857906D01*
X64656645Y-83857913D01*
X64606403Y-83992620D01*
X64606401Y-83992627D01*
X64600000Y-84052155D01*
X61500500Y-84052155D01*
X61500500Y-78590580D01*
X77199900Y-78590580D01*
X77199900Y-78795219D01*
X77231913Y-78997342D01*
X77231913Y-78997345D01*
X77295148Y-79191962D01*
X77388055Y-79374301D01*
X77420453Y-79418892D01*
X77420453Y-79418893D01*
X77979396Y-78859949D01*
X77991116Y-78903687D01*
X78063011Y-79028213D01*
X78164687Y-79129889D01*
X78289213Y-79201784D01*
X78332949Y-79213503D01*
X77774005Y-79772445D01*
X77818598Y-79804844D01*
X78000937Y-79897751D01*
X78195555Y-79960986D01*
X78397681Y-79993000D01*
X78602319Y-79993000D01*
X78804442Y-79960986D01*
X78804445Y-79960986D01*
X78999062Y-79897751D01*
X79181401Y-79804844D01*
X79225992Y-79772446D01*
X79225992Y-79772445D01*
X78667050Y-79213503D01*
X78710787Y-79201784D01*
X78835313Y-79129889D01*
X78936989Y-79028213D01*
X79008884Y-78903687D01*
X79020603Y-78859950D01*
X79579545Y-79418892D01*
X79579546Y-79418892D01*
X79611944Y-79374301D01*
X79704851Y-79191962D01*
X79768086Y-78997345D01*
X79768086Y-78997342D01*
X79800100Y-78795219D01*
X79800100Y-78590580D01*
X79768086Y-78388457D01*
X79768086Y-78388454D01*
X79704851Y-78193837D01*
X79611944Y-78011498D01*
X79579545Y-77966906D01*
X79579545Y-77966905D01*
X79020602Y-78525848D01*
X79008884Y-78482113D01*
X78936989Y-78357587D01*
X78835313Y-78255911D01*
X78710787Y-78184016D01*
X78667049Y-78172296D01*
X79225993Y-77613353D01*
X79181401Y-77580955D01*
X78999062Y-77488048D01*
X78804444Y-77424813D01*
X78602319Y-77392800D01*
X78397681Y-77392800D01*
X78195557Y-77424813D01*
X78195554Y-77424813D01*
X78000937Y-77488048D01*
X77818602Y-77580953D01*
X77774006Y-77613353D01*
X78332950Y-78172296D01*
X78289213Y-78184016D01*
X78164687Y-78255911D01*
X78063011Y-78357587D01*
X77991116Y-78482113D01*
X77979396Y-78525849D01*
X77420453Y-77966906D01*
X77388053Y-78011502D01*
X77295148Y-78193837D01*
X77231913Y-78388454D01*
X77231913Y-78388457D01*
X77199900Y-78590580D01*
X61500500Y-78590580D01*
X61500500Y-72764935D01*
X77199400Y-72764935D01*
X77199400Y-74460870D01*
X77199401Y-74460876D01*
X77205808Y-74520483D01*
X77256102Y-74655328D01*
X77256106Y-74655335D01*
X77342352Y-74770544D01*
X77342355Y-74770547D01*
X77457564Y-74856793D01*
X77457571Y-74856797D01*
X77592417Y-74907091D01*
X77592416Y-74907091D01*
X77599344Y-74907835D01*
X77652027Y-74913500D01*
X79347972Y-74913499D01*
X79407583Y-74907091D01*
X79542431Y-74856796D01*
X79657646Y-74770546D01*
X79743896Y-74655331D01*
X79794191Y-74520483D01*
X79800600Y-74460873D01*
X79800599Y-72764928D01*
X79794191Y-72705317D01*
X79756775Y-72605000D01*
X79743897Y-72570471D01*
X79743893Y-72570464D01*
X79657647Y-72455255D01*
X79657644Y-72455252D01*
X79542435Y-72369006D01*
X79542428Y-72369002D01*
X79407582Y-72318708D01*
X79407583Y-72318708D01*
X79347983Y-72312301D01*
X79347981Y-72312300D01*
X79347973Y-72312300D01*
X79347964Y-72312300D01*
X77652029Y-72312300D01*
X77652023Y-72312301D01*
X77592416Y-72318708D01*
X77457571Y-72369002D01*
X77457564Y-72369006D01*
X77342355Y-72455252D01*
X77342352Y-72455255D01*
X77256106Y-72570464D01*
X77256102Y-72570471D01*
X77205808Y-72705317D01*
X77199401Y-72764916D01*
X77199401Y-72764923D01*
X77199400Y-72764935D01*
X61500500Y-72764935D01*
X61500500Y-69373251D01*
X92369500Y-69373251D01*
X92369500Y-69626748D01*
X92409156Y-69877127D01*
X92409156Y-69877130D01*
X92487489Y-70118214D01*
X92487491Y-70118217D01*
X92602577Y-70344086D01*
X92751579Y-70549170D01*
X92930830Y-70728421D01*
X93135914Y-70877423D01*
X93189903Y-70904931D01*
X93221288Y-70927735D01*
X93797517Y-71503964D01*
X93761918Y-71513504D01*
X93633082Y-71587888D01*
X93527888Y-71693082D01*
X93453504Y-71821918D01*
X93443965Y-71857517D01*
X92678590Y-71092142D01*
X92678589Y-71092142D01*
X92603004Y-71196177D01*
X92487956Y-71421972D01*
X92409643Y-71662994D01*
X92370000Y-71913290D01*
X92370000Y-72166709D01*
X92409643Y-72417005D01*
X92487956Y-72658027D01*
X92603007Y-72883828D01*
X92678588Y-72987856D01*
X92678589Y-72987857D01*
X93443964Y-72222481D01*
X93453504Y-72258082D01*
X93527888Y-72386918D01*
X93633082Y-72492112D01*
X93761918Y-72566496D01*
X93797517Y-72576034D01*
X93221287Y-73152264D01*
X93189904Y-73175066D01*
X93135910Y-73202578D01*
X92930833Y-73351576D01*
X92930827Y-73351581D01*
X92751581Y-73530827D01*
X92751576Y-73530833D01*
X92602579Y-73735910D01*
X92487489Y-73961785D01*
X92409156Y-74202869D01*
X92409156Y-74202872D01*
X92409156Y-74202874D01*
X92369500Y-74453251D01*
X92369500Y-74706749D01*
X92379605Y-74770547D01*
X92409156Y-74957127D01*
X92409156Y-74957130D01*
X92487489Y-75198214D01*
X92602579Y-75424089D01*
X92751576Y-75629166D01*
X92751581Y-75629172D01*
X92884728Y-75762319D01*
X92918213Y-75823642D01*
X92913229Y-75893334D01*
X92884728Y-75937681D01*
X92751581Y-76070827D01*
X92751576Y-76070833D01*
X92602579Y-76275910D01*
X92487489Y-76501785D01*
X92409156Y-76742869D01*
X92409156Y-76742872D01*
X92369500Y-76993251D01*
X92369500Y-77246748D01*
X92409156Y-77497127D01*
X92409156Y-77497130D01*
X92487489Y-77738214D01*
X92487491Y-77738217D01*
X92591555Y-77942455D01*
X92602579Y-77964089D01*
X92751576Y-78169166D01*
X92751581Y-78169172D01*
X92884728Y-78302319D01*
X92918213Y-78363642D01*
X92913229Y-78433334D01*
X92884728Y-78477681D01*
X92751581Y-78610827D01*
X92751576Y-78610833D01*
X92602579Y-78815910D01*
X92487489Y-79041785D01*
X92409156Y-79282869D01*
X92409156Y-79282872D01*
X92381576Y-79457007D01*
X92369500Y-79533251D01*
X92369500Y-79786749D01*
X92380756Y-79857816D01*
X92409156Y-80037127D01*
X92409156Y-80037130D01*
X92487489Y-80278214D01*
X92527910Y-80357544D01*
X92600749Y-80500499D01*
X92602579Y-80504089D01*
X92751576Y-80709166D01*
X92751581Y-80709172D01*
X92884728Y-80842319D01*
X92918213Y-80903642D01*
X92913229Y-80973334D01*
X92884728Y-81017681D01*
X92751581Y-81150827D01*
X92751576Y-81150833D01*
X92602579Y-81355910D01*
X92487489Y-81581785D01*
X92409156Y-81822869D01*
X92409156Y-81822872D01*
X92369500Y-82073251D01*
X92369500Y-82326748D01*
X92409156Y-82577127D01*
X92409156Y-82577130D01*
X92487489Y-82818214D01*
X92602579Y-83044089D01*
X92751576Y-83249166D01*
X92751581Y-83249172D01*
X92884728Y-83382319D01*
X92918213Y-83443642D01*
X92913229Y-83513334D01*
X92884728Y-83557681D01*
X92751581Y-83690827D01*
X92751576Y-83690833D01*
X92602579Y-83895910D01*
X92487489Y-84121785D01*
X92409156Y-84362869D01*
X92409156Y-84362872D01*
X92379518Y-84550000D01*
X92369500Y-84613251D01*
X92369500Y-84866749D01*
X92374394Y-84897648D01*
X92409156Y-85117127D01*
X92409156Y-85117130D01*
X92487489Y-85358214D01*
X92487491Y-85358217D01*
X92578894Y-85537606D01*
X92602579Y-85584089D01*
X92751576Y-85789166D01*
X92751581Y-85789172D01*
X92884728Y-85922319D01*
X92918213Y-85983642D01*
X92913229Y-86053334D01*
X92884728Y-86097681D01*
X92751581Y-86230827D01*
X92751576Y-86230833D01*
X92602579Y-86435910D01*
X92487489Y-86661785D01*
X92409156Y-86902869D01*
X92409156Y-86902872D01*
X92369500Y-87153251D01*
X92369500Y-87406748D01*
X92409156Y-87657127D01*
X92409156Y-87657130D01*
X92487489Y-87898214D01*
X92602579Y-88124089D01*
X92751576Y-88329166D01*
X92751581Y-88329172D01*
X92884728Y-88462319D01*
X92918213Y-88523642D01*
X92913229Y-88593334D01*
X92884728Y-88637681D01*
X92751581Y-88770827D01*
X92751576Y-88770833D01*
X92602579Y-88975910D01*
X92487489Y-89201785D01*
X92409156Y-89442869D01*
X92409156Y-89442872D01*
X92369500Y-89693251D01*
X92369500Y-89946748D01*
X92409156Y-90197127D01*
X92409156Y-90197130D01*
X92487489Y-90438214D01*
X92602579Y-90664089D01*
X92751576Y-90869166D01*
X92751581Y-90869172D01*
X92884728Y-91002319D01*
X92918213Y-91063642D01*
X92913229Y-91133334D01*
X92884728Y-91177681D01*
X92751581Y-91310827D01*
X92751576Y-91310833D01*
X92602579Y-91515910D01*
X92487489Y-91741785D01*
X92409156Y-91982869D01*
X92409156Y-91982872D01*
X92369500Y-92233251D01*
X92369500Y-92486748D01*
X92409156Y-92737127D01*
X92409156Y-92737130D01*
X92487489Y-92978214D01*
X92602579Y-93204089D01*
X92751576Y-93409166D01*
X92751581Y-93409172D01*
X92884728Y-93542319D01*
X92918213Y-93603642D01*
X92913229Y-93673334D01*
X92884728Y-93717681D01*
X92751581Y-93850827D01*
X92751576Y-93850833D01*
X92602579Y-94055910D01*
X92487489Y-94281785D01*
X92409156Y-94522869D01*
X92409156Y-94522872D01*
X92387969Y-94656645D01*
X92369500Y-94773251D01*
X92369500Y-95026749D01*
X92379144Y-95087636D01*
X92409156Y-95277127D01*
X92409156Y-95277130D01*
X92487489Y-95518214D01*
X92487491Y-95518217D01*
X92577803Y-95695465D01*
X92602579Y-95744089D01*
X92751576Y-95949166D01*
X92751581Y-95949172D01*
X92884728Y-96082319D01*
X92918213Y-96143642D01*
X92913229Y-96213334D01*
X92884728Y-96257681D01*
X92751581Y-96390827D01*
X92751576Y-96390833D01*
X92602579Y-96595910D01*
X92487489Y-96821785D01*
X92409156Y-97062869D01*
X92409156Y-97062872D01*
X92369500Y-97313251D01*
X92369500Y-97566748D01*
X92409156Y-97817127D01*
X92409156Y-97817130D01*
X92487489Y-98058214D01*
X92602579Y-98284089D01*
X92751576Y-98489166D01*
X92751581Y-98489172D01*
X92884728Y-98622319D01*
X92918213Y-98683642D01*
X92913229Y-98753334D01*
X92884728Y-98797681D01*
X92751581Y-98930827D01*
X92751576Y-98930833D01*
X92602579Y-99135910D01*
X92487489Y-99361785D01*
X92409156Y-99602869D01*
X92409156Y-99602872D01*
X92369500Y-99853251D01*
X92369500Y-100106748D01*
X92409156Y-100357127D01*
X92409156Y-100357130D01*
X92487489Y-100598214D01*
X92602579Y-100824089D01*
X92751576Y-101029166D01*
X92751581Y-101029172D01*
X92884728Y-101162319D01*
X92918213Y-101223642D01*
X92913229Y-101293334D01*
X92884728Y-101337681D01*
X92751581Y-101470827D01*
X92751576Y-101470833D01*
X92602579Y-101675910D01*
X92487489Y-101901785D01*
X92409156Y-102142869D01*
X92409156Y-102142872D01*
X92369500Y-102393251D01*
X92369500Y-102646748D01*
X92409156Y-102897127D01*
X92409156Y-102897130D01*
X92487489Y-103138214D01*
X92602579Y-103364089D01*
X92751576Y-103569166D01*
X92751581Y-103569172D01*
X92884728Y-103702319D01*
X92918213Y-103763642D01*
X92913229Y-103833334D01*
X92884728Y-103877681D01*
X92751581Y-104010827D01*
X92751576Y-104010833D01*
X92602579Y-104215910D01*
X92487489Y-104441785D01*
X92409156Y-104682869D01*
X92409156Y-104682872D01*
X92369500Y-104933251D01*
X92369500Y-105186748D01*
X92409156Y-105437127D01*
X92409156Y-105437130D01*
X92487489Y-105678214D01*
X92602579Y-105904089D01*
X92751576Y-106109166D01*
X92751581Y-106109172D01*
X92884728Y-106242319D01*
X92918213Y-106303642D01*
X92913229Y-106373334D01*
X92884728Y-106417681D01*
X92751581Y-106550827D01*
X92751576Y-106550833D01*
X92602579Y-106755910D01*
X92487489Y-106981785D01*
X92409156Y-107222869D01*
X92409156Y-107222872D01*
X92369500Y-107473251D01*
X92369500Y-107726748D01*
X92409156Y-107977127D01*
X92409156Y-107977130D01*
X92487489Y-108218214D01*
X92487491Y-108218217D01*
X92602577Y-108444086D01*
X92751579Y-108649170D01*
X92930830Y-108828421D01*
X93135914Y-108977423D01*
X93361783Y-109092509D01*
X93361785Y-109092510D01*
X93602870Y-109170843D01*
X93602871Y-109170843D01*
X93602874Y-109170844D01*
X93853251Y-109210500D01*
X93853252Y-109210500D01*
X94106748Y-109210500D01*
X94106749Y-109210500D01*
X94357126Y-109170844D01*
X94357129Y-109170843D01*
X94357130Y-109170843D01*
X94598214Y-109092510D01*
X94598214Y-109092509D01*
X94598217Y-109092509D01*
X94824086Y-108977423D01*
X95029170Y-108828421D01*
X95208421Y-108649170D01*
X95357423Y-108444086D01*
X95472509Y-108218217D01*
X95510156Y-108102351D01*
X95550843Y-107977130D01*
X95550843Y-107977129D01*
X95550844Y-107977126D01*
X95590500Y-107726749D01*
X95590500Y-107473251D01*
X95550844Y-107222874D01*
X95550843Y-107222870D01*
X95550843Y-107222869D01*
X95472510Y-106981785D01*
X95409394Y-106857913D01*
X95357423Y-106755914D01*
X95208421Y-106550830D01*
X95075272Y-106417681D01*
X95041787Y-106356358D01*
X95046771Y-106286666D01*
X95075272Y-106242319D01*
X95208421Y-106109170D01*
X95357423Y-105904086D01*
X95472509Y-105678217D01*
X95550844Y-105437126D01*
X95590500Y-105186749D01*
X95590500Y-104933251D01*
X95550844Y-104682874D01*
X95550843Y-104682870D01*
X95550843Y-104682869D01*
X95472510Y-104441785D01*
X95472509Y-104441783D01*
X95357423Y-104215914D01*
X95208421Y-104010830D01*
X95075272Y-103877681D01*
X95041787Y-103816358D01*
X95046771Y-103746666D01*
X95075272Y-103702319D01*
X95208421Y-103569170D01*
X95357423Y-103364086D01*
X95472509Y-103138217D01*
X95550844Y-102897126D01*
X95590500Y-102646749D01*
X95590500Y-102393251D01*
X95550844Y-102142874D01*
X95550843Y-102142870D01*
X95550843Y-102142869D01*
X95472510Y-101901785D01*
X95472509Y-101901783D01*
X95357423Y-101675914D01*
X95208421Y-101470830D01*
X95075272Y-101337681D01*
X95041787Y-101276358D01*
X95046771Y-101206666D01*
X95075272Y-101162319D01*
X95208421Y-101029170D01*
X95357423Y-100824086D01*
X95472509Y-100598217D01*
X95550844Y-100357126D01*
X95590500Y-100106749D01*
X95590500Y-99853251D01*
X95550844Y-99602874D01*
X95550843Y-99602870D01*
X95550843Y-99602869D01*
X95472510Y-99361785D01*
X95472509Y-99361783D01*
X95357423Y-99135914D01*
X95208421Y-98930830D01*
X95075272Y-98797681D01*
X95041787Y-98736358D01*
X95046771Y-98666666D01*
X95075272Y-98622319D01*
X95208421Y-98489170D01*
X95357423Y-98284086D01*
X95472509Y-98058217D01*
X95550844Y-97817126D01*
X95590500Y-97566749D01*
X95590500Y-97313251D01*
X95550844Y-97062874D01*
X95550843Y-97062870D01*
X95550843Y-97062869D01*
X95472510Y-96821785D01*
X95427794Y-96734025D01*
X95357423Y-96595914D01*
X95208421Y-96390830D01*
X95075272Y-96257681D01*
X95041787Y-96196358D01*
X95046771Y-96126666D01*
X95075272Y-96082319D01*
X95098347Y-96059244D01*
X95208421Y-95949170D01*
X95357423Y-95744086D01*
X95472509Y-95518217D01*
X95550844Y-95277126D01*
X95590500Y-95026749D01*
X95590500Y-94773251D01*
X95550844Y-94522874D01*
X95550843Y-94522870D01*
X95550843Y-94522869D01*
X95472510Y-94281785D01*
X95472509Y-94281783D01*
X95357423Y-94055914D01*
X95208421Y-93850830D01*
X95075272Y-93717681D01*
X95041787Y-93656358D01*
X95046771Y-93586666D01*
X95075272Y-93542319D01*
X95208421Y-93409170D01*
X95357423Y-93204086D01*
X95472509Y-92978217D01*
X95550844Y-92737126D01*
X95590500Y-92486749D01*
X95590500Y-92233251D01*
X95550844Y-91982874D01*
X95550843Y-91982870D01*
X95550843Y-91982869D01*
X95472510Y-91741785D01*
X95472509Y-91741783D01*
X95357423Y-91515914D01*
X95208421Y-91310830D01*
X95075272Y-91177681D01*
X95041787Y-91116358D01*
X95046771Y-91046666D01*
X95075272Y-91002319D01*
X95107383Y-90970208D01*
X95208421Y-90869170D01*
X95357423Y-90664086D01*
X95472509Y-90438217D01*
X95550844Y-90197126D01*
X95590500Y-89946749D01*
X95590500Y-89693251D01*
X95550844Y-89442874D01*
X95550843Y-89442870D01*
X95550843Y-89442869D01*
X95472510Y-89201785D01*
X95472509Y-89201783D01*
X95357423Y-88975914D01*
X95208421Y-88770830D01*
X95075272Y-88637681D01*
X95041787Y-88576358D01*
X95046771Y-88506666D01*
X95075272Y-88462319D01*
X95208421Y-88329170D01*
X95357423Y-88124086D01*
X95472509Y-87898217D01*
X95550844Y-87657126D01*
X95590500Y-87406749D01*
X95590500Y-87153251D01*
X95550844Y-86902874D01*
X95550843Y-86902870D01*
X95550843Y-86902869D01*
X95472510Y-86661785D01*
X95472509Y-86661783D01*
X95357423Y-86435914D01*
X95208421Y-86230830D01*
X95075272Y-86097681D01*
X95041787Y-86036358D01*
X95046771Y-85966666D01*
X95075272Y-85922319D01*
X95085233Y-85912358D01*
X95208421Y-85789170D01*
X95357423Y-85584086D01*
X95472509Y-85358217D01*
X95489952Y-85304534D01*
X95550843Y-85117130D01*
X95550843Y-85117129D01*
X95550844Y-85117126D01*
X95590500Y-84866749D01*
X95590500Y-84613251D01*
X95550844Y-84362874D01*
X95550843Y-84362870D01*
X95550843Y-84362869D01*
X95472510Y-84121785D01*
X95455110Y-84087635D01*
X95357423Y-83895914D01*
X95208421Y-83690830D01*
X95075272Y-83557681D01*
X95041787Y-83496358D01*
X95046771Y-83426666D01*
X95075272Y-83382319D01*
X95208421Y-83249170D01*
X95357423Y-83044086D01*
X95472509Y-82818217D01*
X95550844Y-82577126D01*
X95590500Y-82326749D01*
X95590500Y-82073251D01*
X95550844Y-81822874D01*
X95550843Y-81822870D01*
X95550843Y-81822869D01*
X95472510Y-81581785D01*
X95472509Y-81581783D01*
X95357423Y-81355914D01*
X95208421Y-81150830D01*
X95075272Y-81017681D01*
X95041787Y-80956358D01*
X95046771Y-80886666D01*
X95075272Y-80842319D01*
X95208421Y-80709170D01*
X95357423Y-80504086D01*
X95472509Y-80278217D01*
X95504386Y-80180109D01*
X95550843Y-80037130D01*
X95550843Y-80037129D01*
X95550844Y-80037126D01*
X95590500Y-79786749D01*
X95590500Y-79533251D01*
X95550844Y-79282874D01*
X95550843Y-79282870D01*
X95550843Y-79282869D01*
X95472510Y-79041785D01*
X95429313Y-78957007D01*
X95357423Y-78815914D01*
X95208421Y-78610830D01*
X95075272Y-78477681D01*
X95041787Y-78416358D01*
X95046771Y-78346666D01*
X95075272Y-78302319D01*
X95125475Y-78252116D01*
X95208421Y-78169170D01*
X95357423Y-77964086D01*
X95472509Y-77738217D01*
X95513080Y-77613353D01*
X95550843Y-77497130D01*
X95550843Y-77497129D01*
X95550844Y-77497126D01*
X95590500Y-77246749D01*
X95590500Y-76993251D01*
X95550844Y-76742874D01*
X95550843Y-76742870D01*
X95550843Y-76742869D01*
X95472510Y-76501785D01*
X95472509Y-76501783D01*
X95357423Y-76275914D01*
X95208421Y-76070830D01*
X95075272Y-75937681D01*
X95041787Y-75876358D01*
X95046771Y-75806666D01*
X95075272Y-75762319D01*
X95208421Y-75629170D01*
X95357423Y-75424086D01*
X95472509Y-75198217D01*
X95550844Y-74957126D01*
X95590500Y-74706749D01*
X95590500Y-74453251D01*
X95550844Y-74202874D01*
X95550843Y-74202870D01*
X95550843Y-74202869D01*
X95472510Y-73961785D01*
X95472509Y-73961783D01*
X95357423Y-73735914D01*
X95208421Y-73530830D01*
X95029170Y-73351579D01*
X94824086Y-73202577D01*
X94770097Y-73175068D01*
X94738711Y-73152264D01*
X94162482Y-72576035D01*
X94198082Y-72566496D01*
X94326918Y-72492112D01*
X94432112Y-72386918D01*
X94506496Y-72258082D01*
X94516034Y-72222482D01*
X95281409Y-72987857D01*
X95281409Y-72987856D01*
X95356994Y-72883824D01*
X95472043Y-72658027D01*
X95550356Y-72417005D01*
X95590000Y-72166709D01*
X95590000Y-71913290D01*
X95550356Y-71662994D01*
X95472043Y-71421972D01*
X95356992Y-71196172D01*
X95281411Y-71092142D01*
X95281409Y-71092141D01*
X94516034Y-71857516D01*
X94506496Y-71821918D01*
X94432112Y-71693082D01*
X94326918Y-71587888D01*
X94198082Y-71513504D01*
X94162480Y-71503964D01*
X94738711Y-70927734D01*
X94770090Y-70904934D01*
X94824086Y-70877423D01*
X95029170Y-70728421D01*
X95208421Y-70549170D01*
X95357423Y-70344086D01*
X95472509Y-70118217D01*
X95550844Y-69877126D01*
X95590500Y-69626749D01*
X95590500Y-69373251D01*
X125389500Y-69373251D01*
X125389500Y-69626748D01*
X125429156Y-69877127D01*
X125429156Y-69877130D01*
X125507489Y-70118214D01*
X125622579Y-70344089D01*
X125771576Y-70549166D01*
X125771581Y-70549172D01*
X125904728Y-70682319D01*
X125938213Y-70743642D01*
X125933229Y-70813334D01*
X125904728Y-70857681D01*
X125771581Y-70990827D01*
X125771576Y-70990833D01*
X125622579Y-71195910D01*
X125507489Y-71421785D01*
X125429156Y-71662869D01*
X125429156Y-71662872D01*
X125389500Y-71913251D01*
X125389500Y-72166748D01*
X125429156Y-72417127D01*
X125429156Y-72417130D01*
X125507489Y-72658214D01*
X125622579Y-72884089D01*
X125771576Y-73089166D01*
X125771581Y-73089172D01*
X125904728Y-73222319D01*
X125938213Y-73283642D01*
X125933229Y-73353334D01*
X125904728Y-73397681D01*
X125771581Y-73530827D01*
X125771576Y-73530833D01*
X125622579Y-73735910D01*
X125507489Y-73961785D01*
X125429156Y-74202869D01*
X125429156Y-74202872D01*
X125429156Y-74202874D01*
X125389500Y-74453251D01*
X125389500Y-74706749D01*
X125399605Y-74770547D01*
X125429156Y-74957127D01*
X125429156Y-74957130D01*
X125507489Y-75198214D01*
X125622579Y-75424089D01*
X125771576Y-75629166D01*
X125771581Y-75629172D01*
X125904728Y-75762319D01*
X125938213Y-75823642D01*
X125933229Y-75893334D01*
X125904728Y-75937681D01*
X125771581Y-76070827D01*
X125771576Y-76070833D01*
X125622579Y-76275910D01*
X125507489Y-76501785D01*
X125429156Y-76742869D01*
X125429156Y-76742872D01*
X125389500Y-76993251D01*
X125389500Y-77246748D01*
X125429156Y-77497127D01*
X125429156Y-77497130D01*
X125507489Y-77738214D01*
X125507491Y-77738217D01*
X125611555Y-77942455D01*
X125622579Y-77964089D01*
X125771576Y-78169166D01*
X125771581Y-78169172D01*
X125904728Y-78302319D01*
X125938213Y-78363642D01*
X125933229Y-78433334D01*
X125904728Y-78477681D01*
X125771581Y-78610827D01*
X125771576Y-78610833D01*
X125622579Y-78815910D01*
X125507489Y-79041785D01*
X125429156Y-79282869D01*
X125429156Y-79282872D01*
X125401576Y-79457007D01*
X125389500Y-79533251D01*
X125389500Y-79786749D01*
X125400756Y-79857816D01*
X125429156Y-80037127D01*
X125429156Y-80037130D01*
X125507489Y-80278214D01*
X125547910Y-80357544D01*
X125620749Y-80500499D01*
X125622579Y-80504089D01*
X125771576Y-80709166D01*
X125771581Y-80709172D01*
X125904728Y-80842319D01*
X125938213Y-80903642D01*
X125933229Y-80973334D01*
X125904728Y-81017681D01*
X125771581Y-81150827D01*
X125771576Y-81150833D01*
X125622579Y-81355910D01*
X125507489Y-81581785D01*
X125429156Y-81822869D01*
X125429156Y-81822872D01*
X125389500Y-82073251D01*
X125389500Y-82326748D01*
X125429156Y-82577127D01*
X125429156Y-82577130D01*
X125507489Y-82818214D01*
X125622579Y-83044089D01*
X125771576Y-83249166D01*
X125771581Y-83249172D01*
X125904728Y-83382319D01*
X125938213Y-83443642D01*
X125933229Y-83513334D01*
X125904728Y-83557681D01*
X125771581Y-83690827D01*
X125771576Y-83690833D01*
X125622579Y-83895910D01*
X125507489Y-84121785D01*
X125429156Y-84362869D01*
X125429156Y-84362872D01*
X125399518Y-84550000D01*
X125389500Y-84613251D01*
X125389500Y-84866749D01*
X125394394Y-84897648D01*
X125429156Y-85117127D01*
X125429156Y-85117130D01*
X125507489Y-85358214D01*
X125507491Y-85358217D01*
X125598894Y-85537606D01*
X125622579Y-85584089D01*
X125771576Y-85789166D01*
X125771581Y-85789172D01*
X125904728Y-85922319D01*
X125938213Y-85983642D01*
X125933229Y-86053334D01*
X125904728Y-86097681D01*
X125771581Y-86230827D01*
X125771576Y-86230833D01*
X125622579Y-86435910D01*
X125507489Y-86661785D01*
X125429156Y-86902869D01*
X125429156Y-86902872D01*
X125389500Y-87153251D01*
X125389500Y-87406748D01*
X125429156Y-87657127D01*
X125429156Y-87657130D01*
X125507489Y-87898214D01*
X125622579Y-88124089D01*
X125771576Y-88329166D01*
X125771581Y-88329172D01*
X125904728Y-88462319D01*
X125938213Y-88523642D01*
X125933229Y-88593334D01*
X125904728Y-88637681D01*
X125771581Y-88770827D01*
X125771576Y-88770833D01*
X125622579Y-88975910D01*
X125507489Y-89201785D01*
X125429156Y-89442869D01*
X125429156Y-89442872D01*
X125389500Y-89693251D01*
X125389500Y-89946748D01*
X125429156Y-90197127D01*
X125429156Y-90197130D01*
X125507489Y-90438214D01*
X125622579Y-90664089D01*
X125771576Y-90869166D01*
X125771581Y-90869172D01*
X125904728Y-91002319D01*
X125938213Y-91063642D01*
X125933229Y-91133334D01*
X125904728Y-91177681D01*
X125771581Y-91310827D01*
X125771576Y-91310833D01*
X125622579Y-91515910D01*
X125507489Y-91741785D01*
X125429156Y-91982869D01*
X125429156Y-91982872D01*
X125389500Y-92233251D01*
X125389500Y-92486748D01*
X125429156Y-92737127D01*
X125429156Y-92737130D01*
X125507489Y-92978214D01*
X125622579Y-93204089D01*
X125771576Y-93409166D01*
X125771581Y-93409172D01*
X125904728Y-93542319D01*
X125938213Y-93603642D01*
X125933229Y-93673334D01*
X125904728Y-93717681D01*
X125771581Y-93850827D01*
X125771576Y-93850833D01*
X125622579Y-94055910D01*
X125507489Y-94281785D01*
X125429156Y-94522869D01*
X125429156Y-94522872D01*
X125407969Y-94656645D01*
X125389500Y-94773251D01*
X125389500Y-95026749D01*
X125399144Y-95087636D01*
X125429156Y-95277127D01*
X125429156Y-95277130D01*
X125507489Y-95518214D01*
X125507491Y-95518217D01*
X125597803Y-95695465D01*
X125622579Y-95744089D01*
X125771576Y-95949166D01*
X125771581Y-95949172D01*
X125904728Y-96082319D01*
X125938213Y-96143642D01*
X125933229Y-96213334D01*
X125904728Y-96257681D01*
X125771581Y-96390827D01*
X125771576Y-96390833D01*
X125622579Y-96595910D01*
X125507489Y-96821785D01*
X125429156Y-97062869D01*
X125429156Y-97062872D01*
X125389500Y-97313251D01*
X125389500Y-97566748D01*
X125429156Y-97817127D01*
X125429156Y-97817130D01*
X125507489Y-98058214D01*
X125622579Y-98284089D01*
X125771576Y-98489166D01*
X125771581Y-98489172D01*
X125904728Y-98622319D01*
X125938213Y-98683642D01*
X125933229Y-98753334D01*
X125904728Y-98797681D01*
X125771581Y-98930827D01*
X125771576Y-98930833D01*
X125622579Y-99135910D01*
X125507489Y-99361785D01*
X125429156Y-99602869D01*
X125429156Y-99602872D01*
X125389500Y-99853251D01*
X125389500Y-100106748D01*
X125429156Y-100357127D01*
X125429156Y-100357130D01*
X125507489Y-100598214D01*
X125622579Y-100824089D01*
X125771576Y-101029166D01*
X125771581Y-101029172D01*
X125904728Y-101162319D01*
X125938213Y-101223642D01*
X125933229Y-101293334D01*
X125904728Y-101337681D01*
X125771581Y-101470827D01*
X125771576Y-101470833D01*
X125622579Y-101675910D01*
X125507489Y-101901785D01*
X125429156Y-102142869D01*
X125429156Y-102142872D01*
X125389500Y-102393251D01*
X125389500Y-102646748D01*
X125429156Y-102897127D01*
X125429156Y-102897130D01*
X125507489Y-103138214D01*
X125622579Y-103364089D01*
X125771576Y-103569166D01*
X125771581Y-103569172D01*
X125904728Y-103702319D01*
X125938213Y-103763642D01*
X125933229Y-103833334D01*
X125904728Y-103877681D01*
X125771581Y-104010827D01*
X125771576Y-104010833D01*
X125622579Y-104215910D01*
X125507489Y-104441785D01*
X125429156Y-104682869D01*
X125429156Y-104682872D01*
X125389500Y-104933251D01*
X125389500Y-105186748D01*
X125429156Y-105437127D01*
X125429156Y-105437130D01*
X125507489Y-105678214D01*
X125622579Y-105904089D01*
X125771576Y-106109166D01*
X125771581Y-106109172D01*
X125904728Y-106242319D01*
X125938213Y-106303642D01*
X125933229Y-106373334D01*
X125904728Y-106417681D01*
X125771581Y-106550827D01*
X125771576Y-106550833D01*
X125622579Y-106755910D01*
X125507489Y-106981785D01*
X125429156Y-107222869D01*
X125429156Y-107222872D01*
X125389500Y-107473251D01*
X125389500Y-107726748D01*
X125429156Y-107977127D01*
X125429156Y-107977130D01*
X125507489Y-108218214D01*
X125507491Y-108218217D01*
X125622577Y-108444086D01*
X125771579Y-108649170D01*
X125950830Y-108828421D01*
X126155914Y-108977423D01*
X126381783Y-109092509D01*
X126381785Y-109092510D01*
X126622870Y-109170843D01*
X126622871Y-109170843D01*
X126622874Y-109170844D01*
X126873251Y-109210500D01*
X126873252Y-109210500D01*
X127126748Y-109210500D01*
X127126749Y-109210500D01*
X127377126Y-109170844D01*
X127377129Y-109170843D01*
X127377130Y-109170843D01*
X127618214Y-109092510D01*
X127618214Y-109092509D01*
X127618217Y-109092509D01*
X127844086Y-108977423D01*
X128049170Y-108828421D01*
X128228421Y-108649170D01*
X128377423Y-108444086D01*
X128492509Y-108218217D01*
X128530156Y-108102351D01*
X128570843Y-107977130D01*
X128570843Y-107977129D01*
X128570844Y-107977126D01*
X128610500Y-107726749D01*
X128610500Y-107473251D01*
X128570844Y-107222874D01*
X128570843Y-107222870D01*
X128570843Y-107222869D01*
X128492510Y-106981785D01*
X128429394Y-106857913D01*
X128377423Y-106755914D01*
X128228421Y-106550830D01*
X128095272Y-106417681D01*
X128061787Y-106356358D01*
X128066771Y-106286666D01*
X128095272Y-106242319D01*
X128228421Y-106109170D01*
X128377423Y-105904086D01*
X128492509Y-105678217D01*
X128570844Y-105437126D01*
X128610500Y-105186749D01*
X128610500Y-104933251D01*
X128570844Y-104682874D01*
X128570843Y-104682870D01*
X128570843Y-104682869D01*
X128492510Y-104441785D01*
X128492509Y-104441783D01*
X128377423Y-104215914D01*
X128228421Y-104010830D01*
X128095272Y-103877681D01*
X128061787Y-103816358D01*
X128066771Y-103746666D01*
X128095272Y-103702319D01*
X128228421Y-103569170D01*
X128377423Y-103364086D01*
X128492509Y-103138217D01*
X128570844Y-102897126D01*
X128610500Y-102646749D01*
X128610500Y-102393251D01*
X128570844Y-102142874D01*
X128570843Y-102142870D01*
X128570843Y-102142869D01*
X128492510Y-101901785D01*
X128492509Y-101901783D01*
X128377423Y-101675914D01*
X128228421Y-101470830D01*
X128095272Y-101337681D01*
X128061787Y-101276358D01*
X128066771Y-101206666D01*
X128095272Y-101162319D01*
X128228421Y-101029170D01*
X128377423Y-100824086D01*
X128492509Y-100598217D01*
X128570844Y-100357126D01*
X128610500Y-100106749D01*
X128610500Y-99853251D01*
X128570844Y-99602874D01*
X128570843Y-99602870D01*
X128570843Y-99602869D01*
X128492510Y-99361785D01*
X128492509Y-99361783D01*
X128377423Y-99135914D01*
X128228421Y-98930830D01*
X128095272Y-98797681D01*
X128061787Y-98736358D01*
X128066771Y-98666666D01*
X128095272Y-98622319D01*
X128228421Y-98489170D01*
X128377423Y-98284086D01*
X128492509Y-98058217D01*
X128570844Y-97817126D01*
X128610500Y-97566749D01*
X128610500Y-97313251D01*
X128570844Y-97062874D01*
X128570843Y-97062870D01*
X128570843Y-97062869D01*
X128492510Y-96821785D01*
X128447794Y-96734025D01*
X128377423Y-96595914D01*
X128228421Y-96390830D01*
X128095272Y-96257681D01*
X128061787Y-96196358D01*
X128066771Y-96126666D01*
X128095272Y-96082319D01*
X128118347Y-96059244D01*
X128228421Y-95949170D01*
X128377423Y-95744086D01*
X128492509Y-95518217D01*
X128570844Y-95277126D01*
X128610500Y-95026749D01*
X128610500Y-94773251D01*
X128570844Y-94522874D01*
X128570843Y-94522870D01*
X128570843Y-94522869D01*
X128492510Y-94281785D01*
X128492509Y-94281783D01*
X128377423Y-94055914D01*
X128228421Y-93850830D01*
X128095272Y-93717681D01*
X128061787Y-93656358D01*
X128066771Y-93586666D01*
X128095272Y-93542319D01*
X128228421Y-93409170D01*
X128377423Y-93204086D01*
X128492509Y-92978217D01*
X128570844Y-92737126D01*
X128610500Y-92486749D01*
X128610500Y-92233251D01*
X128570844Y-91982874D01*
X128570843Y-91982870D01*
X128570843Y-91982869D01*
X128504004Y-91777159D01*
X128493136Y-91743713D01*
X136299500Y-91743713D01*
X136299500Y-91956287D01*
X136332754Y-92166243D01*
X136354526Y-92233251D01*
X136398444Y-92368414D01*
X136494951Y-92557820D01*
X136619890Y-92729786D01*
X136770213Y-92880109D01*
X136942179Y-93005048D01*
X136942181Y-93005049D01*
X136942184Y-93005051D01*
X137131588Y-93101557D01*
X137333757Y-93167246D01*
X137543713Y-93200500D01*
X137543714Y-93200500D01*
X137756286Y-93200500D01*
X137756287Y-93200500D01*
X137966243Y-93167246D01*
X138168412Y-93101557D01*
X138357816Y-93005051D01*
X138394754Y-92978214D01*
X138529786Y-92880109D01*
X138529788Y-92880106D01*
X138529792Y-92880104D01*
X138680104Y-92729792D01*
X138680106Y-92729788D01*
X138680109Y-92729786D01*
X138805048Y-92557820D01*
X138805047Y-92557820D01*
X138805051Y-92557816D01*
X138809514Y-92549054D01*
X138857488Y-92498259D01*
X138925308Y-92481463D01*
X138991444Y-92503999D01*
X139030486Y-92549056D01*
X139034951Y-92557820D01*
X139159890Y-92729786D01*
X139310213Y-92880109D01*
X139482179Y-93005048D01*
X139482181Y-93005049D01*
X139482184Y-93005051D01*
X139671588Y-93101557D01*
X139873757Y-93167246D01*
X140083713Y-93200500D01*
X140083714Y-93200500D01*
X140296286Y-93200500D01*
X140296287Y-93200500D01*
X140506243Y-93167246D01*
X140708412Y-93101557D01*
X140897816Y-93005051D01*
X140934754Y-92978214D01*
X141069786Y-92880109D01*
X141069788Y-92880106D01*
X141069792Y-92880104D01*
X141220104Y-92729792D01*
X141220106Y-92729788D01*
X141220109Y-92729786D01*
X141345048Y-92557820D01*
X141345047Y-92557820D01*
X141345051Y-92557816D01*
X141349514Y-92549054D01*
X141397488Y-92498259D01*
X141465308Y-92481463D01*
X141531444Y-92503999D01*
X141570486Y-92549056D01*
X141574951Y-92557820D01*
X141699890Y-92729786D01*
X141850213Y-92880109D01*
X142022179Y-93005048D01*
X142022181Y-93005049D01*
X142022184Y-93005051D01*
X142211588Y-93101557D01*
X142413757Y-93167246D01*
X142623713Y-93200500D01*
X142623714Y-93200500D01*
X142836286Y-93200500D01*
X142836287Y-93200500D01*
X143046243Y-93167246D01*
X143248412Y-93101557D01*
X143437816Y-93005051D01*
X143474754Y-92978214D01*
X143609786Y-92880109D01*
X143609788Y-92880106D01*
X143609792Y-92880104D01*
X143760104Y-92729792D01*
X143760106Y-92729788D01*
X143760109Y-92729786D01*
X143885048Y-92557820D01*
X143885047Y-92557820D01*
X143885051Y-92557816D01*
X143889514Y-92549054D01*
X143937488Y-92498259D01*
X144005308Y-92481463D01*
X144071444Y-92503999D01*
X144110486Y-92549056D01*
X144114951Y-92557820D01*
X144239890Y-92729786D01*
X144390213Y-92880109D01*
X144562179Y-93005048D01*
X144562181Y-93005049D01*
X144562184Y-93005051D01*
X144751588Y-93101557D01*
X144953757Y-93167246D01*
X145163713Y-93200500D01*
X145163714Y-93200500D01*
X145376286Y-93200500D01*
X145376287Y-93200500D01*
X145586243Y-93167246D01*
X145788412Y-93101557D01*
X145977816Y-93005051D01*
X146014754Y-92978214D01*
X146149786Y-92880109D01*
X146149788Y-92880106D01*
X146149792Y-92880104D01*
X146300104Y-92729792D01*
X146300106Y-92729788D01*
X146300109Y-92729786D01*
X146425048Y-92557820D01*
X146425047Y-92557820D01*
X146425051Y-92557816D01*
X146429514Y-92549054D01*
X146477488Y-92498259D01*
X146545308Y-92481463D01*
X146611444Y-92503999D01*
X146650486Y-92549056D01*
X146654951Y-92557820D01*
X146779890Y-92729786D01*
X146930213Y-92880109D01*
X147102179Y-93005048D01*
X147102181Y-93005049D01*
X147102184Y-93005051D01*
X147291588Y-93101557D01*
X147493757Y-93167246D01*
X147703713Y-93200500D01*
X147703714Y-93200500D01*
X147916286Y-93200500D01*
X147916287Y-93200500D01*
X148126243Y-93167246D01*
X148328412Y-93101557D01*
X148517816Y-93005051D01*
X148554754Y-92978214D01*
X148689786Y-92880109D01*
X148689788Y-92880106D01*
X148689792Y-92880104D01*
X148840104Y-92729792D01*
X148840106Y-92729788D01*
X148840109Y-92729786D01*
X148965048Y-92557820D01*
X148965047Y-92557820D01*
X148965051Y-92557816D01*
X148969514Y-92549054D01*
X149017488Y-92498259D01*
X149085308Y-92481463D01*
X149151444Y-92503999D01*
X149190486Y-92549056D01*
X149194951Y-92557820D01*
X149319890Y-92729786D01*
X149470213Y-92880109D01*
X149642179Y-93005048D01*
X149642181Y-93005049D01*
X149642184Y-93005051D01*
X149831588Y-93101557D01*
X150033757Y-93167246D01*
X150243713Y-93200500D01*
X150243714Y-93200500D01*
X150456286Y-93200500D01*
X150456287Y-93200500D01*
X150666243Y-93167246D01*
X150868412Y-93101557D01*
X151057816Y-93005051D01*
X151094754Y-92978214D01*
X151229786Y-92880109D01*
X151229788Y-92880106D01*
X151229792Y-92880104D01*
X151380104Y-92729792D01*
X151380106Y-92729788D01*
X151380109Y-92729786D01*
X151505048Y-92557820D01*
X151505047Y-92557820D01*
X151505051Y-92557816D01*
X151601557Y-92368412D01*
X151667246Y-92166243D01*
X151700500Y-91956287D01*
X151700500Y-91743713D01*
X151667246Y-91533757D01*
X151601557Y-91331588D01*
X151505051Y-91142184D01*
X151505049Y-91142181D01*
X151505048Y-91142179D01*
X151380109Y-90970213D01*
X151229786Y-90819890D01*
X151057820Y-90694951D01*
X150868414Y-90598444D01*
X150868413Y-90598443D01*
X150868412Y-90598443D01*
X150666243Y-90532754D01*
X150666241Y-90532753D01*
X150666240Y-90532753D01*
X150504957Y-90507208D01*
X150456287Y-90499500D01*
X150243713Y-90499500D01*
X150195042Y-90507208D01*
X150033760Y-90532753D01*
X149831585Y-90598444D01*
X149642179Y-90694951D01*
X149470213Y-90819890D01*
X149319890Y-90970213D01*
X149194949Y-91142182D01*
X149190484Y-91150946D01*
X149142509Y-91201742D01*
X149074688Y-91218536D01*
X149008553Y-91195998D01*
X148969516Y-91150946D01*
X148965050Y-91142182D01*
X148840109Y-90970213D01*
X148689786Y-90819890D01*
X148517820Y-90694951D01*
X148328414Y-90598444D01*
X148328413Y-90598443D01*
X148328412Y-90598443D01*
X148126243Y-90532754D01*
X148126241Y-90532753D01*
X148126240Y-90532753D01*
X147964957Y-90507208D01*
X147916287Y-90499500D01*
X147703713Y-90499500D01*
X147655042Y-90507208D01*
X147493760Y-90532753D01*
X147291585Y-90598444D01*
X147102179Y-90694951D01*
X146930213Y-90819890D01*
X146779890Y-90970213D01*
X146654949Y-91142182D01*
X146650484Y-91150946D01*
X146602509Y-91201742D01*
X146534688Y-91218536D01*
X146468553Y-91195998D01*
X146429516Y-91150946D01*
X146425050Y-91142182D01*
X146300109Y-90970213D01*
X146149786Y-90819890D01*
X145977820Y-90694951D01*
X145788414Y-90598444D01*
X145788413Y-90598443D01*
X145788412Y-90598443D01*
X145586243Y-90532754D01*
X145586241Y-90532753D01*
X145586240Y-90532753D01*
X145424957Y-90507208D01*
X145376287Y-90499500D01*
X145163713Y-90499500D01*
X145115042Y-90507208D01*
X144953760Y-90532753D01*
X144751585Y-90598444D01*
X144562179Y-90694951D01*
X144390213Y-90819890D01*
X144239890Y-90970213D01*
X144114949Y-91142182D01*
X144110484Y-91150946D01*
X144062509Y-91201742D01*
X143994688Y-91218536D01*
X143928553Y-91195998D01*
X143889516Y-91150946D01*
X143885050Y-91142182D01*
X143760109Y-90970213D01*
X143609786Y-90819890D01*
X143437820Y-90694951D01*
X143248414Y-90598444D01*
X143248413Y-90598443D01*
X143248412Y-90598443D01*
X143046243Y-90532754D01*
X143046241Y-90532753D01*
X143046240Y-90532753D01*
X142884957Y-90507208D01*
X142836287Y-90499500D01*
X142623713Y-90499500D01*
X142575042Y-90507208D01*
X142413760Y-90532753D01*
X142211585Y-90598444D01*
X142022179Y-90694951D01*
X141850213Y-90819890D01*
X141699890Y-90970213D01*
X141574949Y-91142182D01*
X141570484Y-91150946D01*
X141522509Y-91201742D01*
X141454688Y-91218536D01*
X141388553Y-91195998D01*
X141349516Y-91150946D01*
X141345050Y-91142182D01*
X141220109Y-90970213D01*
X141069786Y-90819890D01*
X140897820Y-90694951D01*
X140708414Y-90598444D01*
X140708413Y-90598443D01*
X140708412Y-90598443D01*
X140506243Y-90532754D01*
X140506241Y-90532753D01*
X140506240Y-90532753D01*
X140344957Y-90507208D01*
X140296287Y-90499500D01*
X140083713Y-90499500D01*
X140035042Y-90507208D01*
X139873760Y-90532753D01*
X139671585Y-90598444D01*
X139482179Y-90694951D01*
X139310213Y-90819890D01*
X139159890Y-90970213D01*
X139034949Y-91142182D01*
X139030484Y-91150946D01*
X138982509Y-91201742D01*
X138914688Y-91218536D01*
X138848553Y-91195998D01*
X138809516Y-91150946D01*
X138805050Y-91142182D01*
X138680109Y-90970213D01*
X138529786Y-90819890D01*
X138357820Y-90694951D01*
X138168414Y-90598444D01*
X138168413Y-90598443D01*
X138168412Y-90598443D01*
X137966243Y-90532754D01*
X137966241Y-90532753D01*
X137966240Y-90532753D01*
X137804957Y-90507208D01*
X137756287Y-90499500D01*
X137543713Y-90499500D01*
X137495042Y-90507208D01*
X137333760Y-90532753D01*
X137131585Y-90598444D01*
X136942179Y-90694951D01*
X136770213Y-90819890D01*
X136619890Y-90970213D01*
X136494951Y-91142179D01*
X136398444Y-91331585D01*
X136332753Y-91533760D01*
X136299806Y-91741783D01*
X136299500Y-91743713D01*
X128493136Y-91743713D01*
X128492510Y-91741785D01*
X128492509Y-91741783D01*
X128377423Y-91515914D01*
X128228421Y-91310830D01*
X128095272Y-91177681D01*
X128061787Y-91116358D01*
X128066771Y-91046666D01*
X128095272Y-91002319D01*
X128127383Y-90970208D01*
X128228421Y-90869170D01*
X128377423Y-90664086D01*
X128492509Y-90438217D01*
X128570844Y-90197126D01*
X128610500Y-89946749D01*
X128610500Y-89693251D01*
X128570844Y-89442874D01*
X128570843Y-89442870D01*
X128570843Y-89442869D01*
X128492510Y-89201785D01*
X128492509Y-89201783D01*
X128377423Y-88975914D01*
X128228421Y-88770830D01*
X128095272Y-88637681D01*
X128061787Y-88576358D01*
X128066771Y-88506666D01*
X128095272Y-88462319D01*
X128228421Y-88329170D01*
X128377423Y-88124086D01*
X128492509Y-87898217D01*
X128570844Y-87657126D01*
X128610500Y-87406749D01*
X128610500Y-87153251D01*
X128570844Y-86902874D01*
X128570843Y-86902870D01*
X128570843Y-86902869D01*
X128492510Y-86661785D01*
X128492509Y-86661783D01*
X128377423Y-86435914D01*
X128228421Y-86230830D01*
X128095272Y-86097681D01*
X128061787Y-86036358D01*
X128066771Y-85966666D01*
X128095272Y-85922319D01*
X128105233Y-85912358D01*
X128228421Y-85789170D01*
X128377423Y-85584086D01*
X128492509Y-85358217D01*
X128509952Y-85304534D01*
X128570843Y-85117130D01*
X128570843Y-85117129D01*
X128570844Y-85117126D01*
X128610500Y-84866749D01*
X128610500Y-84613251D01*
X128570844Y-84362874D01*
X128570843Y-84362870D01*
X128570843Y-84362869D01*
X128492510Y-84121785D01*
X128475110Y-84087635D01*
X128377423Y-83895914D01*
X128228421Y-83690830D01*
X128095272Y-83557681D01*
X128061787Y-83496358D01*
X128066771Y-83426666D01*
X128095272Y-83382319D01*
X128228421Y-83249170D01*
X128377423Y-83044086D01*
X128492509Y-82818217D01*
X128570844Y-82577126D01*
X128610500Y-82326749D01*
X128610500Y-82073251D01*
X128570844Y-81822874D01*
X128570843Y-81822870D01*
X128570843Y-81822869D01*
X128492510Y-81581785D01*
X128492509Y-81581783D01*
X128377423Y-81355914D01*
X128228421Y-81150830D01*
X128095272Y-81017681D01*
X128061787Y-80956358D01*
X128066771Y-80886666D01*
X128095272Y-80842319D01*
X128228421Y-80709170D01*
X128377423Y-80504086D01*
X128492509Y-80278217D01*
X128524386Y-80180109D01*
X128570843Y-80037130D01*
X128570843Y-80037129D01*
X128570844Y-80037126D01*
X128610500Y-79786749D01*
X128610500Y-79533251D01*
X128570844Y-79282874D01*
X128570843Y-79282870D01*
X128570843Y-79282869D01*
X128492510Y-79041785D01*
X128449313Y-78957007D01*
X128377423Y-78815914D01*
X128228421Y-78610830D01*
X128095272Y-78477681D01*
X128091005Y-78469867D01*
X128083863Y-78464547D01*
X128074517Y-78439672D01*
X128061787Y-78416358D01*
X128062422Y-78407477D01*
X128059290Y-78399141D01*
X128064875Y-78373167D01*
X128066771Y-78346666D01*
X128072495Y-78337734D01*
X128073980Y-78330833D01*
X128094742Y-78303028D01*
X128095063Y-78302528D01*
X128145456Y-78252135D01*
X136299500Y-78252135D01*
X136299500Y-80047870D01*
X136299501Y-80047876D01*
X136305908Y-80107483D01*
X136356202Y-80242328D01*
X136356206Y-80242335D01*
X136442452Y-80357544D01*
X136442455Y-80357547D01*
X136557664Y-80443793D01*
X136557671Y-80443797D01*
X136692517Y-80494091D01*
X136692516Y-80494091D01*
X136699444Y-80494835D01*
X136752127Y-80500500D01*
X138547872Y-80500499D01*
X138607483Y-80494091D01*
X138742331Y-80443796D01*
X138857546Y-80357546D01*
X138943796Y-80242331D01*
X138992810Y-80110916D01*
X139034681Y-80054984D01*
X139100145Y-80030566D01*
X139168418Y-80045417D01*
X139196673Y-80066569D01*
X139310213Y-80180109D01*
X139482179Y-80305048D01*
X139482181Y-80305049D01*
X139482184Y-80305051D01*
X139671588Y-80401557D01*
X139873757Y-80467246D01*
X140083713Y-80500500D01*
X140083714Y-80500500D01*
X140296286Y-80500500D01*
X140296287Y-80500500D01*
X140506243Y-80467246D01*
X140708412Y-80401557D01*
X140897816Y-80305051D01*
X140984138Y-80242335D01*
X141069786Y-80180109D01*
X141069788Y-80180106D01*
X141069792Y-80180104D01*
X141220104Y-80029792D01*
X141220106Y-80029788D01*
X141220109Y-80029786D01*
X141345048Y-79857820D01*
X141345047Y-79857820D01*
X141345051Y-79857816D01*
X141349514Y-79849054D01*
X141397488Y-79798259D01*
X141465308Y-79781463D01*
X141531444Y-79803999D01*
X141570486Y-79849056D01*
X141574951Y-79857820D01*
X141699890Y-80029786D01*
X141850213Y-80180109D01*
X142022179Y-80305048D01*
X142022181Y-80305049D01*
X142022184Y-80305051D01*
X142211588Y-80401557D01*
X142413757Y-80467246D01*
X142623713Y-80500500D01*
X142623714Y-80500500D01*
X142836286Y-80500500D01*
X142836287Y-80500500D01*
X143046243Y-80467246D01*
X143248412Y-80401557D01*
X143437816Y-80305051D01*
X143524138Y-80242335D01*
X143609786Y-80180109D01*
X143609788Y-80180106D01*
X143609792Y-80180104D01*
X143760104Y-80029792D01*
X143760106Y-80029788D01*
X143760109Y-80029786D01*
X143885048Y-79857820D01*
X143885047Y-79857820D01*
X143885051Y-79857816D01*
X143889514Y-79849054D01*
X143937488Y-79798259D01*
X144005308Y-79781463D01*
X144071444Y-79803999D01*
X144110486Y-79849056D01*
X144114951Y-79857820D01*
X144239890Y-80029786D01*
X144390213Y-80180109D01*
X144562179Y-80305048D01*
X144562181Y-80305049D01*
X144562184Y-80305051D01*
X144751588Y-80401557D01*
X144953757Y-80467246D01*
X145163713Y-80500500D01*
X145163714Y-80500500D01*
X145376286Y-80500500D01*
X145376287Y-80500500D01*
X145586243Y-80467246D01*
X145788412Y-80401557D01*
X145977816Y-80305051D01*
X146064138Y-80242335D01*
X146149786Y-80180109D01*
X146149788Y-80180106D01*
X146149792Y-80180104D01*
X146300104Y-80029792D01*
X146300106Y-80029788D01*
X146300109Y-80029786D01*
X146425048Y-79857820D01*
X146425047Y-79857820D01*
X146425051Y-79857816D01*
X146429514Y-79849054D01*
X146477488Y-79798259D01*
X146545308Y-79781463D01*
X146611444Y-79803999D01*
X146650486Y-79849056D01*
X146654951Y-79857820D01*
X146779890Y-80029786D01*
X146930213Y-80180109D01*
X147102179Y-80305048D01*
X147102181Y-80305049D01*
X147102184Y-80305051D01*
X147291588Y-80401557D01*
X147493757Y-80467246D01*
X147703713Y-80500500D01*
X147703714Y-80500500D01*
X147916286Y-80500500D01*
X147916287Y-80500500D01*
X148126243Y-80467246D01*
X148328412Y-80401557D01*
X148517816Y-80305051D01*
X148604138Y-80242335D01*
X148689786Y-80180109D01*
X148689788Y-80180106D01*
X148689792Y-80180104D01*
X148840104Y-80029792D01*
X148840106Y-80029788D01*
X148840109Y-80029786D01*
X148925890Y-79911717D01*
X148965051Y-79857816D01*
X148969793Y-79848508D01*
X149017763Y-79797711D01*
X149085583Y-79780911D01*
X149151719Y-79803445D01*
X149190763Y-79848500D01*
X149195373Y-79857547D01*
X149234728Y-79911716D01*
X149867037Y-79279408D01*
X149884075Y-79342993D01*
X149949901Y-79457007D01*
X150042993Y-79550099D01*
X150157007Y-79615925D01*
X150220590Y-79632962D01*
X149588282Y-80265269D01*
X149588282Y-80265270D01*
X149642449Y-80304624D01*
X149831782Y-80401095D01*
X150033870Y-80466757D01*
X150243754Y-80500000D01*
X150456246Y-80500000D01*
X150666127Y-80466757D01*
X150666130Y-80466757D01*
X150868217Y-80401095D01*
X151057554Y-80304622D01*
X151111716Y-80265270D01*
X151111717Y-80265270D01*
X150479408Y-79632962D01*
X150542993Y-79615925D01*
X150657007Y-79550099D01*
X150750099Y-79457007D01*
X150815925Y-79342993D01*
X150832962Y-79279409D01*
X151465270Y-79911717D01*
X151465270Y-79911716D01*
X151504622Y-79857554D01*
X151601095Y-79668217D01*
X151666757Y-79466130D01*
X151666757Y-79466127D01*
X151700000Y-79256246D01*
X151700000Y-79043753D01*
X151666757Y-78833872D01*
X151666757Y-78833869D01*
X151601095Y-78631782D01*
X151504624Y-78442449D01*
X151465270Y-78388282D01*
X151465269Y-78388282D01*
X150832962Y-79020590D01*
X150815925Y-78957007D01*
X150750099Y-78842993D01*
X150657007Y-78749901D01*
X150542993Y-78684075D01*
X150479409Y-78667037D01*
X151111716Y-78034728D01*
X151057550Y-77995375D01*
X150868217Y-77898904D01*
X150666129Y-77833242D01*
X150456246Y-77800000D01*
X150243754Y-77800000D01*
X150033872Y-77833242D01*
X150033869Y-77833242D01*
X149831782Y-77898904D01*
X149642439Y-77995380D01*
X149588282Y-78034727D01*
X149588282Y-78034728D01*
X150220591Y-78667037D01*
X150157007Y-78684075D01*
X150042993Y-78749901D01*
X149949901Y-78842993D01*
X149884075Y-78957007D01*
X149867037Y-79020591D01*
X149234728Y-78388282D01*
X149234727Y-78388282D01*
X149195380Y-78442440D01*
X149195376Y-78442446D01*
X149190760Y-78451505D01*
X149142781Y-78502297D01*
X149074959Y-78519087D01*
X149008826Y-78496543D01*
X148969794Y-78451493D01*
X148965051Y-78442184D01*
X148965049Y-78442181D01*
X148965048Y-78442179D01*
X148840109Y-78270213D01*
X148689786Y-78119890D01*
X148517820Y-77994951D01*
X148328414Y-77898444D01*
X148328413Y-77898443D01*
X148328412Y-77898443D01*
X148126243Y-77832754D01*
X148126241Y-77832753D01*
X148126240Y-77832753D01*
X147964957Y-77807208D01*
X147916287Y-77799500D01*
X147703713Y-77799500D01*
X147655042Y-77807208D01*
X147493760Y-77832753D01*
X147291585Y-77898444D01*
X147102179Y-77994951D01*
X146930213Y-78119890D01*
X146779890Y-78270213D01*
X146654949Y-78442182D01*
X146650484Y-78450946D01*
X146602509Y-78501742D01*
X146534688Y-78518536D01*
X146468553Y-78495998D01*
X146429516Y-78450946D01*
X146425050Y-78442182D01*
X146300109Y-78270213D01*
X146149786Y-78119890D01*
X145977820Y-77994951D01*
X145788414Y-77898444D01*
X145788413Y-77898443D01*
X145788412Y-77898443D01*
X145586243Y-77832754D01*
X145586241Y-77832753D01*
X145586240Y-77832753D01*
X145424957Y-77807208D01*
X145376287Y-77799500D01*
X145163713Y-77799500D01*
X145115042Y-77807208D01*
X144953760Y-77832753D01*
X144751585Y-77898444D01*
X144562179Y-77994951D01*
X144390213Y-78119890D01*
X144239890Y-78270213D01*
X144114949Y-78442182D01*
X144110484Y-78450946D01*
X144062509Y-78501742D01*
X143994688Y-78518536D01*
X143928553Y-78495998D01*
X143889516Y-78450946D01*
X143885050Y-78442182D01*
X143760109Y-78270213D01*
X143609786Y-78119890D01*
X143437820Y-77994951D01*
X143248414Y-77898444D01*
X143248413Y-77898443D01*
X143248412Y-77898443D01*
X143046243Y-77832754D01*
X143046241Y-77832753D01*
X143046240Y-77832753D01*
X142884957Y-77807208D01*
X142836287Y-77799500D01*
X142623713Y-77799500D01*
X142575042Y-77807208D01*
X142413760Y-77832753D01*
X142211585Y-77898444D01*
X142022179Y-77994951D01*
X141850213Y-78119890D01*
X141699890Y-78270213D01*
X141574949Y-78442182D01*
X141570484Y-78450946D01*
X141522509Y-78501742D01*
X141454688Y-78518536D01*
X141388553Y-78495998D01*
X141349516Y-78450946D01*
X141345050Y-78442182D01*
X141220109Y-78270213D01*
X141069786Y-78119890D01*
X140897820Y-77994951D01*
X140708414Y-77898444D01*
X140708413Y-77898443D01*
X140708412Y-77898443D01*
X140506243Y-77832754D01*
X140506241Y-77832753D01*
X140506240Y-77832753D01*
X140344957Y-77807208D01*
X140296287Y-77799500D01*
X140083713Y-77799500D01*
X140035042Y-77807208D01*
X139873760Y-77832753D01*
X139671585Y-77898444D01*
X139482179Y-77994951D01*
X139310215Y-78119889D01*
X139196673Y-78233431D01*
X139135350Y-78266915D01*
X139065658Y-78261931D01*
X139009725Y-78220059D01*
X138992810Y-78189082D01*
X138943797Y-78057671D01*
X138943793Y-78057664D01*
X138857547Y-77942455D01*
X138857544Y-77942452D01*
X138742335Y-77856206D01*
X138742328Y-77856202D01*
X138607482Y-77805908D01*
X138607483Y-77805908D01*
X138547883Y-77799501D01*
X138547881Y-77799500D01*
X138547873Y-77799500D01*
X138547864Y-77799500D01*
X136752129Y-77799500D01*
X136752123Y-77799501D01*
X136692516Y-77805908D01*
X136557671Y-77856202D01*
X136557664Y-77856206D01*
X136442455Y-77942452D01*
X136442452Y-77942455D01*
X136356206Y-78057664D01*
X136356202Y-78057671D01*
X136305908Y-78192517D01*
X136299501Y-78252116D01*
X136299500Y-78252135D01*
X128145456Y-78252135D01*
X128228421Y-78169170D01*
X128377423Y-77964086D01*
X128492509Y-77738217D01*
X128533080Y-77613353D01*
X128570843Y-77497130D01*
X128570843Y-77497129D01*
X128570844Y-77497126D01*
X128610500Y-77246749D01*
X128610500Y-76993251D01*
X128570844Y-76742874D01*
X128570843Y-76742870D01*
X128570843Y-76742869D01*
X128492510Y-76501785D01*
X128492509Y-76501783D01*
X128377423Y-76275914D01*
X128228421Y-76070830D01*
X128095272Y-75937681D01*
X128061787Y-75876358D01*
X128066771Y-75806666D01*
X128095272Y-75762319D01*
X128228421Y-75629170D01*
X128377423Y-75424086D01*
X128492509Y-75198217D01*
X128570844Y-74957126D01*
X128610500Y-74706749D01*
X128610500Y-74453251D01*
X128570844Y-74202874D01*
X128570843Y-74202870D01*
X128570843Y-74202869D01*
X128492510Y-73961785D01*
X128492509Y-73961783D01*
X128377423Y-73735914D01*
X128228421Y-73530830D01*
X128095272Y-73397681D01*
X128061787Y-73336358D01*
X128066771Y-73266666D01*
X128095272Y-73222319D01*
X128142525Y-73175066D01*
X128228421Y-73089170D01*
X128377423Y-72884086D01*
X128492509Y-72658217D01*
X128558455Y-72455255D01*
X128570843Y-72417130D01*
X128570843Y-72417129D01*
X128570844Y-72417126D01*
X128610500Y-72166749D01*
X128610500Y-71913251D01*
X128570844Y-71662874D01*
X128570843Y-71662870D01*
X128570843Y-71662869D01*
X128492510Y-71421785D01*
X128492509Y-71421783D01*
X128377423Y-71195914D01*
X128228421Y-70990830D01*
X128095272Y-70857681D01*
X128061787Y-70796358D01*
X128066771Y-70726666D01*
X128095272Y-70682319D01*
X128228421Y-70549170D01*
X128377423Y-70344086D01*
X128492509Y-70118217D01*
X128570844Y-69877126D01*
X128610500Y-69626749D01*
X128610500Y-69373251D01*
X128570844Y-69122874D01*
X128570843Y-69122870D01*
X128570843Y-69122869D01*
X128492510Y-68881785D01*
X128492509Y-68881783D01*
X128377423Y-68655914D01*
X128228421Y-68450830D01*
X128049170Y-68271579D01*
X127844086Y-68122577D01*
X127731151Y-68065034D01*
X127618214Y-68007489D01*
X127377129Y-67929156D01*
X127189343Y-67899414D01*
X127126749Y-67889500D01*
X126873251Y-67889500D01*
X126789792Y-67902718D01*
X126622872Y-67929156D01*
X126622869Y-67929156D01*
X126381785Y-68007489D01*
X126155910Y-68122579D01*
X125950833Y-68271576D01*
X125950827Y-68271581D01*
X125771581Y-68450827D01*
X125771576Y-68450833D01*
X125622579Y-68655910D01*
X125507489Y-68881785D01*
X125429156Y-69122869D01*
X125429156Y-69122872D01*
X125389500Y-69373251D01*
X95590500Y-69373251D01*
X95550844Y-69122874D01*
X95550843Y-69122870D01*
X95550843Y-69122869D01*
X95472510Y-68881785D01*
X95472509Y-68881783D01*
X95357423Y-68655914D01*
X95208421Y-68450830D01*
X95029170Y-68271579D01*
X94824086Y-68122577D01*
X94711151Y-68065034D01*
X94598214Y-68007489D01*
X94357129Y-67929156D01*
X94169343Y-67899414D01*
X94106749Y-67889500D01*
X93853251Y-67889500D01*
X93769792Y-67902718D01*
X93602872Y-67929156D01*
X93602869Y-67929156D01*
X93361785Y-68007489D01*
X93135910Y-68122579D01*
X92930833Y-68271576D01*
X92930827Y-68271581D01*
X92751581Y-68450827D01*
X92751576Y-68450833D01*
X92602579Y-68655910D01*
X92487489Y-68881785D01*
X92409156Y-69122869D01*
X92409156Y-69122872D01*
X92369500Y-69373251D01*
X61500500Y-69373251D01*
X61500500Y-62517648D01*
X83699500Y-62517648D01*
X83699500Y-62722351D01*
X83731522Y-62924534D01*
X83794781Y-63119223D01*
X83887715Y-63301613D01*
X84008028Y-63467213D01*
X84152786Y-63611971D01*
X84307749Y-63724556D01*
X84318390Y-63732287D01*
X84434607Y-63791503D01*
X84500776Y-63825218D01*
X84500778Y-63825218D01*
X84500781Y-63825220D01*
X84605137Y-63859127D01*
X84695465Y-63888477D01*
X84796557Y-63904488D01*
X84897648Y-63920500D01*
X84897649Y-63920500D01*
X85102351Y-63920500D01*
X85102352Y-63920500D01*
X85304534Y-63888477D01*
X85499219Y-63825220D01*
X85681610Y-63732287D01*
X85774590Y-63664732D01*
X85847213Y-63611971D01*
X85847215Y-63611968D01*
X85847219Y-63611966D01*
X85991966Y-63467219D01*
X85991968Y-63467215D01*
X85991971Y-63467213D01*
X86044732Y-63394590D01*
X86112287Y-63301610D01*
X86205220Y-63119219D01*
X86268477Y-62924534D01*
X86300500Y-62722352D01*
X86300500Y-62517648D01*
X86268477Y-62315466D01*
X86205220Y-62120781D01*
X86205218Y-62120778D01*
X86205218Y-62120776D01*
X86171503Y-62054607D01*
X86112287Y-61938390D01*
X86104556Y-61927749D01*
X85991971Y-61772786D01*
X85847213Y-61628028D01*
X85681613Y-61507715D01*
X85681612Y-61507714D01*
X85681610Y-61507713D01*
X85624653Y-61478691D01*
X85499223Y-61414781D01*
X85304534Y-61351522D01*
X85129995Y-61323878D01*
X85102352Y-61319500D01*
X84897648Y-61319500D01*
X84873329Y-61323351D01*
X84695465Y-61351522D01*
X84500776Y-61414781D01*
X84318386Y-61507715D01*
X84152786Y-61628028D01*
X84008028Y-61772786D01*
X83887715Y-61938386D01*
X83794781Y-62120776D01*
X83731522Y-62315465D01*
X83699500Y-62517648D01*
X61500500Y-62517648D01*
X61500500Y-56844435D01*
X104910600Y-56844435D01*
X104910600Y-58260970D01*
X104910601Y-58260976D01*
X104917008Y-58320583D01*
X104967302Y-58455428D01*
X104967306Y-58455435D01*
X105053552Y-58570644D01*
X105053555Y-58570647D01*
X105168764Y-58656893D01*
X105168771Y-58656897D01*
X105303617Y-58707191D01*
X105303616Y-58707191D01*
X105310544Y-58707935D01*
X105363227Y-58713600D01*
X106779772Y-58713599D01*
X106839383Y-58707191D01*
X106959325Y-58662456D01*
X106974228Y-58656897D01*
X106974227Y-58656897D01*
X106974231Y-58656896D01*
X107089446Y-58570646D01*
X107175696Y-58455431D01*
X107225991Y-58320583D01*
X107232400Y-58260973D01*
X107232400Y-57871755D01*
X130839600Y-57871755D01*
X130839600Y-58330000D01*
X131675263Y-58330000D01*
X131674799Y-58330464D01*
X131621295Y-58423135D01*
X131593600Y-58526496D01*
X131593600Y-58633504D01*
X131621295Y-58736865D01*
X131674799Y-58829536D01*
X131675263Y-58830000D01*
X130839600Y-58830000D01*
X130839600Y-59288244D01*
X130846001Y-59347772D01*
X130846003Y-59347779D01*
X130896245Y-59482486D01*
X130896249Y-59482493D01*
X130982409Y-59597587D01*
X130982412Y-59597590D01*
X131097506Y-59683750D01*
X131097513Y-59683754D01*
X131232220Y-59733996D01*
X131232227Y-59733998D01*
X131291755Y-59740399D01*
X131291772Y-59740400D01*
X131750000Y-59740400D01*
X131750000Y-58904737D01*
X131750464Y-58905201D01*
X131843135Y-58958705D01*
X131946496Y-58986400D01*
X132053504Y-58986400D01*
X132156865Y-58958705D01*
X132249536Y-58905201D01*
X132250000Y-58904737D01*
X132250000Y-59740400D01*
X132708228Y-59740400D01*
X132708244Y-59740399D01*
X132767772Y-59733998D01*
X132767779Y-59733996D01*
X132902486Y-59683754D01*
X132902493Y-59683750D01*
X133017587Y-59597590D01*
X133017590Y-59597587D01*
X133103750Y-59482493D01*
X133103754Y-59482486D01*
X133153996Y-59347779D01*
X133153998Y-59347772D01*
X133160399Y-59288244D01*
X133160400Y-59288227D01*
X133160400Y-58830000D01*
X132324737Y-58830000D01*
X132325201Y-58829536D01*
X132378705Y-58736865D01*
X132406400Y-58633504D01*
X132406400Y-58526496D01*
X132378705Y-58423135D01*
X132325201Y-58330464D01*
X132324737Y-58330000D01*
X133160400Y-58330000D01*
X133160400Y-57871772D01*
X133160399Y-57871755D01*
X133153998Y-57812227D01*
X133153996Y-57812220D01*
X133103754Y-57677513D01*
X133103750Y-57677506D01*
X133017590Y-57562412D01*
X133017587Y-57562409D01*
X132902493Y-57476249D01*
X132902486Y-57476245D01*
X132767779Y-57426003D01*
X132767772Y-57426001D01*
X132708244Y-57419600D01*
X132250000Y-57419600D01*
X132250000Y-58255263D01*
X132249536Y-58254799D01*
X132156865Y-58201295D01*
X132053504Y-58173600D01*
X131946496Y-58173600D01*
X131843135Y-58201295D01*
X131750464Y-58254799D01*
X131750000Y-58255263D01*
X131750000Y-57419600D01*
X131291755Y-57419600D01*
X131232227Y-57426001D01*
X131232220Y-57426003D01*
X131097513Y-57476245D01*
X131097506Y-57476249D01*
X130982412Y-57562409D01*
X130982409Y-57562412D01*
X130896249Y-57677506D01*
X130896245Y-57677513D01*
X130846003Y-57812220D01*
X130846001Y-57812227D01*
X130839600Y-57871755D01*
X107232400Y-57871755D01*
X107232399Y-57476249D01*
X107232399Y-56844429D01*
X107232398Y-56844423D01*
X107232397Y-56844416D01*
X107225991Y-56784817D01*
X107175696Y-56649969D01*
X107175695Y-56649968D01*
X107175693Y-56649964D01*
X107089447Y-56534755D01*
X107089444Y-56534752D01*
X106974235Y-56448506D01*
X106974228Y-56448502D01*
X106839382Y-56398208D01*
X106839383Y-56398208D01*
X106779783Y-56391801D01*
X106779781Y-56391800D01*
X106779773Y-56391800D01*
X106779764Y-56391800D01*
X105363229Y-56391800D01*
X105363223Y-56391801D01*
X105303616Y-56398208D01*
X105168771Y-56448502D01*
X105168764Y-56448506D01*
X105053555Y-56534752D01*
X105053552Y-56534755D01*
X104967306Y-56649964D01*
X104967302Y-56649971D01*
X104917008Y-56784817D01*
X104910601Y-56844416D01*
X104910601Y-56844423D01*
X104910600Y-56844435D01*
X61500500Y-56844435D01*
X61500500Y-54897648D01*
X83699500Y-54897648D01*
X83699500Y-55102351D01*
X83731522Y-55304534D01*
X83794781Y-55499223D01*
X83887715Y-55681613D01*
X84008028Y-55847213D01*
X84152786Y-55991971D01*
X84285713Y-56088546D01*
X84318390Y-56112287D01*
X84434607Y-56171503D01*
X84500776Y-56205218D01*
X84500778Y-56205218D01*
X84500781Y-56205220D01*
X84605137Y-56239127D01*
X84695465Y-56268477D01*
X84796557Y-56284488D01*
X84897648Y-56300500D01*
X84897649Y-56300500D01*
X85102351Y-56300500D01*
X85102352Y-56300500D01*
X85304534Y-56268477D01*
X85499219Y-56205220D01*
X85681610Y-56112287D01*
X85828466Y-56005591D01*
X85847213Y-55991971D01*
X85847215Y-55991968D01*
X85847219Y-55991966D01*
X85991966Y-55847219D01*
X85991968Y-55847215D01*
X85991971Y-55847213D01*
X86083709Y-55720944D01*
X86112287Y-55681610D01*
X86205220Y-55499219D01*
X86268477Y-55304534D01*
X86300500Y-55102352D01*
X86300500Y-54921329D01*
X102370600Y-54921329D01*
X102370600Y-55104070D01*
X102399184Y-55284541D01*
X102399184Y-55284543D01*
X102399185Y-55284545D01*
X102455652Y-55458331D01*
X102538609Y-55621144D01*
X102646015Y-55768976D01*
X102775224Y-55898185D01*
X102923056Y-56005591D01*
X103085869Y-56088548D01*
X103259655Y-56145015D01*
X103327335Y-56155734D01*
X103440130Y-56173600D01*
X103440135Y-56173600D01*
X103622870Y-56173600D01*
X103723131Y-56157719D01*
X103803345Y-56145015D01*
X103977131Y-56088548D01*
X104139944Y-56005591D01*
X104287776Y-55898185D01*
X104416985Y-55768976D01*
X104524391Y-55621144D01*
X104607348Y-55458331D01*
X104663815Y-55284545D01*
X104669433Y-55249072D01*
X104678483Y-55191939D01*
X104678483Y-55191938D01*
X104692400Y-55104070D01*
X104692400Y-54921329D01*
X104663815Y-54740858D01*
X104663815Y-54740855D01*
X104607348Y-54567069D01*
X104524391Y-54404256D01*
X104524389Y-54404253D01*
X104524388Y-54404251D01*
X104502436Y-54374037D01*
X104502435Y-54374036D01*
X104451881Y-54304455D01*
X107451100Y-54304455D01*
X107451100Y-54762700D01*
X108286763Y-54762700D01*
X108286299Y-54763164D01*
X108232795Y-54855835D01*
X108205100Y-54959196D01*
X108205100Y-55066204D01*
X108232795Y-55169565D01*
X108286299Y-55262236D01*
X108286763Y-55262700D01*
X107451100Y-55262700D01*
X107451100Y-55720944D01*
X107457501Y-55780472D01*
X107457503Y-55780479D01*
X107507745Y-55915186D01*
X107507749Y-55915193D01*
X107593909Y-56030287D01*
X107593912Y-56030290D01*
X107709006Y-56116450D01*
X107709013Y-56116454D01*
X107843720Y-56166696D01*
X107843727Y-56166698D01*
X107903255Y-56173099D01*
X107903272Y-56173100D01*
X108361500Y-56173100D01*
X108361500Y-55337437D01*
X108361964Y-55337901D01*
X108454635Y-55391405D01*
X108557996Y-55419100D01*
X108665004Y-55419100D01*
X108768365Y-55391405D01*
X108861036Y-55337901D01*
X108861500Y-55337437D01*
X108861500Y-56173100D01*
X109319728Y-56173100D01*
X109319744Y-56173099D01*
X109379272Y-56166698D01*
X109379279Y-56166696D01*
X109513986Y-56116454D01*
X109513993Y-56116450D01*
X109629087Y-56030290D01*
X109629090Y-56030287D01*
X109715250Y-55915193D01*
X109715254Y-55915186D01*
X109765496Y-55780479D01*
X109765498Y-55780472D01*
X109771899Y-55720944D01*
X109771900Y-55720927D01*
X109771900Y-55331735D01*
X128299100Y-55331735D01*
X128299100Y-56748270D01*
X128299101Y-56748276D01*
X128305508Y-56807883D01*
X128355802Y-56942728D01*
X128355806Y-56942735D01*
X128442052Y-57057944D01*
X128442055Y-57057947D01*
X128557264Y-57144193D01*
X128557271Y-57144197D01*
X128692117Y-57194491D01*
X128692116Y-57194491D01*
X128699044Y-57195235D01*
X128751727Y-57200900D01*
X130168272Y-57200899D01*
X130227883Y-57194491D01*
X130362731Y-57144196D01*
X130477946Y-57057946D01*
X130564196Y-56942731D01*
X130614491Y-56807883D01*
X130620900Y-56748273D01*
X130620899Y-55331728D01*
X130614491Y-55272117D01*
X130564196Y-55137269D01*
X130564195Y-55137268D01*
X130564193Y-55137264D01*
X130477947Y-55022055D01*
X130477944Y-55022052D01*
X130362735Y-54935806D01*
X130362728Y-54935802D01*
X130227882Y-54885508D01*
X130227883Y-54885508D01*
X130168283Y-54879101D01*
X130168281Y-54879100D01*
X130168273Y-54879100D01*
X130168264Y-54879100D01*
X128751729Y-54879100D01*
X128751723Y-54879101D01*
X128692116Y-54885508D01*
X128557271Y-54935802D01*
X128557264Y-54935806D01*
X128442055Y-55022052D01*
X128442052Y-55022055D01*
X128355806Y-55137264D01*
X128355802Y-55137271D01*
X128305508Y-55272117D01*
X128299101Y-55331716D01*
X128299101Y-55331723D01*
X128299100Y-55331735D01*
X109771900Y-55331735D01*
X109771900Y-55262700D01*
X108936237Y-55262700D01*
X108936701Y-55262236D01*
X108990205Y-55169565D01*
X109017900Y-55066204D01*
X109017900Y-54959196D01*
X108990205Y-54855835D01*
X108936701Y-54763164D01*
X108936237Y-54762700D01*
X109771900Y-54762700D01*
X109771900Y-54304472D01*
X109771899Y-54304455D01*
X109765498Y-54244927D01*
X109765496Y-54244920D01*
X109715254Y-54110213D01*
X109715250Y-54110206D01*
X109629090Y-53995112D01*
X109629087Y-53995109D01*
X109513993Y-53908949D01*
X109513986Y-53908945D01*
X109379279Y-53858703D01*
X109379272Y-53858701D01*
X109319744Y-53852300D01*
X108861500Y-53852300D01*
X108861500Y-54687963D01*
X108861036Y-54687499D01*
X108768365Y-54633995D01*
X108665004Y-54606300D01*
X108557996Y-54606300D01*
X108454635Y-54633995D01*
X108361964Y-54687499D01*
X108361500Y-54687963D01*
X108361500Y-53852300D01*
X107903255Y-53852300D01*
X107843727Y-53858701D01*
X107843720Y-53858703D01*
X107709013Y-53908945D01*
X107709006Y-53908949D01*
X107593912Y-53995109D01*
X107593909Y-53995112D01*
X107507749Y-54110206D01*
X107507745Y-54110213D01*
X107457503Y-54244920D01*
X107457501Y-54244927D01*
X107451100Y-54304455D01*
X104451881Y-54304455D01*
X104416987Y-54256427D01*
X104416982Y-54256421D01*
X104287778Y-54127217D01*
X104287776Y-54127215D01*
X104139944Y-54019809D01*
X103977131Y-53936852D01*
X103803345Y-53880385D01*
X103803343Y-53880384D01*
X103803341Y-53880384D01*
X103622870Y-53851800D01*
X103622865Y-53851800D01*
X103440135Y-53851800D01*
X103440130Y-53851800D01*
X103259658Y-53880384D01*
X103085866Y-53936853D01*
X102923055Y-54019809D01*
X102775221Y-54127217D01*
X102646017Y-54256421D01*
X102538609Y-54404255D01*
X102455653Y-54567066D01*
X102399184Y-54740858D01*
X102370600Y-54921329D01*
X86300500Y-54921329D01*
X86300500Y-54897648D01*
X86293877Y-54855835D01*
X86268477Y-54695465D01*
X86205218Y-54500776D01*
X86156035Y-54404251D01*
X86112287Y-54318390D01*
X86067269Y-54256427D01*
X85991971Y-54152786D01*
X85847213Y-54008028D01*
X85681613Y-53887715D01*
X85681612Y-53887714D01*
X85681610Y-53887713D01*
X85611127Y-53851800D01*
X85499223Y-53794781D01*
X85304534Y-53731522D01*
X85129995Y-53703878D01*
X85102352Y-53699500D01*
X84897648Y-53699500D01*
X84873329Y-53703351D01*
X84695465Y-53731522D01*
X84500776Y-53794781D01*
X84318386Y-53887715D01*
X84152786Y-54008028D01*
X84008028Y-54152786D01*
X83887715Y-54318386D01*
X83794781Y-54500776D01*
X83731522Y-54695465D01*
X83699500Y-54897648D01*
X61500500Y-54897648D01*
X61500500Y-53408629D01*
X130839100Y-53408629D01*
X130839100Y-53591370D01*
X130867684Y-53771841D01*
X130867685Y-53771845D01*
X130924152Y-53945631D01*
X131007109Y-54108444D01*
X131114515Y-54256276D01*
X131243724Y-54385485D01*
X131391556Y-54492891D01*
X131554369Y-54575848D01*
X131728155Y-54632315D01*
X131795835Y-54643034D01*
X131908630Y-54660900D01*
X131908635Y-54660900D01*
X132091370Y-54660900D01*
X132191631Y-54645019D01*
X132271845Y-54632315D01*
X132445631Y-54575848D01*
X132608444Y-54492891D01*
X132756276Y-54385485D01*
X132885485Y-54256276D01*
X132992891Y-54108444D01*
X133075848Y-53945631D01*
X133132315Y-53771845D01*
X133145019Y-53691631D01*
X133160900Y-53591370D01*
X133160900Y-53408629D01*
X133132315Y-53228158D01*
X133132315Y-53228155D01*
X133075848Y-53054369D01*
X132992891Y-52891556D01*
X132885485Y-52743724D01*
X132756276Y-52614515D01*
X132608444Y-52507109D01*
X132445631Y-52424152D01*
X132271845Y-52367685D01*
X132271843Y-52367684D01*
X132271841Y-52367684D01*
X132091370Y-52339100D01*
X132091365Y-52339100D01*
X131908635Y-52339100D01*
X131908630Y-52339100D01*
X131728158Y-52367684D01*
X131554366Y-52424153D01*
X131391555Y-52507109D01*
X131243721Y-52614517D01*
X131114517Y-52743721D01*
X131007109Y-52891555D01*
X130924153Y-53054366D01*
X130867684Y-53228158D01*
X130839100Y-53408629D01*
X61500500Y-53408629D01*
X61500500Y-50868872D01*
X67499500Y-50868872D01*
X67499500Y-51131127D01*
X67526123Y-51333339D01*
X67533730Y-51391116D01*
X67601602Y-51644418D01*
X67601605Y-51644428D01*
X67701953Y-51886690D01*
X67701958Y-51886700D01*
X67833075Y-52113803D01*
X67992718Y-52321851D01*
X67992726Y-52321860D01*
X68178140Y-52507274D01*
X68178148Y-52507281D01*
X68386196Y-52666924D01*
X68613299Y-52798041D01*
X68613309Y-52798046D01*
X68839063Y-52891556D01*
X68855581Y-52898398D01*
X69108884Y-52966270D01*
X69368880Y-53000500D01*
X69368887Y-53000500D01*
X69631113Y-53000500D01*
X69631120Y-53000500D01*
X69891116Y-52966270D01*
X70144419Y-52898398D01*
X70329198Y-52821860D01*
X70386690Y-52798046D01*
X70386691Y-52798045D01*
X70386697Y-52798043D01*
X70613803Y-52666924D01*
X70821851Y-52507282D01*
X70821855Y-52507277D01*
X70821860Y-52507274D01*
X71007274Y-52321860D01*
X71007277Y-52321855D01*
X71007282Y-52321851D01*
X71166924Y-52113803D01*
X71298043Y-51886697D01*
X71398398Y-51644419D01*
X71466270Y-51391116D01*
X71469199Y-51368872D01*
X148999500Y-51368872D01*
X148999500Y-51631127D01*
X149026123Y-51833339D01*
X149033730Y-51891116D01*
X149093399Y-52113803D01*
X149101602Y-52144418D01*
X149101605Y-52144428D01*
X149201953Y-52386690D01*
X149201958Y-52386700D01*
X149333075Y-52613803D01*
X149492718Y-52821851D01*
X149492726Y-52821860D01*
X149678140Y-53007274D01*
X149678148Y-53007281D01*
X149886196Y-53166924D01*
X150113299Y-53298041D01*
X150113309Y-53298046D01*
X150355571Y-53398394D01*
X150355581Y-53398398D01*
X150608884Y-53466270D01*
X150868880Y-53500500D01*
X150868887Y-53500500D01*
X151131113Y-53500500D01*
X151131120Y-53500500D01*
X151391116Y-53466270D01*
X151644419Y-53398398D01*
X151886697Y-53298043D01*
X152113803Y-53166924D01*
X152321851Y-53007282D01*
X152321855Y-53007277D01*
X152321860Y-53007274D01*
X152507274Y-52821860D01*
X152507277Y-52821855D01*
X152507282Y-52821851D01*
X152666924Y-52613803D01*
X152798043Y-52386697D01*
X152805919Y-52367684D01*
X152898394Y-52144428D01*
X152898398Y-52144419D01*
X152966270Y-51891116D01*
X153000500Y-51631120D01*
X153000500Y-51368880D01*
X152966270Y-51108884D01*
X152898398Y-50855581D01*
X152898394Y-50855571D01*
X152798046Y-50613309D01*
X152798041Y-50613299D01*
X152666924Y-50386196D01*
X152507281Y-50178148D01*
X152507274Y-50178140D01*
X152321860Y-49992726D01*
X152321851Y-49992718D01*
X152113803Y-49833075D01*
X151886700Y-49701958D01*
X151886690Y-49701953D01*
X151644428Y-49601605D01*
X151644421Y-49601603D01*
X151644419Y-49601602D01*
X151391116Y-49533730D01*
X151333339Y-49526123D01*
X151131127Y-49499500D01*
X151131120Y-49499500D01*
X150868880Y-49499500D01*
X150868872Y-49499500D01*
X150637772Y-49529926D01*
X150608884Y-49533730D01*
X150355581Y-49601602D01*
X150355571Y-49601605D01*
X150113309Y-49701953D01*
X150113299Y-49701958D01*
X149886196Y-49833075D01*
X149678148Y-49992718D01*
X149492718Y-50178148D01*
X149333075Y-50386196D01*
X149201958Y-50613299D01*
X149201953Y-50613309D01*
X149101605Y-50855571D01*
X149101602Y-50855581D01*
X149033730Y-51108885D01*
X148999500Y-51368872D01*
X71469199Y-51368872D01*
X71500500Y-51131120D01*
X71500500Y-50868880D01*
X71466270Y-50608884D01*
X71398398Y-50355581D01*
X71398394Y-50355571D01*
X71298046Y-50113309D01*
X71298041Y-50113299D01*
X71166924Y-49886196D01*
X71025551Y-49701957D01*
X71007282Y-49678149D01*
X71007281Y-49678148D01*
X71007274Y-49678140D01*
X70821860Y-49492726D01*
X70821851Y-49492718D01*
X70613803Y-49333075D01*
X70386700Y-49201958D01*
X70386690Y-49201953D01*
X70144428Y-49101605D01*
X70144421Y-49101603D01*
X70144419Y-49101602D01*
X69891116Y-49033730D01*
X69833339Y-49026123D01*
X69631127Y-48999500D01*
X69631120Y-48999500D01*
X69368880Y-48999500D01*
X69368872Y-48999500D01*
X69137772Y-49029926D01*
X69108884Y-49033730D01*
X68855581Y-49101602D01*
X68855571Y-49101605D01*
X68613309Y-49201953D01*
X68613299Y-49201958D01*
X68386196Y-49333075D01*
X68178148Y-49492718D01*
X67992718Y-49678148D01*
X67833075Y-49886196D01*
X67701958Y-50113299D01*
X67701953Y-50113309D01*
X67601605Y-50355571D01*
X67601602Y-50355581D01*
X67533730Y-50608884D01*
X67529926Y-50637772D01*
X67499500Y-50868872D01*
X61500500Y-50868872D01*
X61500500Y-46124500D01*
X61520185Y-46057461D01*
X61572989Y-46011706D01*
X61624500Y-46000500D01*
X158875500Y-46000500D01*
X158942539Y-46020185D01*
G37*
%TD.AperFunction*%
%TD*%
M02*
