M48
; DRILL file {KiCad 9.0.7} date 2026-03-15T15:09:38-0400
; FORMAT={-:-/ absolute / metric / decimal}
; #@! TF.CreationDate,2026-03-15T15:09:38-04:00
; #@! TF.GenerationSoftware,Kicad,Pcbnew,9.0.7
; #@! TF.FileFunction,MixedPlating,1,2
FMAT,2
METRIC
; #@! TA.AperFunction,Plated,PTH,ComponentDrill
T1C0.800
; #@! TA.AperFunction,Plated,PTH,ComponentDrill
T2C0.813
; #@! TA.AperFunction,Plated,PTH,ComponentDrill
T3C0.900
; #@! TA.AperFunction,Plated,PTH,ComponentDrill
T4C1.000
; #@! TA.AperFunction,Plated,PTH,ComponentDrill
T5C1.092
; #@! TA.AperFunction,Plated,PTH,ComponentDrill
T6C1.130
; #@! TA.AperFunction,NonPlated,NPTH,ComponentDrill
T7C3.500
%
G90
G05
T1
X73.23Y-85.0
X73.54Y-119.0
X73.73Y-108.0
X74.23Y-96.0
X80.85Y-85.0
X81.16Y-119.0
X81.35Y-108.0
X81.85Y-96.0
X85.0Y-55.0
X85.0Y-62.62
T2
X103.531Y-55.013
X106.072Y-57.553
X108.611Y-55.013
X129.46Y-56.04
X132.0Y-53.5
X132.0Y-58.58
T3
X66.0Y-85.0
X66.0Y-96.0
X66.0Y-108.0
X66.0Y-119.0
X68.54Y-85.0
X68.54Y-96.0
X68.54Y-108.0
X68.54Y-119.0
T4
X137.65Y-79.15
X137.65Y-91.85
X140.19Y-79.15
X140.19Y-91.85
X142.73Y-79.15
X142.73Y-91.85
X145.27Y-79.15
X145.27Y-91.85
X147.81Y-79.15
X147.81Y-91.85
X150.35Y-79.15
X150.35Y-91.85
T5
X78.5Y-73.613
X78.5Y-78.693
T6
X93.98Y-69.5
X93.98Y-72.04
X93.98Y-74.58
X93.98Y-77.12
X93.98Y-79.66
X93.98Y-82.2
X93.98Y-84.74
X93.98Y-87.28
X93.98Y-89.82
X93.98Y-92.36
X93.98Y-94.9
X93.98Y-97.44
X93.98Y-99.98
X93.98Y-102.52
X93.98Y-105.06
X93.98Y-107.6
X127.0Y-69.5
X127.0Y-72.04
X127.0Y-74.58
X127.0Y-77.12
X127.0Y-79.66
X127.0Y-82.2
X127.0Y-84.74
X127.0Y-87.28
X127.0Y-89.82
X127.0Y-92.36
X127.0Y-94.9
X127.0Y-97.44
X127.0Y-99.98
X127.0Y-102.52
X127.0Y-105.06
X127.0Y-107.6
T7
X69.5Y-51.0
X70.5Y-132.5
X151.0Y-51.5
X151.0Y-132.5
M30
