%TF.GenerationSoftware,KiCad,Pcbnew,9.0.7*%
%TF.CreationDate,2026-03-15T15:08:17-04:00*%
%TF.ProjectId,projet,70726f6a-6574-42e6-9b69-6361645f7063,rev?*%
%TF.SameCoordinates,Original*%
%TF.FileFunction,Soldermask,Top*%
%TF.FilePolarity,Negative*%
%FSLAX46Y46*%
G04 Gerber Fmt 4.6, Leading zero omitted, Abs format (unit mm)*
G04 Created by KiCad (PCBNEW 9.0.7) date 2026-03-15 15:08:17*
%MOMM*%
%LPD*%
G01*
G04 APERTURE LIST*
%ADD10C,1.700000*%
%ADD11R,1.700000X1.700000*%
%ADD12R,1.600200X1.600200*%
%ADD13C,1.600200*%
%ADD14C,2.260000*%
%ADD15C,3.500000*%
%ADD16C,1.800000*%
%ADD17R,1.800000X1.800000*%
%ADD18C,1.600000*%
%ADD19C,1.320800*%
%ADD20R,1.320800X1.320800*%
G04 APERTURE END LIST*
D10*
%TO.C,U2*%
X137650000Y-91850000D03*
X140190000Y-91850000D03*
X142730000Y-91850000D03*
X145270000Y-91850000D03*
X147810000Y-91850000D03*
X150350000Y-91850000D03*
X150350000Y-79150000D03*
X147810000Y-79150000D03*
X145270000Y-79150000D03*
X142730000Y-79150000D03*
X140190000Y-79150000D03*
D11*
X137650000Y-79150000D03*
%TD*%
D12*
%TO.C,SW1*%
X78500000Y-73612900D03*
D13*
X78500000Y-78692900D03*
%TD*%
D14*
%TO.C,U1*%
X127000000Y-107600000D03*
X127000000Y-105060000D03*
X127000000Y-102520000D03*
X127000000Y-99980000D03*
X127000000Y-97440000D03*
X127000000Y-94900000D03*
X127000000Y-92360000D03*
X127000000Y-89820000D03*
X127000000Y-87280000D03*
X127000000Y-84740000D03*
X127000000Y-82200000D03*
X127000000Y-79660000D03*
X127000000Y-77120000D03*
X127000000Y-74580000D03*
X127000000Y-72040000D03*
X127000000Y-69500000D03*
X93980000Y-107600000D03*
X93980000Y-105060000D03*
X93980000Y-102520000D03*
X93980000Y-99980000D03*
X93980000Y-97440000D03*
X93980000Y-94900000D03*
X93980000Y-92360000D03*
X93980000Y-89820000D03*
X93980000Y-87280000D03*
X93980000Y-84740000D03*
X93980000Y-82200000D03*
X93980000Y-79660000D03*
X93980000Y-77120000D03*
X93980000Y-74580000D03*
X93980000Y-72040000D03*
X93980000Y-69500000D03*
%TD*%
D15*
%TO.C,REF\u002A\u002A*%
X151000000Y-51500000D03*
%TD*%
%TO.C,REF\u002A\u002A*%
X69500000Y-51000000D03*
%TD*%
D16*
%TO.C,D1*%
X68540000Y-119000000D03*
D17*
X66000000Y-119000000D03*
%TD*%
D16*
%TO.C,D2*%
X68540000Y-108000000D03*
D17*
X66000000Y-108000000D03*
%TD*%
D18*
%TO.C,R2*%
X81350000Y-108000000D03*
X73730000Y-108000000D03*
%TD*%
D16*
%TO.C,D3*%
X68540000Y-96000000D03*
D17*
X66000000Y-96000000D03*
%TD*%
D18*
%TO.C,R1*%
X81160000Y-119000000D03*
X73540000Y-119000000D03*
%TD*%
%TO.C,R5*%
X85000000Y-62620000D03*
X85000000Y-55000000D03*
%TD*%
%TO.C,R4*%
X80850000Y-85000000D03*
X73230000Y-85000000D03*
%TD*%
%TO.C,R3*%
X81850000Y-96000000D03*
X74230000Y-96000000D03*
%TD*%
D15*
%TO.C,REF\u002A\u002A*%
X70500000Y-132500000D03*
%TD*%
%TO.C,REF\u002A\u002A*%
X151000000Y-132500000D03*
%TD*%
D19*
%TO.C,RV2*%
X103531500Y-55012700D03*
D20*
X106071500Y-57552700D03*
X108611500Y-55012700D03*
%TD*%
D19*
%TO.C,RV1*%
X132000000Y-53500000D03*
D20*
X129460000Y-56040000D03*
X132000000Y-58580000D03*
%TD*%
D17*
%TO.C,D4*%
X66000000Y-85000000D03*
D16*
X68540000Y-85000000D03*
%TD*%
M02*
