%TF.GenerationSoftware,KiCad,Pcbnew,9.0.7*%
%TF.CreationDate,2026-03-16T12:01:52-04:00*%
%TF.ProjectId,shield.kicad,73686965-6c64-42e6-9b69-6361642e6b69,rev?*%
%TF.SameCoordinates,Original*%
%TF.FileFunction,Legend,Top*%
%TF.FilePolarity,Positive*%
%FSLAX46Y46*%
G04 Gerber Fmt 4.6, Leading zero omitted, Abs format (unit mm)*
G04 Created by KiCad (PCBNEW 9.0.7) date 2026-03-16 12:01:52*
%MOMM*%
%LPD*%
G01*
G04 APERTURE LIST*
%ADD10C,0.150000*%
%ADD11C,0.100000*%
%ADD12C,0.120000*%
%ADD13C,0.152400*%
%ADD14R,1.700000X1.700000*%
%ADD15C,1.700000*%
%ADD16C,1.600000*%
%ADD17C,2.260000*%
%ADD18C,3.200000*%
%ADD19R,1.600200X1.600200*%
%ADD20C,1.600200*%
%ADD21C,1.320800*%
%ADD22R,1.320800X1.320800*%
%ADD23R,1.800000X1.800000*%
%ADD24C,1.800000*%
G04 APERTURE END LIST*
D10*
X85954819Y-69833333D02*
X86669104Y-69833333D01*
X86669104Y-69833333D02*
X86811961Y-69880952D01*
X86811961Y-69880952D02*
X86907200Y-69976190D01*
X86907200Y-69976190D02*
X86954819Y-70119047D01*
X86954819Y-70119047D02*
X86954819Y-70214285D01*
X86050057Y-69404761D02*
X86002438Y-69357142D01*
X86002438Y-69357142D02*
X85954819Y-69261904D01*
X85954819Y-69261904D02*
X85954819Y-69023809D01*
X85954819Y-69023809D02*
X86002438Y-68928571D01*
X86002438Y-68928571D02*
X86050057Y-68880952D01*
X86050057Y-68880952D02*
X86145295Y-68833333D01*
X86145295Y-68833333D02*
X86240533Y-68833333D01*
X86240533Y-68833333D02*
X86383390Y-68880952D01*
X86383390Y-68880952D02*
X86954819Y-69452380D01*
X86954819Y-69452380D02*
X86954819Y-68833333D01*
X145333333Y-71084819D02*
X145000000Y-70608628D01*
X144761905Y-71084819D02*
X144761905Y-70084819D01*
X144761905Y-70084819D02*
X145142857Y-70084819D01*
X145142857Y-70084819D02*
X145238095Y-70132438D01*
X145238095Y-70132438D02*
X145285714Y-70180057D01*
X145285714Y-70180057D02*
X145333333Y-70275295D01*
X145333333Y-70275295D02*
X145333333Y-70418152D01*
X145333333Y-70418152D02*
X145285714Y-70513390D01*
X145285714Y-70513390D02*
X145238095Y-70561009D01*
X145238095Y-70561009D02*
X145142857Y-70608628D01*
X145142857Y-70608628D02*
X144761905Y-70608628D01*
X145666667Y-70084819D02*
X146285714Y-70084819D01*
X146285714Y-70084819D02*
X145952381Y-70465771D01*
X145952381Y-70465771D02*
X146095238Y-70465771D01*
X146095238Y-70465771D02*
X146190476Y-70513390D01*
X146190476Y-70513390D02*
X146238095Y-70561009D01*
X146238095Y-70561009D02*
X146285714Y-70656247D01*
X146285714Y-70656247D02*
X146285714Y-70894342D01*
X146285714Y-70894342D02*
X146238095Y-70989580D01*
X146238095Y-70989580D02*
X146190476Y-71037200D01*
X146190476Y-71037200D02*
X146095238Y-71084819D01*
X146095238Y-71084819D02*
X145809524Y-71084819D01*
X145809524Y-71084819D02*
X145714286Y-71037200D01*
X145714286Y-71037200D02*
X145666667Y-70989580D01*
D11*
X107374374Y-68991619D02*
X106898184Y-68991619D01*
X106898184Y-68991619D02*
X106898184Y-67991619D01*
X107707708Y-68991619D02*
X107707708Y-68324952D01*
X107707708Y-67991619D02*
X107660089Y-68039238D01*
X107660089Y-68039238D02*
X107707708Y-68086857D01*
X107707708Y-68086857D02*
X107755327Y-68039238D01*
X107755327Y-68039238D02*
X107707708Y-67991619D01*
X107707708Y-67991619D02*
X107707708Y-68086857D01*
X108326755Y-68991619D02*
X108231517Y-68944000D01*
X108231517Y-68944000D02*
X108183898Y-68848761D01*
X108183898Y-68848761D02*
X108183898Y-67991619D01*
X108612470Y-68324952D02*
X108850565Y-68991619D01*
X109088660Y-68324952D02*
X108850565Y-68991619D01*
X108850565Y-68991619D02*
X108755327Y-69229714D01*
X108755327Y-69229714D02*
X108707708Y-69277333D01*
X108707708Y-69277333D02*
X108612470Y-69324952D01*
X109993422Y-68039238D02*
X109898184Y-67991619D01*
X109898184Y-67991619D02*
X109755327Y-67991619D01*
X109755327Y-67991619D02*
X109612470Y-68039238D01*
X109612470Y-68039238D02*
X109517232Y-68134476D01*
X109517232Y-68134476D02*
X109469613Y-68229714D01*
X109469613Y-68229714D02*
X109421994Y-68420190D01*
X109421994Y-68420190D02*
X109421994Y-68563047D01*
X109421994Y-68563047D02*
X109469613Y-68753523D01*
X109469613Y-68753523D02*
X109517232Y-68848761D01*
X109517232Y-68848761D02*
X109612470Y-68944000D01*
X109612470Y-68944000D02*
X109755327Y-68991619D01*
X109755327Y-68991619D02*
X109850565Y-68991619D01*
X109850565Y-68991619D02*
X109993422Y-68944000D01*
X109993422Y-68944000D02*
X110041041Y-68896380D01*
X110041041Y-68896380D02*
X110041041Y-68563047D01*
X110041041Y-68563047D02*
X109850565Y-68563047D01*
X110612470Y-68991619D02*
X110517232Y-68944000D01*
X110517232Y-68944000D02*
X110469613Y-68896380D01*
X110469613Y-68896380D02*
X110421994Y-68801142D01*
X110421994Y-68801142D02*
X110421994Y-68515428D01*
X110421994Y-68515428D02*
X110469613Y-68420190D01*
X110469613Y-68420190D02*
X110517232Y-68372571D01*
X110517232Y-68372571D02*
X110612470Y-68324952D01*
X110612470Y-68324952D02*
X110755327Y-68324952D01*
X110755327Y-68324952D02*
X110850565Y-68372571D01*
X110850565Y-68372571D02*
X110898184Y-68420190D01*
X110898184Y-68420190D02*
X110945803Y-68515428D01*
X110945803Y-68515428D02*
X110945803Y-68801142D01*
X110945803Y-68801142D02*
X110898184Y-68896380D01*
X110898184Y-68896380D02*
X110850565Y-68944000D01*
X110850565Y-68944000D02*
X110755327Y-68991619D01*
X110755327Y-68991619D02*
X110612470Y-68991619D01*
X111374375Y-68610666D02*
X112136280Y-68610666D01*
X112469613Y-67991619D02*
X113041041Y-67991619D01*
X112755327Y-68991619D02*
X112755327Y-67991619D01*
X113374375Y-68610666D02*
X114136280Y-68610666D01*
X114564851Y-68705904D02*
X115041041Y-68705904D01*
X114469613Y-68991619D02*
X114802946Y-67991619D01*
X114802946Y-67991619D02*
X115136279Y-68991619D01*
X115374375Y-67991619D02*
X116041041Y-67991619D01*
X116041041Y-67991619D02*
X115612470Y-68991619D01*
X116850565Y-67991619D02*
X116660089Y-67991619D01*
X116660089Y-67991619D02*
X116564851Y-68039238D01*
X116564851Y-68039238D02*
X116517232Y-68086857D01*
X116517232Y-68086857D02*
X116421994Y-68229714D01*
X116421994Y-68229714D02*
X116374375Y-68420190D01*
X116374375Y-68420190D02*
X116374375Y-68801142D01*
X116374375Y-68801142D02*
X116421994Y-68896380D01*
X116421994Y-68896380D02*
X116469613Y-68944000D01*
X116469613Y-68944000D02*
X116564851Y-68991619D01*
X116564851Y-68991619D02*
X116755327Y-68991619D01*
X116755327Y-68991619D02*
X116850565Y-68944000D01*
X116850565Y-68944000D02*
X116898184Y-68896380D01*
X116898184Y-68896380D02*
X116945803Y-68801142D01*
X116945803Y-68801142D02*
X116945803Y-68563047D01*
X116945803Y-68563047D02*
X116898184Y-68467809D01*
X116898184Y-68467809D02*
X116850565Y-68420190D01*
X116850565Y-68420190D02*
X116755327Y-68372571D01*
X116755327Y-68372571D02*
X116564851Y-68372571D01*
X116564851Y-68372571D02*
X116469613Y-68420190D01*
X116469613Y-68420190D02*
X116421994Y-68467809D01*
X116421994Y-68467809D02*
X116374375Y-68563047D01*
X117279137Y-67991619D02*
X117945803Y-67991619D01*
X117945803Y-67991619D02*
X117517232Y-68991619D01*
X118517232Y-67991619D02*
X118612470Y-67991619D01*
X118612470Y-67991619D02*
X118707708Y-68039238D01*
X118707708Y-68039238D02*
X118755327Y-68086857D01*
X118755327Y-68086857D02*
X118802946Y-68182095D01*
X118802946Y-68182095D02*
X118850565Y-68372571D01*
X118850565Y-68372571D02*
X118850565Y-68610666D01*
X118850565Y-68610666D02*
X118802946Y-68801142D01*
X118802946Y-68801142D02*
X118755327Y-68896380D01*
X118755327Y-68896380D02*
X118707708Y-68944000D01*
X118707708Y-68944000D02*
X118612470Y-68991619D01*
X118612470Y-68991619D02*
X118517232Y-68991619D01*
X118517232Y-68991619D02*
X118421994Y-68944000D01*
X118421994Y-68944000D02*
X118374375Y-68896380D01*
X118374375Y-68896380D02*
X118326756Y-68801142D01*
X118326756Y-68801142D02*
X118279137Y-68610666D01*
X118279137Y-68610666D02*
X118279137Y-68372571D01*
X118279137Y-68372571D02*
X118326756Y-68182095D01*
X118326756Y-68182095D02*
X118374375Y-68086857D01*
X118374375Y-68086857D02*
X118421994Y-68039238D01*
X118421994Y-68039238D02*
X118517232Y-67991619D01*
X119279137Y-68467809D02*
X119612470Y-68467809D01*
X119755327Y-68991619D02*
X119279137Y-68991619D01*
X119279137Y-68991619D02*
X119279137Y-67991619D01*
X119279137Y-67991619D02*
X119755327Y-67991619D01*
D10*
X164666666Y-103804819D02*
X164333333Y-103328628D01*
X164095238Y-103804819D02*
X164095238Y-102804819D01*
X164095238Y-102804819D02*
X164476190Y-102804819D01*
X164476190Y-102804819D02*
X164571428Y-102852438D01*
X164571428Y-102852438D02*
X164619047Y-102900057D01*
X164619047Y-102900057D02*
X164666666Y-102995295D01*
X164666666Y-102995295D02*
X164666666Y-103138152D01*
X164666666Y-103138152D02*
X164619047Y-103233390D01*
X164619047Y-103233390D02*
X164571428Y-103281009D01*
X164571428Y-103281009D02*
X164476190Y-103328628D01*
X164476190Y-103328628D02*
X164095238Y-103328628D01*
X165095238Y-103281009D02*
X165428571Y-103281009D01*
X165571428Y-103804819D02*
X165095238Y-103804819D01*
X165095238Y-103804819D02*
X165095238Y-102804819D01*
X165095238Y-102804819D02*
X165571428Y-102804819D01*
X166333333Y-103281009D02*
X166000000Y-103281009D01*
X166000000Y-103804819D02*
X166000000Y-102804819D01*
X166000000Y-102804819D02*
X166476190Y-102804819D01*
X167000000Y-102804819D02*
X167000000Y-103042914D01*
X166761905Y-102947676D02*
X167000000Y-103042914D01*
X167000000Y-103042914D02*
X167238095Y-102947676D01*
X166857143Y-103233390D02*
X167000000Y-103042914D01*
X167000000Y-103042914D02*
X167142857Y-103233390D01*
X167761905Y-102804819D02*
X167761905Y-103042914D01*
X167523810Y-102947676D02*
X167761905Y-103042914D01*
X167761905Y-103042914D02*
X168000000Y-102947676D01*
X167619048Y-103233390D02*
X167761905Y-103042914D01*
X167761905Y-103042914D02*
X167904762Y-103233390D01*
X62666666Y-103804819D02*
X62333333Y-103328628D01*
X62095238Y-103804819D02*
X62095238Y-102804819D01*
X62095238Y-102804819D02*
X62476190Y-102804819D01*
X62476190Y-102804819D02*
X62571428Y-102852438D01*
X62571428Y-102852438D02*
X62619047Y-102900057D01*
X62619047Y-102900057D02*
X62666666Y-102995295D01*
X62666666Y-102995295D02*
X62666666Y-103138152D01*
X62666666Y-103138152D02*
X62619047Y-103233390D01*
X62619047Y-103233390D02*
X62571428Y-103281009D01*
X62571428Y-103281009D02*
X62476190Y-103328628D01*
X62476190Y-103328628D02*
X62095238Y-103328628D01*
X63095238Y-103281009D02*
X63428571Y-103281009D01*
X63571428Y-103804819D02*
X63095238Y-103804819D01*
X63095238Y-103804819D02*
X63095238Y-102804819D01*
X63095238Y-102804819D02*
X63571428Y-102804819D01*
X64333333Y-103281009D02*
X64000000Y-103281009D01*
X64000000Y-103804819D02*
X64000000Y-102804819D01*
X64000000Y-102804819D02*
X64476190Y-102804819D01*
X65000000Y-102804819D02*
X65000000Y-103042914D01*
X64761905Y-102947676D02*
X65000000Y-103042914D01*
X65000000Y-103042914D02*
X65238095Y-102947676D01*
X64857143Y-103233390D02*
X65000000Y-103042914D01*
X65000000Y-103042914D02*
X65142857Y-103233390D01*
X65761905Y-102804819D02*
X65761905Y-103042914D01*
X65523810Y-102947676D02*
X65761905Y-103042914D01*
X65761905Y-103042914D02*
X66000000Y-102947676D01*
X65619048Y-103233390D02*
X65761905Y-103042914D01*
X65761905Y-103042914D02*
X65904762Y-103233390D01*
X165166666Y-20304819D02*
X164833333Y-19828628D01*
X164595238Y-20304819D02*
X164595238Y-19304819D01*
X164595238Y-19304819D02*
X164976190Y-19304819D01*
X164976190Y-19304819D02*
X165071428Y-19352438D01*
X165071428Y-19352438D02*
X165119047Y-19400057D01*
X165119047Y-19400057D02*
X165166666Y-19495295D01*
X165166666Y-19495295D02*
X165166666Y-19638152D01*
X165166666Y-19638152D02*
X165119047Y-19733390D01*
X165119047Y-19733390D02*
X165071428Y-19781009D01*
X165071428Y-19781009D02*
X164976190Y-19828628D01*
X164976190Y-19828628D02*
X164595238Y-19828628D01*
X165595238Y-19781009D02*
X165928571Y-19781009D01*
X166071428Y-20304819D02*
X165595238Y-20304819D01*
X165595238Y-20304819D02*
X165595238Y-19304819D01*
X165595238Y-19304819D02*
X166071428Y-19304819D01*
X166833333Y-19781009D02*
X166500000Y-19781009D01*
X166500000Y-20304819D02*
X166500000Y-19304819D01*
X166500000Y-19304819D02*
X166976190Y-19304819D01*
X167500000Y-19304819D02*
X167500000Y-19542914D01*
X167261905Y-19447676D02*
X167500000Y-19542914D01*
X167500000Y-19542914D02*
X167738095Y-19447676D01*
X167357143Y-19733390D02*
X167500000Y-19542914D01*
X167500000Y-19542914D02*
X167642857Y-19733390D01*
X168261905Y-19304819D02*
X168261905Y-19542914D01*
X168023810Y-19447676D02*
X168261905Y-19542914D01*
X168261905Y-19542914D02*
X168500000Y-19447676D01*
X168119048Y-19733390D02*
X168261905Y-19542914D01*
X168261905Y-19542914D02*
X168404762Y-19733390D01*
X62166666Y-19804819D02*
X61833333Y-19328628D01*
X61595238Y-19804819D02*
X61595238Y-18804819D01*
X61595238Y-18804819D02*
X61976190Y-18804819D01*
X61976190Y-18804819D02*
X62071428Y-18852438D01*
X62071428Y-18852438D02*
X62119047Y-18900057D01*
X62119047Y-18900057D02*
X62166666Y-18995295D01*
X62166666Y-18995295D02*
X62166666Y-19138152D01*
X62166666Y-19138152D02*
X62119047Y-19233390D01*
X62119047Y-19233390D02*
X62071428Y-19281009D01*
X62071428Y-19281009D02*
X61976190Y-19328628D01*
X61976190Y-19328628D02*
X61595238Y-19328628D01*
X62595238Y-19281009D02*
X62928571Y-19281009D01*
X63071428Y-19804819D02*
X62595238Y-19804819D01*
X62595238Y-19804819D02*
X62595238Y-18804819D01*
X62595238Y-18804819D02*
X63071428Y-18804819D01*
X63833333Y-19281009D02*
X63500000Y-19281009D01*
X63500000Y-19804819D02*
X63500000Y-18804819D01*
X63500000Y-18804819D02*
X63976190Y-18804819D01*
X64500000Y-18804819D02*
X64500000Y-19042914D01*
X64261905Y-18947676D02*
X64500000Y-19042914D01*
X64500000Y-19042914D02*
X64738095Y-18947676D01*
X64357143Y-19233390D02*
X64500000Y-19042914D01*
X64500000Y-19042914D02*
X64642857Y-19233390D01*
X65261905Y-18804819D02*
X65261905Y-19042914D01*
X65023810Y-18947676D02*
X65261905Y-19042914D01*
X65261905Y-19042914D02*
X65500000Y-18947676D01*
X65119048Y-19233390D02*
X65261905Y-19042914D01*
X65261905Y-19042914D02*
X65404762Y-19233390D01*
X144593767Y-45407200D02*
X144736624Y-45454819D01*
X144736624Y-45454819D02*
X144974719Y-45454819D01*
X144974719Y-45454819D02*
X145069957Y-45407200D01*
X145069957Y-45407200D02*
X145117576Y-45359580D01*
X145117576Y-45359580D02*
X145165195Y-45264342D01*
X145165195Y-45264342D02*
X145165195Y-45169104D01*
X145165195Y-45169104D02*
X145117576Y-45073866D01*
X145117576Y-45073866D02*
X145069957Y-45026247D01*
X145069957Y-45026247D02*
X144974719Y-44978628D01*
X144974719Y-44978628D02*
X144784243Y-44931009D01*
X144784243Y-44931009D02*
X144689005Y-44883390D01*
X144689005Y-44883390D02*
X144641386Y-44835771D01*
X144641386Y-44835771D02*
X144593767Y-44740533D01*
X144593767Y-44740533D02*
X144593767Y-44645295D01*
X144593767Y-44645295D02*
X144641386Y-44550057D01*
X144641386Y-44550057D02*
X144689005Y-44502438D01*
X144689005Y-44502438D02*
X144784243Y-44454819D01*
X144784243Y-44454819D02*
X145022338Y-44454819D01*
X145022338Y-44454819D02*
X145165195Y-44502438D01*
X145498529Y-44454819D02*
X145736624Y-45454819D01*
X145736624Y-45454819D02*
X145927100Y-44740533D01*
X145927100Y-44740533D02*
X146117576Y-45454819D01*
X146117576Y-45454819D02*
X146355672Y-44454819D01*
X147260433Y-45454819D02*
X146689005Y-45454819D01*
X146974719Y-45454819D02*
X146974719Y-44454819D01*
X146974719Y-44454819D02*
X146879481Y-44597676D01*
X146879481Y-44597676D02*
X146784243Y-44692914D01*
X146784243Y-44692914D02*
X146689005Y-44740533D01*
X126864761Y-33942119D02*
X126531428Y-33465928D01*
X126293333Y-33942119D02*
X126293333Y-32942119D01*
X126293333Y-32942119D02*
X126674285Y-32942119D01*
X126674285Y-32942119D02*
X126769523Y-32989738D01*
X126769523Y-32989738D02*
X126817142Y-33037357D01*
X126817142Y-33037357D02*
X126864761Y-33132595D01*
X126864761Y-33132595D02*
X126864761Y-33275452D01*
X126864761Y-33275452D02*
X126817142Y-33370690D01*
X126817142Y-33370690D02*
X126769523Y-33418309D01*
X126769523Y-33418309D02*
X126674285Y-33465928D01*
X126674285Y-33465928D02*
X126293333Y-33465928D01*
X127150476Y-32942119D02*
X127483809Y-33942119D01*
X127483809Y-33942119D02*
X127817142Y-32942119D01*
X128102857Y-33037357D02*
X128150476Y-32989738D01*
X128150476Y-32989738D02*
X128245714Y-32942119D01*
X128245714Y-32942119D02*
X128483809Y-32942119D01*
X128483809Y-32942119D02*
X128579047Y-32989738D01*
X128579047Y-32989738D02*
X128626666Y-33037357D01*
X128626666Y-33037357D02*
X128674285Y-33132595D01*
X128674285Y-33132595D02*
X128674285Y-33227833D01*
X128674285Y-33227833D02*
X128626666Y-33370690D01*
X128626666Y-33370690D02*
X128055238Y-33942119D01*
X128055238Y-33942119D02*
X128674285Y-33942119D01*
X99976261Y-33954819D02*
X99642928Y-33478628D01*
X99404833Y-33954819D02*
X99404833Y-32954819D01*
X99404833Y-32954819D02*
X99785785Y-32954819D01*
X99785785Y-32954819D02*
X99881023Y-33002438D01*
X99881023Y-33002438D02*
X99928642Y-33050057D01*
X99928642Y-33050057D02*
X99976261Y-33145295D01*
X99976261Y-33145295D02*
X99976261Y-33288152D01*
X99976261Y-33288152D02*
X99928642Y-33383390D01*
X99928642Y-33383390D02*
X99881023Y-33431009D01*
X99881023Y-33431009D02*
X99785785Y-33478628D01*
X99785785Y-33478628D02*
X99404833Y-33478628D01*
X100261976Y-32954819D02*
X100595309Y-33954819D01*
X100595309Y-33954819D02*
X100928642Y-32954819D01*
X101785785Y-33954819D02*
X101214357Y-33954819D01*
X101500071Y-33954819D02*
X101500071Y-32954819D01*
X101500071Y-32954819D02*
X101404833Y-33097676D01*
X101404833Y-33097676D02*
X101309595Y-33192914D01*
X101309595Y-33192914D02*
X101214357Y-33240533D01*
X145333333Y-54584819D02*
X145000000Y-54108628D01*
X144761905Y-54584819D02*
X144761905Y-53584819D01*
X144761905Y-53584819D02*
X145142857Y-53584819D01*
X145142857Y-53584819D02*
X145238095Y-53632438D01*
X145238095Y-53632438D02*
X145285714Y-53680057D01*
X145285714Y-53680057D02*
X145333333Y-53775295D01*
X145333333Y-53775295D02*
X145333333Y-53918152D01*
X145333333Y-53918152D02*
X145285714Y-54013390D01*
X145285714Y-54013390D02*
X145238095Y-54061009D01*
X145238095Y-54061009D02*
X145142857Y-54108628D01*
X145142857Y-54108628D02*
X144761905Y-54108628D01*
X146238095Y-53584819D02*
X145761905Y-53584819D01*
X145761905Y-53584819D02*
X145714286Y-54061009D01*
X145714286Y-54061009D02*
X145761905Y-54013390D01*
X145761905Y-54013390D02*
X145857143Y-53965771D01*
X145857143Y-53965771D02*
X146095238Y-53965771D01*
X146095238Y-53965771D02*
X146190476Y-54013390D01*
X146190476Y-54013390D02*
X146238095Y-54061009D01*
X146238095Y-54061009D02*
X146285714Y-54156247D01*
X146285714Y-54156247D02*
X146285714Y-54394342D01*
X146285714Y-54394342D02*
X146238095Y-54489580D01*
X146238095Y-54489580D02*
X146190476Y-54537200D01*
X146190476Y-54537200D02*
X146095238Y-54584819D01*
X146095238Y-54584819D02*
X145857143Y-54584819D01*
X145857143Y-54584819D02*
X145761905Y-54537200D01*
X145761905Y-54537200D02*
X145714286Y-54489580D01*
X145333333Y-62084819D02*
X145000000Y-61608628D01*
X144761905Y-62084819D02*
X144761905Y-61084819D01*
X144761905Y-61084819D02*
X145142857Y-61084819D01*
X145142857Y-61084819D02*
X145238095Y-61132438D01*
X145238095Y-61132438D02*
X145285714Y-61180057D01*
X145285714Y-61180057D02*
X145333333Y-61275295D01*
X145333333Y-61275295D02*
X145333333Y-61418152D01*
X145333333Y-61418152D02*
X145285714Y-61513390D01*
X145285714Y-61513390D02*
X145238095Y-61561009D01*
X145238095Y-61561009D02*
X145142857Y-61608628D01*
X145142857Y-61608628D02*
X144761905Y-61608628D01*
X146190476Y-61418152D02*
X146190476Y-62084819D01*
X145952381Y-61037200D02*
X145714286Y-61751485D01*
X145714286Y-61751485D02*
X146333333Y-61751485D01*
X145333333Y-81084819D02*
X145000000Y-80608628D01*
X144761905Y-81084819D02*
X144761905Y-80084819D01*
X144761905Y-80084819D02*
X145142857Y-80084819D01*
X145142857Y-80084819D02*
X145238095Y-80132438D01*
X145238095Y-80132438D02*
X145285714Y-80180057D01*
X145285714Y-80180057D02*
X145333333Y-80275295D01*
X145333333Y-80275295D02*
X145333333Y-80418152D01*
X145333333Y-80418152D02*
X145285714Y-80513390D01*
X145285714Y-80513390D02*
X145238095Y-80561009D01*
X145238095Y-80561009D02*
X145142857Y-80608628D01*
X145142857Y-80608628D02*
X144761905Y-80608628D01*
X145714286Y-80180057D02*
X145761905Y-80132438D01*
X145761905Y-80132438D02*
X145857143Y-80084819D01*
X145857143Y-80084819D02*
X146095238Y-80084819D01*
X146095238Y-80084819D02*
X146190476Y-80132438D01*
X146190476Y-80132438D02*
X146238095Y-80180057D01*
X146238095Y-80180057D02*
X146285714Y-80275295D01*
X146285714Y-80275295D02*
X146285714Y-80370533D01*
X146285714Y-80370533D02*
X146238095Y-80513390D01*
X146238095Y-80513390D02*
X145666667Y-81084819D01*
X145666667Y-81084819D02*
X146285714Y-81084819D01*
X145333333Y-90584819D02*
X145000000Y-90108628D01*
X144761905Y-90584819D02*
X144761905Y-89584819D01*
X144761905Y-89584819D02*
X145142857Y-89584819D01*
X145142857Y-89584819D02*
X145238095Y-89632438D01*
X145238095Y-89632438D02*
X145285714Y-89680057D01*
X145285714Y-89680057D02*
X145333333Y-89775295D01*
X145333333Y-89775295D02*
X145333333Y-89918152D01*
X145333333Y-89918152D02*
X145285714Y-90013390D01*
X145285714Y-90013390D02*
X145238095Y-90061009D01*
X145238095Y-90061009D02*
X145142857Y-90108628D01*
X145142857Y-90108628D02*
X144761905Y-90108628D01*
X146285714Y-90584819D02*
X145714286Y-90584819D01*
X146000000Y-90584819D02*
X146000000Y-89584819D01*
X146000000Y-89584819D02*
X145904762Y-89727676D01*
X145904762Y-89727676D02*
X145809524Y-89822914D01*
X145809524Y-89822914D02*
X145714286Y-89870533D01*
X156491905Y-59494819D02*
X156491905Y-58494819D01*
X156491905Y-58494819D02*
X156730000Y-58494819D01*
X156730000Y-58494819D02*
X156872857Y-58542438D01*
X156872857Y-58542438D02*
X156968095Y-58637676D01*
X156968095Y-58637676D02*
X157015714Y-58732914D01*
X157015714Y-58732914D02*
X157063333Y-58923390D01*
X157063333Y-58923390D02*
X157063333Y-59066247D01*
X157063333Y-59066247D02*
X157015714Y-59256723D01*
X157015714Y-59256723D02*
X156968095Y-59351961D01*
X156968095Y-59351961D02*
X156872857Y-59447200D01*
X156872857Y-59447200D02*
X156730000Y-59494819D01*
X156730000Y-59494819D02*
X156491905Y-59494819D01*
X157920476Y-58828152D02*
X157920476Y-59494819D01*
X157682381Y-58447200D02*
X157444286Y-59161485D01*
X157444286Y-59161485D02*
X158063333Y-59161485D01*
X156756905Y-68494819D02*
X156756905Y-67494819D01*
X156756905Y-67494819D02*
X156995000Y-67494819D01*
X156995000Y-67494819D02*
X157137857Y-67542438D01*
X157137857Y-67542438D02*
X157233095Y-67637676D01*
X157233095Y-67637676D02*
X157280714Y-67732914D01*
X157280714Y-67732914D02*
X157328333Y-67923390D01*
X157328333Y-67923390D02*
X157328333Y-68066247D01*
X157328333Y-68066247D02*
X157280714Y-68256723D01*
X157280714Y-68256723D02*
X157233095Y-68351961D01*
X157233095Y-68351961D02*
X157137857Y-68447200D01*
X157137857Y-68447200D02*
X156995000Y-68494819D01*
X156995000Y-68494819D02*
X156756905Y-68494819D01*
X157661667Y-67494819D02*
X158280714Y-67494819D01*
X158280714Y-67494819D02*
X157947381Y-67875771D01*
X157947381Y-67875771D02*
X158090238Y-67875771D01*
X158090238Y-67875771D02*
X158185476Y-67923390D01*
X158185476Y-67923390D02*
X158233095Y-67971009D01*
X158233095Y-67971009D02*
X158280714Y-68066247D01*
X158280714Y-68066247D02*
X158280714Y-68304342D01*
X158280714Y-68304342D02*
X158233095Y-68399580D01*
X158233095Y-68399580D02*
X158185476Y-68447200D01*
X158185476Y-68447200D02*
X158090238Y-68494819D01*
X158090238Y-68494819D02*
X157804524Y-68494819D01*
X157804524Y-68494819D02*
X157709286Y-68447200D01*
X157709286Y-68447200D02*
X157661667Y-68399580D01*
X156991905Y-78994819D02*
X156991905Y-77994819D01*
X156991905Y-77994819D02*
X157230000Y-77994819D01*
X157230000Y-77994819D02*
X157372857Y-78042438D01*
X157372857Y-78042438D02*
X157468095Y-78137676D01*
X157468095Y-78137676D02*
X157515714Y-78232914D01*
X157515714Y-78232914D02*
X157563333Y-78423390D01*
X157563333Y-78423390D02*
X157563333Y-78566247D01*
X157563333Y-78566247D02*
X157515714Y-78756723D01*
X157515714Y-78756723D02*
X157468095Y-78851961D01*
X157468095Y-78851961D02*
X157372857Y-78947200D01*
X157372857Y-78947200D02*
X157230000Y-78994819D01*
X157230000Y-78994819D02*
X156991905Y-78994819D01*
X157944286Y-78090057D02*
X157991905Y-78042438D01*
X157991905Y-78042438D02*
X158087143Y-77994819D01*
X158087143Y-77994819D02*
X158325238Y-77994819D01*
X158325238Y-77994819D02*
X158420476Y-78042438D01*
X158420476Y-78042438D02*
X158468095Y-78090057D01*
X158468095Y-78090057D02*
X158515714Y-78185295D01*
X158515714Y-78185295D02*
X158515714Y-78280533D01*
X158515714Y-78280533D02*
X158468095Y-78423390D01*
X158468095Y-78423390D02*
X157896667Y-78994819D01*
X157896667Y-78994819D02*
X158515714Y-78994819D01*
X156991905Y-88994819D02*
X156991905Y-87994819D01*
X156991905Y-87994819D02*
X157230000Y-87994819D01*
X157230000Y-87994819D02*
X157372857Y-88042438D01*
X157372857Y-88042438D02*
X157468095Y-88137676D01*
X157468095Y-88137676D02*
X157515714Y-88232914D01*
X157515714Y-88232914D02*
X157563333Y-88423390D01*
X157563333Y-88423390D02*
X157563333Y-88566247D01*
X157563333Y-88566247D02*
X157515714Y-88756723D01*
X157515714Y-88756723D02*
X157468095Y-88851961D01*
X157468095Y-88851961D02*
X157372857Y-88947200D01*
X157372857Y-88947200D02*
X157230000Y-88994819D01*
X157230000Y-88994819D02*
X156991905Y-88994819D01*
X158515714Y-88994819D02*
X157944286Y-88994819D01*
X158230000Y-88994819D02*
X158230000Y-87994819D01*
X158230000Y-87994819D02*
X158134762Y-88137676D01*
X158134762Y-88137676D02*
X158039524Y-88232914D01*
X158039524Y-88232914D02*
X157944286Y-88280533D01*
D12*
%TO.C,J2*%
X84500000Y-59500000D02*
X84500000Y-79500000D01*
X68500000Y-59500000D02*
X84500000Y-59500000D01*
X84500000Y-79500000D02*
X68500000Y-79500000D01*
X68500000Y-79500000D02*
X68500000Y-59500000D01*
X84200000Y-61500000D02*
G75*
G02*
X82800000Y-61500000I-700000J0D01*
G01*
X82800000Y-61500000D02*
G75*
G02*
X84200000Y-61500000I700000J0D01*
G01*
%TO.C,R3*%
X148770000Y-74370000D02*
X148770000Y-74040000D01*
X148770000Y-71630000D02*
X148770000Y-71960000D01*
X142230000Y-74370000D02*
X148770000Y-74370000D01*
X142230000Y-74040000D02*
X142230000Y-74370000D01*
X142230000Y-71960000D02*
X142230000Y-71630000D01*
X142230000Y-71630000D02*
X148770000Y-71630000D01*
D11*
%TO.C,J1*%
X91674300Y-53879200D02*
X131674300Y-53879200D01*
X91674300Y-97059200D02*
X91674300Y-53879200D01*
X131674300Y-53879200D02*
X131674300Y-97059200D01*
X131674300Y-97059200D02*
X91674300Y-97059200D01*
X91674300Y-53879200D02*
X131674300Y-53879200D01*
X131674300Y-97059200D01*
X91674300Y-97059200D01*
X91674300Y-53879200D01*
D13*
%TO.C,SW1*%
X140123200Y-45000000D02*
G75*
G02*
X139716800Y-45000000I-203200J0D01*
G01*
X139716800Y-45000000D02*
G75*
G02*
X140123200Y-45000000I203200J0D01*
G01*
X141698000Y-49229100D02*
X150156200Y-49229100D01*
X150156200Y-49229100D02*
X150156200Y-40770900D01*
X150156200Y-40770900D02*
X141698000Y-40770900D01*
X141698000Y-40770900D02*
X141698000Y-49229100D01*
%TO.C,RV2*%
X121554500Y-36040000D02*
G75*
G02*
X121300500Y-36040000I-127000J0D01*
G01*
X121300500Y-36040000D02*
G75*
G02*
X121554500Y-36040000I127000J0D01*
G01*
X122570500Y-28597800D02*
X132349500Y-28597800D01*
X132349500Y-28597800D02*
X132349500Y-38376800D01*
X132349500Y-38376800D02*
X122570500Y-38376800D01*
X122570500Y-38376800D02*
X122570500Y-28597800D01*
%TO.C,RV1*%
X94666000Y-36052700D02*
G75*
G02*
X94412000Y-36052700I-127000J0D01*
G01*
X94412000Y-36052700D02*
G75*
G02*
X94666000Y-36052700I127000J0D01*
G01*
X95682000Y-28610500D02*
X105461000Y-28610500D01*
X105461000Y-28610500D02*
X105461000Y-38389500D01*
X105461000Y-38389500D02*
X95682000Y-38389500D01*
X95682000Y-38389500D02*
X95682000Y-28610500D01*
D12*
%TO.C,R5*%
X142230000Y-55130000D02*
X148770000Y-55130000D01*
X142230000Y-55460000D02*
X142230000Y-55130000D01*
X142230000Y-57540000D02*
X142230000Y-57870000D01*
X142230000Y-57870000D02*
X148770000Y-57870000D01*
X148770000Y-55130000D02*
X148770000Y-55460000D01*
X148770000Y-57870000D02*
X148770000Y-57540000D01*
%TO.C,R4*%
X142230000Y-62630000D02*
X148770000Y-62630000D01*
X142230000Y-62960000D02*
X142230000Y-62630000D01*
X142230000Y-65040000D02*
X142230000Y-65370000D01*
X142230000Y-65370000D02*
X148770000Y-65370000D01*
X148770000Y-62630000D02*
X148770000Y-62960000D01*
X148770000Y-65370000D02*
X148770000Y-65040000D01*
%TO.C,R2*%
X142230000Y-81630000D02*
X148770000Y-81630000D01*
X142230000Y-81960000D02*
X142230000Y-81630000D01*
X142230000Y-84040000D02*
X142230000Y-84370000D01*
X142230000Y-84370000D02*
X148770000Y-84370000D01*
X148770000Y-81630000D02*
X148770000Y-81960000D01*
X148770000Y-84370000D02*
X148770000Y-84040000D01*
%TO.C,R1*%
X142230000Y-91130000D02*
X148770000Y-91130000D01*
X142230000Y-91460000D02*
X142230000Y-91130000D01*
X142230000Y-93540000D02*
X142230000Y-93870000D01*
X142230000Y-93870000D02*
X148770000Y-93870000D01*
X148770000Y-91130000D02*
X148770000Y-91460000D01*
X148770000Y-93870000D02*
X148770000Y-93540000D01*
%TO.C,D4*%
X154670000Y-61455000D02*
X154670000Y-64545000D01*
X154670000Y-61455170D02*
G75*
G02*
X160220000Y-63000000I2560000J-1544830D01*
G01*
X160220000Y-63000000D02*
G75*
G02*
X154670000Y-64544830I-2990000J0D01*
G01*
X159730000Y-63000000D02*
G75*
G02*
X154730000Y-63000000I-2500000J0D01*
G01*
X154730000Y-63000000D02*
G75*
G02*
X159730000Y-63000000I2500000J0D01*
G01*
%TO.C,D3*%
X154935000Y-70455000D02*
X154935000Y-73545000D01*
X154935000Y-70455170D02*
G75*
G02*
X160485000Y-72000000I2560000J-1544830D01*
G01*
X160485000Y-72000000D02*
G75*
G02*
X154935000Y-73544830I-2990000J0D01*
G01*
X159995000Y-72000000D02*
G75*
G02*
X154995000Y-72000000I-2500000J0D01*
G01*
X154995000Y-72000000D02*
G75*
G02*
X159995000Y-72000000I2500000J0D01*
G01*
%TO.C,D2*%
X155170000Y-80955000D02*
X155170000Y-84045000D01*
X155170000Y-80955170D02*
G75*
G02*
X160720000Y-82500000I2560000J-1544830D01*
G01*
X160720000Y-82500000D02*
G75*
G02*
X155170000Y-84044830I-2990000J0D01*
G01*
X160230000Y-82500000D02*
G75*
G02*
X155230000Y-82500000I-2500000J0D01*
G01*
X155230000Y-82500000D02*
G75*
G02*
X160230000Y-82500000I2500000J0D01*
G01*
%TO.C,D1*%
X155170000Y-90955000D02*
X155170000Y-94045000D01*
X155170000Y-90955170D02*
G75*
G02*
X160720000Y-92500000I2560000J-1544830D01*
G01*
X160720000Y-92500000D02*
G75*
G02*
X155170000Y-94044830I-2990000J0D01*
G01*
X160230000Y-92500000D02*
G75*
G02*
X155230000Y-92500000I-2500000J0D01*
G01*
X155230000Y-92500000D02*
G75*
G02*
X160230000Y-92500000I2500000J0D01*
G01*
%TD*%
%LPC*%
D14*
%TO.C,J2*%
X82850000Y-63150000D03*
D15*
X82850000Y-65690000D03*
X82850000Y-68230000D03*
X82850000Y-70770000D03*
X82850000Y-73310000D03*
X82850000Y-75850000D03*
X70150000Y-75850000D03*
X70150000Y-73310000D03*
X70150000Y-70770000D03*
X70150000Y-68230000D03*
X70150000Y-65690000D03*
X70150000Y-63150000D03*
%TD*%
D16*
%TO.C,R3*%
X149310000Y-73000000D03*
X141690000Y-73000000D03*
%TD*%
D17*
%TO.C,J1*%
X96434300Y-56419200D03*
X96434300Y-58959200D03*
X96434300Y-61499200D03*
X96434300Y-64039200D03*
X96434300Y-66579200D03*
X96434300Y-69119200D03*
X96434300Y-71659200D03*
X96434300Y-74199200D03*
X96434300Y-76739200D03*
X96434300Y-79279200D03*
X96434300Y-81819200D03*
X96434300Y-84359200D03*
X96434300Y-86899200D03*
X96434300Y-89439200D03*
X96434300Y-91979200D03*
X96434300Y-94519200D03*
X129454300Y-56419200D03*
X129454300Y-58959200D03*
X129454300Y-61499200D03*
X129454300Y-64039200D03*
X129454300Y-66579200D03*
X129454300Y-69119200D03*
X129454300Y-71659200D03*
X129454300Y-74199200D03*
X129454300Y-76739200D03*
X129454300Y-79279200D03*
X129454300Y-81819200D03*
X129454300Y-84359200D03*
X129454300Y-86899200D03*
X129454300Y-89439200D03*
X129454300Y-91979200D03*
X129454300Y-94519200D03*
%TD*%
D18*
%TO.C,REF\u002A\u002A*%
X166000000Y-107500000D03*
%TD*%
%TO.C,REF\u002A\u002A*%
X64000000Y-107500000D03*
%TD*%
%TO.C,REF\u002A\u002A*%
X166500000Y-24000000D03*
%TD*%
%TO.C,REF\u002A\u002A*%
X63500000Y-23500000D03*
%TD*%
D19*
%TO.C,SW1*%
X143387100Y-45000000D03*
D20*
X148467100Y-45000000D03*
%TD*%
D21*
%TO.C,RV2*%
X124920000Y-33500000D03*
D22*
X127460000Y-36040000D03*
X130000000Y-33500000D03*
%TD*%
D21*
%TO.C,RV1*%
X98031500Y-33512700D03*
D22*
X100571500Y-36052700D03*
X103111500Y-33512700D03*
%TD*%
D16*
%TO.C,R5*%
X141690000Y-56500000D03*
X149310000Y-56500000D03*
%TD*%
%TO.C,R4*%
X141690000Y-64000000D03*
X149310000Y-64000000D03*
%TD*%
%TO.C,R2*%
X141690000Y-83000000D03*
X149310000Y-83000000D03*
%TD*%
%TO.C,R1*%
X141690000Y-92500000D03*
X149310000Y-92500000D03*
%TD*%
D23*
%TO.C,D4*%
X155960000Y-63000000D03*
D24*
X158500000Y-63000000D03*
%TD*%
D23*
%TO.C,D3*%
X156225000Y-72000000D03*
D24*
X158765000Y-72000000D03*
%TD*%
D23*
%TO.C,D2*%
X156460000Y-82500000D03*
D24*
X159000000Y-82500000D03*
%TD*%
D23*
%TO.C,D1*%
X156460000Y-92500000D03*
D24*
X159000000Y-92500000D03*
%TD*%
%LPD*%
M02*
