M48
; DRILL file {KiCad 9.0.7} date 2026-03-16T12:02:26-0400
; FORMAT={-:-/ absolute / metric / decimal}
; #@! TF.CreationDate,2026-03-16T12:02:26-04:00
; #@! TF.GenerationSoftware,Kicad,Pcbnew,9.0.7
; #@! TF.FileFunction,MixedPlating,1,2
FMAT,2
METRIC
; #@! TA.AperFunction,Plated,PTH,ViaDrill
T1C0.300
; #@! TA.AperFunction,Plated,PTH,ComponentDrill
T2C0.800
; #@! TA.AperFunction,Plated,PTH,ComponentDrill
T3C0.813
; #@! TA.AperFunction,Plated,PTH,ComponentDrill
T4C0.900
; #@! TA.AperFunction,Plated,PTH,ComponentDrill
T5C1.000
; #@! TA.AperFunction,Plated,PTH,ComponentDrill
T6C1.092
; #@! TA.AperFunction,Plated,PTH,ComponentDrill
T7C1.130
; #@! TA.AperFunction,NonPlated,NPTH,ComponentDrill
T8C3.200
%
G90
G05
T1
X71.0Y-51.5
X71.5Y-85.0
X76.5Y-31.5
X89.5Y-62.5
X92.5Y-102.0
X98.5Y-49.0
X118.0Y-48.5
X121.0Y-104.0
X135.5Y-71.5
X151.0Y-101.0
X151.5Y-78.5
X167.0Y-50.5
X168.0Y-77.5
T2
X141.69Y-56.5
X141.69Y-64.0
X141.69Y-73.0
X141.69Y-83.0
X141.69Y-92.5
X149.31Y-56.5
X149.31Y-64.0
X149.31Y-73.0
X149.31Y-83.0
X149.31Y-92.5
T3
X98.031Y-33.513
X100.572Y-36.053
X103.111Y-33.513
X124.92Y-33.5
X127.46Y-36.04
X130.0Y-33.5
T4
X155.96Y-63.0
X156.225Y-72.0
X156.46Y-82.5
X156.46Y-92.5
X158.5Y-63.0
X158.765Y-72.0
X159.0Y-82.5
X159.0Y-92.5
T5
X70.15Y-63.15
X70.15Y-65.69
X70.15Y-68.23
X70.15Y-70.77
X70.15Y-73.31
X70.15Y-75.85
X82.85Y-63.15
X82.85Y-65.69
X82.85Y-68.23
X82.85Y-70.77
X82.85Y-73.31
X82.85Y-75.85
T6
X143.387Y-45.0
X148.467Y-45.0
T7
X96.434Y-56.419
X96.434Y-58.959
X96.434Y-61.499
X96.434Y-64.039
X96.434Y-66.579
X96.434Y-69.119
X96.434Y-71.659
X96.434Y-74.199
X96.434Y-76.739
X96.434Y-79.279
X96.434Y-81.819
X96.434Y-84.359
X96.434Y-86.899
X96.434Y-89.439
X96.434Y-91.979
X96.434Y-94.519
X129.454Y-56.419
X129.454Y-58.959
X129.454Y-61.499
X129.454Y-64.039
X129.454Y-66.579
X129.454Y-69.119
X129.454Y-71.659
X129.454Y-74.199
X129.454Y-76.739
X129.454Y-79.279
X129.454Y-81.819
X129.454Y-84.359
X129.454Y-86.899
X129.454Y-89.439
X129.454Y-91.979
X129.454Y-94.519
T8
X63.5Y-23.5
X64.0Y-107.5
X166.0Y-107.5
X166.5Y-24.0
M30
