%TF.GenerationSoftware,KiCad,Pcbnew,9.0.7*%
%TF.CreationDate,2026-03-16T12:01:52-04:00*%
%TF.ProjectId,shield.kicad,73686965-6c64-42e6-9b69-6361642e6b69,rev?*%
%TF.SameCoordinates,Original*%
%TF.FileFunction,Soldermask,Bot*%
%TF.FilePolarity,Negative*%
%FSLAX46Y46*%
G04 Gerber Fmt 4.6, Leading zero omitted, Abs format (unit mm)*
G04 Created by KiCad (PCBNEW 9.0.7) date 2026-03-16 12:01:52*
%MOMM*%
%LPD*%
G01*
G04 APERTURE LIST*
%ADD10R,1.700000X1.700000*%
%ADD11C,1.700000*%
%ADD12C,1.600000*%
%ADD13C,2.220000*%
%ADD14C,3.200000*%
%ADD15R,1.600200X1.600200*%
%ADD16C,1.600200*%
%ADD17C,1.320800*%
%ADD18R,1.320800X1.320800*%
%ADD19R,1.800000X1.800000*%
%ADD20C,1.800000*%
G04 APERTURE END LIST*
D10*
%TO.C,J2*%
X82850000Y-63150000D03*
D11*
X82850000Y-65690000D03*
X82850000Y-68230000D03*
X82850000Y-70770000D03*
X82850000Y-73310000D03*
X82850000Y-75850000D03*
X70150000Y-75850000D03*
X70150000Y-73310000D03*
X70150000Y-70770000D03*
X70150000Y-68230000D03*
X70150000Y-65690000D03*
X70150000Y-63150000D03*
%TD*%
D12*
%TO.C,R3*%
X149310000Y-73000000D03*
X141690000Y-73000000D03*
%TD*%
D13*
%TO.C,J1*%
X96434300Y-56419200D03*
X96434300Y-58959200D03*
X96434300Y-61499200D03*
X96434300Y-64039200D03*
X96434300Y-66579200D03*
X96434300Y-69119200D03*
X96434300Y-71659200D03*
X96434300Y-74199200D03*
X96434300Y-76739200D03*
X96434300Y-79279200D03*
X96434300Y-81819200D03*
X96434300Y-84359200D03*
X96434300Y-86899200D03*
X96434300Y-89439200D03*
X96434300Y-91979200D03*
X96434300Y-94519200D03*
X129454300Y-56419200D03*
X129454300Y-58959200D03*
X129454300Y-61499200D03*
X129454300Y-64039200D03*
X129454300Y-66579200D03*
X129454300Y-69119200D03*
X129454300Y-71659200D03*
X129454300Y-74199200D03*
X129454300Y-76739200D03*
X129454300Y-79279200D03*
X129454300Y-81819200D03*
X129454300Y-84359200D03*
X129454300Y-86899200D03*
X129454300Y-89439200D03*
X129454300Y-91979200D03*
X129454300Y-94519200D03*
%TD*%
D14*
%TO.C,REF\u002A\u002A*%
X166000000Y-107500000D03*
%TD*%
%TO.C,REF\u002A\u002A*%
X64000000Y-107500000D03*
%TD*%
%TO.C,REF\u002A\u002A*%
X166500000Y-24000000D03*
%TD*%
%TO.C,REF\u002A\u002A*%
X63500000Y-23500000D03*
%TD*%
D15*
%TO.C,SW1*%
X143387100Y-45000000D03*
D16*
X148467100Y-45000000D03*
%TD*%
D17*
%TO.C,RV2*%
X124920000Y-33500000D03*
D18*
X127460000Y-36040000D03*
X130000000Y-33500000D03*
%TD*%
D17*
%TO.C,RV1*%
X98031500Y-33512700D03*
D18*
X100571500Y-36052700D03*
X103111500Y-33512700D03*
%TD*%
D12*
%TO.C,R5*%
X141690000Y-56500000D03*
X149310000Y-56500000D03*
%TD*%
%TO.C,R4*%
X141690000Y-64000000D03*
X149310000Y-64000000D03*
%TD*%
%TO.C,R2*%
X141690000Y-83000000D03*
X149310000Y-83000000D03*
%TD*%
%TO.C,R1*%
X141690000Y-92500000D03*
X149310000Y-92500000D03*
%TD*%
D19*
%TO.C,D4*%
X155960000Y-63000000D03*
D20*
X158500000Y-63000000D03*
%TD*%
D19*
%TO.C,D3*%
X156225000Y-72000000D03*
D20*
X158765000Y-72000000D03*
%TD*%
D19*
%TO.C,D2*%
X156460000Y-82500000D03*
D20*
X159000000Y-82500000D03*
%TD*%
D19*
%TO.C,D1*%
X156460000Y-92500000D03*
D20*
X159000000Y-92500000D03*
%TD*%
M02*
