%TF.GenerationSoftware,KiCad,Pcbnew,9.0.7*%
%TF.CreationDate,2026-03-16T12:01:52-04:00*%
%TF.ProjectId,shield.kicad,73686965-6c64-42e6-9b69-6361642e6b69,rev?*%
%TF.SameCoordinates,Original*%
%TF.FileFunction,Copper,L1,Top*%
%TF.FilePolarity,Positive*%
%FSLAX46Y46*%
G04 Gerber Fmt 4.6, Leading zero omitted, Abs format (unit mm)*
G04 Created by KiCad (PCBNEW 9.0.7) date 2026-03-16 12:01:52*
%MOMM*%
%LPD*%
G01*
G04 APERTURE LIST*
%TA.AperFunction,ComponentPad*%
%ADD10R,1.700000X1.700000*%
%TD*%
%TA.AperFunction,ComponentPad*%
%ADD11C,1.700000*%
%TD*%
%TA.AperFunction,ComponentPad*%
%ADD12C,1.600000*%
%TD*%
%TA.AperFunction,ComponentPad*%
%ADD13C,2.260000*%
%TD*%
%TA.AperFunction,ComponentPad*%
%ADD14R,1.600200X1.600200*%
%TD*%
%TA.AperFunction,ComponentPad*%
%ADD15C,1.600200*%
%TD*%
%TA.AperFunction,ComponentPad*%
%ADD16C,1.320800*%
%TD*%
%TA.AperFunction,ComponentPad*%
%ADD17R,1.320800X1.320800*%
%TD*%
%TA.AperFunction,ComponentPad*%
%ADD18R,1.800000X1.800000*%
%TD*%
%TA.AperFunction,ComponentPad*%
%ADD19C,1.800000*%
%TD*%
%TA.AperFunction,ViaPad*%
%ADD20C,0.600000*%
%TD*%
%TA.AperFunction,Conductor*%
%ADD21C,0.250000*%
%TD*%
%TA.AperFunction,Conductor*%
%ADD22C,0.800000*%
%TD*%
G04 APERTURE END LIST*
D10*
%TO.P,J2,1,Pin_1*%
%TO.N,unconnected-(J2-Pin_1-Pad1)*%
X82850000Y-63150000D03*
D11*
%TO.P,J2,2,Pin_2*%
%TO.N,unconnected-(J2-Pin_2-Pad2)*%
X82850000Y-65690000D03*
%TO.P,J2,3,Pin_3*%
%TO.N,unconnected-(J2-Pin_3-Pad3)*%
X82850000Y-68230000D03*
%TO.P,J2,4,Pin_4*%
%TO.N,unconnected-(J2-Pin_4-Pad4)*%
X82850000Y-70770000D03*
%TO.P,J2,5,Pin_5*%
%TO.N,unconnected-(J2-Pin_5-Pad5)*%
X82850000Y-73310000D03*
%TO.P,J2,6,Pin_6*%
%TO.N,unconnected-(J2-Pin_6-Pad6)*%
X82850000Y-75850000D03*
%TO.P,J2,7,Pin_7*%
%TO.N,unconnected-(J2-Pin_7-Pad7)*%
X70150000Y-75850000D03*
%TO.P,J2,8,Pin_8*%
%TO.N,Net-(J1-Pin_6)*%
X70150000Y-73310000D03*
%TO.P,J2,9,Pin_9*%
%TO.N,Net-(J1-Pin_5)*%
X70150000Y-70770000D03*
%TO.P,J2,10,Pin_10*%
%TO.N,GND*%
X70150000Y-68230000D03*
%TO.P,J2,11,Pin_11*%
%TO.N,unconnected-(J2-Pin_11-Pad11)*%
X70150000Y-65690000D03*
%TO.P,J2,12,Pin_12*%
%TO.N,+3.3V*%
X70150000Y-63150000D03*
%TD*%
D12*
%TO.P,R3,2*%
%TO.N,Net-(D3-A)*%
X149310000Y-73000000D03*
%TO.P,R3,1*%
%TO.N,Net-(J1-Pin_29)*%
X141690000Y-73000000D03*
%TD*%
D13*
%TO.P,J1,1,Pin_1*%
%TO.N,unconnected-(J1-Pin_1-Pad1)*%
X96434300Y-56419200D03*
%TO.P,J1,2,Pin_2*%
%TO.N,unconnected-(J1-Pin_2-Pad2)*%
X96434300Y-58959200D03*
%TO.P,J1,3,Pin_3*%
%TO.N,unconnected-(J1-Pin_3-Pad3)*%
X96434300Y-61499200D03*
%TO.P,J1,4,Pin_4*%
%TO.N,GND*%
X96434300Y-64039200D03*
%TO.P,J1,5,Pin_5*%
%TO.N,Net-(J1-Pin_5)*%
X96434300Y-66579200D03*
%TO.P,J1,6,Pin_6*%
%TO.N,Net-(J1-Pin_6)*%
X96434300Y-69119200D03*
%TO.P,J1,7,Pin_7*%
%TO.N,unconnected-(J1-Pin_7-Pad7)*%
X96434300Y-71659200D03*
%TO.P,J1,8,Pin_8*%
%TO.N,unconnected-(J1-Pin_8-Pad8)*%
X96434300Y-74199200D03*
%TO.P,J1,9,Pin_9*%
%TO.N,unconnected-(J1-Pin_9-Pad9)*%
X96434300Y-76739200D03*
%TO.P,J1,10,Pin_10*%
%TO.N,unconnected-(J1-Pin_10-Pad10)*%
X96434300Y-79279200D03*
%TO.P,J1,11,Pin_11*%
%TO.N,unconnected-(J1-Pin_11-Pad11)*%
X96434300Y-81819200D03*
%TO.P,J1,12,Pin_12*%
%TO.N,unconnected-(J1-Pin_12-Pad12)*%
X96434300Y-84359200D03*
%TO.P,J1,13,Pin_13*%
%TO.N,unconnected-(J1-Pin_13-Pad13)*%
X96434300Y-86899200D03*
%TO.P,J1,14,Pin_14*%
%TO.N,unconnected-(J1-Pin_14-Pad14)*%
X96434300Y-89439200D03*
%TO.P,J1,15,Pin_15*%
%TO.N,unconnected-(J1-Pin_15-Pad15)*%
X96434300Y-91979200D03*
%TO.P,J1,16,Pin_16*%
%TO.N,unconnected-(J1-Pin_16-Pad16)*%
X96434300Y-94519200D03*
%TO.P,J1,17,Pin_17*%
%TO.N,unconnected-(J1-Pin_17-Pad17)*%
X129454300Y-56419200D03*
%TO.P,J1,18,Pin_18*%
%TO.N,GND*%
X129454300Y-58959200D03*
%TO.P,J1,19,Pin_19*%
%TO.N,unconnected-(J1-Pin_19-Pad19)*%
X129454300Y-61499200D03*
%TO.P,J1,20,Pin_20*%
%TO.N,unconnected-(J1-Pin_20-Pad20)*%
X129454300Y-64039200D03*
%TO.P,J1,21,Pin_21*%
%TO.N,Net-(J1-Pin_21)*%
X129454300Y-66579200D03*
%TO.P,J1,22,Pin_22*%
%TO.N,unconnected-(J1-Pin_22-Pad22)*%
X129454300Y-69119200D03*
%TO.P,J1,23,Pin_23*%
%TO.N,unconnected-(J1-Pin_23-Pad23)*%
X129454300Y-71659200D03*
%TO.P,J1,24,Pin_24*%
%TO.N,Net-(J1-Pin_24)*%
X129454300Y-74199200D03*
%TO.P,J1,25,Pin_25*%
%TO.N,Net-(J1-Pin_25)*%
X129454300Y-76739200D03*
%TO.P,J1,26,Pin_26*%
%TO.N,unconnected-(J1-Pin_26-Pad26)*%
X129454300Y-79279200D03*
%TO.P,J1,27,Pin_27*%
%TO.N,unconnected-(J1-Pin_27-Pad27)*%
X129454300Y-81819200D03*
%TO.P,J1,28,Pin_28*%
%TO.N,Net-(J1-Pin_28)*%
X129454300Y-84359200D03*
%TO.P,J1,29,Pin_29*%
%TO.N,Net-(J1-Pin_29)*%
X129454300Y-86899200D03*
%TO.P,J1,30,Pin_30*%
%TO.N,Net-(J1-Pin_30)*%
X129454300Y-89439200D03*
%TO.P,J1,31,Pin_31*%
%TO.N,Net-(J1-Pin_31)*%
X129454300Y-91979200D03*
%TO.P,J1,32,Pin_32*%
%TO.N,unconnected-(J1-Pin_32-Pad32)*%
X129454300Y-94519200D03*
%TD*%
D14*
%TO.P,SW1,1,1*%
%TO.N,Net-(J1-Pin_21)*%
X143387100Y-45000000D03*
D15*
%TO.P,SW1,2,2*%
%TO.N,GND*%
X148467100Y-45000000D03*
%TD*%
D16*
%TO.P,RV2,1,1*%
%TO.N,+3.3V*%
X124920000Y-33500000D03*
D17*
%TO.P,RV2,2,2*%
%TO.N,Net-(J1-Pin_24)*%
X127460000Y-36040000D03*
%TO.P,RV2,3,3*%
%TO.N,GND*%
X130000000Y-33500000D03*
%TD*%
D16*
%TO.P,RV1,1,1*%
%TO.N,+3.3V*%
X98031500Y-33512700D03*
D17*
%TO.P,RV1,2,2*%
%TO.N,Net-(J1-Pin_25)*%
X100571500Y-36052700D03*
%TO.P,RV1,3,3*%
%TO.N,GND*%
X103111500Y-33512700D03*
%TD*%
D12*
%TO.P,R5,1*%
%TO.N,+3.3V*%
X141690000Y-56500000D03*
%TO.P,R5,2*%
%TO.N,Net-(J1-Pin_21)*%
X149310000Y-56500000D03*
%TD*%
%TO.P,R4,1*%
%TO.N,Net-(D4-A)*%
X141690000Y-64000000D03*
%TO.P,R4,2*%
%TO.N,Net-(J1-Pin_28)*%
X149310000Y-64000000D03*
%TD*%
%TO.P,R2,1*%
%TO.N,Net-(J1-Pin_30)*%
X141690000Y-83000000D03*
%TO.P,R2,2*%
%TO.N,Net-(D2-A)*%
X149310000Y-83000000D03*
%TD*%
%TO.P,R1,1*%
%TO.N,Net-(D1-A)*%
X141690000Y-92500000D03*
%TO.P,R1,2*%
%TO.N,Net-(J1-Pin_31)*%
X149310000Y-92500000D03*
%TD*%
D18*
%TO.P,D4,1,K*%
%TO.N,GND*%
X155960000Y-63000000D03*
D19*
%TO.P,D4,2,A*%
%TO.N,Net-(D4-A)*%
X158500000Y-63000000D03*
%TD*%
D18*
%TO.P,D3,1,K*%
%TO.N,GND*%
X156225000Y-72000000D03*
D19*
%TO.P,D3,2,A*%
%TO.N,Net-(D3-A)*%
X158765000Y-72000000D03*
%TD*%
D18*
%TO.P,D2,1,K*%
%TO.N,GND*%
X156460000Y-82500000D03*
D19*
%TO.P,D2,2,A*%
%TO.N,Net-(D2-A)*%
X159000000Y-82500000D03*
%TD*%
D18*
%TO.P,D1,1,K*%
%TO.N,GND*%
X156460000Y-92500000D03*
D19*
%TO.P,D1,2,A*%
%TO.N,Net-(D1-A)*%
X159000000Y-92500000D03*
%TD*%
D20*
%TO.N,GND*%
X76500000Y-31500000D03*
X151500000Y-78500000D03*
X135500000Y-71500000D03*
X89500000Y-62500000D03*
X71500000Y-85000000D03*
X92500000Y-102000000D03*
X121000000Y-104000000D03*
X151000000Y-101000000D03*
X168000000Y-77500000D03*
X167000000Y-50500000D03*
X71000000Y-51500000D03*
X98500000Y-49000000D03*
X118000000Y-48500000D03*
%TD*%
D21*
%TO.N,Net-(D1-A)*%
X142916000Y-93726000D02*
X157774000Y-93726000D01*
X141690000Y-92500000D02*
X142916000Y-93726000D01*
X157774000Y-93726000D02*
X159000000Y-92500000D01*
%TO.N,Net-(J1-Pin_31)*%
X148184000Y-91374000D02*
X130059500Y-91374000D01*
X130059500Y-91374000D02*
X129454300Y-91979200D01*
X149310000Y-92500000D02*
X148184000Y-91374000D01*
%TO.N,Net-(D2-A)*%
X157700001Y-83799999D02*
X159000000Y-82500000D01*
X150109999Y-83799999D02*
X157700001Y-83799999D01*
X149310000Y-83000000D02*
X150109999Y-83799999D01*
%TO.N,Net-(D3-A)*%
X156965001Y-73799999D02*
X158765000Y-72000000D01*
X150109999Y-73799999D02*
X156965001Y-73799999D01*
X149310000Y-73000000D02*
X150109999Y-73799999D01*
%TO.N,Net-(J1-Pin_30)*%
X141690000Y-83000000D02*
X135893500Y-83000000D01*
X135893500Y-83000000D02*
X129454300Y-89439200D01*
%TO.N,Net-(J1-Pin_29)*%
X141690000Y-74663500D02*
X129454300Y-86899200D01*
X141690000Y-73000000D02*
X141690000Y-74663500D01*
%TO.N,Net-(J1-Pin_28)*%
X130910300Y-82903200D02*
X129454300Y-84359200D01*
X149000000Y-64000000D02*
X130910300Y-82089700D01*
X130910300Y-82089700D02*
X130910300Y-82903200D01*
X149310000Y-64000000D02*
X149000000Y-64000000D01*
%TO.N,Net-(D4-A)*%
X148500000Y-60000000D02*
X155500000Y-60000000D01*
X144500000Y-64000000D02*
X148500000Y-60000000D01*
X141690000Y-64000000D02*
X144500000Y-64000000D01*
X155500000Y-60000000D02*
X158500000Y-63000000D01*
%TO.N,Net-(J1-Pin_21)*%
X149310000Y-51810000D02*
X149310000Y-56500000D01*
X143387100Y-45887100D02*
X149310000Y-51810000D01*
X143387100Y-45000000D02*
X143387100Y-45887100D01*
X137518395Y-66579200D02*
X129454300Y-66579200D01*
X147597595Y-56500000D02*
X137518395Y-66579200D01*
X149310000Y-56500000D02*
X147597595Y-56500000D01*
D22*
%TO.N,+3.3V*%
X127442800Y-33500000D02*
X141690000Y-47747200D01*
X124920000Y-33500000D02*
X127442800Y-33500000D01*
X141690000Y-47747200D02*
X141690000Y-56500000D01*
X120920000Y-29500000D02*
X124920000Y-33500000D01*
X102044200Y-29500000D02*
X120920000Y-29500000D01*
X98031500Y-33512700D02*
X102044200Y-29500000D01*
D21*
%TO.N,Net-(J1-Pin_24)*%
X127460000Y-72204900D02*
X129454300Y-74199200D01*
X127460000Y-36040000D02*
X127460000Y-72204900D01*
%TO.N,Net-(J1-Pin_25)*%
X100571500Y-47856400D02*
X129454300Y-76739200D01*
X100571500Y-36052700D02*
X100571500Y-47856400D01*
D22*
%TO.N,+3.3V*%
X98031500Y-35268500D02*
X98031500Y-33512700D01*
X70150000Y-63150000D02*
X98031500Y-35268500D01*
D21*
%TO.N,Net-(J1-Pin_5)*%
X93607500Y-69406000D02*
X96434300Y-66579200D01*
X70150000Y-70770000D02*
X71514000Y-69406000D01*
X71514000Y-69406000D02*
X93607500Y-69406000D01*
%TO.N,Net-(J1-Pin_6)*%
X71326000Y-74486000D02*
X91067500Y-74486000D01*
X91067500Y-74486000D02*
X96434300Y-69119200D01*
X70150000Y-73310000D02*
X71326000Y-74486000D01*
%TD*%
%TA.AperFunction,Conductor*%
%TO.N,GND*%
G36*
X128927804Y-59177282D02*
G01*
X129002188Y-59306118D01*
X129107382Y-59411312D01*
X129236218Y-59485696D01*
X129271817Y-59495234D01*
X128492124Y-60274927D01*
X128492996Y-60275561D01*
X128528960Y-60325061D01*
X128528961Y-60386246D01*
X128504810Y-60425657D01*
X128363178Y-60567289D01*
X128230825Y-60749457D01*
X128128604Y-60950078D01*
X128078655Y-61103806D01*
X128042691Y-61153306D01*
X127984500Y-61172213D01*
X127926309Y-61153306D01*
X127890345Y-61103806D01*
X127885500Y-61073213D01*
X127885500Y-59877744D01*
X127904407Y-59819553D01*
X127953907Y-59783589D01*
X128015093Y-59783589D01*
X128064592Y-59819553D01*
X128138570Y-59921374D01*
X128138571Y-59921374D01*
X128918264Y-59141679D01*
X128927804Y-59177282D01*
G37*
%TD.AperFunction*%
%TA.AperFunction,Conductor*%
G36*
X128064593Y-56786995D02*
G01*
X128078655Y-56814593D01*
X128128604Y-56968321D01*
X128183870Y-57076788D01*
X128230827Y-57168945D01*
X128363176Y-57351108D01*
X128504810Y-57492742D01*
X128532586Y-57547257D01*
X128523015Y-57607689D01*
X128492998Y-57642835D01*
X128492124Y-57643469D01*
X128492124Y-57643471D01*
X129271818Y-58423164D01*
X129236218Y-58432704D01*
X129107382Y-58507088D01*
X129002188Y-58612282D01*
X128927804Y-58741118D01*
X128918264Y-58776718D01*
X128138571Y-57997024D01*
X128138570Y-57997024D01*
X128064592Y-58098846D01*
X128015092Y-58134810D01*
X127953907Y-58134809D01*
X127904407Y-58098845D01*
X127885500Y-58040655D01*
X127885500Y-56845186D01*
X127904407Y-56786995D01*
X127953907Y-56751031D01*
X128015093Y-56751031D01*
X128064593Y-56786995D01*
G37*
%TD.AperFunction*%
%TA.AperFunction,Conductor*%
G36*
X175458691Y-19019407D02*
G01*
X175494655Y-19068907D01*
X175499500Y-19099500D01*
X175499500Y-112900500D01*
X175480593Y-112958691D01*
X175431093Y-112994655D01*
X175400500Y-112999500D01*
X54599500Y-112999500D01*
X54541309Y-112980593D01*
X54505345Y-112931093D01*
X54500500Y-112900500D01*
X54500500Y-107378710D01*
X62149500Y-107378710D01*
X62149500Y-107621289D01*
X62181161Y-107861781D01*
X62181161Y-107861786D01*
X62243944Y-108096092D01*
X62243948Y-108096105D01*
X62336772Y-108320204D01*
X62336774Y-108320208D01*
X62336776Y-108320212D01*
X62458064Y-108530289D01*
X62458066Y-108530292D01*
X62605729Y-108722731D01*
X62605731Y-108722733D01*
X62605735Y-108722738D01*
X62777262Y-108894265D01*
X62777266Y-108894268D01*
X62777268Y-108894270D01*
X62969707Y-109041933D01*
X62969711Y-109041936D01*
X63179788Y-109163224D01*
X63403900Y-109256054D01*
X63638211Y-109318838D01*
X63878712Y-109350500D01*
X63878713Y-109350500D01*
X64121287Y-109350500D01*
X64121288Y-109350500D01*
X64361789Y-109318838D01*
X64596100Y-109256054D01*
X64820212Y-109163224D01*
X65030289Y-109041936D01*
X65222738Y-108894265D01*
X65394265Y-108722738D01*
X65541936Y-108530289D01*
X65663224Y-108320212D01*
X65756054Y-108096100D01*
X65818838Y-107861789D01*
X65850500Y-107621288D01*
X65850500Y-107378712D01*
X65850500Y-107378710D01*
X164149500Y-107378710D01*
X164149500Y-107621289D01*
X164181161Y-107861781D01*
X164181161Y-107861786D01*
X164243944Y-108096092D01*
X164243948Y-108096105D01*
X164336772Y-108320204D01*
X164336774Y-108320208D01*
X164336776Y-108320212D01*
X164458064Y-108530289D01*
X164458066Y-108530292D01*
X164605729Y-108722731D01*
X164605731Y-108722733D01*
X164605735Y-108722738D01*
X164777262Y-108894265D01*
X164777266Y-108894268D01*
X164777268Y-108894270D01*
X164969707Y-109041933D01*
X164969711Y-109041936D01*
X165179788Y-109163224D01*
X165403900Y-109256054D01*
X165638211Y-109318838D01*
X165878712Y-109350500D01*
X165878713Y-109350500D01*
X166121287Y-109350500D01*
X166121288Y-109350500D01*
X166361789Y-109318838D01*
X166596100Y-109256054D01*
X166820212Y-109163224D01*
X167030289Y-109041936D01*
X167222738Y-108894265D01*
X167394265Y-108722738D01*
X167541936Y-108530289D01*
X167663224Y-108320212D01*
X167756054Y-108096100D01*
X167818838Y-107861789D01*
X167850500Y-107621288D01*
X167850500Y-107378712D01*
X167818838Y-107138211D01*
X167756054Y-106903900D01*
X167663224Y-106679788D01*
X167541936Y-106469711D01*
X167394265Y-106277262D01*
X167222738Y-106105735D01*
X167222733Y-106105731D01*
X167222731Y-106105729D01*
X167030292Y-105958066D01*
X167030289Y-105958064D01*
X166820212Y-105836776D01*
X166820208Y-105836774D01*
X166820204Y-105836772D01*
X166596105Y-105743948D01*
X166596104Y-105743947D01*
X166596100Y-105743946D01*
X166361789Y-105681162D01*
X166361786Y-105681161D01*
X166361784Y-105681161D01*
X166121289Y-105649500D01*
X166121288Y-105649500D01*
X165878712Y-105649500D01*
X165878710Y-105649500D01*
X165638218Y-105681161D01*
X165638213Y-105681161D01*
X165403907Y-105743944D01*
X165403894Y-105743948D01*
X165179795Y-105836772D01*
X164969707Y-105958066D01*
X164777268Y-106105729D01*
X164605729Y-106277268D01*
X164458066Y-106469707D01*
X164336772Y-106679795D01*
X164243948Y-106903894D01*
X164243944Y-106903907D01*
X164181161Y-107138213D01*
X164181161Y-107138218D01*
X164149500Y-107378710D01*
X65850500Y-107378710D01*
X65818838Y-107138211D01*
X65756054Y-106903900D01*
X65663224Y-106679788D01*
X65541936Y-106469711D01*
X65394265Y-106277262D01*
X65222738Y-106105735D01*
X65222733Y-106105731D01*
X65222731Y-106105729D01*
X65030292Y-105958066D01*
X65030289Y-105958064D01*
X64820212Y-105836776D01*
X64820208Y-105836774D01*
X64820204Y-105836772D01*
X64596105Y-105743948D01*
X64596104Y-105743947D01*
X64596100Y-105743946D01*
X64361789Y-105681162D01*
X64361786Y-105681161D01*
X64361784Y-105681161D01*
X64121289Y-105649500D01*
X64121288Y-105649500D01*
X63878712Y-105649500D01*
X63878710Y-105649500D01*
X63638218Y-105681161D01*
X63638213Y-105681161D01*
X63403907Y-105743944D01*
X63403894Y-105743948D01*
X63179795Y-105836772D01*
X62969707Y-105958066D01*
X62777268Y-106105729D01*
X62605729Y-106277268D01*
X62458066Y-106469707D01*
X62336772Y-106679795D01*
X62243948Y-106903894D01*
X62243944Y-106903907D01*
X62181161Y-107138213D01*
X62181161Y-107138218D01*
X62149500Y-107378710D01*
X54500500Y-107378710D01*
X54500500Y-75759450D01*
X68999500Y-75759450D01*
X68999500Y-75940549D01*
X69027828Y-76119406D01*
X69027829Y-76119409D01*
X69083789Y-76291639D01*
X69166004Y-76452994D01*
X69272447Y-76599501D01*
X69400499Y-76727553D01*
X69547006Y-76833996D01*
X69708361Y-76916211D01*
X69880591Y-76972171D01*
X69952136Y-76983502D01*
X70059451Y-77000500D01*
X70059454Y-77000500D01*
X70240549Y-77000500D01*
X70329977Y-76986335D01*
X70419409Y-76972171D01*
X70591639Y-76916211D01*
X70752994Y-76833996D01*
X70899501Y-76727553D01*
X71027553Y-76599501D01*
X71133996Y-76452994D01*
X71216211Y-76291639D01*
X71272171Y-76119409D01*
X71287377Y-76023402D01*
X71300500Y-75940549D01*
X71300500Y-75759450D01*
X71272171Y-75580593D01*
X71272171Y-75580591D01*
X71216211Y-75408361D01*
X71133996Y-75247006D01*
X71027553Y-75100499D01*
X70899501Y-74972447D01*
X70752994Y-74866004D01*
X70752993Y-74866003D01*
X70752991Y-74866002D01*
X70591637Y-74783788D01*
X70419406Y-74727828D01*
X70240549Y-74699500D01*
X70240546Y-74699500D01*
X70059454Y-74699500D01*
X70059451Y-74699500D01*
X69880593Y-74727828D01*
X69708362Y-74783788D01*
X69547008Y-74866002D01*
X69484386Y-74911500D01*
X69400499Y-74972447D01*
X69272447Y-75100499D01*
X69219225Y-75173752D01*
X69166002Y-75247008D01*
X69083788Y-75408362D01*
X69027828Y-75580593D01*
X68999500Y-75759450D01*
X54500500Y-75759450D01*
X54500500Y-68123749D01*
X68800000Y-68123749D01*
X68800000Y-68336250D01*
X68833240Y-68546121D01*
X68898904Y-68748215D01*
X68995376Y-68937553D01*
X68995380Y-68937559D01*
X69034728Y-68991716D01*
X69034729Y-68991716D01*
X69667037Y-68359407D01*
X69684075Y-68422993D01*
X69749901Y-68537007D01*
X69842993Y-68630099D01*
X69957007Y-68695925D01*
X70020590Y-68712962D01*
X69388282Y-69345269D01*
X69388282Y-69345270D01*
X69442440Y-69384619D01*
X69442446Y-69384623D01*
X69631786Y-69481096D01*
X69722983Y-69510727D01*
X69772483Y-69546691D01*
X69791391Y-69604881D01*
X69772484Y-69663072D01*
X69722988Y-69699035D01*
X69708366Y-69703786D01*
X69708364Y-69703787D01*
X69547008Y-69786002D01*
X69484386Y-69831500D01*
X69400499Y-69892447D01*
X69272447Y-70020499D01*
X69219225Y-70093752D01*
X69166002Y-70167008D01*
X69083788Y-70328362D01*
X69027828Y-70500593D01*
X68999500Y-70679450D01*
X68999500Y-70860549D01*
X69027828Y-71039406D01*
X69083788Y-71211637D01*
X69164887Y-71370803D01*
X69166004Y-71372994D01*
X69272447Y-71519501D01*
X69400499Y-71647553D01*
X69547006Y-71753996D01*
X69708361Y-71836211D01*
X69880591Y-71892171D01*
X69952136Y-71903502D01*
X70059451Y-71920500D01*
X70059454Y-71920500D01*
X70240549Y-71920500D01*
X70335158Y-71905515D01*
X70419409Y-71892171D01*
X70591639Y-71836211D01*
X70752994Y-71753996D01*
X70899501Y-71647553D01*
X71027553Y-71519501D01*
X71133996Y-71372994D01*
X71216211Y-71211639D01*
X71272171Y-71039409D01*
X71286335Y-70949977D01*
X71300500Y-70860549D01*
X71300500Y-70679450D01*
X71272171Y-70500593D01*
X71272171Y-70500591D01*
X71239294Y-70399403D01*
X71229360Y-70368829D01*
X71229361Y-70307644D01*
X71253510Y-70268235D01*
X71661251Y-69860496D01*
X71715767Y-69832719D01*
X71731254Y-69831500D01*
X81922439Y-69831500D01*
X81980630Y-69850407D01*
X82016594Y-69899907D01*
X82016594Y-69961093D01*
X81992444Y-70000501D01*
X81972447Y-70020499D01*
X81919225Y-70093752D01*
X81866002Y-70167008D01*
X81783788Y-70328362D01*
X81727828Y-70500593D01*
X81699500Y-70679450D01*
X81699500Y-70860549D01*
X81727828Y-71039406D01*
X81783788Y-71211637D01*
X81864887Y-71370803D01*
X81866004Y-71372994D01*
X81972447Y-71519501D01*
X82100499Y-71647553D01*
X82247006Y-71753996D01*
X82408361Y-71836211D01*
X82580591Y-71892171D01*
X82652136Y-71903502D01*
X82759451Y-71920500D01*
X82759454Y-71920500D01*
X82940549Y-71920500D01*
X83035158Y-71905515D01*
X83119409Y-71892171D01*
X83291639Y-71836211D01*
X83452994Y-71753996D01*
X83599501Y-71647553D01*
X83727553Y-71519501D01*
X83833996Y-71372994D01*
X83916211Y-71211639D01*
X83972171Y-71039409D01*
X83986335Y-70949977D01*
X84000500Y-70860549D01*
X84000500Y-70679450D01*
X83972171Y-70500593D01*
X83972171Y-70500591D01*
X83916211Y-70328361D01*
X83833996Y-70167006D01*
X83727553Y-70020499D01*
X83707555Y-70000501D01*
X83679780Y-69945987D01*
X83689351Y-69885555D01*
X83732616Y-69842290D01*
X83777561Y-69831500D01*
X93663516Y-69831500D01*
X93663518Y-69831500D01*
X93771737Y-69802503D01*
X93771739Y-69802501D01*
X93771741Y-69802501D01*
X93809882Y-69780480D01*
X93868763Y-69746485D01*
X94862719Y-68752527D01*
X94917234Y-68724752D01*
X94977666Y-68734323D01*
X95020931Y-68777588D01*
X95030502Y-68838020D01*
X95003800Y-69006613D01*
X95003800Y-69231786D01*
X95039022Y-69454171D01*
X95108604Y-69668321D01*
X95134960Y-69720048D01*
X95144531Y-69780480D01*
X95116754Y-69834997D01*
X90920248Y-74031504D01*
X90865731Y-74059281D01*
X90850244Y-74060500D01*
X83920382Y-74060500D01*
X83862191Y-74041593D01*
X83826227Y-73992093D01*
X83826227Y-73930907D01*
X83832750Y-73916725D01*
X83832230Y-73916460D01*
X83834350Y-73912297D01*
X83916211Y-73751639D01*
X83972171Y-73579409D01*
X83987377Y-73483402D01*
X84000500Y-73400549D01*
X84000500Y-73219450D01*
X83972171Y-73040593D01*
X83972171Y-73040591D01*
X83916211Y-72868361D01*
X83833996Y-72707006D01*
X83727553Y-72560499D01*
X83599501Y-72432447D01*
X83452994Y-72326004D01*
X83452993Y-72326003D01*
X83452991Y-72326002D01*
X83291637Y-72243788D01*
X83119406Y-72187828D01*
X82940549Y-72159500D01*
X82940546Y-72159500D01*
X82759454Y-72159500D01*
X82759451Y-72159500D01*
X82580593Y-72187828D01*
X82408362Y-72243788D01*
X82247008Y-72326002D01*
X82200090Y-72360090D01*
X82100499Y-72432447D01*
X81972447Y-72560499D01*
X81922536Y-72629196D01*
X81866002Y-72707008D01*
X81783788Y-72868362D01*
X81727828Y-73040593D01*
X81699500Y-73219450D01*
X81699500Y-73400549D01*
X81727828Y-73579406D01*
X81783788Y-73751637D01*
X81867770Y-73916460D01*
X81865902Y-73917411D01*
X81878300Y-73969431D01*
X81854792Y-74025920D01*
X81802570Y-74057803D01*
X81779618Y-74060500D01*
X71543256Y-74060500D01*
X71485065Y-74041593D01*
X71473252Y-74031504D01*
X71253511Y-73811763D01*
X71225734Y-73757246D01*
X71229359Y-73711171D01*
X71272171Y-73579409D01*
X71272587Y-73576785D01*
X71300500Y-73400549D01*
X71300500Y-73219450D01*
X71272171Y-73040593D01*
X71272171Y-73040591D01*
X71216211Y-72868361D01*
X71133996Y-72707006D01*
X71027553Y-72560499D01*
X70899501Y-72432447D01*
X70752994Y-72326004D01*
X70752993Y-72326003D01*
X70752991Y-72326002D01*
X70591637Y-72243788D01*
X70419406Y-72187828D01*
X70240549Y-72159500D01*
X70240546Y-72159500D01*
X70059454Y-72159500D01*
X70059451Y-72159500D01*
X69880593Y-72187828D01*
X69708362Y-72243788D01*
X69547008Y-72326002D01*
X69500090Y-72360090D01*
X69400499Y-72432447D01*
X69272447Y-72560499D01*
X69222536Y-72629196D01*
X69166002Y-72707008D01*
X69083788Y-72868362D01*
X69027828Y-73040593D01*
X68999500Y-73219450D01*
X68999500Y-73400549D01*
X69027828Y-73579406D01*
X69070638Y-73711166D01*
X69083789Y-73751639D01*
X69166004Y-73912994D01*
X69272447Y-74059501D01*
X69400499Y-74187553D01*
X69547006Y-74293996D01*
X69708361Y-74376211D01*
X69880591Y-74432171D01*
X69952136Y-74443502D01*
X70059451Y-74460500D01*
X70059454Y-74460500D01*
X70240549Y-74460500D01*
X70419404Y-74432172D01*
X70419405Y-74432171D01*
X70419409Y-74432171D01*
X70551170Y-74389360D01*
X70612351Y-74389360D01*
X70651762Y-74413511D01*
X71064737Y-74826485D01*
X71161759Y-74882501D01*
X71161757Y-74882501D01*
X71161761Y-74882502D01*
X71161763Y-74882503D01*
X71269981Y-74911500D01*
X71269982Y-74911500D01*
X81922439Y-74911500D01*
X81980630Y-74930407D01*
X82016594Y-74979907D01*
X82016594Y-75041093D01*
X81992444Y-75080501D01*
X81972447Y-75100499D01*
X81919225Y-75173752D01*
X81866002Y-75247008D01*
X81783788Y-75408362D01*
X81727828Y-75580593D01*
X81699500Y-75759450D01*
X81699500Y-75940549D01*
X81727828Y-76119406D01*
X81727829Y-76119409D01*
X81783789Y-76291639D01*
X81866004Y-76452994D01*
X81972447Y-76599501D01*
X82100499Y-76727553D01*
X82247006Y-76833996D01*
X82408361Y-76916211D01*
X82580591Y-76972171D01*
X82652136Y-76983502D01*
X82759451Y-77000500D01*
X82759454Y-77000500D01*
X82940549Y-77000500D01*
X83029977Y-76986335D01*
X83119409Y-76972171D01*
X83291639Y-76916211D01*
X83452994Y-76833996D01*
X83599501Y-76727553D01*
X83727553Y-76599501D01*
X83833996Y-76452994D01*
X83916211Y-76291639D01*
X83972171Y-76119409D01*
X83987377Y-76023402D01*
X84000500Y-75940549D01*
X84000500Y-75759450D01*
X83972171Y-75580593D01*
X83972171Y-75580591D01*
X83916211Y-75408361D01*
X83833996Y-75247006D01*
X83727553Y-75100499D01*
X83707555Y-75080501D01*
X83679780Y-75025987D01*
X83689351Y-74965555D01*
X83732616Y-74922290D01*
X83777561Y-74911500D01*
X91123516Y-74911500D01*
X91123518Y-74911500D01*
X91231737Y-74882503D01*
X91231739Y-74882501D01*
X91231741Y-74882501D01*
X91260564Y-74865859D01*
X91328763Y-74826485D01*
X94862720Y-71292525D01*
X94917235Y-71264750D01*
X94977667Y-71274321D01*
X95020932Y-71317586D01*
X95030503Y-71378018D01*
X95003800Y-71546613D01*
X95003800Y-71771786D01*
X95039022Y-71994171D01*
X95108604Y-72208321D01*
X95190545Y-72369141D01*
X95210827Y-72408945D01*
X95343176Y-72591108D01*
X95502392Y-72750324D01*
X95502395Y-72750326D01*
X95502397Y-72750328D01*
X95638355Y-72849108D01*
X95674319Y-72898608D01*
X95674318Y-72959793D01*
X95638355Y-73009292D01*
X95502397Y-73108071D01*
X95343175Y-73267293D01*
X95210825Y-73449457D01*
X95108604Y-73650078D01*
X95039022Y-73864228D01*
X95003800Y-74086613D01*
X95003800Y-74311786D01*
X95039022Y-74534171D01*
X95108604Y-74748321D01*
X95198505Y-74924763D01*
X95210827Y-74948945D01*
X95343176Y-75131108D01*
X95502392Y-75290324D01*
X95502395Y-75290326D01*
X95502397Y-75290328D01*
X95638355Y-75389108D01*
X95674319Y-75438608D01*
X95674318Y-75499793D01*
X95638355Y-75549292D01*
X95502397Y-75648071D01*
X95343175Y-75807293D01*
X95210825Y-75989457D01*
X95108604Y-76190078D01*
X95039022Y-76404228D01*
X95003800Y-76626613D01*
X95003800Y-76851786D01*
X95039022Y-77074171D01*
X95039024Y-77074176D01*
X95108604Y-77288321D01*
X95210827Y-77488945D01*
X95343176Y-77671108D01*
X95502392Y-77830324D01*
X95502395Y-77830326D01*
X95502397Y-77830328D01*
X95638355Y-77929108D01*
X95674319Y-77978608D01*
X95674318Y-78039793D01*
X95638355Y-78089292D01*
X95502397Y-78188071D01*
X95343175Y-78347293D01*
X95210825Y-78529457D01*
X95108604Y-78730078D01*
X95039022Y-78944228D01*
X95003800Y-79166613D01*
X95003800Y-79391786D01*
X95039022Y-79614171D01*
X95039024Y-79614176D01*
X95108604Y-79828321D01*
X95210827Y-80028945D01*
X95343176Y-80211108D01*
X95502392Y-80370324D01*
X95502395Y-80370326D01*
X95502397Y-80370328D01*
X95638355Y-80469108D01*
X95674319Y-80518608D01*
X95674318Y-80579793D01*
X95638355Y-80629292D01*
X95502397Y-80728071D01*
X95343175Y-80887293D01*
X95210825Y-81069457D01*
X95108604Y-81270078D01*
X95039022Y-81484228D01*
X95003800Y-81706613D01*
X95003800Y-81931786D01*
X95039022Y-82154171D01*
X95108604Y-82368321D01*
X95208159Y-82563710D01*
X95210827Y-82568945D01*
X95343176Y-82751108D01*
X95502392Y-82910324D01*
X95502395Y-82910326D01*
X95502397Y-82910328D01*
X95638355Y-83009108D01*
X95674319Y-83058608D01*
X95674318Y-83119793D01*
X95638355Y-83169292D01*
X95502397Y-83268071D01*
X95343175Y-83427293D01*
X95210825Y-83609457D01*
X95108604Y-83810078D01*
X95039022Y-84024228D01*
X95003800Y-84246613D01*
X95003800Y-84471786D01*
X95039022Y-84694171D01*
X95108604Y-84908321D01*
X95210827Y-85108945D01*
X95343176Y-85291108D01*
X95502392Y-85450324D01*
X95502395Y-85450326D01*
X95502397Y-85450328D01*
X95638355Y-85549108D01*
X95674319Y-85598608D01*
X95674318Y-85659793D01*
X95638355Y-85709292D01*
X95502397Y-85808071D01*
X95343175Y-85967293D01*
X95210825Y-86149457D01*
X95108604Y-86350078D01*
X95039022Y-86564228D01*
X95003800Y-86786613D01*
X95003800Y-87011786D01*
X95039022Y-87234171D01*
X95108604Y-87448321D01*
X95210827Y-87648945D01*
X95343176Y-87831108D01*
X95502392Y-87990324D01*
X95502395Y-87990326D01*
X95502397Y-87990328D01*
X95638355Y-88089108D01*
X95674319Y-88138608D01*
X95674318Y-88199793D01*
X95638355Y-88249292D01*
X95502397Y-88348071D01*
X95343175Y-88507293D01*
X95210825Y-88689457D01*
X95108604Y-88890078D01*
X95039022Y-89104228D01*
X95003800Y-89326613D01*
X95003800Y-89551786D01*
X95039022Y-89774171D01*
X95039024Y-89774176D01*
X95108604Y-89988321D01*
X95210827Y-90188945D01*
X95343176Y-90371108D01*
X95502392Y-90530324D01*
X95502395Y-90530326D01*
X95502397Y-90530328D01*
X95638355Y-90629108D01*
X95674319Y-90678608D01*
X95674318Y-90739793D01*
X95638355Y-90789292D01*
X95502397Y-90888071D01*
X95343175Y-91047293D01*
X95210825Y-91229457D01*
X95108604Y-91430078D01*
X95039022Y-91644228D01*
X95003800Y-91866613D01*
X95003800Y-92091786D01*
X95039022Y-92314171D01*
X95108604Y-92528321D01*
X95200761Y-92709191D01*
X95210827Y-92728945D01*
X95343176Y-92911108D01*
X95502392Y-93070324D01*
X95502395Y-93070326D01*
X95502397Y-93070328D01*
X95638355Y-93169108D01*
X95674319Y-93218608D01*
X95674318Y-93279793D01*
X95638355Y-93329292D01*
X95502397Y-93428071D01*
X95343175Y-93587293D01*
X95210825Y-93769457D01*
X95108604Y-93970078D01*
X95039022Y-94184228D01*
X95003800Y-94406613D01*
X95003800Y-94631786D01*
X95039022Y-94854171D01*
X95039024Y-94854176D01*
X95108604Y-95068321D01*
X95210827Y-95268945D01*
X95343176Y-95451108D01*
X95502392Y-95610324D01*
X95684555Y-95742673D01*
X95885179Y-95844896D01*
X96099324Y-95914476D01*
X96099325Y-95914476D01*
X96099328Y-95914477D01*
X96321714Y-95949700D01*
X96321717Y-95949700D01*
X96546886Y-95949700D01*
X96769271Y-95914477D01*
X96769272Y-95914476D01*
X96769276Y-95914476D01*
X96983421Y-95844896D01*
X97184045Y-95742673D01*
X97366208Y-95610324D01*
X97525424Y-95451108D01*
X97657773Y-95268945D01*
X97759996Y-95068321D01*
X97829576Y-94854176D01*
X97864800Y-94631783D01*
X97864800Y-94406617D01*
X97864800Y-94406613D01*
X97829577Y-94184228D01*
X97818943Y-94151500D01*
X97759996Y-93970079D01*
X97657773Y-93769455D01*
X97525424Y-93587292D01*
X97366208Y-93428076D01*
X97230243Y-93329291D01*
X97194280Y-93279793D01*
X97194280Y-93218607D01*
X97230243Y-93169108D01*
X97366208Y-93070324D01*
X97525424Y-92911108D01*
X97657773Y-92728945D01*
X97759996Y-92528321D01*
X97829576Y-92314176D01*
X97840960Y-92242301D01*
X97864800Y-92091786D01*
X97864800Y-91866613D01*
X97829577Y-91644228D01*
X97824829Y-91629614D01*
X97759996Y-91430079D01*
X97657773Y-91229455D01*
X97525424Y-91047292D01*
X97366208Y-90888076D01*
X97230243Y-90789291D01*
X97194280Y-90739793D01*
X97194280Y-90678607D01*
X97230243Y-90629108D01*
X97366208Y-90530324D01*
X97525424Y-90371108D01*
X97657773Y-90188945D01*
X97759996Y-89988321D01*
X97829576Y-89774176D01*
X97864800Y-89551783D01*
X97864800Y-89326617D01*
X97864800Y-89326613D01*
X97829577Y-89104228D01*
X97829576Y-89104224D01*
X97759996Y-88890079D01*
X97657773Y-88689455D01*
X97525424Y-88507292D01*
X97366208Y-88348076D01*
X97230243Y-88249291D01*
X97194280Y-88199793D01*
X97194280Y-88138607D01*
X97230243Y-88089108D01*
X97366208Y-87990324D01*
X97525424Y-87831108D01*
X97657773Y-87648945D01*
X97759996Y-87448321D01*
X97829576Y-87234176D01*
X97864800Y-87011783D01*
X97864800Y-86786617D01*
X97864800Y-86786613D01*
X97829577Y-86564228D01*
X97829576Y-86564224D01*
X97759996Y-86350079D01*
X97657773Y-86149455D01*
X97525424Y-85967292D01*
X97366208Y-85808076D01*
X97230243Y-85709291D01*
X97194280Y-85659793D01*
X97194280Y-85598607D01*
X97230243Y-85549108D01*
X97366208Y-85450324D01*
X97525424Y-85291108D01*
X97657773Y-85108945D01*
X97759996Y-84908321D01*
X97829576Y-84694176D01*
X97864800Y-84471783D01*
X97864800Y-84246617D01*
X97864800Y-84246613D01*
X97829577Y-84024228D01*
X97828163Y-84019876D01*
X97759996Y-83810079D01*
X97657773Y-83609455D01*
X97525424Y-83427292D01*
X97366208Y-83268076D01*
X97230243Y-83169291D01*
X97194280Y-83119793D01*
X97194280Y-83058607D01*
X97230243Y-83009108D01*
X97366208Y-82910324D01*
X97525424Y-82751108D01*
X97657773Y-82568945D01*
X97759996Y-82368321D01*
X97829576Y-82154176D01*
X97841219Y-82080667D01*
X97864800Y-81931786D01*
X97864800Y-81706613D01*
X97829577Y-81484228D01*
X97817289Y-81446410D01*
X97759996Y-81270079D01*
X97657773Y-81069455D01*
X97525424Y-80887292D01*
X97366208Y-80728076D01*
X97230243Y-80629291D01*
X97194280Y-80579793D01*
X97194280Y-80518607D01*
X97230243Y-80469108D01*
X97366208Y-80370324D01*
X97525424Y-80211108D01*
X97657773Y-80028945D01*
X97759996Y-79828321D01*
X97829576Y-79614176D01*
X97864800Y-79391783D01*
X97864800Y-79166617D01*
X97864800Y-79166613D01*
X97829577Y-78944228D01*
X97829576Y-78944224D01*
X97759996Y-78730079D01*
X97657773Y-78529455D01*
X97525424Y-78347292D01*
X97366208Y-78188076D01*
X97230243Y-78089291D01*
X97194280Y-78039793D01*
X97194280Y-77978607D01*
X97230243Y-77929108D01*
X97366208Y-77830324D01*
X97525424Y-77671108D01*
X97657773Y-77488945D01*
X97759996Y-77288321D01*
X97829576Y-77074176D01*
X97829577Y-77074171D01*
X97864800Y-76851786D01*
X97864800Y-76626613D01*
X97829577Y-76404228D01*
X97829576Y-76404224D01*
X97759996Y-76190079D01*
X97657773Y-75989455D01*
X97525424Y-75807292D01*
X97366208Y-75648076D01*
X97230243Y-75549291D01*
X97194280Y-75499793D01*
X97194280Y-75438607D01*
X97230243Y-75389108D01*
X97366208Y-75290324D01*
X97525424Y-75131108D01*
X97657773Y-74948945D01*
X97759996Y-74748321D01*
X97829576Y-74534176D01*
X97838097Y-74480378D01*
X97864800Y-74311786D01*
X97864800Y-74086613D01*
X97829577Y-73864228D01*
X97829576Y-73864224D01*
X97759996Y-73650079D01*
X97657773Y-73449455D01*
X97525424Y-73267292D01*
X97366208Y-73108076D01*
X97230243Y-73009291D01*
X97194280Y-72959793D01*
X97194280Y-72898607D01*
X97230243Y-72849108D01*
X97366208Y-72750324D01*
X97525424Y-72591108D01*
X97657773Y-72408945D01*
X97759996Y-72208321D01*
X97829576Y-71994176D01*
X97831801Y-71980127D01*
X97864800Y-71771786D01*
X97864800Y-71546613D01*
X97829577Y-71324228D01*
X97826945Y-71316127D01*
X97759996Y-71110079D01*
X97657773Y-70909455D01*
X97525424Y-70727292D01*
X97366208Y-70568076D01*
X97230243Y-70469291D01*
X97194280Y-70419793D01*
X97194280Y-70358607D01*
X97230243Y-70309108D01*
X97366208Y-70210324D01*
X97525424Y-70051108D01*
X97657773Y-69868945D01*
X97759996Y-69668321D01*
X97829576Y-69454176D01*
X97830074Y-69451031D01*
X97864800Y-69231786D01*
X97864800Y-69006613D01*
X97829577Y-68784228D01*
X97827420Y-68777588D01*
X97759996Y-68570079D01*
X97657773Y-68369455D01*
X97525424Y-68187292D01*
X97366208Y-68028076D01*
X97230243Y-67929291D01*
X97194280Y-67879793D01*
X97194280Y-67818607D01*
X97230243Y-67769108D01*
X97366208Y-67670324D01*
X97525424Y-67511108D01*
X97657773Y-67328945D01*
X97759996Y-67128321D01*
X97829576Y-66914176D01*
X97829577Y-66914171D01*
X97864800Y-66691786D01*
X97864800Y-66466613D01*
X97829577Y-66244228D01*
X97829576Y-66244224D01*
X97759996Y-66030079D01*
X97657773Y-65829455D01*
X97525424Y-65647292D01*
X97383787Y-65505655D01*
X97356012Y-65451141D01*
X97365583Y-65390709D01*
X97395603Y-65355561D01*
X97396474Y-65354927D01*
X96616781Y-64575235D01*
X96652382Y-64565696D01*
X96781218Y-64491312D01*
X96886412Y-64386118D01*
X96960796Y-64257282D01*
X96970335Y-64221681D01*
X97750028Y-65001374D01*
X97750029Y-65001374D01*
X97828397Y-64893510D01*
X97828401Y-64893505D01*
X97944879Y-64664903D01*
X98024165Y-64420888D01*
X98064300Y-64167487D01*
X98064300Y-63910912D01*
X98024165Y-63657511D01*
X97944879Y-63413496D01*
X97828401Y-63184894D01*
X97828397Y-63184888D01*
X97750028Y-63077024D01*
X97750027Y-63077024D01*
X96970334Y-63856717D01*
X96960796Y-63821118D01*
X96886412Y-63692282D01*
X96781218Y-63587088D01*
X96652382Y-63512704D01*
X96616779Y-63503164D01*
X97396474Y-62723471D01*
X97396474Y-62723469D01*
X97395601Y-62722835D01*
X97359639Y-62673335D01*
X97359640Y-62612149D01*
X97383789Y-62572742D01*
X97525424Y-62431108D01*
X97657773Y-62248945D01*
X97759996Y-62048321D01*
X97829576Y-61834176D01*
X97830074Y-61831031D01*
X97864800Y-61611786D01*
X97864800Y-61386613D01*
X97829577Y-61164228D01*
X97829576Y-61164224D01*
X97759996Y-60950079D01*
X97657773Y-60749455D01*
X97525424Y-60567292D01*
X97366208Y-60408076D01*
X97230243Y-60309291D01*
X97194280Y-60259793D01*
X97194280Y-60198607D01*
X97230243Y-60149108D01*
X97366208Y-60050324D01*
X97525424Y-59891108D01*
X97657773Y-59708945D01*
X97759996Y-59508321D01*
X97829576Y-59294176D01*
X97829577Y-59294171D01*
X97864800Y-59071786D01*
X97864800Y-58846613D01*
X97829577Y-58624228D01*
X97829576Y-58624224D01*
X97759996Y-58410079D01*
X97657773Y-58209455D01*
X97525424Y-58027292D01*
X97366208Y-57868076D01*
X97230243Y-57769291D01*
X97194280Y-57719793D01*
X97194280Y-57658607D01*
X97230243Y-57609108D01*
X97366208Y-57510324D01*
X97525424Y-57351108D01*
X97657773Y-57168945D01*
X97759996Y-56968321D01*
X97829576Y-56754176D01*
X97864800Y-56531783D01*
X97864800Y-56306617D01*
X97864800Y-56306613D01*
X97829577Y-56084228D01*
X97829576Y-56084224D01*
X97759996Y-55870079D01*
X97657773Y-55669455D01*
X97525424Y-55487292D01*
X97366208Y-55328076D01*
X97184045Y-55195727D01*
X97184044Y-55195726D01*
X97184042Y-55195725D01*
X96983421Y-55093504D01*
X96769271Y-55023922D01*
X96546886Y-54988700D01*
X96546883Y-54988700D01*
X96321717Y-54988700D01*
X96321714Y-54988700D01*
X96099328Y-55023922D01*
X95885178Y-55093504D01*
X95684557Y-55195725D01*
X95502393Y-55328075D01*
X95343175Y-55487293D01*
X95210825Y-55669457D01*
X95108604Y-55870078D01*
X95039022Y-56084228D01*
X95003800Y-56306613D01*
X95003800Y-56531786D01*
X95039022Y-56754171D01*
X95108604Y-56968321D01*
X95163870Y-57076788D01*
X95210827Y-57168945D01*
X95343176Y-57351108D01*
X95502392Y-57510324D01*
X95502395Y-57510326D01*
X95502397Y-57510328D01*
X95638355Y-57609108D01*
X95674319Y-57658608D01*
X95674318Y-57719793D01*
X95638355Y-57769292D01*
X95502397Y-57868071D01*
X95343175Y-58027293D01*
X95210825Y-58209457D01*
X95108604Y-58410078D01*
X95039022Y-58624228D01*
X95003800Y-58846613D01*
X95003800Y-59071786D01*
X95039022Y-59294171D01*
X95108604Y-59508321D01*
X95185640Y-59659514D01*
X95210827Y-59708945D01*
X95343176Y-59891108D01*
X95502392Y-60050324D01*
X95502395Y-60050326D01*
X95502397Y-60050328D01*
X95638355Y-60149108D01*
X95674319Y-60198608D01*
X95674318Y-60259793D01*
X95638355Y-60309292D01*
X95502397Y-60408071D01*
X95343175Y-60567293D01*
X95210825Y-60749457D01*
X95108604Y-60950078D01*
X95039022Y-61164228D01*
X95003800Y-61386613D01*
X95003800Y-61611786D01*
X95039022Y-61834171D01*
X95108604Y-62048321D01*
X95201179Y-62230011D01*
X95210827Y-62248945D01*
X95343176Y-62431108D01*
X95484810Y-62572742D01*
X95512586Y-62627257D01*
X95503015Y-62687689D01*
X95472998Y-62722835D01*
X95472124Y-62723469D01*
X95472124Y-62723471D01*
X96251818Y-63503164D01*
X96216218Y-63512704D01*
X96087382Y-63587088D01*
X95982188Y-63692282D01*
X95907804Y-63821118D01*
X95898264Y-63856718D01*
X95118571Y-63077024D01*
X95040197Y-63184896D01*
X94923720Y-63413496D01*
X94844434Y-63657511D01*
X94804300Y-63910912D01*
X94804300Y-64167487D01*
X94844434Y-64420888D01*
X94923720Y-64664903D01*
X95040198Y-64893505D01*
X95040202Y-64893511D01*
X95118570Y-65001374D01*
X95118571Y-65001374D01*
X95898264Y-64221679D01*
X95907804Y-64257282D01*
X95982188Y-64386118D01*
X96087382Y-64491312D01*
X96216218Y-64565696D01*
X96251817Y-64575234D01*
X95472124Y-65354927D01*
X95472996Y-65355561D01*
X95508960Y-65405061D01*
X95508961Y-65466246D01*
X95484810Y-65505657D01*
X95343178Y-65647289D01*
X95210825Y-65829457D01*
X95108604Y-66030078D01*
X95039022Y-66244228D01*
X95003800Y-66466613D01*
X95003800Y-66691786D01*
X95039022Y-66914171D01*
X95108603Y-67128319D01*
X95134960Y-67180048D01*
X95144531Y-67240480D01*
X95116754Y-67294996D01*
X93460248Y-68951504D01*
X93405731Y-68979281D01*
X93390244Y-68980500D01*
X83920382Y-68980500D01*
X83862191Y-68961593D01*
X83826227Y-68912093D01*
X83826227Y-68850907D01*
X83832750Y-68836725D01*
X83832230Y-68836460D01*
X83854775Y-68792213D01*
X83916211Y-68671639D01*
X83972171Y-68499409D01*
X83986843Y-68406776D01*
X84000500Y-68320549D01*
X84000500Y-68139450D01*
X83972171Y-67960593D01*
X83972171Y-67960591D01*
X83916211Y-67788361D01*
X83833996Y-67627006D01*
X83727553Y-67480499D01*
X83599501Y-67352447D01*
X83452994Y-67246004D01*
X83452993Y-67246003D01*
X83452991Y-67246002D01*
X83291637Y-67163788D01*
X83119406Y-67107828D01*
X82940549Y-67079500D01*
X82940546Y-67079500D01*
X82759454Y-67079500D01*
X82759451Y-67079500D01*
X82580593Y-67107828D01*
X82408362Y-67163788D01*
X82247008Y-67246002D01*
X82179574Y-67294996D01*
X82100499Y-67352447D01*
X81972447Y-67480499D01*
X81941975Y-67522440D01*
X81866002Y-67627008D01*
X81783788Y-67788362D01*
X81727828Y-67960593D01*
X81699500Y-68139450D01*
X81699500Y-68320549D01*
X81727828Y-68499406D01*
X81783788Y-68671637D01*
X81867770Y-68836460D01*
X81865902Y-68837411D01*
X81878300Y-68889431D01*
X81854792Y-68945920D01*
X81802570Y-68977803D01*
X81779618Y-68980500D01*
X71457973Y-68980500D01*
X71456688Y-68980669D01*
X71455777Y-68980500D01*
X71451492Y-68980500D01*
X71451492Y-68979705D01*
X71396528Y-68969513D01*
X71354416Y-68925126D01*
X71346436Y-68864463D01*
X71355567Y-68837569D01*
X71401094Y-68748217D01*
X71466759Y-68546121D01*
X71500000Y-68336250D01*
X71500000Y-68123749D01*
X71466759Y-67913878D01*
X71401095Y-67711784D01*
X71304623Y-67522446D01*
X71304619Y-67522440D01*
X71265270Y-67468282D01*
X71265269Y-67468282D01*
X70632962Y-68100590D01*
X70615925Y-68037007D01*
X70550099Y-67922993D01*
X70457007Y-67829901D01*
X70342993Y-67764075D01*
X70279407Y-67747037D01*
X70911716Y-67114729D01*
X70911716Y-67114728D01*
X70857559Y-67075380D01*
X70857553Y-67075376D01*
X70668215Y-66978904D01*
X70577015Y-66949272D01*
X70527515Y-66913308D01*
X70508608Y-66855117D01*
X70527515Y-66796926D01*
X70577013Y-66760962D01*
X70577017Y-66760962D01*
X70577018Y-66760962D01*
X70591633Y-66756213D01*
X70591633Y-66756212D01*
X70591639Y-66756211D01*
X70752994Y-66673996D01*
X70899501Y-66567553D01*
X71027553Y-66439501D01*
X71133996Y-66292994D01*
X71216211Y-66131639D01*
X71272171Y-65959409D01*
X71286335Y-65869977D01*
X71300500Y-65780549D01*
X71300500Y-65599450D01*
X81699500Y-65599450D01*
X81699500Y-65780549D01*
X81727828Y-65959406D01*
X81783788Y-66131637D01*
X81810369Y-66183806D01*
X81866004Y-66292994D01*
X81972447Y-66439501D01*
X82100499Y-66567553D01*
X82247006Y-66673996D01*
X82408361Y-66756211D01*
X82580591Y-66812171D01*
X82652136Y-66823502D01*
X82759451Y-66840500D01*
X82759454Y-66840500D01*
X82940549Y-66840500D01*
X83029977Y-66826335D01*
X83119409Y-66812171D01*
X83291639Y-66756211D01*
X83452994Y-66673996D01*
X83599501Y-66567553D01*
X83727553Y-66439501D01*
X83833996Y-66292994D01*
X83916211Y-66131639D01*
X83972171Y-65959409D01*
X83986335Y-65869977D01*
X84000500Y-65780549D01*
X84000500Y-65599450D01*
X83979402Y-65466246D01*
X83972171Y-65420591D01*
X83916211Y-65248361D01*
X83833996Y-65087006D01*
X83727553Y-64940499D01*
X83599501Y-64812447D01*
X83452994Y-64706004D01*
X83452993Y-64706003D01*
X83452991Y-64706002D01*
X83291637Y-64623788D01*
X83119406Y-64567828D01*
X82940549Y-64539500D01*
X82940546Y-64539500D01*
X82759454Y-64539500D01*
X82759451Y-64539500D01*
X82580593Y-64567828D01*
X82408362Y-64623788D01*
X82247008Y-64706002D01*
X82231970Y-64716928D01*
X82100499Y-64812447D01*
X81972447Y-64940499D01*
X81928219Y-65001374D01*
X81866002Y-65087008D01*
X81783788Y-65248362D01*
X81727828Y-65420593D01*
X81699500Y-65599450D01*
X71300500Y-65599450D01*
X71279402Y-65466246D01*
X71272171Y-65420591D01*
X71216211Y-65248361D01*
X71133996Y-65087006D01*
X71027553Y-64940499D01*
X70899501Y-64812447D01*
X70752994Y-64706004D01*
X70752993Y-64706003D01*
X70752991Y-64706002D01*
X70591637Y-64623788D01*
X70419406Y-64567828D01*
X70240549Y-64539500D01*
X70240546Y-64539500D01*
X70059454Y-64539500D01*
X70059451Y-64539500D01*
X69880593Y-64567828D01*
X69708362Y-64623788D01*
X69547008Y-64706002D01*
X69531970Y-64716928D01*
X69400499Y-64812447D01*
X69272447Y-64940499D01*
X69228219Y-65001374D01*
X69166002Y-65087008D01*
X69083788Y-65248362D01*
X69027828Y-65420593D01*
X68999500Y-65599450D01*
X68999500Y-65780549D01*
X69027828Y-65959406D01*
X69083788Y-66131637D01*
X69110369Y-66183806D01*
X69166004Y-66292994D01*
X69272447Y-66439501D01*
X69400499Y-66567553D01*
X69547006Y-66673996D01*
X69708361Y-66756211D01*
X69719483Y-66759824D01*
X69722983Y-66760962D01*
X69772483Y-66796926D01*
X69791391Y-66855116D01*
X69772484Y-66913307D01*
X69722985Y-66949271D01*
X69722984Y-66949272D01*
X69631784Y-66978904D01*
X69442446Y-67075376D01*
X69442442Y-67075378D01*
X69388282Y-67114728D01*
X70020591Y-67747037D01*
X69957007Y-67764075D01*
X69842993Y-67829901D01*
X69749901Y-67922993D01*
X69684075Y-68037007D01*
X69667037Y-68100591D01*
X69034728Y-67468282D01*
X68995378Y-67522442D01*
X68995376Y-67522446D01*
X68898904Y-67711784D01*
X68833240Y-67913878D01*
X68800000Y-68123749D01*
X54500500Y-68123749D01*
X54500500Y-63059450D01*
X68999500Y-63059450D01*
X68999500Y-63240549D01*
X69027828Y-63419406D01*
X69083788Y-63591637D01*
X69160554Y-63742299D01*
X69166004Y-63752994D01*
X69272447Y-63899501D01*
X69400499Y-64027553D01*
X69547006Y-64133996D01*
X69708361Y-64216211D01*
X69880591Y-64272171D01*
X69925577Y-64279296D01*
X70059451Y-64300500D01*
X70059454Y-64300500D01*
X70240549Y-64300500D01*
X70329977Y-64286335D01*
X70419409Y-64272171D01*
X70591639Y-64216211D01*
X70752994Y-64133996D01*
X70899501Y-64027553D01*
X71027553Y-63899501D01*
X71133996Y-63752994D01*
X71216211Y-63591639D01*
X71272171Y-63419409D01*
X71286335Y-63329977D01*
X71300500Y-63240549D01*
X71300500Y-63059454D01*
X71298916Y-63049456D01*
X71308486Y-62989024D01*
X71326690Y-62963965D01*
X72035525Y-62255130D01*
X81699500Y-62255130D01*
X81699500Y-64044860D01*
X81699501Y-64044863D01*
X81702414Y-64069990D01*
X81721205Y-64112546D01*
X81747794Y-64172765D01*
X81827235Y-64252206D01*
X81930009Y-64297585D01*
X81955135Y-64300500D01*
X83744864Y-64300499D01*
X83769991Y-64297585D01*
X83872765Y-64252206D01*
X83952206Y-64172765D01*
X83997585Y-64069991D01*
X84000500Y-64044865D01*
X84000499Y-63107293D01*
X84000499Y-62255139D01*
X84000499Y-62255136D01*
X83997585Y-62230009D01*
X83952206Y-62127235D01*
X83872765Y-62047794D01*
X83769991Y-62002415D01*
X83769990Y-62002414D01*
X83769988Y-62002414D01*
X83744868Y-61999500D01*
X81955139Y-61999500D01*
X81955136Y-61999501D01*
X81930009Y-62002414D01*
X81827235Y-62047794D01*
X81747794Y-62127235D01*
X81702414Y-62230011D01*
X81699500Y-62255130D01*
X72035525Y-62255130D01*
X98575613Y-35715043D01*
X98652274Y-35600312D01*
X98652275Y-35600311D01*
X98705080Y-35472828D01*
X98732000Y-35337493D01*
X98732000Y-34220924D01*
X101951099Y-34220924D01*
X101957501Y-34280470D01*
X101957503Y-34280481D01*
X102007746Y-34415188D01*
X102007747Y-34415190D01*
X102093907Y-34530284D01*
X102093915Y-34530292D01*
X102209009Y-34616452D01*
X102209011Y-34616453D01*
X102343718Y-34666696D01*
X102343729Y-34666698D01*
X102403276Y-34673100D01*
X102861499Y-34673100D01*
X102861500Y-34673099D01*
X102861500Y-33837437D01*
X102861964Y-33837901D01*
X102954635Y-33891405D01*
X103057996Y-33919100D01*
X103165004Y-33919100D01*
X103268365Y-33891405D01*
X103361036Y-33837901D01*
X103361500Y-33837437D01*
X103361500Y-34673099D01*
X103361501Y-34673100D01*
X103819724Y-34673100D01*
X103879270Y-34666698D01*
X103879281Y-34666696D01*
X104013988Y-34616453D01*
X104013990Y-34616452D01*
X104129084Y-34530292D01*
X104129092Y-34530284D01*
X104215252Y-34415190D01*
X104215253Y-34415188D01*
X104265496Y-34280481D01*
X104265498Y-34280470D01*
X104271900Y-34220924D01*
X104271900Y-33762701D01*
X104271899Y-33762700D01*
X103436237Y-33762700D01*
X103436701Y-33762236D01*
X103490205Y-33669565D01*
X103517900Y-33566204D01*
X103517900Y-33459196D01*
X103490205Y-33355835D01*
X103436701Y-33263164D01*
X103436237Y-33262700D01*
X104271899Y-33262700D01*
X104271900Y-33262699D01*
X104271900Y-32804475D01*
X104265498Y-32744929D01*
X104265496Y-32744918D01*
X104215253Y-32610211D01*
X104215252Y-32610209D01*
X104129092Y-32495115D01*
X104129084Y-32495107D01*
X104013990Y-32408947D01*
X104013988Y-32408946D01*
X103879281Y-32358703D01*
X103879270Y-32358701D01*
X103819724Y-32352300D01*
X103361501Y-32352300D01*
X103361500Y-32352301D01*
X103361500Y-33187963D01*
X103361036Y-33187499D01*
X103268365Y-33133995D01*
X103165004Y-33106300D01*
X103057996Y-33106300D01*
X102954635Y-33133995D01*
X102861964Y-33187499D01*
X102861500Y-33187963D01*
X102861500Y-32352301D01*
X102861499Y-32352300D01*
X102403276Y-32352300D01*
X102343729Y-32358701D01*
X102343718Y-32358703D01*
X102209011Y-32408946D01*
X102209009Y-32408947D01*
X102093915Y-32495107D01*
X102093907Y-32495115D01*
X102007747Y-32610209D01*
X102007746Y-32610211D01*
X101957503Y-32744918D01*
X101957501Y-32744929D01*
X101951100Y-32804475D01*
X101951100Y-33262699D01*
X101951101Y-33262700D01*
X102786763Y-33262700D01*
X102786299Y-33263164D01*
X102732795Y-33355835D01*
X102705100Y-33459196D01*
X102705100Y-33566204D01*
X102732795Y-33669565D01*
X102786299Y-33762236D01*
X102786763Y-33762700D01*
X101951101Y-33762700D01*
X101951100Y-33762701D01*
X101951100Y-34220924D01*
X101951099Y-34220924D01*
X98732000Y-34220924D01*
X98732000Y-34212125D01*
X98750907Y-34153934D01*
X98760996Y-34142121D01*
X98777879Y-34125238D01*
X98883038Y-33967857D01*
X98955473Y-33792984D01*
X98992400Y-33607340D01*
X98992400Y-33576057D01*
X98993503Y-33568730D01*
X99004029Y-33547671D01*
X99011307Y-33525274D01*
X99020756Y-33514209D01*
X99020861Y-33514001D01*
X99020993Y-33513932D01*
X99021396Y-33513461D01*
X102305361Y-30229496D01*
X102359878Y-30201719D01*
X102375365Y-30200500D01*
X120588835Y-30200500D01*
X120647026Y-30219407D01*
X120658839Y-30229496D01*
X123930104Y-33500761D01*
X123957881Y-33555278D01*
X123959100Y-33570765D01*
X123959100Y-33594642D01*
X123996026Y-33780282D01*
X124068461Y-33955156D01*
X124068462Y-33955157D01*
X124173621Y-34112538D01*
X124307462Y-34246379D01*
X124464843Y-34351538D01*
X124639716Y-34423973D01*
X124825360Y-34460900D01*
X124825361Y-34460900D01*
X125014639Y-34460900D01*
X125014640Y-34460900D01*
X125200284Y-34423973D01*
X125375157Y-34351538D01*
X125532538Y-34246379D01*
X125549421Y-34229496D01*
X125603938Y-34201719D01*
X125619425Y-34200500D01*
X127111635Y-34200500D01*
X127169826Y-34219407D01*
X127181639Y-34229496D01*
X127862239Y-34910096D01*
X127890016Y-34964613D01*
X127880445Y-35025045D01*
X127837180Y-35068310D01*
X127792235Y-35079100D01*
X126754739Y-35079100D01*
X126754736Y-35079101D01*
X126729609Y-35082014D01*
X126626835Y-35127394D01*
X126547394Y-35206835D01*
X126502014Y-35309611D01*
X126499100Y-35334730D01*
X126499100Y-36745260D01*
X126499101Y-36745263D01*
X126502014Y-36770390D01*
X126527356Y-36827785D01*
X126547394Y-36873165D01*
X126626835Y-36952606D01*
X126729609Y-36997985D01*
X126754735Y-37000900D01*
X126935500Y-37000899D01*
X126993690Y-37019806D01*
X127029654Y-37069306D01*
X127034500Y-37099899D01*
X127034500Y-72148882D01*
X127034500Y-72260918D01*
X127051939Y-72326002D01*
X127063498Y-72369141D01*
X127100050Y-72432449D01*
X127119515Y-72466163D01*
X127629079Y-72975727D01*
X128136754Y-73483402D01*
X128164531Y-73537919D01*
X128154960Y-73598350D01*
X128128605Y-73650075D01*
X128059022Y-73864228D01*
X128023800Y-74086613D01*
X128023800Y-74311786D01*
X128050502Y-74480378D01*
X128040931Y-74540810D01*
X127997666Y-74584075D01*
X127937234Y-74593646D01*
X127882717Y-74565869D01*
X101025996Y-47709148D01*
X100998219Y-47654631D01*
X100997000Y-47639144D01*
X100997000Y-37112599D01*
X101015907Y-37054408D01*
X101065407Y-37018444D01*
X101096000Y-37013599D01*
X101276761Y-37013599D01*
X101276764Y-37013599D01*
X101301891Y-37010685D01*
X101404665Y-36965306D01*
X101484106Y-36885865D01*
X101529485Y-36783091D01*
X101532400Y-36757965D01*
X101532399Y-35347436D01*
X101529485Y-35322309D01*
X101484106Y-35219535D01*
X101404665Y-35140094D01*
X101301891Y-35094715D01*
X101301890Y-35094714D01*
X101301888Y-35094714D01*
X101276768Y-35091800D01*
X99866239Y-35091800D01*
X99866236Y-35091801D01*
X99841109Y-35094714D01*
X99738335Y-35140094D01*
X99658894Y-35219535D01*
X99613514Y-35322311D01*
X99610600Y-35347430D01*
X99610600Y-36757960D01*
X99610601Y-36757963D01*
X99613514Y-36783090D01*
X99638856Y-36840485D01*
X99658894Y-36885865D01*
X99738335Y-36965306D01*
X99841109Y-37010685D01*
X99866235Y-37013600D01*
X100047000Y-37013599D01*
X100105190Y-37032506D01*
X100141154Y-37082006D01*
X100146000Y-37112599D01*
X100146000Y-47800382D01*
X100146000Y-47912418D01*
X100171572Y-48007855D01*
X100174998Y-48020641D01*
X100231013Y-48117660D01*
X100231015Y-48117663D01*
X114197140Y-62083788D01*
X128136754Y-76023402D01*
X128164531Y-76077919D01*
X128154960Y-76138350D01*
X128128605Y-76190075D01*
X128059022Y-76404228D01*
X128023800Y-76626613D01*
X128023800Y-76851786D01*
X128059022Y-77074171D01*
X128059024Y-77074176D01*
X128128604Y-77288321D01*
X128230827Y-77488945D01*
X128363176Y-77671108D01*
X128522392Y-77830324D01*
X128522395Y-77830326D01*
X128522397Y-77830328D01*
X128658355Y-77929108D01*
X128694319Y-77978608D01*
X128694318Y-78039793D01*
X128658355Y-78089292D01*
X128522397Y-78188071D01*
X128363175Y-78347293D01*
X128230825Y-78529457D01*
X128128604Y-78730078D01*
X128059022Y-78944228D01*
X128023800Y-79166613D01*
X128023800Y-79391786D01*
X128059022Y-79614171D01*
X128059024Y-79614176D01*
X128128604Y-79828321D01*
X128230827Y-80028945D01*
X128363176Y-80211108D01*
X128522392Y-80370324D01*
X128522395Y-80370326D01*
X128522397Y-80370328D01*
X128658355Y-80469108D01*
X128694319Y-80518608D01*
X128694318Y-80579793D01*
X128658355Y-80629292D01*
X128522397Y-80728071D01*
X128363175Y-80887293D01*
X128230825Y-81069457D01*
X128128604Y-81270078D01*
X128059022Y-81484228D01*
X128023800Y-81706613D01*
X128023800Y-81931786D01*
X128059022Y-82154171D01*
X128128604Y-82368321D01*
X128228159Y-82563710D01*
X128230827Y-82568945D01*
X128363176Y-82751108D01*
X128522392Y-82910324D01*
X128522395Y-82910326D01*
X128522397Y-82910328D01*
X128658355Y-83009108D01*
X128694319Y-83058608D01*
X128694318Y-83119793D01*
X128658355Y-83169292D01*
X128522397Y-83268071D01*
X128363175Y-83427293D01*
X128230825Y-83609457D01*
X128128604Y-83810078D01*
X128059022Y-84024228D01*
X128023800Y-84246613D01*
X128023800Y-84471786D01*
X128059022Y-84694171D01*
X128128604Y-84908321D01*
X128230827Y-85108945D01*
X128363176Y-85291108D01*
X128522392Y-85450324D01*
X128522395Y-85450326D01*
X128522397Y-85450328D01*
X128658355Y-85549108D01*
X128694319Y-85598608D01*
X128694318Y-85659793D01*
X128658355Y-85709292D01*
X128522397Y-85808071D01*
X128363175Y-85967293D01*
X128230825Y-86149457D01*
X128128604Y-86350078D01*
X128059022Y-86564228D01*
X128023800Y-86786613D01*
X128023800Y-87011786D01*
X128059022Y-87234171D01*
X128128604Y-87448321D01*
X128230827Y-87648945D01*
X128363176Y-87831108D01*
X128522392Y-87990324D01*
X128522395Y-87990326D01*
X128522397Y-87990328D01*
X128658355Y-88089108D01*
X128694319Y-88138608D01*
X128694318Y-88199793D01*
X128658355Y-88249292D01*
X128522397Y-88348071D01*
X128363175Y-88507293D01*
X128230825Y-88689457D01*
X128128604Y-88890078D01*
X128059022Y-89104228D01*
X128023800Y-89326613D01*
X128023800Y-89551786D01*
X128059022Y-89774171D01*
X128059024Y-89774176D01*
X128128604Y-89988321D01*
X128230827Y-90188945D01*
X128363176Y-90371108D01*
X128522392Y-90530324D01*
X128522395Y-90530326D01*
X128522397Y-90530328D01*
X128658355Y-90629108D01*
X128694319Y-90678608D01*
X128694318Y-90739793D01*
X128658355Y-90789292D01*
X128522397Y-90888071D01*
X128363175Y-91047293D01*
X128230825Y-91229457D01*
X128128604Y-91430078D01*
X128059022Y-91644228D01*
X128023800Y-91866613D01*
X128023800Y-92091786D01*
X128059022Y-92314171D01*
X128128604Y-92528321D01*
X128220761Y-92709191D01*
X128230827Y-92728945D01*
X128363176Y-92911108D01*
X128522392Y-93070324D01*
X128522395Y-93070326D01*
X128522397Y-93070328D01*
X128658355Y-93169108D01*
X128694319Y-93218608D01*
X128694318Y-93279793D01*
X128658355Y-93329292D01*
X128522397Y-93428071D01*
X128363175Y-93587293D01*
X128230825Y-93769457D01*
X128128604Y-93970078D01*
X128059022Y-94184228D01*
X128023800Y-94406613D01*
X128023800Y-94631786D01*
X128059022Y-94854171D01*
X128059024Y-94854176D01*
X128128604Y-95068321D01*
X128230827Y-95268945D01*
X128363176Y-95451108D01*
X128522392Y-95610324D01*
X128704555Y-95742673D01*
X128905179Y-95844896D01*
X129119324Y-95914476D01*
X129119325Y-95914476D01*
X129119328Y-95914477D01*
X129341714Y-95949700D01*
X129341717Y-95949700D01*
X129566886Y-95949700D01*
X129789271Y-95914477D01*
X129789272Y-95914476D01*
X129789276Y-95914476D01*
X130003421Y-95844896D01*
X130204045Y-95742673D01*
X130386208Y-95610324D01*
X130545424Y-95451108D01*
X130677773Y-95268945D01*
X130779996Y-95068321D01*
X130849576Y-94854176D01*
X130884800Y-94631783D01*
X130884800Y-94406617D01*
X130884800Y-94406613D01*
X130849577Y-94184228D01*
X130838943Y-94151500D01*
X130779996Y-93970079D01*
X130677773Y-93769455D01*
X130545424Y-93587292D01*
X130386208Y-93428076D01*
X130250243Y-93329291D01*
X130214280Y-93279793D01*
X130214280Y-93218607D01*
X130250243Y-93169108D01*
X130386208Y-93070324D01*
X130545424Y-92911108D01*
X130677773Y-92728945D01*
X130779996Y-92528321D01*
X130849576Y-92314176D01*
X130860960Y-92242301D01*
X130884800Y-92091786D01*
X130884800Y-91898500D01*
X130903707Y-91840309D01*
X130953207Y-91804345D01*
X130983800Y-91799500D01*
X140650249Y-91799500D01*
X140708440Y-91818407D01*
X140744404Y-91867907D01*
X140744404Y-91929093D01*
X140738459Y-91943445D01*
X140670125Y-92077558D01*
X140670123Y-92077561D01*
X140616598Y-92242293D01*
X140616597Y-92242297D01*
X140589500Y-92413385D01*
X140589500Y-92586614D01*
X140616597Y-92757702D01*
X140616598Y-92757706D01*
X140670123Y-92922438D01*
X140670125Y-92922441D01*
X140706551Y-92993933D01*
X140748768Y-93076788D01*
X140850586Y-93216928D01*
X140973072Y-93339414D01*
X141113212Y-93441232D01*
X141267555Y-93519873D01*
X141267557Y-93519873D01*
X141267558Y-93519874D01*
X141267561Y-93519876D01*
X141432293Y-93573401D01*
X141432297Y-93573402D01*
X141603386Y-93600500D01*
X141603389Y-93600500D01*
X141776614Y-93600500D01*
X141947696Y-93573403D01*
X141947697Y-93573402D01*
X141947701Y-93573402D01*
X142051487Y-93539678D01*
X142112669Y-93539678D01*
X142152079Y-93563827D01*
X142654737Y-94066485D01*
X142654739Y-94066486D01*
X142751759Y-94122501D01*
X142751757Y-94122501D01*
X142751761Y-94122502D01*
X142751763Y-94122503D01*
X142859982Y-94151500D01*
X142859984Y-94151500D01*
X157830016Y-94151500D01*
X157830018Y-94151500D01*
X157938237Y-94122503D01*
X157938239Y-94122501D01*
X157938241Y-94122501D01*
X157972093Y-94102956D01*
X158035263Y-94066485D01*
X158458556Y-93643190D01*
X158513071Y-93615414D01*
X158559151Y-93619040D01*
X158718882Y-93670940D01*
X158718883Y-93670940D01*
X158718886Y-93670941D01*
X158905516Y-93700500D01*
X158905519Y-93700500D01*
X159094484Y-93700500D01*
X159281113Y-93670941D01*
X159281114Y-93670940D01*
X159281118Y-93670940D01*
X159460832Y-93612547D01*
X159629199Y-93526760D01*
X159782073Y-93415690D01*
X159915690Y-93282073D01*
X160026760Y-93129199D01*
X160112547Y-92960832D01*
X160170940Y-92781118D01*
X160174650Y-92757696D01*
X160200500Y-92594484D01*
X160200500Y-92405515D01*
X160170941Y-92218886D01*
X160144826Y-92138512D01*
X160112547Y-92039168D01*
X160026760Y-91870801D01*
X159915690Y-91717927D01*
X159782073Y-91584310D01*
X159629199Y-91473240D01*
X159629198Y-91473239D01*
X159629196Y-91473238D01*
X159460832Y-91387453D01*
X159281113Y-91329058D01*
X159094484Y-91299500D01*
X159094481Y-91299500D01*
X158905519Y-91299500D01*
X158905516Y-91299500D01*
X158718886Y-91329058D01*
X158539167Y-91387453D01*
X158370803Y-91473238D01*
X158217928Y-91584309D01*
X158084305Y-91717932D01*
X158039092Y-91780163D01*
X157989592Y-91816127D01*
X157928407Y-91816126D01*
X157878907Y-91780162D01*
X157860000Y-91721972D01*
X157860000Y-91552175D01*
X157853598Y-91492629D01*
X157853596Y-91492618D01*
X157803353Y-91357911D01*
X157803352Y-91357909D01*
X157717192Y-91242815D01*
X157717184Y-91242807D01*
X157602090Y-91156647D01*
X157602088Y-91156646D01*
X157467381Y-91106403D01*
X157467370Y-91106401D01*
X157407824Y-91100000D01*
X156710001Y-91100000D01*
X156710000Y-91100001D01*
X156710000Y-92124722D01*
X156633694Y-92080667D01*
X156519244Y-92050000D01*
X156400756Y-92050000D01*
X156286306Y-92080667D01*
X156210000Y-92124722D01*
X156210000Y-91100001D01*
X156209999Y-91100000D01*
X155512176Y-91100000D01*
X155452629Y-91106401D01*
X155452618Y-91106403D01*
X155317911Y-91156646D01*
X155317909Y-91156647D01*
X155202815Y-91242807D01*
X155202807Y-91242815D01*
X155116647Y-91357909D01*
X155116646Y-91357911D01*
X155066403Y-91492618D01*
X155066401Y-91492629D01*
X155060000Y-91552175D01*
X155060000Y-92249999D01*
X155060001Y-92250000D01*
X156084722Y-92250000D01*
X156040667Y-92326306D01*
X156010000Y-92440756D01*
X156010000Y-92559244D01*
X156040667Y-92673694D01*
X156084722Y-92750000D01*
X155060001Y-92750000D01*
X155060000Y-92750001D01*
X155060000Y-93201500D01*
X155041093Y-93259691D01*
X154991593Y-93295655D01*
X154961000Y-93300500D01*
X150282994Y-93300500D01*
X150224803Y-93281593D01*
X150188839Y-93232093D01*
X150188839Y-93170907D01*
X150202899Y-93143311D01*
X150251232Y-93076788D01*
X150329873Y-92922445D01*
X150329874Y-92922440D01*
X150329876Y-92922438D01*
X150383401Y-92757706D01*
X150383402Y-92757702D01*
X150410500Y-92586614D01*
X150410500Y-92413385D01*
X150383402Y-92242297D01*
X150383401Y-92242293D01*
X150329876Y-92077561D01*
X150329874Y-92077558D01*
X150329873Y-92077557D01*
X150329873Y-92077555D01*
X150251232Y-91923212D01*
X150149414Y-91783072D01*
X150026928Y-91660586D01*
X149886788Y-91558768D01*
X149886787Y-91558767D01*
X149886785Y-91558766D01*
X149732441Y-91480125D01*
X149732438Y-91480123D01*
X149567706Y-91426598D01*
X149567702Y-91426597D01*
X149396614Y-91399500D01*
X149396611Y-91399500D01*
X149223389Y-91399500D01*
X149223386Y-91399500D01*
X149052301Y-91426597D01*
X148948512Y-91460319D01*
X148887326Y-91460318D01*
X148847917Y-91436168D01*
X148445262Y-91033514D01*
X148348240Y-90977498D01*
X148348242Y-90977498D01*
X148306251Y-90966247D01*
X148240018Y-90948500D01*
X148240016Y-90948500D01*
X130487640Y-90948500D01*
X130429449Y-90929593D01*
X130417637Y-90919505D01*
X130386208Y-90888076D01*
X130250243Y-90789291D01*
X130214280Y-90739793D01*
X130214280Y-90678607D01*
X130250243Y-90629108D01*
X130386208Y-90530324D01*
X130545424Y-90371108D01*
X130677773Y-90188945D01*
X130779996Y-89988321D01*
X130849576Y-89774176D01*
X130884800Y-89551783D01*
X130884800Y-89326617D01*
X130884800Y-89326613D01*
X130849577Y-89104228D01*
X130849576Y-89104224D01*
X130779996Y-88890079D01*
X130753638Y-88838350D01*
X130744067Y-88777920D01*
X130771844Y-88723403D01*
X136040752Y-83454496D01*
X136095269Y-83426719D01*
X136110756Y-83425500D01*
X140611016Y-83425500D01*
X140669207Y-83444407D01*
X140699226Y-83479555D01*
X140748768Y-83576788D01*
X140850586Y-83716928D01*
X140973072Y-83839414D01*
X141113212Y-83941232D01*
X141267555Y-84019873D01*
X141267557Y-84019873D01*
X141267558Y-84019874D01*
X141267561Y-84019876D01*
X141432293Y-84073401D01*
X141432297Y-84073402D01*
X141603386Y-84100500D01*
X141603389Y-84100500D01*
X141776614Y-84100500D01*
X141947702Y-84073402D01*
X141947706Y-84073401D01*
X142112438Y-84019876D01*
X142112440Y-84019874D01*
X142112445Y-84019873D01*
X142266788Y-83941232D01*
X142406928Y-83839414D01*
X142529414Y-83716928D01*
X142631232Y-83576788D01*
X142709873Y-83422445D01*
X142709874Y-83422440D01*
X142709876Y-83422438D01*
X142763401Y-83257706D01*
X142763402Y-83257702D01*
X142790500Y-83086614D01*
X142790500Y-82913385D01*
X148209500Y-82913385D01*
X148209500Y-83086614D01*
X148236597Y-83257702D01*
X148236598Y-83257706D01*
X148290123Y-83422438D01*
X148290125Y-83422441D01*
X148343277Y-83526760D01*
X148368768Y-83576788D01*
X148470586Y-83716928D01*
X148593072Y-83839414D01*
X148733212Y-83941232D01*
X148887555Y-84019873D01*
X148887557Y-84019873D01*
X148887558Y-84019874D01*
X148887561Y-84019876D01*
X149052293Y-84073401D01*
X149052297Y-84073402D01*
X149223386Y-84100500D01*
X149223389Y-84100500D01*
X149396614Y-84100500D01*
X149567696Y-84073403D01*
X149567697Y-84073402D01*
X149567701Y-84073402D01*
X149671487Y-84039678D01*
X149732668Y-84039678D01*
X149772080Y-84063829D01*
X149848735Y-84140483D01*
X149848736Y-84140484D01*
X149943096Y-84194963D01*
X149943098Y-84194964D01*
X149945758Y-84196500D01*
X149945762Y-84196502D01*
X150053980Y-84225499D01*
X150053981Y-84225499D01*
X150053982Y-84225499D01*
X157756017Y-84225499D01*
X157756019Y-84225499D01*
X157864238Y-84196502D01*
X157864240Y-84196500D01*
X157864242Y-84196500D01*
X157893065Y-84179858D01*
X157961264Y-84140484D01*
X158458557Y-83643189D01*
X158513072Y-83615414D01*
X158559151Y-83619039D01*
X158718882Y-83670940D01*
X158718883Y-83670940D01*
X158718886Y-83670941D01*
X158905516Y-83700500D01*
X158905519Y-83700500D01*
X159094484Y-83700500D01*
X159281113Y-83670941D01*
X159281114Y-83670940D01*
X159281118Y-83670940D01*
X159460832Y-83612547D01*
X159629199Y-83526760D01*
X159782073Y-83415690D01*
X159915690Y-83282073D01*
X160026760Y-83129199D01*
X160112547Y-82960832D01*
X160170940Y-82781118D01*
X160175693Y-82751108D01*
X160200500Y-82594484D01*
X160200500Y-82405515D01*
X160170941Y-82218886D01*
X160151998Y-82160585D01*
X160112547Y-82039168D01*
X160026760Y-81870801D01*
X159915690Y-81717927D01*
X159782073Y-81584310D01*
X159629199Y-81473240D01*
X159629198Y-81473239D01*
X159629196Y-81473238D01*
X159460832Y-81387453D01*
X159281113Y-81329058D01*
X159094484Y-81299500D01*
X159094481Y-81299500D01*
X158905519Y-81299500D01*
X158905516Y-81299500D01*
X158718886Y-81329058D01*
X158539167Y-81387453D01*
X158370803Y-81473238D01*
X158217928Y-81584309D01*
X158084305Y-81717932D01*
X158039092Y-81780163D01*
X157989592Y-81816127D01*
X157928407Y-81816126D01*
X157878907Y-81780162D01*
X157860000Y-81721972D01*
X157860000Y-81552175D01*
X157853598Y-81492629D01*
X157853596Y-81492618D01*
X157803353Y-81357911D01*
X157803352Y-81357909D01*
X157717192Y-81242815D01*
X157717184Y-81242807D01*
X157602090Y-81156647D01*
X157602088Y-81156646D01*
X157467381Y-81106403D01*
X157467370Y-81106401D01*
X157407824Y-81100000D01*
X156710001Y-81100000D01*
X156710000Y-81100001D01*
X156710000Y-82124722D01*
X156633694Y-82080667D01*
X156519244Y-82050000D01*
X156400756Y-82050000D01*
X156286306Y-82080667D01*
X156210000Y-82124722D01*
X156210000Y-81100001D01*
X156209999Y-81100000D01*
X155512176Y-81100000D01*
X155452629Y-81106401D01*
X155452618Y-81106403D01*
X155317911Y-81156646D01*
X155317909Y-81156647D01*
X155202815Y-81242807D01*
X155202807Y-81242815D01*
X155116647Y-81357909D01*
X155116646Y-81357911D01*
X155066403Y-81492618D01*
X155066401Y-81492629D01*
X155060000Y-81552175D01*
X155060000Y-82249999D01*
X155060001Y-82250000D01*
X156084722Y-82250000D01*
X156040667Y-82326306D01*
X156010000Y-82440756D01*
X156010000Y-82559244D01*
X156040667Y-82673694D01*
X156084722Y-82750000D01*
X155060001Y-82750000D01*
X155060000Y-82750001D01*
X155060000Y-83275499D01*
X155041093Y-83333690D01*
X154991593Y-83369654D01*
X154961000Y-83374499D01*
X150480817Y-83374499D01*
X150422626Y-83355592D01*
X150386662Y-83306092D01*
X150383036Y-83260012D01*
X150410500Y-83086614D01*
X150410500Y-82913385D01*
X150383402Y-82742297D01*
X150383401Y-82742293D01*
X150329876Y-82577561D01*
X150329874Y-82577558D01*
X150329873Y-82577557D01*
X150329873Y-82577555D01*
X150251232Y-82423212D01*
X150149414Y-82283072D01*
X150026928Y-82160586D01*
X149886788Y-82058768D01*
X149886787Y-82058767D01*
X149886785Y-82058766D01*
X149732441Y-81980125D01*
X149732438Y-81980123D01*
X149567706Y-81926598D01*
X149567702Y-81926597D01*
X149396614Y-81899500D01*
X149396611Y-81899500D01*
X149223389Y-81899500D01*
X149223386Y-81899500D01*
X149052297Y-81926597D01*
X149052293Y-81926598D01*
X148887561Y-81980123D01*
X148887558Y-81980125D01*
X148733214Y-82058766D01*
X148593073Y-82160585D01*
X148470585Y-82283073D01*
X148368766Y-82423214D01*
X148290125Y-82577558D01*
X148290123Y-82577561D01*
X148236598Y-82742293D01*
X148236597Y-82742297D01*
X148209500Y-82913385D01*
X142790500Y-82913385D01*
X142763402Y-82742297D01*
X142763401Y-82742293D01*
X142709876Y-82577561D01*
X142709874Y-82577558D01*
X142709873Y-82577557D01*
X142709873Y-82577555D01*
X142631232Y-82423212D01*
X142529414Y-82283072D01*
X142406928Y-82160586D01*
X142266788Y-82058768D01*
X142266787Y-82058767D01*
X142266785Y-82058766D01*
X142112441Y-81980125D01*
X142112438Y-81980123D01*
X141947706Y-81926598D01*
X141947702Y-81926597D01*
X141776614Y-81899500D01*
X141776611Y-81899500D01*
X141603389Y-81899500D01*
X141603386Y-81899500D01*
X141432297Y-81926597D01*
X141432293Y-81926598D01*
X141267561Y-81980123D01*
X141267558Y-81980125D01*
X141113214Y-82058766D01*
X140973073Y-82160585D01*
X140850585Y-82283073D01*
X140748768Y-82423211D01*
X140699226Y-82520445D01*
X140655961Y-82563710D01*
X140611016Y-82574500D01*
X135949518Y-82574500D01*
X135837482Y-82574500D01*
X135771248Y-82592247D01*
X135729258Y-82603498D01*
X135632239Y-82659513D01*
X131025882Y-87265868D01*
X130971365Y-87293645D01*
X130910933Y-87284074D01*
X130867668Y-87240809D01*
X130858097Y-87180377D01*
X130884800Y-87011785D01*
X130884800Y-86786613D01*
X130849577Y-86564228D01*
X130849576Y-86564224D01*
X130779996Y-86350079D01*
X130753638Y-86298350D01*
X130744067Y-86237920D01*
X130771844Y-86183403D01*
X142030485Y-74924763D01*
X142086503Y-74827737D01*
X142115500Y-74719518D01*
X142115500Y-74607482D01*
X142115500Y-74078983D01*
X142134407Y-74020792D01*
X142169554Y-73990774D01*
X142266788Y-73941232D01*
X142406928Y-73839414D01*
X142529414Y-73716928D01*
X142631232Y-73576788D01*
X142709873Y-73422445D01*
X142709874Y-73422440D01*
X142709876Y-73422438D01*
X142763401Y-73257706D01*
X142763402Y-73257702D01*
X142790500Y-73086614D01*
X142790500Y-72913385D01*
X148209500Y-72913385D01*
X148209500Y-73086614D01*
X148236597Y-73257702D01*
X148236598Y-73257706D01*
X148290123Y-73422438D01*
X148290125Y-73422441D01*
X148347100Y-73534263D01*
X148368768Y-73576788D01*
X148470586Y-73716928D01*
X148593072Y-73839414D01*
X148733212Y-73941232D01*
X148887555Y-74019873D01*
X148887557Y-74019873D01*
X148887558Y-74019874D01*
X148887561Y-74019876D01*
X149052293Y-74073401D01*
X149052297Y-74073402D01*
X149223386Y-74100500D01*
X149223389Y-74100500D01*
X149396614Y-74100500D01*
X149567696Y-74073403D01*
X149567697Y-74073402D01*
X149567701Y-74073402D01*
X149671487Y-74039678D01*
X149732668Y-74039678D01*
X149772080Y-74063829D01*
X149848734Y-74140482D01*
X149848736Y-74140484D01*
X149901361Y-74170867D01*
X149930256Y-74187550D01*
X149930259Y-74187551D01*
X149930262Y-74187553D01*
X149943056Y-74194940D01*
X149945758Y-74196500D01*
X149945762Y-74196502D01*
X150053980Y-74225499D01*
X150053981Y-74225499D01*
X150053982Y-74225499D01*
X157021017Y-74225499D01*
X157021019Y-74225499D01*
X157129238Y-74196502D01*
X157129240Y-74196500D01*
X157129242Y-74196500D01*
X157158065Y-74179858D01*
X157226264Y-74140484D01*
X158223557Y-73143189D01*
X158278072Y-73115414D01*
X158324151Y-73119039D01*
X158483882Y-73170940D01*
X158483883Y-73170940D01*
X158483886Y-73170941D01*
X158670516Y-73200500D01*
X158670519Y-73200500D01*
X158859484Y-73200500D01*
X159046113Y-73170941D01*
X159046114Y-73170940D01*
X159046118Y-73170940D01*
X159225832Y-73112547D01*
X159394199Y-73026760D01*
X159547073Y-72915690D01*
X159680690Y-72782073D01*
X159791760Y-72629199D01*
X159877547Y-72460832D01*
X159935940Y-72281118D01*
X159936702Y-72276306D01*
X159965500Y-72094484D01*
X159965500Y-71905515D01*
X159935941Y-71718886D01*
X159935940Y-71718882D01*
X159877547Y-71539168D01*
X159791760Y-71370801D01*
X159680690Y-71217927D01*
X159547073Y-71084310D01*
X159394199Y-70973240D01*
X159394198Y-70973239D01*
X159394196Y-70973238D01*
X159225832Y-70887453D01*
X159046113Y-70829058D01*
X158859484Y-70799500D01*
X158859481Y-70799500D01*
X158670519Y-70799500D01*
X158670516Y-70799500D01*
X158483886Y-70829058D01*
X158304167Y-70887453D01*
X158135803Y-70973238D01*
X157982928Y-71084309D01*
X157849305Y-71217932D01*
X157804092Y-71280163D01*
X157754592Y-71316127D01*
X157693407Y-71316126D01*
X157643907Y-71280162D01*
X157625000Y-71221972D01*
X157625000Y-71052175D01*
X157618598Y-70992629D01*
X157618596Y-70992618D01*
X157568353Y-70857911D01*
X157568352Y-70857909D01*
X157482192Y-70742815D01*
X157482184Y-70742807D01*
X157367090Y-70656647D01*
X157367088Y-70656646D01*
X157232381Y-70606403D01*
X157232370Y-70606401D01*
X157172824Y-70600000D01*
X156475001Y-70600000D01*
X156475000Y-70600001D01*
X156475000Y-71624722D01*
X156398694Y-71580667D01*
X156284244Y-71550000D01*
X156165756Y-71550000D01*
X156051306Y-71580667D01*
X155975000Y-71624722D01*
X155975000Y-70600001D01*
X155974999Y-70600000D01*
X155277176Y-70600000D01*
X155217629Y-70606401D01*
X155217618Y-70606403D01*
X155082911Y-70656646D01*
X155082909Y-70656647D01*
X154967815Y-70742807D01*
X154967807Y-70742815D01*
X154881647Y-70857909D01*
X154881646Y-70857911D01*
X154831403Y-70992618D01*
X154831401Y-70992629D01*
X154825000Y-71052175D01*
X154825000Y-71749999D01*
X154825001Y-71750000D01*
X155849722Y-71750000D01*
X155805667Y-71826306D01*
X155775000Y-71940756D01*
X155775000Y-72059244D01*
X155805667Y-72173694D01*
X155849722Y-72250000D01*
X154825001Y-72250000D01*
X154825000Y-72250001D01*
X154825000Y-72947824D01*
X154824999Y-72947824D01*
X154831401Y-73007370D01*
X154831403Y-73007381D01*
X154881645Y-73142087D01*
X154937104Y-73216169D01*
X154956841Y-73274084D01*
X154938767Y-73332539D01*
X154889786Y-73369207D01*
X154857851Y-73374499D01*
X150480817Y-73374499D01*
X150422626Y-73355592D01*
X150386662Y-73306092D01*
X150383036Y-73260012D01*
X150410500Y-73086614D01*
X150410500Y-72913385D01*
X150383402Y-72742297D01*
X150383401Y-72742293D01*
X150329876Y-72577561D01*
X150329874Y-72577558D01*
X150329873Y-72577557D01*
X150329873Y-72577555D01*
X150251232Y-72423212D01*
X150149414Y-72283072D01*
X150026928Y-72160586D01*
X149886788Y-72058768D01*
X149886787Y-72058767D01*
X149886785Y-72058766D01*
X149732441Y-71980125D01*
X149732438Y-71980123D01*
X149567706Y-71926598D01*
X149567702Y-71926597D01*
X149396614Y-71899500D01*
X149396611Y-71899500D01*
X149223389Y-71899500D01*
X149223386Y-71899500D01*
X149052297Y-71926597D01*
X149052293Y-71926598D01*
X148887561Y-71980123D01*
X148887558Y-71980125D01*
X148733214Y-72058766D01*
X148593073Y-72160585D01*
X148470585Y-72283073D01*
X148368766Y-72423214D01*
X148290125Y-72577558D01*
X148290123Y-72577561D01*
X148236598Y-72742293D01*
X148236597Y-72742297D01*
X148209500Y-72913385D01*
X142790500Y-72913385D01*
X142763402Y-72742297D01*
X142763401Y-72742293D01*
X142709876Y-72577561D01*
X142709874Y-72577558D01*
X142709873Y-72577557D01*
X142709873Y-72577555D01*
X142631232Y-72423212D01*
X142529414Y-72283072D01*
X142406928Y-72160586D01*
X142266788Y-72058768D01*
X142266787Y-72058767D01*
X142266785Y-72058766D01*
X142112441Y-71980125D01*
X142112438Y-71980123D01*
X141947706Y-71926598D01*
X141947702Y-71926597D01*
X141904322Y-71919727D01*
X141849806Y-71891950D01*
X141822028Y-71837433D01*
X141831599Y-71777001D01*
X141849802Y-71751945D01*
X148634194Y-64967552D01*
X148688709Y-64939777D01*
X148749140Y-64949347D01*
X148887555Y-65019873D01*
X148887557Y-65019873D01*
X148887558Y-65019874D01*
X148887561Y-65019876D01*
X149052293Y-65073401D01*
X149052297Y-65073402D01*
X149223386Y-65100500D01*
X149223389Y-65100500D01*
X149396614Y-65100500D01*
X149567702Y-65073402D01*
X149567706Y-65073401D01*
X149732438Y-65019876D01*
X149732440Y-65019874D01*
X149732445Y-65019873D01*
X149886788Y-64941232D01*
X150026928Y-64839414D01*
X150149414Y-64716928D01*
X150251232Y-64576788D01*
X150329873Y-64422445D01*
X150329874Y-64422440D01*
X150329876Y-64422438D01*
X150383401Y-64257706D01*
X150383402Y-64257702D01*
X150410500Y-64086614D01*
X150410500Y-63913385D01*
X150383402Y-63742297D01*
X150383401Y-63742293D01*
X150329876Y-63577561D01*
X150329874Y-63577558D01*
X150329873Y-63577557D01*
X150329873Y-63577555D01*
X150251232Y-63423212D01*
X150149414Y-63283072D01*
X150026928Y-63160586D01*
X149886788Y-63058768D01*
X149886787Y-63058767D01*
X149886785Y-63058766D01*
X149732441Y-62980125D01*
X149732438Y-62980123D01*
X149567706Y-62926598D01*
X149567702Y-62926597D01*
X149396614Y-62899500D01*
X149396611Y-62899500D01*
X149223389Y-62899500D01*
X149223386Y-62899500D01*
X149052297Y-62926597D01*
X149052293Y-62926598D01*
X148887561Y-62980123D01*
X148887558Y-62980125D01*
X148733214Y-63058766D01*
X148593073Y-63160585D01*
X148470585Y-63283073D01*
X148368766Y-63423214D01*
X148290125Y-63577558D01*
X148290123Y-63577561D01*
X148236598Y-63742293D01*
X148236597Y-63742297D01*
X148209500Y-63913385D01*
X148209500Y-64086617D01*
X148215573Y-64124965D01*
X148206001Y-64185397D01*
X148187796Y-64210454D01*
X130979617Y-81418633D01*
X130925100Y-81446410D01*
X130864668Y-81436839D01*
X130821403Y-81393574D01*
X130815458Y-81379221D01*
X130808533Y-81357909D01*
X130779996Y-81270079D01*
X130677773Y-81069455D01*
X130545424Y-80887292D01*
X130386208Y-80728076D01*
X130250243Y-80629291D01*
X130214280Y-80579793D01*
X130214280Y-80518607D01*
X130250243Y-80469108D01*
X130386208Y-80370324D01*
X130545424Y-80211108D01*
X130677773Y-80028945D01*
X130779996Y-79828321D01*
X130849576Y-79614176D01*
X130884800Y-79391783D01*
X130884800Y-79166617D01*
X130884800Y-79166613D01*
X130849577Y-78944228D01*
X130849576Y-78944224D01*
X130779996Y-78730079D01*
X130677773Y-78529455D01*
X130545424Y-78347292D01*
X130386208Y-78188076D01*
X130250243Y-78089291D01*
X130214280Y-78039793D01*
X130214280Y-77978607D01*
X130250243Y-77929108D01*
X130386208Y-77830324D01*
X130545424Y-77671108D01*
X130677773Y-77488945D01*
X130779996Y-77288321D01*
X130849576Y-77074176D01*
X130849577Y-77074171D01*
X130884800Y-76851786D01*
X130884800Y-76626613D01*
X130849577Y-76404228D01*
X130849576Y-76404224D01*
X130779996Y-76190079D01*
X130677773Y-75989455D01*
X130545424Y-75807292D01*
X130386208Y-75648076D01*
X130250243Y-75549291D01*
X130214280Y-75499793D01*
X130214280Y-75438607D01*
X130250243Y-75389108D01*
X130386208Y-75290324D01*
X130545424Y-75131108D01*
X130677773Y-74948945D01*
X130779996Y-74748321D01*
X130849576Y-74534176D01*
X130858097Y-74480378D01*
X130884800Y-74311786D01*
X130884800Y-74086613D01*
X130849577Y-73864228D01*
X130849576Y-73864224D01*
X130779996Y-73650079D01*
X130677773Y-73449455D01*
X130545424Y-73267292D01*
X130386208Y-73108076D01*
X130250243Y-73009291D01*
X130214280Y-72959793D01*
X130214280Y-72898607D01*
X130250243Y-72849108D01*
X130386208Y-72750324D01*
X130545424Y-72591108D01*
X130677773Y-72408945D01*
X130779996Y-72208321D01*
X130849576Y-71994176D01*
X130851801Y-71980127D01*
X130884800Y-71771786D01*
X130884800Y-71546613D01*
X130849577Y-71324228D01*
X130846945Y-71316127D01*
X130779996Y-71110079D01*
X130677773Y-70909455D01*
X130545424Y-70727292D01*
X130386208Y-70568076D01*
X130250243Y-70469291D01*
X130214280Y-70419793D01*
X130214280Y-70358607D01*
X130250243Y-70309108D01*
X130386208Y-70210324D01*
X130545424Y-70051108D01*
X130677773Y-69868945D01*
X130779996Y-69668321D01*
X130849576Y-69454176D01*
X130850074Y-69451031D01*
X130884800Y-69231786D01*
X130884800Y-69006613D01*
X130849577Y-68784228D01*
X130847420Y-68777588D01*
X130779996Y-68570079D01*
X130677773Y-68369455D01*
X130545424Y-68187292D01*
X130386208Y-68028076D01*
X130250243Y-67929291D01*
X130214280Y-67879793D01*
X130214280Y-67818607D01*
X130250243Y-67769108D01*
X130386208Y-67670324D01*
X130545424Y-67511108D01*
X130677773Y-67328945D01*
X130779996Y-67128321D01*
X130797936Y-67073106D01*
X130833900Y-67023607D01*
X130892091Y-67004700D01*
X137574411Y-67004700D01*
X137574413Y-67004700D01*
X137682632Y-66975703D01*
X137682634Y-66975701D01*
X137682636Y-66975701D01*
X137728412Y-66949272D01*
X137779658Y-66919685D01*
X140459457Y-64239884D01*
X140513972Y-64212109D01*
X140574404Y-64221680D01*
X140617669Y-64264945D01*
X140623613Y-64279296D01*
X140670125Y-64422441D01*
X140744202Y-64567828D01*
X140748768Y-64576788D01*
X140850586Y-64716928D01*
X140973072Y-64839414D01*
X141113212Y-64941232D01*
X141267555Y-65019873D01*
X141267557Y-65019873D01*
X141267558Y-65019874D01*
X141267561Y-65019876D01*
X141432293Y-65073401D01*
X141432297Y-65073402D01*
X141603386Y-65100500D01*
X141603389Y-65100500D01*
X141776614Y-65100500D01*
X141947702Y-65073402D01*
X141947706Y-65073401D01*
X142112438Y-65019876D01*
X142112440Y-65019874D01*
X142112445Y-65019873D01*
X142266788Y-64941232D01*
X142406928Y-64839414D01*
X142529414Y-64716928D01*
X142631232Y-64576788D01*
X142680774Y-64479555D01*
X142724039Y-64436290D01*
X142768984Y-64425500D01*
X144556016Y-64425500D01*
X144556018Y-64425500D01*
X144664237Y-64396503D01*
X144664239Y-64396501D01*
X144664241Y-64396501D01*
X144708356Y-64371031D01*
X144761263Y-64340485D01*
X148647251Y-60454495D01*
X148701768Y-60426719D01*
X148717255Y-60425500D01*
X155282744Y-60425500D01*
X155340935Y-60444407D01*
X155352748Y-60454496D01*
X156329248Y-61430996D01*
X156357025Y-61485513D01*
X156347454Y-61545945D01*
X156304189Y-61589210D01*
X156259244Y-61600000D01*
X156210001Y-61600000D01*
X156210000Y-61600001D01*
X156210000Y-62624722D01*
X156133694Y-62580667D01*
X156019244Y-62550000D01*
X155900756Y-62550000D01*
X155786306Y-62580667D01*
X155710000Y-62624722D01*
X155710000Y-61600001D01*
X155709999Y-61600000D01*
X155012176Y-61600000D01*
X154952629Y-61606401D01*
X154952618Y-61606403D01*
X154817911Y-61656646D01*
X154817909Y-61656647D01*
X154702815Y-61742807D01*
X154702807Y-61742815D01*
X154616647Y-61857909D01*
X154616646Y-61857911D01*
X154566403Y-61992618D01*
X154566401Y-61992629D01*
X154560000Y-62052175D01*
X154560000Y-62749999D01*
X154560001Y-62750000D01*
X155584722Y-62750000D01*
X155540667Y-62826306D01*
X155510000Y-62940756D01*
X155510000Y-63059244D01*
X155540667Y-63173694D01*
X155584722Y-63250000D01*
X154560001Y-63250000D01*
X154560000Y-63250001D01*
X154560000Y-63947824D01*
X154559999Y-63947824D01*
X154566401Y-64007370D01*
X154566403Y-64007381D01*
X154616646Y-64142088D01*
X154616647Y-64142090D01*
X154702807Y-64257184D01*
X154702815Y-64257192D01*
X154817909Y-64343352D01*
X154817911Y-64343353D01*
X154952618Y-64393596D01*
X154952629Y-64393598D01*
X155012176Y-64400000D01*
X155709999Y-64400000D01*
X155710000Y-64399999D01*
X155710000Y-63375277D01*
X155786306Y-63419333D01*
X155900756Y-63450000D01*
X156019244Y-63450000D01*
X156133694Y-63419333D01*
X156210000Y-63375277D01*
X156210000Y-64399999D01*
X156210001Y-64400000D01*
X156907824Y-64400000D01*
X156967370Y-64393598D01*
X156967381Y-64393596D01*
X157102088Y-64343353D01*
X157102090Y-64343352D01*
X157217184Y-64257192D01*
X157217192Y-64257184D01*
X157303352Y-64142090D01*
X157303353Y-64142088D01*
X157353596Y-64007381D01*
X157353598Y-64007370D01*
X157360000Y-63947824D01*
X157360000Y-63778027D01*
X157378907Y-63719836D01*
X157428407Y-63683872D01*
X157489593Y-63683872D01*
X157539090Y-63719834D01*
X157584310Y-63782073D01*
X157717927Y-63915690D01*
X157870801Y-64026760D01*
X158039168Y-64112547D01*
X158218882Y-64170940D01*
X158218883Y-64170940D01*
X158218886Y-64170941D01*
X158405516Y-64200500D01*
X158405519Y-64200500D01*
X158594484Y-64200500D01*
X158781113Y-64170941D01*
X158781114Y-64170940D01*
X158781118Y-64170940D01*
X158960832Y-64112547D01*
X159129199Y-64026760D01*
X159282073Y-63915690D01*
X159415690Y-63782073D01*
X159526760Y-63629199D01*
X159612547Y-63460832D01*
X159670940Y-63281118D01*
X159671702Y-63276306D01*
X159700500Y-63094484D01*
X159700500Y-62905515D01*
X159670941Y-62718886D01*
X159667521Y-62708361D01*
X159612547Y-62539168D01*
X159526760Y-62370801D01*
X159415690Y-62217927D01*
X159282073Y-62084310D01*
X159129199Y-61973240D01*
X159129198Y-61973239D01*
X159129196Y-61973238D01*
X158960832Y-61887453D01*
X158781113Y-61829058D01*
X158594484Y-61799500D01*
X158594481Y-61799500D01*
X158405519Y-61799500D01*
X158405516Y-61799500D01*
X158218886Y-61829058D01*
X158059153Y-61880959D01*
X157997967Y-61880959D01*
X157958556Y-61856808D01*
X157051826Y-60950078D01*
X155761263Y-59659515D01*
X155761260Y-59659513D01*
X155664240Y-59603498D01*
X155664242Y-59603498D01*
X155622251Y-59592247D01*
X155556018Y-59574500D01*
X148556018Y-59574500D01*
X148443981Y-59574500D01*
X148405157Y-59584903D01*
X148335758Y-59603498D01*
X148238737Y-59659514D01*
X148159514Y-59738736D01*
X148159515Y-59738737D01*
X144352748Y-63545504D01*
X144298231Y-63573281D01*
X144282744Y-63574500D01*
X142768984Y-63574500D01*
X142710793Y-63555593D01*
X142680774Y-63520445D01*
X142631231Y-63423211D01*
X142628469Y-63419409D01*
X142529414Y-63283072D01*
X142406928Y-63160586D01*
X142266788Y-63058768D01*
X142266787Y-63058767D01*
X142266785Y-63058766D01*
X142112441Y-62980125D01*
X141969296Y-62933613D01*
X141919797Y-62897649D01*
X141900890Y-62839458D01*
X141919798Y-62781268D01*
X141929880Y-62769461D01*
X147744846Y-56954496D01*
X147799363Y-56926719D01*
X147814850Y-56925500D01*
X148231016Y-56925500D01*
X148289207Y-56944407D01*
X148319226Y-56979555D01*
X148368768Y-57076788D01*
X148470586Y-57216928D01*
X148593072Y-57339414D01*
X148733212Y-57441232D01*
X148887555Y-57519873D01*
X148887557Y-57519873D01*
X148887558Y-57519874D01*
X148887561Y-57519876D01*
X149052293Y-57573401D01*
X149052297Y-57573402D01*
X149223386Y-57600500D01*
X149223389Y-57600500D01*
X149396614Y-57600500D01*
X149567702Y-57573402D01*
X149567706Y-57573401D01*
X149732438Y-57519876D01*
X149732440Y-57519874D01*
X149732445Y-57519873D01*
X149886788Y-57441232D01*
X150026928Y-57339414D01*
X150149414Y-57216928D01*
X150251232Y-57076788D01*
X150329873Y-56922445D01*
X150329874Y-56922440D01*
X150329876Y-56922438D01*
X150383401Y-56757706D01*
X150383402Y-56757702D01*
X150410500Y-56586614D01*
X150410500Y-56413385D01*
X150383402Y-56242297D01*
X150383401Y-56242293D01*
X150329876Y-56077561D01*
X150329874Y-56077558D01*
X150329873Y-56077557D01*
X150329873Y-56077555D01*
X150251232Y-55923212D01*
X150149414Y-55783072D01*
X150026928Y-55660586D01*
X149886788Y-55558768D01*
X149886787Y-55558767D01*
X149886785Y-55558766D01*
X149789555Y-55509225D01*
X149746290Y-55465960D01*
X149735500Y-55421015D01*
X149735500Y-51753983D01*
X149735500Y-51753982D01*
X149706503Y-51645763D01*
X149706501Y-51645760D01*
X149706501Y-51645758D01*
X149650485Y-51548737D01*
X149571263Y-51469514D01*
X149571263Y-51469515D01*
X144319316Y-46217568D01*
X144291539Y-46163051D01*
X144301110Y-46102619D01*
X144324216Y-46072982D01*
X144335554Y-46063084D01*
X144359965Y-46052306D01*
X144439406Y-45972865D01*
X144484785Y-45870091D01*
X144487700Y-45844965D01*
X144487699Y-44897676D01*
X147167000Y-44897676D01*
X147167000Y-45102323D01*
X147199011Y-45304436D01*
X147262250Y-45499065D01*
X147355154Y-45681400D01*
X147355158Y-45681406D01*
X147387552Y-45725992D01*
X147946496Y-45167047D01*
X147958216Y-45210787D01*
X148030111Y-45335313D01*
X148131787Y-45436989D01*
X148256313Y-45508884D01*
X148300048Y-45520602D01*
X147741106Y-46079545D01*
X147741106Y-46079546D01*
X147785693Y-46111941D01*
X147785699Y-46111945D01*
X147968034Y-46204849D01*
X148162663Y-46268088D01*
X148364777Y-46300100D01*
X148569423Y-46300100D01*
X148771536Y-46268088D01*
X148966165Y-46204849D01*
X149148494Y-46111948D01*
X149148502Y-46111943D01*
X149193092Y-46079546D01*
X148634149Y-45520603D01*
X148677887Y-45508884D01*
X148802413Y-45436989D01*
X148904089Y-45335313D01*
X148975984Y-45210787D01*
X148987703Y-45167049D01*
X149546646Y-45725992D01*
X149579043Y-45681402D01*
X149579048Y-45681394D01*
X149671949Y-45499065D01*
X149735188Y-45304436D01*
X149767200Y-45102323D01*
X149767200Y-44897676D01*
X149735188Y-44695563D01*
X149671949Y-44500934D01*
X149579045Y-44318599D01*
X149579041Y-44318593D01*
X149546646Y-44274006D01*
X149546645Y-44274006D01*
X148987702Y-44832948D01*
X148975984Y-44789213D01*
X148904089Y-44664687D01*
X148802413Y-44563011D01*
X148677887Y-44491116D01*
X148634147Y-44479396D01*
X149193092Y-43920452D01*
X149148506Y-43888058D01*
X149148500Y-43888054D01*
X148966165Y-43795150D01*
X148771536Y-43731911D01*
X148569423Y-43699900D01*
X148364777Y-43699900D01*
X148162663Y-43731911D01*
X147968034Y-43795150D01*
X147785705Y-43888051D01*
X147741107Y-43920453D01*
X148300050Y-44479396D01*
X148256313Y-44491116D01*
X148131787Y-44563011D01*
X148030111Y-44664687D01*
X147958216Y-44789213D01*
X147946496Y-44832950D01*
X147387553Y-44274007D01*
X147355151Y-44318605D01*
X147262250Y-44500934D01*
X147199011Y-44695563D01*
X147167000Y-44897676D01*
X144487699Y-44897676D01*
X144487699Y-44155036D01*
X144484785Y-44129909D01*
X144439406Y-44027135D01*
X144359965Y-43947694D01*
X144257191Y-43902315D01*
X144257190Y-43902314D01*
X144257188Y-43902314D01*
X144232068Y-43899400D01*
X142542139Y-43899400D01*
X142542136Y-43899401D01*
X142517009Y-43902314D01*
X142414235Y-43947694D01*
X142334794Y-44027135D01*
X142289414Y-44129911D01*
X142286500Y-44155030D01*
X142286500Y-45844960D01*
X142286501Y-45844963D01*
X142289414Y-45870090D01*
X142314756Y-45927485D01*
X142334794Y-45972865D01*
X142414235Y-46052306D01*
X142517009Y-46097685D01*
X142542135Y-46100600D01*
X142961880Y-46100599D01*
X143020071Y-46119506D01*
X143041927Y-46143778D01*
X143042664Y-46143214D01*
X143046612Y-46148359D01*
X143046613Y-46148360D01*
X143046615Y-46148363D01*
X148855505Y-51957253D01*
X148883281Y-52011768D01*
X148884500Y-52027255D01*
X148884500Y-55421015D01*
X148865593Y-55479206D01*
X148830445Y-55509225D01*
X148733214Y-55558766D01*
X148593073Y-55660585D01*
X148470585Y-55783073D01*
X148368768Y-55923211D01*
X148319226Y-56020445D01*
X148275961Y-56063710D01*
X148231016Y-56074500D01*
X147653613Y-56074500D01*
X147541576Y-56074500D01*
X147533907Y-56076554D01*
X147505286Y-56084223D01*
X147505286Y-56084224D01*
X147433358Y-56103497D01*
X147433356Y-56103497D01*
X147433352Y-56103499D01*
X147336332Y-56159514D01*
X147257109Y-56238736D01*
X147257110Y-56238737D01*
X137371143Y-66124704D01*
X137316626Y-66152481D01*
X137301139Y-66153700D01*
X130892091Y-66153700D01*
X130833900Y-66134793D01*
X130797936Y-66085293D01*
X130779996Y-66030079D01*
X130677773Y-65829455D01*
X130545424Y-65647292D01*
X130386208Y-65488076D01*
X130250243Y-65389291D01*
X130214280Y-65339793D01*
X130214280Y-65278607D01*
X130250243Y-65229108D01*
X130386208Y-65130324D01*
X130545424Y-64971108D01*
X130677773Y-64788945D01*
X130779996Y-64588321D01*
X130849576Y-64374176D01*
X130854912Y-64340485D01*
X130884800Y-64151786D01*
X130884800Y-63926613D01*
X130849577Y-63704228D01*
X130849576Y-63704224D01*
X130779996Y-63490079D01*
X130677773Y-63289455D01*
X130545424Y-63107292D01*
X130386208Y-62948076D01*
X130250243Y-62849291D01*
X130214280Y-62799793D01*
X130214280Y-62738607D01*
X130250243Y-62689108D01*
X130386208Y-62590324D01*
X130545424Y-62431108D01*
X130677773Y-62248945D01*
X130779996Y-62048321D01*
X130849576Y-61834176D01*
X130850074Y-61831031D01*
X130884800Y-61611786D01*
X130884800Y-61386613D01*
X130849577Y-61164228D01*
X130849576Y-61164224D01*
X130779996Y-60950079D01*
X130677773Y-60749455D01*
X130545424Y-60567292D01*
X130403787Y-60425655D01*
X130376012Y-60371141D01*
X130385583Y-60310709D01*
X130415603Y-60275561D01*
X130416474Y-60274927D01*
X129636781Y-59495235D01*
X129672382Y-59485696D01*
X129801218Y-59411312D01*
X129906412Y-59306118D01*
X129980796Y-59177282D01*
X129990335Y-59141681D01*
X130770028Y-59921374D01*
X130770029Y-59921374D01*
X130848397Y-59813510D01*
X130848401Y-59813505D01*
X130964879Y-59584903D01*
X131044165Y-59340888D01*
X131084300Y-59087487D01*
X131084300Y-58830912D01*
X131044165Y-58577511D01*
X130964879Y-58333496D01*
X130848401Y-58104894D01*
X130848397Y-58104888D01*
X130770028Y-57997024D01*
X130770027Y-57997024D01*
X129990334Y-58776717D01*
X129980796Y-58741118D01*
X129906412Y-58612282D01*
X129801218Y-58507088D01*
X129672382Y-58432704D01*
X129636779Y-58423164D01*
X130416474Y-57643471D01*
X130416474Y-57643469D01*
X130415601Y-57642835D01*
X130379639Y-57593335D01*
X130379640Y-57532149D01*
X130403789Y-57492742D01*
X130545424Y-57351108D01*
X130677773Y-57168945D01*
X130779996Y-56968321D01*
X130849576Y-56754176D01*
X130884800Y-56531783D01*
X130884800Y-56306617D01*
X130884800Y-56306613D01*
X130849577Y-56084228D01*
X130849576Y-56084224D01*
X130779996Y-55870079D01*
X130677773Y-55669455D01*
X130545424Y-55487292D01*
X130386208Y-55328076D01*
X130204045Y-55195727D01*
X130204044Y-55195726D01*
X130204042Y-55195725D01*
X130003421Y-55093504D01*
X129789271Y-55023922D01*
X129566886Y-54988700D01*
X129566883Y-54988700D01*
X129341717Y-54988700D01*
X129341714Y-54988700D01*
X129119328Y-55023922D01*
X128905178Y-55093504D01*
X128704557Y-55195725D01*
X128522393Y-55328075D01*
X128363175Y-55487293D01*
X128230825Y-55669457D01*
X128128604Y-55870078D01*
X128078655Y-56023806D01*
X128042691Y-56073306D01*
X127984500Y-56092213D01*
X127926309Y-56073306D01*
X127890345Y-56023806D01*
X127885500Y-55993213D01*
X127885500Y-37099899D01*
X127904407Y-37041708D01*
X127953907Y-37005744D01*
X127984500Y-37000899D01*
X128165261Y-37000899D01*
X128165264Y-37000899D01*
X128190391Y-36997985D01*
X128293165Y-36952606D01*
X128372606Y-36873165D01*
X128417985Y-36770391D01*
X128420900Y-36745265D01*
X128420899Y-35707762D01*
X128439806Y-35649572D01*
X128489306Y-35613608D01*
X128550492Y-35613608D01*
X128589903Y-35637759D01*
X140960504Y-48008360D01*
X140988281Y-48062877D01*
X140989500Y-48078364D01*
X140989500Y-55603151D01*
X140970593Y-55661342D01*
X140960509Y-55673148D01*
X140850586Y-55783072D01*
X140850585Y-55783073D01*
X140748766Y-55923214D01*
X140670125Y-56077558D01*
X140670123Y-56077561D01*
X140616598Y-56242293D01*
X140616597Y-56242297D01*
X140589500Y-56413385D01*
X140589500Y-56586614D01*
X140616597Y-56757702D01*
X140616598Y-56757706D01*
X140670123Y-56922438D01*
X140670125Y-56922441D01*
X140670126Y-56922444D01*
X140670127Y-56922445D01*
X140748768Y-57076788D01*
X140850586Y-57216928D01*
X140973072Y-57339414D01*
X141113212Y-57441232D01*
X141267555Y-57519873D01*
X141267557Y-57519873D01*
X141267558Y-57519874D01*
X141267561Y-57519876D01*
X141432293Y-57573401D01*
X141432297Y-57573402D01*
X141603386Y-57600500D01*
X141603389Y-57600500D01*
X141776614Y-57600500D01*
X141947702Y-57573402D01*
X141947706Y-57573401D01*
X142112438Y-57519876D01*
X142112440Y-57519874D01*
X142112445Y-57519873D01*
X142266788Y-57441232D01*
X142406928Y-57339414D01*
X142529414Y-57216928D01*
X142631232Y-57076788D01*
X142709873Y-56922445D01*
X142709874Y-56922440D01*
X142709876Y-56922438D01*
X142763401Y-56757706D01*
X142763402Y-56757702D01*
X142790500Y-56586614D01*
X142790500Y-56413385D01*
X142763402Y-56242297D01*
X142763401Y-56242293D01*
X142709876Y-56077561D01*
X142709874Y-56077558D01*
X142709873Y-56077557D01*
X142709873Y-56077555D01*
X142631232Y-55923212D01*
X142529414Y-55783072D01*
X142419494Y-55673152D01*
X142391719Y-55618638D01*
X142390500Y-55603151D01*
X142390500Y-47678208D01*
X142390499Y-47678204D01*
X142385810Y-47654631D01*
X142363580Y-47542872D01*
X142310775Y-47415389D01*
X142310774Y-47415387D01*
X142310771Y-47415382D01*
X142234114Y-47300658D01*
X138633356Y-43699900D01*
X129741930Y-34808473D01*
X129714154Y-34753958D01*
X129723725Y-34693526D01*
X129741932Y-34668466D01*
X129750000Y-34660398D01*
X129750000Y-33824737D01*
X129750464Y-33825201D01*
X129843135Y-33878705D01*
X129946496Y-33906400D01*
X130053504Y-33906400D01*
X130156865Y-33878705D01*
X130249536Y-33825201D01*
X130250000Y-33824737D01*
X130250000Y-34660399D01*
X130250001Y-34660400D01*
X130708224Y-34660400D01*
X130767770Y-34653998D01*
X130767781Y-34653996D01*
X130902488Y-34603753D01*
X130902490Y-34603752D01*
X131017584Y-34517592D01*
X131017592Y-34517584D01*
X131103752Y-34402490D01*
X131103753Y-34402488D01*
X131153996Y-34267781D01*
X131153998Y-34267770D01*
X131160400Y-34208224D01*
X131160400Y-33750001D01*
X131160399Y-33750000D01*
X130324737Y-33750000D01*
X130325201Y-33749536D01*
X130378705Y-33656865D01*
X130406400Y-33553504D01*
X130406400Y-33446496D01*
X130378705Y-33343135D01*
X130325201Y-33250464D01*
X130324737Y-33250000D01*
X131160399Y-33250000D01*
X131160400Y-33249999D01*
X131160400Y-32791775D01*
X131153998Y-32732229D01*
X131153996Y-32732218D01*
X131103753Y-32597511D01*
X131103752Y-32597509D01*
X131017592Y-32482415D01*
X131017584Y-32482407D01*
X130902490Y-32396247D01*
X130902488Y-32396246D01*
X130767781Y-32346003D01*
X130767770Y-32346001D01*
X130708224Y-32339600D01*
X130250001Y-32339600D01*
X130250000Y-32339601D01*
X130250000Y-33175263D01*
X130249536Y-33174799D01*
X130156865Y-33121295D01*
X130053504Y-33093600D01*
X129946496Y-33093600D01*
X129843135Y-33121295D01*
X129750464Y-33174799D01*
X129750000Y-33175263D01*
X129750000Y-32339601D01*
X129749999Y-32339600D01*
X129291776Y-32339600D01*
X129232229Y-32346001D01*
X129232218Y-32346003D01*
X129097511Y-32396246D01*
X129097509Y-32396247D01*
X128982415Y-32482407D01*
X128982407Y-32482415D01*
X128896247Y-32597509D01*
X128896246Y-32597511D01*
X128846003Y-32732218D01*
X128846001Y-32732229D01*
X128839600Y-32791775D01*
X128839600Y-33249999D01*
X128839601Y-33250000D01*
X129675263Y-33250000D01*
X129674799Y-33250464D01*
X129621295Y-33343135D01*
X129593600Y-33446496D01*
X129593600Y-33553504D01*
X129621295Y-33656865D01*
X129674799Y-33749536D01*
X129675263Y-33750000D01*
X128839600Y-33750000D01*
X128831531Y-33758069D01*
X128777014Y-33785845D01*
X128716582Y-33776273D01*
X128691527Y-33758070D01*
X127889343Y-32955886D01*
X127774611Y-32879225D01*
X127647128Y-32826420D01*
X127511796Y-32799500D01*
X127511794Y-32799500D01*
X127511793Y-32799500D01*
X125619425Y-32799500D01*
X125561234Y-32780593D01*
X125549421Y-32770504D01*
X125532541Y-32753624D01*
X125532538Y-32753621D01*
X125394164Y-32661162D01*
X125375156Y-32648461D01*
X125200282Y-32576026D01*
X125014642Y-32539100D01*
X125014640Y-32539100D01*
X124990765Y-32539100D01*
X124932574Y-32520193D01*
X124920761Y-32510104D01*
X124750257Y-32339600D01*
X121366543Y-28955886D01*
X121251811Y-28879225D01*
X121251810Y-28879224D01*
X121251808Y-28879223D01*
X121124328Y-28826420D01*
X120988996Y-28799500D01*
X120988994Y-28799500D01*
X120988993Y-28799500D01*
X102113194Y-28799500D01*
X101975206Y-28799500D01*
X101975203Y-28799500D01*
X101839872Y-28826420D01*
X101839870Y-28826420D01*
X101712391Y-28879223D01*
X101597660Y-28955883D01*
X98030739Y-32522804D01*
X97976222Y-32550581D01*
X97960735Y-32551800D01*
X97936857Y-32551800D01*
X97751217Y-32588726D01*
X97576343Y-32661161D01*
X97418962Y-32766321D01*
X97418958Y-32766324D01*
X97285124Y-32900158D01*
X97285121Y-32900162D01*
X97179961Y-33057543D01*
X97107526Y-33232417D01*
X97070600Y-33418057D01*
X97070600Y-33607342D01*
X97107526Y-33792982D01*
X97179961Y-33967856D01*
X97179962Y-33967857D01*
X97285121Y-34125238D01*
X97285124Y-34125241D01*
X97302004Y-34142121D01*
X97329781Y-34196638D01*
X97331000Y-34212125D01*
X97331000Y-34937334D01*
X97312093Y-34995525D01*
X97302004Y-35007338D01*
X70336035Y-61973306D01*
X70281518Y-62001083D01*
X70250545Y-62001083D01*
X70240549Y-61999500D01*
X70240546Y-61999500D01*
X70059454Y-61999500D01*
X70059451Y-61999500D01*
X69880593Y-62027828D01*
X69708362Y-62083788D01*
X69547008Y-62166002D01*
X69475540Y-62217927D01*
X69400499Y-62272447D01*
X69272447Y-62400499D01*
X69250207Y-62431110D01*
X69166002Y-62547008D01*
X69083788Y-62708362D01*
X69027828Y-62880593D01*
X68999500Y-63059450D01*
X54500500Y-63059450D01*
X54500500Y-23378710D01*
X61649500Y-23378710D01*
X61649500Y-23621289D01*
X61681161Y-23861781D01*
X61681161Y-23861786D01*
X61743944Y-24096092D01*
X61743948Y-24096105D01*
X61836772Y-24320204D01*
X61836774Y-24320208D01*
X61836776Y-24320212D01*
X61958064Y-24530289D01*
X61958066Y-24530292D01*
X62105729Y-24722731D01*
X62105731Y-24722733D01*
X62105735Y-24722738D01*
X62277262Y-24894265D01*
X62277266Y-24894268D01*
X62277268Y-24894270D01*
X62454532Y-25030289D01*
X62469711Y-25041936D01*
X62679788Y-25163224D01*
X62903900Y-25256054D01*
X63138211Y-25318838D01*
X63378712Y-25350500D01*
X63378713Y-25350500D01*
X63621287Y-25350500D01*
X63621288Y-25350500D01*
X63861789Y-25318838D01*
X64096100Y-25256054D01*
X64320212Y-25163224D01*
X64530289Y-25041936D01*
X64722738Y-24894265D01*
X64894265Y-24722738D01*
X65041936Y-24530289D01*
X65163224Y-24320212D01*
X65256054Y-24096100D01*
X65314304Y-23878710D01*
X164649500Y-23878710D01*
X164649500Y-24121289D01*
X164681161Y-24361781D01*
X164681161Y-24361786D01*
X164743944Y-24596092D01*
X164743948Y-24596105D01*
X164836772Y-24820204D01*
X164836774Y-24820208D01*
X164836776Y-24820212D01*
X164958064Y-25030289D01*
X164958066Y-25030292D01*
X165105729Y-25222731D01*
X165105731Y-25222733D01*
X165105735Y-25222738D01*
X165277262Y-25394265D01*
X165277266Y-25394268D01*
X165277268Y-25394270D01*
X165469707Y-25541933D01*
X165469711Y-25541936D01*
X165679788Y-25663224D01*
X165903900Y-25756054D01*
X166138211Y-25818838D01*
X166378712Y-25850500D01*
X166378713Y-25850500D01*
X166621287Y-25850500D01*
X166621288Y-25850500D01*
X166861789Y-25818838D01*
X167096100Y-25756054D01*
X167320212Y-25663224D01*
X167530289Y-25541936D01*
X167722738Y-25394265D01*
X167894265Y-25222738D01*
X168041936Y-25030289D01*
X168163224Y-24820212D01*
X168256054Y-24596100D01*
X168318838Y-24361789D01*
X168350500Y-24121288D01*
X168350500Y-23878712D01*
X168318838Y-23638211D01*
X168256054Y-23403900D01*
X168163224Y-23179788D01*
X168041936Y-22969711D01*
X167894265Y-22777262D01*
X167722738Y-22605735D01*
X167722733Y-22605731D01*
X167722731Y-22605729D01*
X167530292Y-22458066D01*
X167530289Y-22458064D01*
X167320212Y-22336776D01*
X167320208Y-22336774D01*
X167320204Y-22336772D01*
X167096105Y-22243948D01*
X167096104Y-22243947D01*
X167096100Y-22243946D01*
X166861789Y-22181162D01*
X166861786Y-22181161D01*
X166861784Y-22181161D01*
X166621289Y-22149500D01*
X166621288Y-22149500D01*
X166378712Y-22149500D01*
X166378710Y-22149500D01*
X166138218Y-22181161D01*
X166138213Y-22181161D01*
X165903907Y-22243944D01*
X165903894Y-22243948D01*
X165679795Y-22336772D01*
X165469707Y-22458066D01*
X165277268Y-22605729D01*
X165105729Y-22777268D01*
X164958066Y-22969707D01*
X164836772Y-23179795D01*
X164743948Y-23403894D01*
X164743944Y-23403907D01*
X164681161Y-23638213D01*
X164681161Y-23638218D01*
X164649500Y-23878710D01*
X65314304Y-23878710D01*
X65318838Y-23861789D01*
X65350500Y-23621288D01*
X65350500Y-23378712D01*
X65318838Y-23138211D01*
X65256054Y-22903900D01*
X65163224Y-22679788D01*
X65041936Y-22469711D01*
X65041933Y-22469707D01*
X64894270Y-22277268D01*
X64894268Y-22277266D01*
X64894265Y-22277262D01*
X64722738Y-22105735D01*
X64722733Y-22105731D01*
X64722731Y-22105729D01*
X64530292Y-21958066D01*
X64530289Y-21958064D01*
X64320212Y-21836776D01*
X64320208Y-21836774D01*
X64320204Y-21836772D01*
X64096105Y-21743948D01*
X64096104Y-21743947D01*
X64096100Y-21743946D01*
X63861789Y-21681162D01*
X63861786Y-21681161D01*
X63861784Y-21681161D01*
X63621289Y-21649500D01*
X63621288Y-21649500D01*
X63378712Y-21649500D01*
X63378710Y-21649500D01*
X63138218Y-21681161D01*
X63138213Y-21681161D01*
X62903907Y-21743944D01*
X62903894Y-21743948D01*
X62679795Y-21836772D01*
X62469707Y-21958066D01*
X62277268Y-22105729D01*
X62105729Y-22277268D01*
X61958066Y-22469707D01*
X61836772Y-22679795D01*
X61743948Y-22903894D01*
X61743944Y-22903907D01*
X61681161Y-23138213D01*
X61681161Y-23138218D01*
X61649500Y-23378710D01*
X54500500Y-23378710D01*
X54500500Y-19099500D01*
X54519407Y-19041309D01*
X54568907Y-19005345D01*
X54599500Y-19000500D01*
X175400500Y-19000500D01*
X175458691Y-19019407D01*
G37*
%TD.AperFunction*%
%TD*%
M02*
